<svg width="164" height="46" viewBox="0 0 164 46" fill="none" xmlns="http://www.w3.org/2000/svg">
<g clip-path="url(#clip0_2265_1076)">
<path d="M48.8388 22.4229L46.048 21.2688C45.8018 20.7742 45.5556 20.2796 45.3093 19.7849C44.6527 18.6308 43.8318 17.5591 42.9289 16.4875C42.026 15.4982 41.041 14.6738 39.8919 13.8495C37.8398 12.3656 35.4595 11.2115 32.8328 10.4695C30.6987 9.81004 28.4004 9.48029 26.1021 9.39785L25.9379 6.51254C27.4154 6.1828 28.5646 4.8638 28.5646 3.29749C28.5646 1.48387 27.0871 0 25.2813 0C23.4755 0 21.998 1.48387 21.998 3.29749C21.998 4.8638 23.1471 6.1828 24.6246 6.51254L24.4605 9.39785C22.1622 9.48029 19.8639 9.81004 17.6476 10.4695C15.1031 11.2115 12.7227 12.3656 10.5886 13.8495C9.43944 14.6738 8.45445 15.5806 7.55155 16.4875C6.56657 17.5591 5.74575 18.6308 5.08909 19.7849C4.84284 20.2796 4.5966 20.7742 4.35035 21.2688L1.55956 22.4229C0.574575 22.8351 0 23.7419 0 24.7312V30.5842C0 31.5735 0.574575 32.4803 1.47748 32.8925L4.26827 34.0466C4.51451 34.5412 4.76076 35.0358 5.00701 35.5305C5.66366 36.6021 6.4024 37.7563 7.38739 38.828C8.29029 39.7348 9.27528 40.6416 10.4244 41.4659C12.4765 42.9498 14.8569 44.1039 17.4835 44.8459C18.6326 45.1756 19.9459 45.5054 21.2593 45.6703C22.5726 45.8351 23.8859 45.9176 25.1171 45.9176C26.4304 45.9176 27.7437 45.8351 28.975 45.6703C30.2883 45.5054 31.5195 45.1756 32.7508 44.8459C35.3774 44.1039 37.7578 42.9498 39.8098 41.4659C40.959 40.6416 41.9439 39.7348 42.8468 38.828C43.8318 37.7563 44.5706 36.6846 45.2272 35.5305C45.4735 35.0358 45.7197 34.5412 45.966 34.0466L48.7568 32.8925C49.6597 32.4803 50.2342 31.5735 50.2342 30.5842V24.7312C50.3984 23.7419 49.8238 22.8351 48.8388 22.4229ZM44.0781 34.871C43.5035 35.8602 42.7648 36.9319 41.8619 37.9211C41.041 38.828 40.1381 39.6523 39.0711 40.3943C37.1011 41.7957 34.8849 42.8674 32.4224 43.6093C31.2733 43.9391 30.042 44.1864 28.8108 44.3513C26.4304 44.681 23.8859 44.681 21.4234 44.3513C20.1101 44.1864 18.961 43.9391 17.8118 43.6093C15.3494 42.8674 13.1331 41.7957 11.1632 40.3943C10.0961 39.6523 9.19319 38.828 8.37237 37.9211C7.46947 36.9319 6.73073 35.9427 6.15616 34.871C5.4995 33.7168 5.00701 32.5627 4.76076 31.4086C4.43243 30.172 4.26827 28.9355 4.26827 27.6989C4.26827 26.3799 4.43243 25.1434 4.76076 23.9892C5.08909 22.8351 5.58158 21.5986 6.15616 20.5269C6.73073 19.4552 7.46947 18.4659 8.37237 17.5591C9.19319 16.6523 10.0961 15.828 11.1632 15.086C13.1331 13.6846 15.3494 12.6129 17.8118 11.871C20.1101 11.2115 22.5726 10.7993 25.1171 10.7993C27.6617 10.7993 30.042 11.129 32.4224 11.871C34.8849 12.6129 37.1011 13.6846 39.0711 15.086C40.1381 15.828 41.041 16.6523 41.8619 17.5591C42.7648 18.4659 43.5035 19.5376 44.0781 20.6093C44.7347 21.681 45.2272 22.8351 45.5556 24.0717C45.8839 25.3082 46.048 26.5448 46.048 27.7814C46.048 29.0179 45.8839 30.2545 45.5556 31.491C45.2272 32.5627 44.7347 33.7993 44.0781 34.871Z" fill="url(#paint0_linear_2265_1076)"/>
<path d="M25.1998 18.0537C15.5141 18.0537 8.53711 18.0537 8.53711 29.4301C8.53711 35.6953 16.0066 40.8064 25.1998 40.8064C34.393 40.8064 41.8624 35.6953 41.8624 29.4301C41.8624 18.0537 34.8855 18.0537 25.1998 18.0537ZM17.8945 34.2114C16.417 34.2114 15.1858 32.068 15.1858 29.4301C15.1858 26.7921 16.417 24.6487 17.8945 24.6487C19.3719 24.6487 20.5211 26.7921 20.5211 29.4301C20.5211 32.068 19.3719 34.2114 17.8945 34.2114ZM32.5051 34.2114C31.0276 34.2114 29.8785 32.068 29.8785 29.4301C29.8785 26.7921 31.1097 24.6487 32.5051 24.6487C33.9826 24.6487 35.1317 26.7921 35.1317 29.4301C35.1317 32.068 33.9826 34.2114 32.5051 34.2114Z" fill="url(#paint1_linear_2265_1076)"/>
<path d="M70.7544 24.1542C70.344 23.4123 69.7694 22.8352 69.0307 22.4231C68.2919 22.0109 67.4711 21.846 66.4861 21.846C65.419 21.846 64.5161 22.0933 63.6953 22.5879C62.8745 23.0826 62.2178 23.7421 61.7253 24.6489C61.2329 25.5557 61.0687 26.5449 61.0687 27.7815C61.0687 29.018 61.3149 30.0073 61.8074 30.9141C62.2999 31.8209 62.9566 32.4804 63.7774 32.975C64.5982 33.4696 65.5832 33.717 66.7324 33.717C68.1278 33.717 69.1948 33.3872 70.0977 32.6453C71.0006 31.9033 71.5752 30.9141 71.8214 29.5951H65.6653V26.7922H75.351V29.9248C75.1047 31.1614 74.6122 32.3155 73.7914 33.3872C72.9706 34.4589 71.9856 35.2833 70.7544 35.9428C69.5231 36.6023 68.1278 36.932 66.5682 36.932C64.8445 36.932 63.2849 36.5198 61.8895 35.7779C60.4941 35.036 59.4271 33.8818 58.6062 32.4804C57.7854 31.079 57.375 29.5127 57.375 27.699C57.375 25.8854 57.7854 24.3191 58.6062 22.9177C59.4271 21.5162 60.4941 20.4446 61.8895 19.6202C63.2849 18.7958 64.8445 18.4661 66.5682 18.4661C68.6202 18.4661 70.344 18.9607 71.8214 19.9499C73.2989 20.9392 74.366 22.3406 74.9406 24.1542H70.7544Z" fill="url(#paint2_linear_2265_1076)"/>
<path d="M81.6722 21.5986V26.1327H87.7462V29.018H81.6722V33.7993H88.485V36.7671H78.0605V18.6309H88.485V21.5986H81.6722Z" fill="url(#paint3_linear_2265_1076)"/>
<path d="M107.117 36.7671H103.505L95.3792 24.4015V36.7671H91.7676V18.6309H95.3792L103.505 30.9964V18.6309H107.117V36.7671Z" fill="url(#paint4_linear_2265_1076)"/>
<path d="M114.258 18.7134V36.7671H110.646V18.7134H114.258Z" fill="url(#paint5_linear_2265_1076)"/>
<path d="M121.317 18.7134V29.8424C121.317 31.079 121.645 31.9858 122.302 32.6453C122.958 33.3048 123.861 33.6345 125.01 33.6345C126.159 33.6345 127.062 33.3048 127.719 32.6453C128.376 31.9858 128.704 31.079 128.704 29.8424V18.7134H132.316V29.8424C132.316 31.4087 131.987 32.6453 131.331 33.717C130.674 34.7886 129.771 35.613 128.704 36.1076C127.637 36.6023 126.406 36.932 125.01 36.932C123.697 36.932 122.466 36.6847 121.399 36.1076C120.332 35.613 119.429 34.7886 118.854 33.717C118.197 32.6453 117.869 31.3263 117.869 29.8424V18.7134H121.317Z" fill="url(#paint6_linear_2265_1076)"/>
<path d="M138.555 36.2725C137.57 35.8603 136.749 35.2008 136.174 34.3765C135.6 33.5521 135.271 32.6453 135.271 31.4912H139.129C139.211 32.2331 139.458 32.8102 139.95 33.2223C140.443 33.6345 141.099 33.8818 141.92 33.8818C142.741 33.8818 143.398 33.717 143.89 33.3048C144.383 32.8926 144.629 32.398 144.629 31.7385C144.629 31.2438 144.465 30.7492 144.136 30.4195C143.808 30.0897 143.398 29.8424 142.905 29.5951C142.413 29.4302 141.756 29.1829 140.853 28.9356C139.704 28.6058 138.719 28.2761 137.98 27.9464C137.241 27.6166 136.585 27.122 136.092 26.4625C135.6 25.803 135.271 24.8962 135.271 23.742C135.271 22.6704 135.518 21.7636 136.092 20.9392C136.585 20.1148 137.406 19.5377 138.309 19.1256C139.294 18.7134 140.361 18.4661 141.592 18.4661C143.48 18.4661 144.957 18.8783 146.106 19.7851C147.255 20.6919 147.912 21.9284 147.994 23.5772H144.054C144.054 22.9177 143.726 22.4231 143.233 22.0109C142.741 21.5987 142.084 21.4338 141.263 21.4338C140.525 21.4338 140.032 21.5987 139.54 22.0109C139.129 22.3406 138.883 22.9177 138.883 23.5772C138.883 24.0718 139.047 24.484 139.376 24.8137C139.704 25.1435 140.114 25.3908 140.525 25.5557C141.017 25.7205 141.674 25.9679 142.495 26.2152C143.644 26.5449 144.629 26.8747 145.368 27.2869C146.106 27.6166 146.763 28.1112 147.255 28.8532C147.748 29.5127 148.076 30.4195 148.076 31.5736C148.076 32.5628 147.83 33.4696 147.338 34.294C146.845 35.1184 146.106 35.7779 145.121 36.2725C144.136 36.7671 142.987 37.0145 141.674 37.0145C140.689 36.932 139.54 36.6847 138.555 36.2725Z" fill="url(#paint7_linear_2265_1076)"/>
<path d="M150.127 27.5341C149.963 27.3692 149.881 27.1219 149.881 26.8746C149.881 26.6273 149.963 26.38 150.127 26.2151C150.291 26.0502 150.538 25.9678 150.784 25.9678C151.03 25.9678 151.276 26.0502 151.44 26.2151C151.605 26.38 151.687 26.6273 151.687 26.8746C151.687 27.1219 151.605 27.3692 151.44 27.5341C151.276 27.699 151.03 27.7814 150.784 27.7814C150.538 27.7814 150.373 27.699 150.127 27.5341Z" fill="url(#paint8_linear_2265_1076)"/>
<path d="M158.992 25.8854H155.298L154.642 27.699H153.082L156.283 18.7134H158.007L161.208 27.699H159.649L158.992 25.8854ZM158.582 24.6489L157.104 20.527L155.627 24.6489H158.582Z" fill="url(#paint9_linear_2265_1076)"/>
<path d="M163.999 18.7959V27.7816H162.521V18.7959H163.999Z" fill="url(#paint10_linear_2265_1076)"/>
</g>
<defs>
<linearGradient id="paint0_linear_2265_1076" x1="42.2948" y1="4.57717" x2="15.9896" y2="39.7812" gradientUnits="userSpaceOnUse">
<stop stop-color="#AC38FA"/>
<stop offset="1" stop-color="#7330ED"/>
</linearGradient>
<linearGradient id="paint1_linear_2265_1076" x1="42.566" y1="4.77933" x2="16.2609" y2="39.9835" gradientUnits="userSpaceOnUse">
<stop stop-color="#AC38FA"/>
<stop offset="1" stop-color="#7330ED"/>
</linearGradient>
<linearGradient id="paint2_linear_2265_1076" x1="66.3858" y1="2.91073" x2="66.3858" y2="34.4877" gradientUnits="userSpaceOnUse">
<stop stop-color="#AC38FA"/>
<stop offset="1" stop-color="#7330ED"/>
</linearGradient>
<linearGradient id="paint3_linear_2265_1076" x1="83.2472" y1="2.91065" x2="83.2472" y2="34.4876" gradientUnits="userSpaceOnUse">
<stop stop-color="#AC38FA"/>
<stop offset="1" stop-color="#7330ED"/>
</linearGradient>
<linearGradient id="paint4_linear_2265_1076" x1="99.4002" y1="2.91065" x2="99.4002" y2="34.4876" gradientUnits="userSpaceOnUse">
<stop stop-color="#AC38FA"/>
<stop offset="1" stop-color="#7330ED"/>
</linearGradient>
<linearGradient id="paint5_linear_2265_1076" x1="112.428" y1="2.91073" x2="112.428" y2="34.4877" gradientUnits="userSpaceOnUse">
<stop stop-color="#AC38FA"/>
<stop offset="1" stop-color="#7330ED"/>
</linearGradient>
<linearGradient id="paint6_linear_2265_1076" x1="124.98" y1="2.91073" x2="124.98" y2="34.4877" gradientUnits="userSpaceOnUse">
<stop stop-color="#AC38FA"/>
<stop offset="1" stop-color="#7330ED"/>
</linearGradient>
<linearGradient id="paint7_linear_2265_1076" x1="141.752" y1="2.91072" x2="141.752" y2="34.4877" gradientUnits="userSpaceOnUse">
<stop stop-color="#AC38FA"/>
<stop offset="1" stop-color="#7330ED"/>
</linearGradient>
<linearGradient id="paint8_linear_2265_1076" x1="150.815" y1="2.91064" x2="150.815" y2="34.4876" gradientUnits="userSpaceOnUse">
<stop stop-color="#AC38FA"/>
<stop offset="1" stop-color="#7330ED"/>
</linearGradient>
<linearGradient id="paint9_linear_2265_1076" x1="157.091" y1="2.91073" x2="157.091" y2="34.4877" gradientUnits="userSpaceOnUse">
<stop stop-color="#AC38FA"/>
<stop offset="1" stop-color="#7330ED"/>
</linearGradient>
<linearGradient id="paint10_linear_2265_1076" x1="163.247" y1="2.91081" x2="163.247" y2="34.4878" gradientUnits="userSpaceOnUse">
<stop stop-color="#AC38FA"/>
<stop offset="1" stop-color="#7330ED"/>
</linearGradient>
<clipPath id="clip0_2265_1076">
<rect width="164" height="46" fill="white"/>
</clipPath>
</defs>
</svg>
