<svg width="782" height="865" viewBox="0 0 782 865" fill="none" xmlns="http://www.w3.org/2000/svg">
<g filter="url(#filter0_f_1_8)">
<path d="M364.46 165.525L252.975 195.398L388.199 705L596.176 649.273C559.298 611.131 505.437 498.321 494.377 457.043C483.316 415.765 488.351 248.983 478.577 210.386C468.802 171.788 420.203 150.589 364.46 165.525Z" fill="#8A2BE2" fill-opacity="0.3"/>
</g>
<g opacity="0.2" filter="url(#filter1_f_1_8)">
<path d="M643 391.237V550.676L160 552.442V255.007C202.495 290.578 315.089 322.113 354.237 322.113C393.386 322.113 539.775 255.764 576.247 255.007C612.719 254.25 643 311.517 643 391.237Z" fill="#086EFC"/>
</g>
<defs>
<filter id="filter0_f_1_8" x="92.975" y="0.714478" width="663.201" height="864.286" filterUnits="userSpaceOnUse" color-interpolation-filters="sRGB">
<feFlood flood-opacity="0" result="BackgroundImageFix"/>
<feBlend mode="normal" in="SourceGraphic" in2="BackgroundImageFix" result="shape"/>
<feGaussianBlur stdDeviation="80" result="effect1_foregroundBlur_1_8"/>
</filter>
<filter id="filter1_f_1_8" x="0" y="95" width="803" height="617.442" filterUnits="userSpaceOnUse" color-interpolation-filters="sRGB">
<feFlood flood-opacity="0" result="BackgroundImageFix"/>
<feBlend mode="normal" in="SourceGraphic" in2="BackgroundImageFix" result="shape"/>
<feGaussianBlur stdDeviation="80" result="effect1_foregroundBlur_1_8"/>
</filter>
</defs>
</svg>
