<svg width="802" height="865" viewBox="0 0 802 865" fill="none" xmlns="http://www.w3.org/2000/svg">
<g filter="url(#filter0_f_890_19040)">
<path d="M384.46 165.525L272.975 195.398L408.199 705L616.176 649.273C579.298 611.131 525.437 498.321 514.377 457.043C503.316 415.765 508.351 248.983 498.577 210.386C488.802 171.788 440.203 150.589 384.46 165.525Z" fill="#8A2BE2" fill-opacity="0.3"/>
</g>
<g opacity="0.2" filter="url(#filter1_f_890_19040)">
<path d="M728.327 390.466V549.905L160 551.671V254.236C210.002 289.807 342.487 321.342 388.551 321.342C434.616 321.342 606.866 254.993 649.781 254.236C692.696 253.479 728.327 310.746 728.327 390.466Z" fill="#086EFC"/>
</g>
<defs>
<filter id="filter0_f_890_19040" x="112.975" y="0.714844" width="663.201" height="864.285" filterUnits="userSpaceOnUse" color-interpolation-filters="sRGB">
<feFlood flood-opacity="0" result="BackgroundImageFix"/>
<feBlend mode="normal" in="SourceGraphic" in2="BackgroundImageFix" result="shape"/>
<feGaussianBlur stdDeviation="80" result="effect1_foregroundBlur_890_19040"/>
</filter>
<filter id="filter1_f_890_19040" x="0.000244141" y="94.2285" width="888.327" height="617.442" filterUnits="userSpaceOnUse" color-interpolation-filters="sRGB">
<feFlood flood-opacity="0" result="BackgroundImageFix"/>
<feBlend mode="normal" in="SourceGraphic" in2="BackgroundImageFix" result="shape"/>
<feGaussianBlur stdDeviation="80" result="effect1_foregroundBlur_890_19040"/>
</filter>
</defs>
</svg>
