<?xml version="1.0" encoding="utf-8"?>
<!-- Generator: Adobe Illustrator 19.0.0, SVG Export Plug-In . SVG Version: 6.00 Build 0)  -->
<svg version="1.1" id="Layer_1" xmlns="http://www.w3.org/2000/svg" xmlns:xlink="http://www.w3.org/1999/xlink" x="0px" y="0px"
	 viewBox="-306 256 50 50" style="enable-background:new -306 256 50 50;" xml:space="preserve">
<style type="text/css">
	.st0{fill:#FFFFFF;}
</style>
<g>
	<path class="st0" d="M-279.9,264.2c2.6,1.3,5,3,6.6,5.4c0.8,1.2,1.5,2.5,2.3,3.7c1.4,2.4,2.8,4.8,4.2,7.3c1.5,2.5,2.9,5,4.4,7.6
		c0.7,1.3,1.5,2.5,2.2,3.8c0.3,0.5,0.2,1-0.4,1.3c-4.7,2.7-9.4,5.4-14.1,8.1c-2,1.2-4,2.3-6,3.5c-0.4,0.2-0.7,0.2-1.1,0
		c-3.9-2.3-7.8-4.5-11.8-6.8c-1-0.6-1.9-1.1-2.9-1.7c-0.1,0-0.1-0.1-0.2-0.1c0.8,0,1.6,0,2.4,0c1.2,0,2.5,0.2,3.7,0.5
		c1.6,0.4,3.1,1.1,4.5,1.9c1.6,0.9,3.1,1.8,4.7,2.7c0.1,0.1,0.2,0.1,0.3,0c2.7-1.6,5.4-3.1,8.1-4.7c2.8-1.6,5.6-3.2,8.4-4.9
		c0.2-0.1,0.3-0.2,0.5-0.3C-269.4,282.5-274.6,273.4-279.9,264.2z"/>
	<path class="st0" d="M-296.5,288.2C-296.5,288.2-296.5,288.1-296.5,288.2c0-1.2,0-2.4,0.1-3.5c0.2-2.3,0.9-4.5,2.1-6.6
		c2.1-3.6,4.1-7.2,6.2-10.7c1.9-3.3,3.8-6.6,5.8-10c0.3-0.5,0.8-0.6,1.3-0.3c3.3,1.9,6.6,3.8,9.9,5.7c3.3,1.9,6.5,3.8,9.8,5.7
		c0.4,0.2,0.7,0.4,0.8,0.9c0,0.2,0.1,0.3,0.1,0.5c0,5.6,0,11.2,0,16.9v0.1l-0.1-0.1c-0.8-1.3-1.6-2.7-2.1-4.2c-0.6-1.7-1-3.5-1-5.3
		c0-2.1,0-4.1,0-6.2c0-0.2,0-0.3-0.2-0.3c-2.7-1.6-5.5-3.2-8.2-4.7c-2.9-1.7-5.8-3.3-8.7-5c0,0-0.1,0-0.1-0.1
		C-285.9,270-291.2,279.1-296.5,288.2C-296.4,288.2-296.5,288.2-296.5,288.2z"/>
	<path class="st0" d="M-286.7,260.1c-1.1,2.1-2.4,4-4.1,5.6c-1.2,1.1-2.6,2-4,2.8c-1.3,0.8-2.7,1.5-4,2.3c-0.1,0.1-0.1,0.2-0.1,0.3
		c0,4.6,0,9.1,0,13.7c0,1.9,0,3.7,0,5.6c0,0.1,0,0.2,0,0.3c10.5,0,21,0,31.5,0c0,0,0,0,0,0.1c-0.2,0.1-0.4,0.2-0.6,0.4
		c-1.2,0.7-2.3,1.3-3.6,1.8c-1.7,0.6-3.5,1-5.3,1c-6.9,0-13.8,0-20.6,0c-1,0-2,0-3,0s-1.5-0.5-1.5-1.5c0-7.5,0-14.9,0-22.4
		c0-0.6,0.2-1.1,0.8-1.4c3.7-2.2,7.4-4.3,11.2-6.5c1.1-0.6,2.1-1.2,3.2-1.8C-286.9,260.2-286.9,260.2-286.7,260.1z"/>
	<path class="st0" d="M-272.5,287.4c-0.9,0-1.8,0-2.7,0c-0.6,0-1-0.4-1.3-0.9s-0.5-1-0.7-1.5c-0.1-0.1-0.1-0.2-0.3-0.2
		c-2.5,0-5.1,0-7.6,0c-0.1,0-0.2,0-0.3,0.2c-0.2,0.5-0.5,1-0.7,1.5c-0.3,0.6-0.8,0.9-1.5,1c-0.8,0-1.7,0-2.5,0
		c0.2-0.4,0.4-0.7,0.6-1.1c1.6-3.1,3.2-6.3,4.9-9.4c1.1-2,2.1-4.1,3.2-6.1c0.1-0.1,0.1-0.2,0.3-0.1c0.1,0,0.2,0.1,0.2,0.1
		c2,3.8,4,7.7,5.9,11.5c0.8,1.6,1.7,3.3,2.5,4.9V287.4z M-278.9,282c-0.8-1.7-1.6-3.3-2.4-5c-0.8,1.7-1.6,3.4-2.4,5
		C-282,282-280.5,282-278.9,282z"/>
</g>
</svg>
