<svg width="32" height="32" viewBox="0 0 32 32" fill="none" xmlns="http://www.w3.org/2000/svg">
<g id="vuesax/bulk/arrow-square-up">
<g id="arrow-square-up">
<path id="Vector" opacity="0.4" d="M21.5867 2.66675H10.4133C5.55999 2.66675 2.66666 5.56008 2.66666 10.4134V21.5734C2.66666 26.4401 5.55999 29.3334 10.4133 29.3334H21.5733C26.4267 29.3334 29.32 26.4401 29.32 21.5868V10.4134C29.3333 5.56008 26.44 2.66675 21.5867 2.66675Z" fill="url(#paint0_linear_1457_2260)"/>
<path id="Vector_2" d="M20.7067 18.9467C20.4533 18.9467 20.2 18.8534 20 18.6534L16 14.6534L12 18.6534C11.6133 19.0401 10.9733 19.0401 10.5867 18.6534C10.2 18.2667 10.2 17.6267 10.5867 17.2401L15.2933 12.5334C15.68 12.1467 16.32 12.1467 16.7067 12.5334L21.4133 17.2401C21.8 17.6267 21.8 18.2667 21.4133 18.6534C21.2133 18.8534 20.96 18.9467 20.7067 18.9467Z" fill="url(#paint1_linear_1457_2260)"/>
</g>
</g>
<defs>
<linearGradient id="paint0_linear_1457_2260" x1="4.14738" y1="9.33342" x2="66.0761" y2="21.1355" gradientUnits="userSpaceOnUse">
<stop stop-color="#8A2BE2"/>
<stop offset="1" stop-color="#086EFC"/>
</linearGradient>
<linearGradient id="paint1_linear_1457_2260" x1="10.9304" y1="13.9192" x2="35.7802" y2="21.9819" gradientUnits="userSpaceOnUse">
<stop stop-color="#8A2BE2"/>
<stop offset="1" stop-color="#086EFC"/>
</linearGradient>
</defs>
</svg>
