<svg width="32" height="32" viewBox="0 0 32 32" fill="none" xmlns="http://www.w3.org/2000/svg">
<g id="vuesax/bulk/arrow-square-down">
<g id="arrow-square-down">
<path id="Vector" opacity="0.4" d="M21.5867 2.66675H10.4133C5.55999 2.66675 2.66666 5.56008 2.66666 10.4134V21.5734C2.66666 26.4401 5.55999 29.3334 10.4133 29.3334H21.5733C26.4267 29.3334 29.32 26.4401 29.32 21.5868V10.4134C29.3333 5.56008 26.44 2.66675 21.5867 2.66675Z" fill="url(#paint0_linear_1457_2288)"/>
<path id="Vector_2" d="M16 19.8801C15.7467 19.8801 15.4933 19.7868 15.2933 19.5868L10.5867 14.8801C10.2 14.4934 10.2 13.8534 10.5867 13.4668C10.9733 13.0801 11.6133 13.0801 12 13.4668L16 17.4668L20 13.4668C20.3867 13.0801 21.0267 13.0801 21.4133 13.4668C21.8 13.8534 21.8 14.4934 21.4133 14.8801L16.7067 19.5868C16.5067 19.7868 16.2533 19.8801 16 19.8801Z" fill="url(#paint1_linear_1457_2288)"/>
</g>
</g>
<defs>
<linearGradient id="paint0_linear_1457_2288" x1="4.14738" y1="9.33342" x2="66.0761" y2="21.1355" gradientUnits="userSpaceOnUse">
<stop stop-color="#8A2BE2"/>
<stop offset="1" stop-color="#086EFC"/>
</linearGradient>
<linearGradient id="paint1_linear_1457_2288" x1="10.9304" y1="14.8526" x2="35.7802" y2="22.9152" gradientUnits="userSpaceOnUse">
<stop stop-color="#8A2BE2"/>
<stop offset="1" stop-color="#086EFC"/>
</linearGradient>
</defs>
</svg>
