<svg width="56" height="57" viewBox="0 0 56 57" fill="none" xmlns="http://www.w3.org/2000/svg">
<g id="vuesax/bulk/buildings-2">
<g id="buildings-2">
<path id="Vector" d="M24.7332 10.1835V14.5001H21.2799C17.5233 14.5001 15.6333 16.39 15.6333 20.1467V42.5001H9.68335C6.34668 42.5001 4.66663 40.82 4.66663 37.4834V10.1835C4.66663 6.84681 6.34668 5.16675 9.68335 5.16675H19.7167C23.0533 5.16675 24.7332 6.84681 24.7332 10.1835Z" fill="url(#paint0_linear_1457_2384)"/>
<path id="Vector_2" opacity="0.4" d="M40.5299 20.1466V46.1867C40.5299 49.9434 38.6633 51.8333 34.9067 51.8333H21.2799C17.5233 51.8333 15.6333 49.9434 15.6333 46.1867V20.1466C15.6333 16.39 17.5233 14.5 21.2799 14.5H34.9067C38.6633 14.5 40.5299 16.39 40.5299 20.1466Z" fill="url(#paint1_linear_1457_2384)"/>
<path id="Vector_3" d="M51.3333 10.1835V37.4834C51.3333 40.82 49.6533 42.5001 46.3166 42.5001H40.53V20.1467C40.53 16.39 38.6634 14.5001 34.9067 14.5001H31.2667V10.1835C31.2667 6.84681 32.9466 5.16675 36.2833 5.16675H46.3166C49.6533 5.16675 51.3333 6.84681 51.3333 10.1835Z" fill="url(#paint2_linear_1457_2384)"/>
<g id="Group">
<path id="Vector_4" d="M32.6667 27.9167H23.3334C22.3767 27.9167 21.5834 27.1234 21.5834 26.1667C21.5834 25.2101 22.3767 24.4167 23.3334 24.4167H32.6667C33.6234 24.4167 34.4167 25.2101 34.4167 26.1667C34.4167 27.1234 33.6234 27.9167 32.6667 27.9167Z" fill="url(#paint3_linear_1457_2384)"/>
</g>
<g id="Group_2">
<path id="Vector_5" d="M32.6667 34.9167H23.3334C22.3767 34.9167 21.5834 34.1234 21.5834 33.1667C21.5834 32.2101 22.3767 31.4167 23.3334 31.4167H32.6667C33.6234 31.4167 34.4167 32.2101 34.4167 33.1667C34.4167 34.1234 33.6234 34.9167 32.6667 34.9167Z" fill="url(#paint4_linear_1457_2384)"/>
</g>
<path id="Vector_6" d="M29.75 44.8333V51.8333H26.25V44.8333C26.25 43.8766 27.0433 43.0833 28 43.0833C28.9567 43.0833 29.75 43.8766 29.75 44.8333Z" fill="url(#paint5_linear_1457_2384)"/>
</g>
</g>
<defs>
<linearGradient id="paint0_linear_1457_2384" x1="5.78142" y1="14.5001" x2="53.597" y2="19.4005" gradientUnits="userSpaceOnUse">
<stop stop-color="#8A2BE2"/>
<stop offset="1" stop-color="#086EFC"/>
</linearGradient>
<linearGradient id="paint1_linear_1457_2384" x1="17.0164" y1="23.8333" x2="76.0105" y2="31.3346" gradientUnits="userSpaceOnUse">
<stop stop-color="#8A2BE2"/>
<stop offset="1" stop-color="#086EFC"/>
</linearGradient>
<linearGradient id="paint2_linear_1457_2384" x1="32.3815" y1="14.5001" x2="80.1971" y2="19.4005" gradientUnits="userSpaceOnUse">
<stop stop-color="#8A2BE2"/>
<stop offset="1" stop-color="#086EFC"/>
</linearGradient>
<linearGradient id="paint3_linear_1457_2384" x1="22.2963" y1="25.2917" x2="43.0523" y2="39.8028" gradientUnits="userSpaceOnUse">
<stop stop-color="#8A2BE2"/>
<stop offset="1" stop-color="#086EFC"/>
</linearGradient>
<linearGradient id="paint4_linear_1457_2384" x1="22.2963" y1="32.2917" x2="43.0523" y2="46.8028" gradientUnits="userSpaceOnUse">
<stop stop-color="#8A2BE2"/>
<stop offset="1" stop-color="#086EFC"/>
</linearGradient>
<linearGradient id="paint5_linear_1457_2384" x1="26.4444" y1="45.2708" x2="34.8233" y2="45.9098" gradientUnits="userSpaceOnUse">
<stop stop-color="#8A2BE2"/>
<stop offset="1" stop-color="#086EFC"/>
</linearGradient>
</defs>
</svg>
