<svg width="56" height="57" viewBox="0 0 56 57" fill="none" xmlns="http://www.w3.org/2000/svg">
<g id="vuesax/bulk/location">
<g id="location">
<path id="Vector" opacity="0.4" d="M48.1133 20.2166C45.6633 9.43659 36.26 4.58325 28 4.58325C28 4.58325 28 4.58325 27.9766 4.58325C19.74 4.58325 10.3133 9.41325 7.86331 20.1933C5.13331 32.2333 12.5066 42.4299 19.18 48.8466C21.6533 51.2266 24.8266 52.4166 28 52.4166C31.1733 52.4166 34.3466 51.2266 36.7966 48.8466C43.47 42.4299 50.8433 32.2566 48.1133 20.2166Z" fill="url(#paint0_linear_1457_2401)"/>
<path id="Vector_2" d="M28 31.9068C32.0593 31.9068 35.35 28.6161 35.35 24.5568C35.35 20.4975 32.0593 17.2068 28 17.2068C23.9407 17.2068 20.65 20.4975 20.65 24.5568C20.65 28.6161 23.9407 31.9068 28 31.9068Z" fill="url(#paint1_linear_1457_2401)"/>
</g>
</g>
<defs>
<linearGradient id="paint0_linear_1457_2401" x1="9.58091" y1="16.5416" x2="106.661" y2="32.5688" gradientUnits="userSpaceOnUse">
<stop stop-color="#8A2BE2"/>
<stop offset="1" stop-color="#086EFC"/>
</linearGradient>
<linearGradient id="paint1_linear_1457_2401" x1="21.4667" y1="20.8818" x2="55.6207" y2="27.394" gradientUnits="userSpaceOnUse">
<stop stop-color="#8A2BE2"/>
<stop offset="1" stop-color="#086EFC"/>
</linearGradient>
</defs>
</svg>
