<svg width="17" height="16" viewBox="0 0 17 16" fill="none" xmlns="http://www.w3.org/2000/svg">
<path id="Union" opacity="0.9" d="M8.80143 0.13468C8.80143 0.0602983 8.74113 0 8.66675 0C8.59237 0 8.53207 0.0602983 8.53207 0.13468C8.53207 4.40419 5.07094 7.86532 0.801428 7.86532C0.727046 7.86532 0.666748 7.92562 0.666748 8C0.666748 8.07438 0.727046 8.13468 0.801428 8.13468C5.07094 8.13468 8.53207 11.5958 8.53207 15.8653C8.53207 15.9397 8.59237 16 8.66675 16C8.74113 16 8.80143 15.9397 8.80143 15.8653C8.80143 11.5958 12.2626 8.13468 16.5321 8.13468C16.6064 8.13468 16.6667 8.07438 16.6667 8C16.6667 7.92562 16.6064 7.86532 16.5321 7.86532C12.2626 7.86532 8.80143 4.40419 8.80143 0.13468Z" fill="url(#paint0_linear_1381_4973)"/>
<defs>
<linearGradient id="paint0_linear_1381_4973" x1="1.55562" y1="4" x2="38.7301" y2="11.0881" gradientUnits="userSpaceOnUse">
<stop stop-color="#8A2BE2"/>
<stop offset="1" stop-color="#086EFC"/>
</linearGradient>
</defs>
</svg>
