<svg xmlns="http://www.w3.org/2000/svg" width="30" height="20" viewBox="0 0 18 12">
  <g fill="none" fill-rule="evenodd">
    <path fill="#006C35" d="M0 12h18V0H0z"/>
    <path fill="#FEFEFE" d="M12.3779 4.2119s.018.271.03.468c.012.264.03.396.024.588-.006.114-.024.21-.102.3-.108.121-.246.132-.378.054-.06-.036-.126-.096-.162-.156-.042-.06-.066-.048-.162.12-.066.114-.096.21-.216.397-.072.101-.108.101-.204.035-.138-.102-.216-.18-.198-.402.012-.12.036-.234.072-.354.006-.012.006-.024.024-.029.024.053.018.101.018.155 0 .126.018.246.066.36.006.018.018.036.024.048.042.061.09.061.138.006.03-.036.048-.078.072-.12.072-.15.15-.3.246-.438.066-.095.114-.102.192-.006.042.054.078.114.132.156.084.066.192.042.234-.054.03-.066.036-.132.036-.204.006-.3-.024-.6-.048-.905-.006-.061-.012-.127-.012-.187 0-.066-.024-.114-.066-.168-.114-.138-.222-.282-.336-.426-.048-.06-.078-.12-.066-.198.006-.048 0-.096 0-.144 0-.018 0-.036.018-.042.018-.006.036 0 .048.012.078.09.168.168.258.252.012.012.024.03.018.048-.012.019-.03.019-.054.019.036.065.078.126.132.185-.012-.096 0-.192-.036-.282-.03-.066.012-.198.072-.246.03-.024.042-.006.054.018.024.066.054.126.072.192.024.06.042.12.06.18.006.018.018.042 0 .054-.012.012-.036-.006-.048-.017.006.126.012.263.024.389 0 .012.006.024.012.03.072.102.15.204.222.306.006.006.03.042.03.042s-.012-.066-.012-.084c-.048-.282-.09-.606-.102-.894-.03-.066.012-.132.066-.204.042-.048.066-.048.084.006.054.138.09.276.12.42.006.031-.006.06-.024.06-.018 0-.042-.018-.042-.018s.006.216.036.57c.006.09.03.366.03.366s.036.054.054.084c.108.156.198.282.3.444.066.109.09.204.096.276.006.036.006.12 0 .12-.018.012-.03-.018-.036-.036-.09-.174-.348-.51-.372-.546.024.348.006.54-.048.6-.018.018-.018-.048-.018-.072 0-.354-.024-.528-.06-.702-.096-.132-.198-.276-.288-.407-.006.005-.024-.019-.024-.019m-6.9541.9541c-.018.018-.024-.108-.024-.162-.024-.216-.048-.426-.066-.642 0-.018 0-.036-.024-.036-.252-.018-.324-.246-.3-.462.03-.27.018-.288.006-.288-.012 0-.054.03-.108.312-.012.066-.024.246-.096.336-.054.078-.126.09-.174.006-.072-.132-.102-.276-.114-.426-.012-.12-.006-.234.036-.348.006-.012.006-.024.018-.03.018.024.012.048.012.072 0 .126.012.252.036.372.012.054.024.108.054.156.012.024.03.054.06.048.036 0 .042-.03.054-.06.036-.09.036-.18.054-.276.018-.138.066-.258.144-.372.03-.042.072-.09.126-.072.048.018.048.066.042.132-.006.066-.024.114-.042.174-.03.126-.018.252.042.366l.036.054c.024.03.072.048.102.036 0 0-.012-.276-.054-.606-.03-.126-.024-.174-.024-.174-.006-.012-.024-.042-.036-.072-.012-.036.03-.132.066-.156.024-.012.036-.006.048.012.054.084.102.168.12.264.006.03.006.066-.024.084-.036.024-.03.048-.024.084l.054.54c.078-.03.138-.15.12-.234-.024-.114-.042-.228-.066-.342-.012-.066.006-.126.024-.186.006-.036.03-.036.054-.012.06.066.102.144.09.234-.012.126.012.252.042.372.024.084.06.15.162.168.096.012.132-.024.12-.12-.018-.12-.054-.24-.096-.354-.006-.024-.024-.066-.036-.09-.036-.09-.024-.108.06-.198.024-.018.042-.018.066 0 .054.054.102.108.126.18.012.036.012.072-.036.078-.036.006-.018.024-.018.042.03.114.066.228.072.354.012.174-.054.288-.204.336-.12.042-.228.006-.276-.18-.024-.078-.042-.03-.09.054-.042.072-.09.108-.09.108s0 .054.006.12c.018.198.036.402.036.6 0 .066-.048.186-.066.204M9.084 3.3301c0 .018.036.126.048.186.03.126.054.251.018.377-.006.025-.012.042-.018.067-.078.21-.24.252-.408.101-.024-.017-.042-.042-.06-.065-.024-.036-.042-.042-.066 0-.06.102-.15.168-.258.21-.156.06-.3-.018-.348-.187a.8048.8048 0 0 1-.018-.293c0-.03.006-.066.006-.096 0-.012 0-.03-.012-.036-.018-.006-.024.012-.03.024-.012.024-.024.048-.03.078-.036.096-.066.192-.102.288-.006.018-.012.03-.018.048-.06.132-.144.144-.234.036-.168-.192-.198-.42-.126-.66.012-.048.042-.139.054-.144.012-.006.012.005-.006.144-.018.132-.018.366.09.485.048.061.102.061.132-.017.09-.264.198-.456.234-.516.084-.138.12-.186.168-.138.048.047.042.06.024.156-.024.168-.036.426-.012.528.024.096.102.138.204.108.15-.06.234-.144.246-.312.012-.156-.042-.391-.078-.528-.012-.042.03-.102.072-.174.012-.03.03-.012.042.006.03.053.048.108.06.168.03.132.03.264.042.396.012.126.048.246.132.348.03.036.072.066.12.054.054-.018.072-.06.078-.114.012-.132-.018-.252-.054-.378-.024-.072-.048-.15-.078-.222-.012-.036-.012-.066.018-.09.03-.025.042-.06.06-.096.018-.036.042-.042.072-.013.09.073.15.168.18.277.006.017.006.042-.012.048-.018.012-.03 0-.048-.012-.036-.019-.084-.072-.084-.042m.918.9902c.012.12.018.246.03.365.018.217.054.439.042.655-.006.131-.036.257-.084.377-.006.013-.012.031-.018.042-.006.013-.012.031-.03.025-.018-.006-.018-.025-.012-.036.006-.036.012-.078.018-.115.036-.198.012-.395-.006-.593-.03-.324-.084-.642-.12-.966-.006-.042-.018-.084-.048-.12-.12-.168-.24-.342-.366-.504-.03-.036-.054-.078-.102-.097a.0723.0723 0 0 1-.042-.065c0-.072-.006-.145-.006-.216 0-.024 0-.042.024-.055.024-.011.042 0 .054.013.114.096.228.191.33.306.018.017.042.042.024.072-.018.023-.048.012-.072.006h-.03c.072.101.132.198.21.305-.012-.12-.036-.227-.036-.336 0-.005 0-.017-.006-.023-.06-.078-.018-.156.012-.228.006-.024.024-.042.048-.042.03 0 .042.018.054.042.066.137.12.27.162.419v.019c0 .023.006.048-.012.06-.024.018-.036-.012-.06-.012 0 .132.006.264.018.39 0 .024.018.036.03.053.168.271.342.54.486.822.072.151.144.3.162.462 0 .025.018.061-.006.073-.024.006-.036-.036-.042-.054-.162-.372-.378-.708-.606-1.044"/>
    <path fill="#FEFEFE" d="M13.3682 3.4502c-.024.162.024.432.054.75.03.294.048.582.054.768 0 .192-.018.383-.078.564-.09.264-.264.414-.552.492-.042.012-.144.03-.162.006-.006-.013.042-.055.09-.09.048-.036.228-.162.33-.264.156-.163.216-.36.21-.582-.006-.312-.042-.619-.072-.93-.03-.282-.09-.811-.096-.84-.006-.055-.012-.09-.012-.097-.036-.095.024-.131.078-.197.024-.03.048-.024.066.006.06.114.114.233.162.36.006.018.03.048.006.066-.024.03-.054 0-.078-.012m-2.5801.0723c-.012.203.018.401.036.6.042.389.06.702.06 1.061-.006.151-.012.318-.072.456-.06.145-.174.265-.264.349-.054.048-.138.096-.186.107-.096.019-.186.025-.288.025-.018 0-.042 0-.042-.019-.006-.023.018-.029.036-.035.048-.019.102-.03.15-.055.192-.09.342-.233.462-.408.084-.119.084-.258.078-.395l-.054-.846c-.024-.33-.072-.66-.114-.99 0-.019-.012-.031-.018-.048-.018-.055-.012-.103.03-.145.03-.029.06-.059.084-.09.03-.03.048-.023.06.012.012.025.018.055.024.078.024.097.054.187.078.282.006.025.018.048 0 .073-.012.023-.036 0-.06-.012m.4199.0537c.006.186.03.359.054.534.024.239.036.378.066.617.012.115.048.325.066.433.018.156-.018.294-.078.432-.018.03-.048.096-.084.078-.024-.012-.012-.054-.006-.084.048-.222 0-.438-.03-.655-.048-.389-.102-.779-.15-1.169a4.0696 4.0696 0 0 0-.072-.39c-.024-.12.006-.222.078-.313.036-.047.072-.042.096.013.03.071.054.138.078.21.024.078.06.149.102.216.018.024.042.059.018.09-.024.036-.06.011-.096.006a.2925.2925 0 0 0-.042-.018"/>
    <path fill="#FDFEFD" d="M4.7222 5.2383c.012.006.024.138-.006.228-.03.084-.048.192-.024.293.012.067.066.09.102.037.03-.037.048-.073.066-.066.018.006.012.054.012.096-.012.09-.06.156-.126.168-.048.006-.114-.03-.126-.084-.012-.067-.042-.252.006-.402.036-.138.084-.276.096-.27m7.0317-1.0987c.012-.006.012-.029 0-.162-.006-.071-.006-.126.048-.174.048-.048.066-.054.096.013.006.023.048.065.024.095-.018.018-.048-.005-.066-.011-.018-.007-.03-.013-.042.042-.012.048-.006.149-.006.246 0 .035 0 .107-.024.107s-.042-.053-.06-.09c-.084-.162-.108-.168-.108-.168-.006.042-.066.054-.078.006-.006-.03 0-.078 0-.108 0-.024.012-.042.036-.054.024-.006.048.019.06.036.048.084.108.229.12.222m-7.1699.7745c.144-.192.36-.33.492-.378.096-.036.126-.066.15-.018.018.048.006.09-.042.102-.126.042-.246.096-.366.156-.084.042-.156.096-.234.138m4.6802.9121c0-.019.114-.09.186-.114.03-.012.042.011.036.036-.006.036-.018.066-.024.101-.006.025-.012.061 0 .079.018.012.054.005.078-.006.048-.024.096-.042.15-.066.024-.012.078-.024.078-.018 0 .011-.078.084-.12.114-.054.042-.114.084-.192.078-.072 0-.114-.048-.09-.12.024-.072.03-.12.012-.114-.012.011-.114.053-.114.03m3.06-.0899c.042.006.06.029.036.071-.006.013-.018.031-.024.042-.018.042-.018.067.036.061.018 0 .036 0 .042.017.006.019 0 .037-.012.048-.06.042-.12.078-.198.084-.018 0-.042-.006-.048-.023a.048.048 0 0 1 .018-.054c.018-.018.042-.036.06-.055.024-.023.03-.053 0-.084-.03-.017-.06-.029-.048-.078.012-.023.048-.042.138-.029"/>
    <path fill="#FCFDFC" d="M8.7241 4.2959c.018 0 .054.138.036.198-.018.054-.078.096-.132.042-.03-.03-.036-.03-.048-.006-.012.03-.03.072-.066.072-.036 0-.06-.03-.072-.066-.03-.072-.018-.192-.006-.186.012.007.018.049.036.096.006.024.024.066.054.054.024-.012.03-.036.03-.059.006-.042 0-.097.024-.103.018 0 .03.042.054.09.018.036.036.055.048.048.024-.012.018-.072.024-.084 0-.054.006-.102.018-.096"/>
    <path fill="#FDFDFD" d="M12.0718 4.4277c0 .042-.012.072-.036.084-.138.078-.27.156-.39.252-.012.013-.03.024-.048.013-.018-.019 0-.037.012-.049.036-.035.072-.066.108-.096.09-.072.186-.143.234-.191.048-.049.066-.073.096-.073.018 0 .024.031.024.06"/>
    <path fill="#FDFEFD" d="M12.9961 3.7744c-.012.012-.024-.019-.024-.072 0-.096-.036-.229-.102-.336-.024-.042.012-.109.042-.139.03-.017.036.007.048.019.048.084.072.174.078.269 0 .067-.006.217-.042.259"/>
    <path fill="#FDFDFD" d="M10.374 3.3477c0 .12-.054.198-.072.192-.024-.005-.012-.059-.012-.066.024-.102-.006-.186-.084-.258-.018-.017-.036-.023-.036-.059 0-.037.024-.09.066-.103.024-.006.06.048.078.084.024.036.06.126.06.21"/>
    <path fill="#FCFDFD" d="M7.2119 3.96c0 .084-.072.174-.15.187-.048.011-.096-.013-.12-.061-.024-.06-.006-.132.03-.192.066-.108.102-.126.108-.114.006.012-.018.036-.06.132-.018.042-.03.114.006.138.036.024.09-.006.12-.042.024-.024.066-.066.066-.048"/>
    <path fill="#FCFDFC" d="M12.084 4.9082a.1646.1646 0 0 1-.048.138c-.03.03-.042 0-.036-.031.03-.107-.012-.149-.078-.197-.048-.03-.048-.055-.012-.097.03-.029.054-.036.084 0 .06.048.084.126.09.187M10.2241 3.75c.012-.006.018.012.036.054.006.012.018.036.036.036s.018-.024.024-.042c.006-.036.012-.072.024-.072s.018.036.024.066c.006.018.018.042.036.036.018 0 .03-.012.042-.054.012-.042.018-.084.036-.084s.036.12.018.18c-.012.054-.048.066-.09.036-.018-.018-.036-.03-.054-.03-.012 0-.03.018-.042.036-.036.03-.066.018-.084-.03-.018-.054-.018-.126-.006-.132"/>
    <path fill="#FCFDFD" d="M6.8281 5.3643c0-.013.024-.09.024-.145 0-.042-.006-.065-.006-.065s-.06.012-.078-.006c-.024-.024-.018-.066-.006-.096.012-.024.03-.054.066-.048.036.006.066.011.078.06.024.102.018.192-.042.294-.012.018-.036.024-.036.006"/>
    <path fill="#FBFDFB" d="M5.8799 3.0957c.012.006.024.066-.006.12-.018.036-.066.042-.09.019-.024-.025-.03-.042-.042-.031-.03.031-.066.054-.108.037-.048-.019-.06-.067-.066-.115-.006-.048.024-.09.036-.09.012 0 .018.031.018.06 0 .024 0 .072.03.084.036.013.054-.018.066-.036.018-.024.03-.084.042-.077.012.006.006.042.018.077.006.024.024.055.048.049.03-.007.03-.031.036-.055 0-.029.006-.048.018-.042m2.4482.4746a.1003.1003 0 0 1-.006-.072c.006-.115-.012-.222-.078-.319-.006-.011-.018-.023-.018-.042 0-.029.018-.047.042-.059.024-.012.036.006.042.023.072.097.084.372.018.469"/>
    <path fill="#FBFDFC" d="M4.8481 3.2217c.006-.065.006-.144-.054-.096-.018.012-.054.025-.06.006-.012-.023.012-.048.03-.078.018-.023.066-.054.096-.042.048.024.048.072.042.12-.006.061-.078.216-.09.235-.012.017.036-.09.036-.145"/>
    <path fill="#FEFEFE" d="M9.186 4.5c.06.03.096.054.12.072.018.012.012.024-.006.03-.054.012-.12.036-.168.042-.024 0-.018-.096-.024-.144-.006-.03.024-.03.078 0m.492.558c-.564.036-1.032.018-1.032.018.09-.066.318-.138.45-.186.018-.006.06-.024.06-.024s.018.018.03.018.03 0 .03-.012c0-.006-.006-.024-.006-.024.366-.126.39-.372.24-.486-.066-.048-.132-.09-.21-.114-.102-.03-.174-.006-.228.066-.024.036-.048.078-.072.114-.036.072-.054.15.018.258 0 0-.306.102-.474.174-.144.06-.174.096-.222.276-.012.054 0 .072.054.078.108.006.222.012.33.024.09.006.174.024.24.09-.186.084-.324.192-.276.426-.174-.024-.318-.15-.366-.336-.018-.054-.024-.108-.036-.162-.042-.24-.078-.486-.168-.714-.042-.108-.09-.216-.138-.318-.012-.024-.03-.048-.048-.012-.054.096-.096.186-.054.3.084.234.156.468.222.708.006.03.006.054-.006.084-.09.162-.198.306-.342.426-.096.078-.198.144-.33.156-.084.006-.192-.006-.186-.168 0-.018.186-.096.42-.36.108-.12.162-.276.138-.438-.012-.09-.084-.294-.084-.3 0-.006.036.006.054-.012.006-.012.006-.036-.006-.054-.042-.078-.096-.144-.162-.21-.03-.03-.06-.024-.078.012-.024.042-.042.09-.06.132-.018.048-.012.09.042.114.012.006.024.018.03.03.036.072.072.15.108.222.06.138.036.228-.066.33-.138.138-.3.246-.3.246 0-.186.012-.264 0-.282-.012-.012-.03.018-.048.054-.042.096-.096.21-.12.348 0 0-.018.012-.048.036-.216.144-.438.27-.666.384-.024.012-.072.024-.06.054.012.03.054.012.084 0 .216-.06.384-.126.576-.198.036-.018.114-.048.114-.048 0 .246.186.36.39.318.15-.03.264-.12.372-.216.12-.108.216-.24.312-.372.03.066.054.126.096.18.168.246.414.342.696.378.138.018.138.012.174-.12.018-.066.012-.084-.054-.102-.054-.018-.108-.036-.162-.066-.054-.036-.108-.072-.102-.15.006-.072.072-.096.126-.12.234-.09.474-.168.72-.204.084-.012.132-.054.162-.132.054-.114.054-.12-.078-.114"/>
    <path fill="#FEFEFE" d="M5.8198 4.7578c-.024-.048-.018-.156.03-.144.072.012.108.066.144.121 0 0-.156.059-.174.023m1.398-.354c-.006-.018-.012-.03-.036-.03-.042.006-.078.054-.072.084.018.048.03.114.012.162-.018.054-.078.066-.12.031-.036-.031-.042-.073-.054-.115-.012-.042-.018-.132-.03-.132s-.018.037-.024.054c-.03.078-.06.156-.126.21-.078.067-.156.042-.18-.059-.012-.042-.006-.091-.006-.133 0-.018.006-.042-.018-.054-.024-.006-.036.006-.054.024-.03.024-.054.054-.09.072-.024-.306-.042-.612-.066-.911.018.023.06.029.078.011.024-.024.024-.072.024-.089-.006-.037-.102-.289-.15-.427-.006-.018-.024-.03-.042-.018-.078.054-.138.126-.114.186.006.018.018.03.018.054 0 .048.006.144.012.192.03.324.072.553.096.888.006.084.024.205.018.205-.018.011-.138.071-.138.071s-.012-.102-.186-.239c-.054-.049-.12-.067-.216.047-.084.102-.102.168-.078.402.006.06.108.091.174.078.084-.018.228-.065.228-.065s.036.113-.078.227c-.138.132-.246.234-.444.288-.108.03-.192-.006-.252-.101-.048-.084-.078-.187-.072-.283 0-.066.018-.168.012-.186-.012-.012-.03.03-.036.049-.042.143-.066.287-.042.437.024.168.186.355.438.294.108-.03.21-.078.306-.138.204-.138.348-.306.306-.636 0-.006.09-.054.096-.06v.408c-.006.126-.042.241-.138.325-.192.173-.414.269-.672.299-.186.018-.336-.066-.384-.222a.8568.8568 0 0 1-.036-.426c.012-.078.006-.162 0-.174-.006-.012-.042.066-.042.078-.066.198-.084.445-.012.697.036.113.096.204.216.246.078.029.162.035.246.029.204-.012.402-.071.588-.162.144-.072.258-.174.324-.323.06-.139.078-.289.072-.439 0-.12-.018-.39-.018-.39l.03-.018s.006.018.018.036c.012.012.06.066.12.072.15.012.222-.06.258-.102.024-.024.024-.035.06.007.054.065.168.113.264.029.024-.042.036-.197.012-.36"/>
    <path fill="#FEFEFE" d="M7.1641 3.2939c-.024-.006-.024-.03-.024-.042 0-.024.012-.042.024-.06.012-.018.03-.018.03.006 0 .03-.024.084-.03.096m.144-.102c0-.06-.006-.102-.054-.126-.048-.024-.084-.018-.126.012-.084.06-.09.15-.09.21 0 .09.06.138.06.138s-.042.06-.066.09c-.012.012-.024.03-.036.042-.102.108-.228.198-.348.282-.012.012-.042.018-.03.042.012.018.036.006.048 0 .198-.072.372-.18.504-.354.012-.012.03-.042.03-.042h.03c.03-.005.036-.03.036-.054 0-.018-.018-.042-.018-.042s.024-.042.03-.066c.018-.054.03-.096.03-.132m4.4653 5.6479c-.009-.037-.035-.056-.067-.056-.034 0-.055.02-.063.06l-.28.006c-.014-.038-.048-.072-.048-.072v-.073c.26-.007.516-.014.763-.023 0 0-.029.072-.013.152l-.292.006zm.568-.266c-.059-.126-.168-.114-.378-.114s-.642.012-.642.012v-.071s.049-.055.049-.109-.073-.132-.091-.132c-.024 0-.089.078-.089.132 0 .048.054.102.054.102v.072h-2.989c-.845 0-2.609-.023-2.609-.023.191.275.545.305 1.295.311.64.005 2.543-.003 4.296-.047v.066s-.047.059-.047.107c0 .054.072.132.089.132.02 0 .065-.049.083-.097l.282-.004c.01.042.042.059.062.059.028 0 .056-.02.067-.061l.32-.005c.007.013.016.025.027.037.048.047.113.053.162.017.042-.036.084-.096.084-.192 0-.119-.007-.15-.025-.192z"/>
  </g>
</svg>
