<svg xmlns="http://www.w3.org/2000/svg" width="30" height="20" viewBox="1 1 16 12">
  <g fill="none">
    <path fill="#FFF" d="M0 1.0453h18v11.917H0z"/>
    <path fill="#B22234" d="M0 1.0453h18v.9132H0zm0 1.8264h18v.9132H0zm0 1.834h18v.9132H0zm0 1.8339h18v.9132H0zm0 1.834h18v.9132H0zm0 1.8339h18v.9133H0zm0 1.834h18v.9132H0z"/>
    <path fill="#3C3B6E" d="M0 1.0453h9.0566v6.4151H0z"/>
    <path fill="#FFF" d="m.4226 1.566.2189.151-.083.2566.2189-.1585.2113.1585-.083-.2566.2188-.151H.8604l-.083-.2566-.0831.2566zm1.5019 0 .2189.151-.083.2566.2188-.1585.2114.1585-.0831-.2566.2189-.151h-.2717l-.0755-.2566-.083.2566zm1.5019 0 .2189.151-.083.2566.2188-.1585.2114.1585-.0831-.2566.2189-.151h-.2717l-.0755-.2566-.083.2566zm1.5019 0 .2189.151-.083.2566.2113-.1585.2188.1585-.083-.2566.2189-.151h-.2717l-.083-.2566L5.2 1.566zm1.5019 0 .2189.151-.0831.2566.2114-.1585.2188.1585-.083-.2566.2189-.151h-.2717l-.083-.2566-.0755.2566zm1.5019 0 .2188.151-.083.2566.2113-.1585.2189.1585-.083-.2566.2189-.151h-.2717l-.0831-.2566-.083.2566zm-6.7547.6415.2113.1585-.0755.2491.2113-.1585.2189.1585-.083-.2491.2113-.1585h-.2642l-.083-.2566-.083.2566zm1.5018 0 .2114.1585-.0831.2491.2189-.1585.2189.1585-.083-.2491.2113-.1585h-.2642l-.083-.2566-.083.2566zm1.5019 0 .2114.1585-.0831.2491.2189-.1585.2189.1585-.083-.2491.2113-.1585h-.2642l-.083-.2566-.083.2566zm1.5019 0 .2113.1585-.083.2491.2189-.1585.2189.1585-.0831-.2491.2114-.1585h-.2642l-.083-.2566-.083.2566zm1.5019 0 .2113.1585-.083.2491.2189-.1585.2113.1585-.0755-.2491.2113-.1585h-.2641l-.083-.2566-.083.2566zm-6.7623.6416.2189.1584-.083.2491.2189-.1509.2113.1509-.083-.2491.2188-.1584H.8604l-.083-.2566-.0831.2566zm1.5019 0 .2189.1584-.083.2491.2188-.1509.2114.1509-.0831-.2491.2189-.1584h-.2717l-.0755-.2566-.083.2566zm1.5019 0 .2189.1584-.083.2491.2188-.1509.2114.1509-.0831-.2491.2189-.1584h-.2717l-.0755-.2566-.083.2566zm1.5019 0 .2189.1584-.083.2491.2113-.1509.2188.1509-.083-.2491.2189-.1584h-.2717l-.083-.2566-.0755.2566zm1.5019 0 .2189.1584-.0831.2491.2114-.1509.2188.1509-.083-.2491.2189-.1584h-.2717l-.083-.2566-.0755.2566zm1.5019 0 .2188.1584-.083.2491.2113-.1509.2189.1509-.083-.2491.2189-.1584h-.2717l-.0831-.2566-.083.2566zm-6.7396.649.2188.151-.083.2566.2189-.1585.2113.1585-.083-.2566.2188-.151h-.2717l-.0754-.2566-.083.2566zm1.5018 0 .2189.151-.083.2566.2189-.1585.2113.1585-.083-.2566.2188-.151h-.2717l-.0754-.2566-.0831.2566zm1.5019 0 .2189.151-.083.2566.2113-.1585.2189.1585-.0831-.2566.2189-.151h-.2717l-.083-.2566-.0755.2566zm1.5019 0 .2189.151-.083.2566.2113-.1585.2189.1585-.0831-.2566.2189-.151h-.2717l-.083-.2566-.083.2566zm1.5019 0 .2189.151-.0831.2566.2114-.1585.2188.1585-.083-.2566.2189-.151h-.2717l-.083-.2566-.083.2566zm-6.7547.634.2189.1585-.0831.2566L.8 4.3887l.2113.1585-.083-.2566.2189-.1585H.883L.8 3.883l-.083.2491zm1.5019 0 .2188.1585-.083.2566.2189-.1585.2113.1585-.083-.2566.2189-.1585h-.2642l-.083-.2491-.083.2491zm1.5019 0 .2188.1585-.083.2566.2189-.1585.2113.1585-.083-.2566.2188-.1585h-.2717l-.0754-.2491-.083.2491zm1.5018 0 .2189.1585-.083.2566.2113-.1585.2189.1585-.083-.2566.2188-.1585h-.2717l-.083-.2491-.0755.2491zm1.5019 0 .2189.1585-.083.2566.2113-.1585.2189.1585-.0831-.2566.2189-.1585H6.883L6.8 3.883l-.0755.2491zm1.5019 0 .2189.1585-.083.2566.2113-.1585.2189.1585-.0831-.2566.2189-.1585h-.2717l-.083-.2491-.083.2491zM.4604 5.4l.2188.1585-.083.249.2189-.1509.2113.1509-.083-.249.2189-.1585H.8906l-.0755-.2566-.083.2566zm1.5019 0 .2188.1585-.083.249.2113-.1509.2189.1509-.083-.249.2189-.1585h-.2717l-.0831-.2566L2.234 5.4zm1.5019 0 .2188.1585-.083.249.2113-.1509.2189.1509-.083-.249L4.166 5.4h-.2717l-.083-.2566-.083.2566zm1.5018 0 .2189.1585-.083.249.2113-.1509.2189.1509-.083-.249.2188-.1585h-.2717l-.083-.2566-.083.2566zm1.5019 0 .2189.1585-.083.249.2113-.1509.2189.1509-.0831-.249.2189-.1585h-.2717l-.083-.2566-.083.2566zm1.5019 0 .2189.1585-.083.249.2113-.1509.2188.1509-.083-.249.2189-.1585H8.4l-.083-.2566-.083.2566zM.4453 6.683l.2113.1585-.0755.2491.2114-.1585.2188.1585-.083-.2491.2113-.1585H.8755l-.083-.2566-.0831.2566zm1.5019 0 .2113.1585-.083.2491.2188-.1585.2189.1585-.083-.2491.2113-.1585h-.2641l-.0831-.2566-.083.2566zm1.5019 0 .2113.1585-.083.2491.2188-.1585.2189.1585-.083-.2491.2113-.1585h-.2642l-.083-.2566-.083.2566zm1.5018 0 .2114.1585-.0831.2491.2189-.1585.2189.1585-.083-.2491.2113-.1585h-.2642l-.083-.2566-.083.2566zm1.5019 0 .2114.1585-.0831.2491.2189-.1585.2113.1585-.0755-.2491.2114-.1585H6.883L6.8 6.4264l-.083.2566zm1.5019 0 .2113.1585-.083.2491.2189-.1585.2113.1585-.083-.2491.2189-.1585h-.2642l-.083-.2566-.083.2566zM1.2 4.7585l.2113.1585-.0755.2566.2114-.1585.2188.1585-.083-.2566.2113-.1585h-.2641l-.083-.2491-.083.2491zm1.5019 0 .2113.1585-.0755.2566.2114-.1585.2188.1585-.083-.2566.2113-.1585h-.2641l-.083-.2491-.0831.2491zm1.5019 0 .2113.1585-.083.2566.2188-.1585.2189.1585-.083-.2566.2113-.1585H4.634l-.0831-.2491-.083.2491zm1.5019 0 .2113.1585-.083.2566.2188-.1585.2189.1585-.083-.2566.2113-.1585h-.2642l-.083-.2491-.083.2491zm1.5018 0 .2114.1585-.0831.2566.2189-.1585.2189.1585-.083-.2566.2113-.1585h-.2642l-.083-.2491-.083.2491zm-6.015 1.283.2188.1585-.083.2491.2189-.1585.2113.1585-.083-.2491.2188-.1585h-.2717l-.0754-.2566-.083.2566zm1.5018 0 .2189.1585-.083.2491.2189-.1585.2113.1585-.083-.2491.2188-.1585h-.2717l-.0754-.2566-.0831.2566zm1.5019 0 .2189.1585-.083.2491.2113-.1585.2189.1585L4.6792 6.2l.2189-.1585h-.2717l-.083-.2566-.0755.2566zm1.5019 0L5.917 6.2l-.083.2491.2113-.1585.2189.1585L6.1811 6.2 6.4 6.0415h-.2717l-.083-.2566-.083.2566zm1.5019 0 .2189.1585-.0831.2491.2114-.1585.2188.1585L7.683 6.2l.2189-.1585h-.2717l-.083-.2566-.083.2566z"/>
  </g>
</svg>
