<svg width="25" height="25" viewBox="0 0 25 25" fill="none" xmlns="http://www.w3.org/2000/svg">
<path opacity="0.4" d="M12.5 2.5C15.0013 5.23835 16.4228 8.79203 16.5 12.5C16.4228 16.208 15.0013 19.7616 12.5 22.5C9.99872 19.7616 8.57725 16.208 8.5 12.5C8.57725 8.79203 9.99872 5.23835 12.5 2.5Z" stroke="black" stroke-width="2" stroke-linecap="round" stroke-linejoin="round"/>
<path d="M3.00002 9.5H22M3 15.5H22M22.5 12.5C22.5 18.0228 18.0228 22.5 12.5 22.5C6.97715 22.5 2.5 18.0228 2.5 12.5C2.5 6.97715 6.97715 2.5 12.5 2.5C18.0228 2.5 22.5 6.97715 22.5 12.5Z" stroke="black" stroke-width="2" stroke-linecap="round" stroke-linejoin="round"/>
</svg>
