<svg width="27" height="17" viewBox="0 0 27 17" fill="none" xmlns="http://www.w3.org/2000/svg">
<path fill-rule="evenodd" clip-rule="evenodd" d="M16.2481 8.30609C16.2481 12.6174 12.8005 16.1119 8.54732 16.1119C4.29405 16.1119 0.846191 12.6174 0.846191 8.30609C0.846191 3.99491 4.29405 0.5 8.54732 0.5C12.8005 0.5 16.2481 3.99491 16.2481 8.30609Z" fill="#CC0000"/>
<path fill-rule="evenodd" clip-rule="evenodd" d="M18.886 0.5C16.8957 0.5 15.0829 1.2652 13.716 2.52051C13.4379 2.77636 13.1783 3.05268 12.9387 3.3469H14.4946C14.7071 3.60916 14.9029 3.88487 15.0817 4.17366H12.3515C12.1881 4.439 12.0397 4.71471 11.9077 5.00041H15.5251C15.6488 5.26798 15.7576 5.54357 15.8513 5.8268H11.5816C11.4928 6.09597 11.4178 6.3718 11.3579 6.65306H16.0747C16.1877 7.18598 16.2478 7.73888 16.2478 8.30609C16.2478 9.17269 16.1084 10.0068 15.8513 10.7859H11.5816C11.6753 11.0689 11.7841 11.3448 11.9075 11.6127H15.5251C15.393 11.8977 15.2452 12.1737 15.0809 12.4394H12.3515C12.5295 12.7273 12.7257 13.0034 12.9387 13.2653H14.4941C14.255 13.5597 13.9951 13.8361 13.7162 14.0919C15.083 15.3472 16.8957 16.1119 18.886 16.1119C23.139 16.1119 26.5867 12.6174 26.5867 8.30609C26.5867 3.99528 23.139 0.5 18.886 0.5Z" fill="#FF9900"/>
<path fill-rule="evenodd" clip-rule="evenodd" d="M6.74879 9.16083C6.66104 9.15072 6.62234 9.14751 6.5621 9.14751C6.0882 9.14751 5.84858 9.31232 5.84858 9.63786C5.84858 9.83832 5.96553 9.96575 6.14808 9.96575C6.48872 9.96575 6.73418 9.63712 6.74879 9.16083ZM7.35695 10.5957C7.24547 10.5957 6.66399 10.5957 6.66399 10.5957L6.67993 10.262C6.46866 10.5255 6.18669 10.6513 5.8037 10.6513C5.35074 10.6513 5.04004 10.2928 5.04004 9.77189C5.04004 8.9877 5.58026 8.5304 6.50773 8.5304C6.60278 8.5304 6.72423 8.53928 6.84861 8.5552C6.87441 8.44886 6.88122 8.40371 6.88122 8.34635C6.88122 8.13318 6.73567 8.05325 6.34514 8.05325C5.93611 8.04905 5.59876 8.1523 5.46014 8.19844C5.46891 8.1449 5.57612 7.47419 5.57612 7.47419C5.99258 7.35009 6.26737 7.30371 6.57661 7.30371C7.29464 7.30371 7.67495 7.63037 7.67409 8.24791C7.67555 8.41358 7.64842 8.61725 7.60643 8.88592C7.5339 9.35222 7.37812 10.3523 7.35695 10.5957Z" fill="#000066"/>
<path fill-rule="evenodd" clip-rule="evenodd" d="M4.69046 10.5957H3.85426L4.33352 7.55218L3.2639 10.5957H2.69423L2.62376 7.5692L2.12042 10.5957H1.33789L1.99154 6.63623H3.1938L3.26646 8.85251L3.99994 6.63623H5.33705L4.69046 10.5957Z" fill="#000066"/>
<path fill-rule="evenodd" clip-rule="evenodd" d="M19.9192 9.16083C19.8315 9.15072 19.7932 9.14751 19.7331 9.14751C19.2589 9.14751 19.0195 9.31232 19.0195 9.63786C19.0195 9.83832 19.1359 9.96575 19.319 9.96575C19.6594 9.96575 19.905 9.63712 19.9192 9.16083ZM20.5277 10.5957C20.416 10.5957 19.835 10.5957 19.835 10.5957L19.8507 10.262C19.6394 10.5255 19.3576 10.6513 18.9748 10.6513C18.5213 10.6513 18.2109 10.2928 18.2109 9.77189C18.2109 8.9877 18.7514 8.5304 19.6786 8.5304C19.7736 8.5304 19.8948 8.53928 20.0193 8.5552C20.0452 8.44886 20.0519 8.40371 20.0519 8.34635C20.0519 8.13318 19.9063 8.05325 19.5158 8.05325C19.1068 8.04905 18.7695 8.1523 18.6304 8.19844C18.6397 8.1449 18.7471 7.47419 18.7471 7.47419C19.1634 7.35009 19.4384 7.30371 19.7471 7.30371C20.4657 7.30371 20.8455 7.63037 20.8448 8.24791C20.8462 8.41358 20.8193 8.61725 20.7771 8.88592C20.7048 9.35222 20.5487 10.3523 20.5277 10.5957Z" fill="#000066"/>
<path fill-rule="evenodd" clip-rule="evenodd" d="M11.0727 10.5467C10.8438 10.6197 10.6655 10.6513 10.472 10.6513C10.0447 10.6513 9.8114 10.4023 9.8114 9.94381C9.80544 9.80145 9.87286 9.42705 9.92592 9.08559C9.97436 8.78472 10.2886 6.88818 10.2886 6.88818H11.1194L11.0224 7.37558H11.5244L11.4111 8.14954H10.9074C10.8109 8.76177 10.6733 9.52463 10.6717 9.62578C10.6717 9.79183 10.7591 9.86436 10.9581 9.86436C11.0533 9.86436 11.1271 9.85449 11.1834 9.83402L11.0727 10.5467Z" fill="#000066"/>
<path fill-rule="evenodd" clip-rule="evenodd" d="M13.6205 10.5207C13.335 10.6091 13.0599 10.6523 12.7679 10.6513C11.8375 10.6501 11.3525 10.1579 11.3525 9.2148C11.3525 8.11419 11.9694 7.30371 12.8071 7.30371C13.4921 7.30371 13.9299 7.75743 13.9299 8.46872C13.9299 8.7052 13.8999 8.93564 13.8273 9.26082H12.1724C12.1166 9.72798 12.4113 9.92252 12.8951 9.92252C13.1921 9.92252 13.4606 9.86035 13.7589 9.72009L13.6205 10.5207ZM13.1534 8.61176C13.1581 8.54452 13.2413 8.0369 12.7664 8.0369C12.502 8.0369 12.3125 8.24143 12.2357 8.61176H13.1534Z" fill="#000066"/>
<path fill-rule="evenodd" clip-rule="evenodd" d="M7.85853 8.39372C7.85853 8.80068 8.05325 9.08157 8.49502 9.29264C8.83346 9.45412 8.88616 9.50186 8.88616 9.64804C8.88616 9.8485 8.73671 9.93954 8.40606 9.93954C8.15645 9.93954 7.92449 9.89982 7.65688 9.81211C7.65688 9.81211 7.54723 10.5222 7.54199 10.5561C7.73196 10.5978 7.90137 10.6366 8.41202 10.6513C9.29409 10.6513 9.70154 10.3109 9.70154 9.57501C9.70154 9.13264 9.53116 8.87297 9.11228 8.67757C8.7619 8.51461 8.72138 8.4781 8.72138 8.32784C8.72138 8.15378 8.86048 8.06484 9.13053 8.06484C9.2947 8.06484 9.51875 8.0826 9.73136 8.11307L9.85026 7.36625C9.63388 7.33134 9.30553 7.30371 9.11447 7.30371C8.17933 7.30371 7.85549 7.79875 7.85853 8.39372Z" fill="#000066"/>
<path fill-rule="evenodd" clip-rule="evenodd" d="M17.6865 7.38842C17.9187 7.38842 18.1356 7.44961 18.4336 7.60221L18.5706 6.74288C18.4476 6.69403 18.0167 6.40771 17.6516 6.40771C17.0923 6.40771 16.6189 6.68947 16.2865 7.15342C15.8012 6.99059 15.6015 7.31971 15.3571 7.64785L15.1398 7.69917C15.1563 7.59123 15.1712 7.48403 15.1665 7.37535H14.3983C14.2937 8.37222 14.1078 9.38155 13.9624 10.3788L13.9243 10.5954H14.7608C14.9003 9.67589 14.9766 9.08734 15.0231 8.68864L15.3381 8.51174C15.3854 8.33398 15.5323 8.27427 15.8278 8.28155C15.7892 8.49151 15.7683 8.71269 15.7683 8.94152C15.7683 9.99514 16.3298 10.651 17.2294 10.651C17.4613 10.651 17.6604 10.6202 17.9686 10.5351L18.1152 9.63283C17.8379 9.77087 17.611 9.83588 17.4052 9.83588C16.9191 9.83588 16.6249 9.4721 16.6249 8.87121C16.6249 7.99918 17.0621 7.38842 17.6865 7.38842Z" fill="#000066"/>
<path fill-rule="evenodd" clip-rule="evenodd" d="M24.7647 6.63623L24.5788 7.78015C24.3506 7.47532 24.1051 7.25451 23.7808 7.25451C23.359 7.25451 22.9751 7.5787 22.7236 8.0561C22.3735 7.98246 22.0117 7.85725 22.0117 7.85725L22.0115 7.86033C22.0393 7.5935 22.0511 7.43116 22.0483 7.37565H21.2803C21.176 8.37252 20.9899 9.38185 20.8446 10.3791L20.8062 10.5957H21.6428C21.7558 9.85259 21.8421 9.2348 21.9057 8.74556C22.1917 8.48354 22.3348 8.2557 22.6231 8.2705C22.4952 8.58408 22.4206 8.94503 22.4206 9.31536C22.4206 10.12 22.822 10.6513 23.43 10.6513C23.7364 10.6513 23.9716 10.5441 24.2008 10.2959L24.1614 10.5955H24.9524L25.5893 6.63623H24.7647ZM23.7192 9.8518C23.4346 9.8518 23.2905 9.63789 23.2905 9.21699C23.2905 8.58403 23.5598 8.13537 23.9389 8.13537C24.2263 8.13537 24.382 8.35692 24.382 8.76598C24.382 9.40437 24.1082 9.8518 23.7192 9.8518Z" fill="#000066"/>
<path fill-rule="evenodd" clip-rule="evenodd" d="M4.93057 10.3605H4.09462L4.57375 7.31694L3.50438 10.3605H2.93446L2.86412 7.33458L2.36065 10.3605H1.57812L2.23177 6.40137H3.43404L3.46763 8.85228L4.27887 6.40137H5.57728L4.93057 10.3605Z" fill="white"/>
<path fill-rule="evenodd" clip-rule="evenodd" d="M6.98946 8.9261C6.90183 8.91574 6.86313 8.9129 6.80289 8.9129C6.329 8.9129 6.08925 9.07746 6.08925 9.40276C6.08925 9.60297 6.20632 9.73114 6.38899 9.73114C6.72951 9.73114 6.97497 9.40251 6.98946 8.9261ZM7.59743 10.3603C7.48607 10.3603 6.90484 10.3603 6.90484 10.3603L6.92066 10.0269C6.70939 10.2903 6.42741 10.4162 6.04442 10.4162C5.59134 10.4162 5.28076 10.0572 5.28076 9.53642C5.28076 8.7521 5.82111 8.29542 6.74858 8.29542C6.84338 8.29542 6.96484 8.30418 7.08934 8.32046C7.11514 8.21388 7.12195 8.16861 7.12195 8.111C7.12195 7.89795 6.9764 7.81863 6.58587 7.81863C6.17671 7.8137 5.83948 7.91695 5.70075 7.96297C5.70963 7.90967 5.81673 7.23897 5.81673 7.23897C6.2333 7.11511 6.5081 7.06836 6.81734 7.06836C7.53524 7.06836 7.91543 7.39539 7.91482 8.01268C7.91616 8.1781 7.88926 8.38276 7.84716 8.6507C7.7745 9.11663 7.61873 10.1173 7.59743 10.3603Z" fill="white"/>
<path fill-rule="evenodd" clip-rule="evenodd" d="M18.8112 6.50789L18.6742 7.36709C18.3757 7.21499 18.1595 7.15343 17.9275 7.15343C17.3033 7.15343 16.8654 7.76492 16.8654 8.63708C16.8654 9.23796 17.1597 9.60101 17.6458 9.60101C17.8517 9.60101 18.0791 9.53649 18.3558 9.39796L18.2089 10.3002C17.9011 10.3852 17.7019 10.4163 17.4702 10.4163C16.5699 10.4163 16.0093 9.76027 16.0093 8.7069C16.0093 7.29147 16.7844 6.30225 17.8923 6.30225C18.2574 6.30225 18.6886 6.45904 18.8112 6.50789Z" fill="white"/>
<path fill-rule="evenodd" clip-rule="evenodd" d="M20.1598 8.9261C20.0726 8.91574 20.0338 8.9129 19.9737 8.9129C19.5 8.9129 19.2602 9.07746 19.2602 9.40276C19.2602 9.60297 19.3771 9.73114 19.5597 9.73114C19.9 9.73114 20.1458 9.40251 20.1598 8.9261ZM20.7682 10.3603C20.657 10.3603 20.0756 10.3603 20.0756 10.3603L20.0913 10.0269C19.88 10.2903 19.5981 10.4162 19.2154 10.4162C18.7619 10.4162 18.4517 10.0572 18.4517 9.53642C18.4517 8.7521 18.9915 8.29542 19.9192 8.29542C20.014 8.29542 20.1352 8.30418 20.2596 8.32046C20.2855 8.21388 20.2924 8.16861 20.2924 8.111C20.2924 7.89795 20.1472 7.81863 19.7564 7.81863C19.3476 7.8137 19.0105 7.91695 18.8715 7.96297C18.8803 7.90967 18.9875 7.23897 18.9875 7.23897C19.4041 7.11511 19.6786 7.06836 19.9879 7.06836C20.7058 7.06836 21.0863 7.39539 21.0854 8.01268C21.0871 8.1781 21.0599 8.38276 21.0178 8.6507C20.9454 9.11663 20.7896 10.1173 20.7682 10.3603Z" fill="white"/>
<path fill-rule="evenodd" clip-rule="evenodd" d="M11.3129 10.3116C11.0842 10.3846 10.9057 10.4163 10.7125 10.4163C10.285 10.4163 10.0516 10.1672 10.0516 9.70919C10.0458 9.56634 10.1133 9.19256 10.1665 8.85073C10.2146 8.54961 10.5289 6.65332 10.5289 6.65332H11.36L11.2628 7.14059H11.6895L11.5758 7.91431H11.1478C11.0513 8.52716 10.9136 9.28952 10.9119 9.39068C10.9119 9.55721 10.9997 9.62925 11.1984 9.62925C11.2937 9.62925 11.3673 9.61976 11.4239 9.59878L11.3129 10.3116Z" fill="white"/>
<path fill-rule="evenodd" clip-rule="evenodd" d="M13.8614 10.286C13.5757 10.3746 13.3 10.4165 13.0084 10.4162C12.0779 10.4156 11.5933 9.92278 11.5933 8.97982C11.5933 7.87883 12.21 7.06836 13.0471 7.06836C13.7329 7.06836 14.1704 7.52208 14.1704 8.23423C14.1704 8.47022 14.1399 8.70053 14.0681 9.02583H12.413C12.3569 9.493 12.652 9.68791 13.1353 9.68791C13.4326 9.68791 13.701 9.62548 13.9996 9.48485L13.8614 10.286ZM13.3943 8.37642C13.3988 8.30907 13.4824 7.80169 13.0076 7.80169C12.743 7.80169 12.5535 8.00659 12.4765 8.37642H13.3943Z" fill="white"/>
<path fill-rule="evenodd" clip-rule="evenodd" d="M8.09901 8.15837C8.09901 8.56607 8.29397 8.84634 8.73586 9.05766C9.07431 9.21902 9.12676 9.26676 9.12676 9.41306C9.12676 9.61377 8.97744 9.70431 8.64654 9.70431C8.39717 9.70431 8.16509 9.66508 7.89736 9.57762C7.89736 9.57762 7.78783 10.2872 7.78271 10.3206C7.97257 10.3628 8.14209 10.4013 8.6525 10.4162C9.53482 10.4162 9.94227 10.0759 9.94227 9.34003C9.94227 8.89742 9.77165 8.63787 9.35288 8.44296C9.00238 8.27951 8.9621 8.24336 8.9621 8.09286C8.9621 7.9188 9.10108 7.82924 9.37138 7.82924C9.53518 7.82924 9.75948 7.84775 9.97196 7.87809L10.091 7.1314C9.87448 7.09673 9.54638 7.06836 9.35519 7.06836C8.41981 7.06836 8.09621 7.56353 8.09901 8.15837Z" fill="white"/>
<path fill-rule="evenodd" clip-rule="evenodd" d="M25.1931 10.3605H24.4023L24.4415 10.0608C24.2121 10.3092 23.9771 10.4164 23.6706 10.4164C23.0631 10.4164 22.6611 9.88567 22.6611 9.08013C22.6611 8.00912 23.2844 7.10637 24.0215 7.10637C24.3457 7.10637 24.5912 7.24058 24.8198 7.54553L25.0053 6.40137H25.8298L25.1931 10.3605ZM23.9597 9.61633C24.3493 9.61633 24.6226 9.16916 24.6226 8.53139C24.6226 8.1222 24.467 7.89991 24.1797 7.89991C23.8004 7.89991 23.5312 8.34869 23.5312 8.9819C23.5312 9.40329 23.6755 9.61633 23.9597 9.61633Z" fill="white"/>
<path fill-rule="evenodd" clip-rule="evenodd" d="M21.5214 7.14053C21.4168 8.13715 21.2309 9.14648 21.0855 10.1438L21.0474 10.3603H21.8836C22.1827 8.39127 22.2546 8.00701 22.7239 8.05499C22.7985 7.65198 22.9376 7.29904 23.0412 7.12116C22.691 7.04714 22.4955 7.24773 22.2392 7.62891C22.2596 7.46398 22.2965 7.30398 22.2895 7.14053H21.5214Z" fill="white"/>
<path fill-rule="evenodd" clip-rule="evenodd" d="M14.6394 7.14053C14.5344 8.13715 14.3482 9.14648 14.203 10.1438L14.165 10.3603H15.0015C15.3007 8.39127 15.3724 8.00701 15.841 8.05499C15.9161 7.65198 16.0554 7.29904 16.1587 7.12116C15.809 7.04714 15.613 7.24773 15.3572 7.62891C15.3774 7.46398 15.4145 7.30398 15.4072 7.14053H14.6394Z" fill="white"/>
</svg>
