<svg width="24" height="24" viewBox="0 0 24 24" fill="none" xmlns="http://www.w3.org/2000/svg">
<path d="M23.9132 17.4572C23.7478 17.0037 23.4291 16.7585 23.0675 16.5624C23.0001 16.5256 22.9388 16.4889 22.8836 16.4643C22.7733 16.4092 22.663 16.354 22.5527 16.2989C21.425 15.6983 20.5425 14.9506 19.9358 14.0558C19.7642 13.8045 19.611 13.5349 19.4884 13.2591C19.4332 13.112 19.4394 13.0262 19.4761 12.9465C19.5129 12.8853 19.5619 12.8362 19.6232 12.7933C19.8193 12.6646 20.0155 12.5359 20.1503 12.4501C20.3893 12.2908 20.5854 12.1682 20.708 12.0824C21.1676 11.7576 21.4924 11.4144 21.6947 11.0283C21.9827 10.489 22.0195 9.85773 21.7989 9.28777C21.4924 8.4788 20.7325 7.98238 19.8071 7.98238C19.611 7.98238 19.421 8.00077 19.2249 8.04367C19.1758 8.05592 19.1207 8.06818 19.0716 8.08044C19.0778 7.52887 19.0655 6.94665 19.0165 6.37056C18.8449 4.35426 18.134 3.30014 17.3985 2.46052C16.9266 1.93347 16.3751 1.48608 15.7561 1.13675C14.6407 0.499376 13.3721 0.174561 11.9931 0.174561C10.6142 0.174561 9.35171 0.499376 8.2363 1.13675C7.61732 1.48608 7.06574 1.93347 6.59384 2.46052C5.85841 3.30014 5.15363 4.36039 4.9759 6.37056C4.92687 6.94665 4.91461 7.52887 4.92074 8.08044C4.87171 8.06818 4.82268 8.05592 4.76752 8.04367C4.57754 8.00077 4.38142 7.98238 4.19144 7.98238C3.26602 7.98238 2.50607 8.48493 2.19965 9.28777C1.97902 9.85773 2.01579 10.489 2.30383 11.0283C2.50607 11.4144 2.83089 11.7576 3.29053 12.0824C3.41311 12.1682 3.60309 12.2908 3.84824 12.4501C3.97694 12.5359 4.16692 12.6585 4.35691 12.7811C4.42432 12.824 4.47948 12.8791 4.52238 12.9465C4.55915 13.0262 4.56528 13.112 4.50399 13.2714C4.38142 13.541 4.23434 13.8045 4.06274 14.0497C3.46826 14.9199 2.61026 15.6615 1.51937 16.256C0.943285 16.5624 0.342683 16.7647 0.085282 17.4572C-0.104704 17.9781 0.0178675 18.5665 0.502026 19.069C0.679755 19.2529 0.888127 19.4122 1.11489 19.5348C1.58679 19.7922 2.08933 19.9944 2.61639 20.1354C2.7267 20.166 2.82476 20.2089 2.91669 20.2702C3.09442 20.4234 3.0699 20.6563 3.30279 20.9995C3.41923 21.1772 3.57245 21.3304 3.74405 21.453C4.24047 21.7962 4.79817 21.8146 5.38651 21.8391C5.9197 21.8575 6.5203 21.882 7.21283 22.1088C7.50087 22.2007 7.79505 22.3846 8.13825 22.5991C8.96561 23.1077 10.0933 23.8003 11.987 23.8003C13.8807 23.8003 15.0145 23.1016 15.848 22.5929C16.1912 22.3846 16.4854 22.2007 16.7612 22.1088C17.4476 21.882 18.0543 21.8575 18.5875 21.8391C19.1758 21.8146 19.7335 21.7962 20.23 21.453C20.4383 21.3059 20.6099 21.1221 20.7325 20.9014C20.9041 20.6134 20.898 20.4112 21.0573 20.2702C21.1431 20.2089 21.2412 20.166 21.3392 20.1415C21.8663 20.0005 22.3811 19.7983 22.8591 19.5348C23.0981 19.4061 23.3188 19.2345 23.5026 19.0322L23.5087 19.0261C23.9868 18.5358 24.1032 17.9597 23.9132 17.4572ZM22.234 18.3581C21.2105 18.9219 20.5241 18.8606 19.9971 19.2038C19.5436 19.4919 19.8132 20.117 19.4884 20.3437C19.0839 20.6195 17.895 20.3254 16.3628 20.834C15.0942 21.2508 14.2914 22.4581 12.0115 22.4581C9.73168 22.4581 8.94722 21.2569 7.66022 20.834C6.12807 20.3254 4.93912 20.6257 4.53464 20.3437C4.20982 20.117 4.47335 19.4919 4.02596 19.2038C3.49278 18.8606 2.8125 18.9219 1.78903 18.3581C1.13327 17.9965 1.50711 17.7759 1.72162 17.6717C5.43554 15.876 6.03001 13.0998 6.05453 12.8914C6.08517 12.6401 6.12194 12.444 5.84616 12.1927C5.58263 11.9476 4.40594 11.2183 4.07499 10.9915C3.53568 10.6115 3.29666 10.2377 3.47439 9.77193C3.59696 9.45324 3.89726 9.33067 4.20982 9.33067C4.30788 9.33067 4.40594 9.34293 4.50399 9.36131C5.09847 9.49001 5.67456 9.78419 6.0055 9.86999C6.0484 9.88225 6.08517 9.88837 6.12807 9.88837C6.3058 9.88837 6.36709 9.79644 6.35483 9.5942C6.31806 8.94457 6.22613 7.68208 6.33031 6.49926C6.47127 4.87519 6.9922 4.06621 7.61732 3.3553C7.91762 3.0121 9.32106 1.52898 12.0115 1.52898C14.702 1.52898 16.1054 3.00597 16.4057 3.34917C17.0308 4.06009 17.5518 4.86906 17.6927 6.49313C17.7969 7.67595 17.705 8.93844 17.6621 9.58807C17.6498 9.80257 17.7111 9.88224 17.8888 9.88224C17.9317 9.88224 17.9685 9.87612 18.0114 9.86386C18.3423 9.78419 18.9184 9.48389 19.5129 9.35519C19.611 9.33067 19.709 9.32454 19.8071 9.32454C20.1196 9.32454 20.4199 9.44711 20.5425 9.7658C20.7202 10.2316 20.4812 10.6054 19.9419 10.9854C19.6171 11.2121 18.4404 11.9415 18.1707 12.1866C17.895 12.4379 17.9317 12.634 17.9624 12.8853C17.9869 13.0936 18.5814 15.8699 22.2953 17.6656C22.5159 17.7697 22.8836 17.9965 22.234 18.3581Z" fill="#98A2B3"/>
</svg>
