<svg xmlns="http://www.w3.org/2000/svg" width="118" height="21">
  <g fill="none" fill-rule="evenodd">
    <path fill="#24386E" d="m14.5953 2.4209-.161.026c-.396 1.204-.581 2.171-1.012 3.426-.431 1.256-.867 2.494-1.306 3.715-.44 1.222-.875 2.396-1.307 3.522-.431 1.127-.844 2.164-1.241 3.11-.414-.946-.837-1.987-1.267-3.122-.432-1.135-.863-2.31-1.294-3.523-.431-1.212-.862-2.446-1.293-3.702-.36-1.049-1.339-3.693-1.894-5.239l-3.82-.634c1.114 3.2 3.099 8.512 4.201 11.317 1.197 3.044 2.44 5.96 3.731 8.747h3.121c1.294-2.787 2.538-5.703 3.729-8.747 1.047-2.679 2.042-5.626 2.983-8.37l-3.17-.526Zm2.9727 17.6103h3.03V6.4832h-3.03zm12.144-2.8437c-.116.043-.241.09-.387.146-.375.139-.891.21-1.534.21-.352 0-.662-.044-.918-.129-.231-.077-.417-.204-.571-.389-.159-.193-.283-.474-.368-.836-.092-.389-.138-.895-.138-1.504v-5.543h4.853v-2.66h-4.853v-2.834l-3.03.503v10.559c0 .878.072 1.662.217 2.331.15.7.418 1.301.796 1.788.385.493.897.869 1.525 1.115.607.237 1.378.358 2.29.358.771 0 1.47-.093 2.077-.275.554-.166.943-.304 1.199-.423-.3-.344-.556-.73-.759-1.164-.18-.383-.312-.803-.399-1.253m8.8916-2.9107v3.258c-.202.031-.436.055-.698.071-.413.024-.886.036-1.42.036-.83 0-1.487-.144-1.951-.427-.411-.25-.611-.707-.611-1.397 0-.355.081-.639.241-.842.178-.225.403-.405.671-.537.284-.138.601-.23.946-.273.365-.048.719-.071 1.048-.071.504 0 .936.027 1.286.081.219.035.376.069.488.101m1.816-6.623c-.424-.479-.988-.852-1.673-1.111-.673-.253-1.499-.38-2.458-.38-.824 0-1.6.064-2.307.19-.724.129-1.236.263-1.563.408l-.255.113.377 2.643.439-.18c.255-.104.657-.209 1.197-.311.543-.103 1.186-.153 1.916-.153.532 0 .965.074 1.284.223.314.147.555.335.733.576.182.244.309.528.38.844.075.344.114.694.114 1.042v.184c-.143-.028-.306-.059-.487-.092-.231-.043-.475-.078-.733-.103-1.052-.105-2-.011-2.901.191-.694.157-1.314.405-1.84.738-.543.344-.979.803-1.295 1.364-.318.562-.479 1.236-.479 2.003 0 .79.136 1.482.404 2.054.272.581.66 1.056 1.153 1.412.481.347 1.054.603 1.706.761.633.154 1.334.232 2.083.232.514 0 1.041-.021 1.569-.063.522-.041 1.006-.086 1.451-.136.452-.051.856-.104 1.215-.162l1.136-.188v-8.319c0-.751-.088-1.45-.261-2.081-.178-.65-.482-1.222-.905-1.699M43.21.7607v19.27h3.03V.2587z"/>
    <path fill="#F68421" d="M58.4722 13.5708c-.267-.55-.63-1.024-1.082-1.408-.445-.379-.974-.713-1.574-.992-.59-.274-1.223-.553-1.884-.827-.549-.226-1.061-.445-1.521-.652-.455-.204-.857-.434-1.193-.684-.327-.243-.585-.536-.767-.87-.18-.329-.271-.744-.271-1.231 0-.473.087-.88.26-1.211.173-.331.414-.609.716-.829.303-.22.671-.382 1.093-.482.431-.102.912-.153 1.429-.153.756 0 1.47.096 2.124.284.648.188 1.207.441 1.662.754l.161.111.707-1.681-.106-.074c-.218-.15-.493-.294-.817-.428-.314-.128-.67-.249-1.06-.357-.383-.105-.801-.193-1.243-.258-.446-.066-.902-.099-1.356-.099-1.723 0-3.093.386-4.07 1.148-.989.771-1.49 1.913-1.49 3.396 0 .649.106 1.225.315 1.71.21.486.52.924.922 1.301.396.371.88.709 1.44 1.003.55.29 1.183.576 1.878.849.549.225 1.075.437 1.576.639.486.194.922.432 1.297.707.368.267.666.602.889.993.219.387.33.879.33 1.463 0 1.02-.333 1.735-1.018 2.186-.697.458-1.694.689-2.965.689-.553 0-1.066-.039-1.523-.118-.455-.079-.871-.179-1.237-.297-.368-.121-.687-.244-.951-.369-.276-.13-.485-.238-.639-.331l-.165-.099-.646 1.733.113.068c.167.1.401.217.696.349.296.131.652.256 1.086.382.425.122.913.226 1.45.307.538.082 1.141.123 1.792.123 1.834 0 3.312-.393 4.393-1.168 1.097-.788 1.653-1.98 1.653-3.545 0-.796-.136-1.479-.404-2.032M68.564 17.185c-.677.883-1.612 1.33-2.774 1.33-1.165 0-2.099-.447-2.776-1.331-.669-.87-1.006-2.059-1.006-3.534 0-1.475.337-2.664 1.006-3.535.677-.882 1.611-1.33 2.776-1.33 1.162 0 2.097.448 2.774 1.33.667.871 1.006 2.06 1.006 3.535s-.339 2.664-1.006 3.535m1.43-8.305c-.517-.572-1.141-1.018-1.854-1.327-.716-.31-1.507-.467-2.35-.467-.846 0-1.637.157-2.351.467-.715.309-1.339.756-1.855 1.327-.517.573-.924 1.272-1.211 2.077-.288.809-.435 1.714-.435 2.693 0 .995.147 1.905.435 2.705.287.798.693 1.492 1.211 2.065.516.571 1.14 1.017 1.855 1.328.715.309 1.506.467 2.351.467.843 0 1.634-.158 2.35-.467.713-.309 1.337-.756 1.854-1.328.517-.573.924-1.267 1.211-2.065.288-.8.435-1.71.435-2.705 0-.979-.147-1.884-.435-2.693-.287-.805-.694-1.504-1.211-2.077m9.3044 9.5609c-.267.018-.524.026-.773.026-1.215 0-2.096-.362-2.618-1.077-.51-.697-.77-1.856-.77-3.444v-6.54h-1.97v7.033c0 .854.09 1.64.266 2.338.174.689.463 1.295.857 1.8.392.501.917.896 1.563 1.171.651.278 1.466.418 2.424.418 1.119 0 2.118-.074 2.967-.219.792-.136 1.446-.267 1.948-.387V7.4059h-1.971v10.763l-.1.04c-.095.037-.24.069-.444.096-.192.026-.401.049-.632.074-.233.025-.482.046-.747.062M92.2271 7.3901c-.204-.04-.429-.082-.672-.122-.244-.04-.491-.073-.742-.097-.247-.024-.469-.037-.662-.037-.987 0-1.886.087-2.675.256-.743.159-1.379.331-1.893.51v11.994h1.97V9.1651l.121-.03c.132-.034.408-.096.83-.187.429-.092.868-.139 1.302-.139.665 0 1.22.047 1.648.139.314.068.559.129.743.183l.331-1.673c-.082-.022-.182-.044-.301-.068m8.3809 10.9248c-.501.116-1.068.176-1.687.176-.774 0-1.441-.116-1.984-.345-.547-.23-1.003-.565-1.354-.994-.351-.426-.609-.943-.771-1.538-.158-.585-.239-1.237-.239-1.939 0-1.575.356-2.795 1.059-3.627.711-.838 1.743-1.263 3.067-1.263.518 0 1.014.051 1.475.151.387.085.743.194 1.054.328l.433-1.626c-.476-.183-.974-.32-1.487-.407-.561-.097-1.133-.145-1.697-.145-.908 0-1.744.165-2.484.49-.739.327-1.371.786-1.878 1.364-.51.582-.91 1.281-1.189 2.078-.281.801-.422 1.695-.422 2.657 0 .964.131 1.856.386 2.648.254.787.645 1.476 1.16 2.049.517.569 1.161 1.02 1.915 1.339.997.419 2.226.586 3.664.419.345-.041.676-.089.987-.146.307-.058.583-.122.821-.193.178-.054.324-.109.437-.165l-.269-1.61c-.266.106-.6.205-.997.299m10.2705-5.7353h-6.692l.02-.179c.051-.456.157-.908.317-1.342.16-.442.389-.84.68-1.183.291-.342.653-.626 1.072-.839.423-.216.915-.326 1.464-.326.984 0 1.768.356 2.33 1.058.555.692.829 1.584.812 2.652l-.003.159Zm-3.113-5.494c-.716 0-1.426.138-2.11.407-.68.27-1.292.681-1.816 1.219-.524.541-.952 1.232-1.271 2.053-.319.824-.483 1.801-.483 2.91 0 .948.128 1.831.376 2.625.246.787.628 1.476 1.137 2.049.507.569 1.163 1.023 1.949 1.349.79.326 1.742.493 2.834.493.869 0 1.656-.082 2.34-.242.6-.141 1.045-.277 1.324-.403l-.268-1.603c-.272.111-.629.22-1.079.333-.559.144-1.257.215-2.072.215-1.467 0-2.565-.364-3.267-1.083-.698-.713-1.102-1.765-1.204-3.13l-.012-.172h8.797c.006-.085.009-.175.009-.271v-.382c0-2.15-.45-3.768-1.341-4.81-.883-1.033-2.176-1.557-3.843-1.557Zm7.0173.0057v.267h-.692v1.935h-.309v-1.935h-.692v-.267zm1.3125 1.897c-.021-.051-.049-.115-.084-.194-.034-.078-.072-.163-.112-.254-.04-.091-.083-.185-.129-.281-.045-.097-.088-.188-.129-.274-.04-.085-.078-.162-.113-.229-.035-.068-.063-.121-.084-.157-.024.25-.042.521-.057.812-.015.291-.027.585-.038.882h-.303c.009-.191.019-.383.029-.576.011-.195.023-.385.037-.573.013-.187.029-.37.045-.548.015-.178.033-.346.052-.505h.27c.057.093.119.204.184.33.066.128.131.261.198.4.065.138.129.277.19.416.062.138.117.265.169.379.05-.114.106-.241.168-.379.061-.139.125-.278.19-.416.067-.139.131-.272.198-.4.065-.126.127-.237.184-.33h.27c.071.71.126 1.443.162 2.202h-.302c-.011-.297-.023-.591-.038-.882-.015-.291-.034-.562-.058-.812-.02.036-.048.089-.084.157-.035.067-.072.144-.112.229-.041.086-.084.177-.129.274-.046.096-.089.19-.129.281-.04.091-.077.176-.113.254-.034.079-.062.143-.084.194h-.248Z"/>
  </g>
</svg>
