<?xml version="1.0" encoding="utf-8"?>
<!-- Generator: Adobe Illustrator 19.0.0, SVG Export Plug-In . SVG Version: 6.00 Build 0)  -->
<svg version="1.1" id="Layer_1" xmlns="http://www.w3.org/2000/svg" xmlns:xlink="http://www.w3.org/1999/xlink" x="0px" y="0px"
	 viewBox="-120 90 719 381" style="enable-background:new -120 90 719 381;" xml:space="preserve">
<style type="text/css">
	.st0{fill:#FFFFFF;}
	.st1{fill:none;stroke:#453574;stroke-width:3.1888;stroke-miterlimit:10;}
	.st2{fill:#A99CD4;}
	.st3{fill:#453574;}
	.st4{fill:#B9F0C6;}
	.st5{fill:none;stroke:#453574;stroke-width:2.5511;stroke-linecap:round;stroke-linejoin:round;}
	.st6{fill:#E9242B;}
	.st7{fill:none;stroke:#EFBEC0;stroke-width:1.9133;stroke-linecap:round;stroke-linejoin:round;}
	.st8{opacity:0.37;fill:#FFFFFF;}
</style>
<g>
	<path class="st0" d="M184.6,444.8c-12.4-15.5-19.5-38.8-21.2-69.8c-1.7-30.8,2.8-54.6,13.5-71.4c10.7-16.8,26.9-25.8,48.8-27
		s39,6,51.4,21.6s19.5,38.7,21.1,69.5c1.7,30.8-2.8,54.6-13.5,71.5c-10.7,16.9-26.9,25.9-48.8,27.1
		C214.2,467.6,197,460.4,184.6,444.8L184.6,444.8z"/>
	<path class="st1" d="M184.6,444.8c-12.4-15.5-19.5-38.8-21.2-69.8c-1.7-30.8,2.8-54.6,13.5-71.4c10.7-16.8,26.9-25.8,48.8-27
		s39,6,51.4,21.6s19.5,38.7,21.1,69.5c1.7,30.8-2.8,54.6-13.5,71.5c-10.7,16.9-26.9,25.9-48.8,27.1
		C214.2,467.6,197,460.4,184.6,444.8L184.6,444.8z"/>
	<path class="st2" d="M259.7,422.1c4.8-11.2,6.6-28.7,5.3-52.5c-1.3-24-5-41.2-11-51.6c-6-10.5-15-15.4-26.9-14.7
		c-11.9,0.6-20.3,6.5-25.1,17.7c-4.8,11.1-6.6,28.6-5.3,52.4s4.9,41,11,51.6c6,10.6,15,15.6,26.9,15
		C246.5,439.2,254.9,433.3,259.7,422.1L259.7,422.1z"/>
	<path class="st1" d="M259.7,422.1c4.8-11.2,6.6-28.7,5.3-52.5c-1.3-24-5-41.2-11-51.6c-6-10.5-15-15.4-26.9-14.7
		c-11.9,0.6-20.3,6.5-25.1,17.7c-4.8,11.1-6.6,28.6-5.3,52.4s4.9,41,11,51.6c6,10.6,15,15.6,26.9,15
		C246.5,439.2,254.9,433.3,259.7,422.1L259.7,422.1z"/>
	<path class="st3" d="M335.4,372.3H117.9v2.9h217.5V372.3z"/>
	<path class="st3" d="M481.3,373.1h-26.5c-0.1,0-0.2,0.1-0.2,0.2v1.7c0,0.1,0.1,0.2,0.2,0.2h26.5c0.1,0,0.2-0.1,0.2-0.2v-1.7
		C481.5,373.2,481.4,373.1,481.3,373.1z"/>
	<path class="st3" d="M-1.6,373.1h-26.5c-0.1,0-0.2,0.1-0.2,0.2v1.7c0,0.1,0.1,0.2,0.2,0.2h26.5c0.1,0,0.2-0.1,0.2-0.2v-1.7
		C-1.4,373.2-1.5,373.1-1.6,373.1z"/>
	<path class="st4" d="M458.1,418.1h-26.7c-0.1,0-0.2,0.1-0.2,0.2v1.1c0,0.1,0.1,0.2,0.2,0.2h26.7c0.1,0,0.2-0.1,0.2-0.2v-1.1
		C458.2,418.2,458.2,418.1,458.1,418.1z"/>
	<path class="st2" d="M11.4,187c5.1,0,9.5-3.7,10.2-8.7c0.1-0.9,0.2-1.8,0.2-2.8c0-11.2-9.1-20.2-20.2-20.2c-0.5,0-0.9,0-1.4,0.1
		c-0.9-11-10.2-19.7-21.4-19.7c-11.9,0-21.5,9.6-21.5,21.5c0,0.5,0,1,0.1,1.6c-3.4-1.9-7.3-2.9-11.5-2.7
		c-10.8,0.5-19.7,9.1-20.4,19.9c0,0.1,0,0.2,0,0.3c-0.3,5.9,4.4,10.8,10.3,10.8L11.4,187L11.4,187z"/>
	<path class="st2" d="M540.3,236.7c16,0,16.9-24.1,0.9-24.9c-0.4,0-0.9,0-1.3,0c-2.9,0-5.6,0.5-8.2,1.3c-2.1-13-13.5-23-27.1-23
		c-13.6,0-25.4,10.4-27.2,23.8c-3.3-1.6-7-2.5-10.9-2.5c-2.2,0-4.3,0.3-6.3,0.8c-14,3.6-11.1,24.4,3.4,24.4L540.3,236.7L540.3,236.7
		z"/>
	<path class="st2" d="M400.7,136.6c16,0,16.9-24.1,0.9-24.9c-0.4,0-0.9,0-1.3,0c-2.9,0-5.6,0.5-8.2,1.3c-2.1-13-13.4-23-27.1-23
		c-13.6,0-25.4,10.4-27.2,23.8c-3.3-1.6-7-2.5-10.9-2.5c-2.2,0-4.3,0.3-6.3,0.8c-14,3.6-11.1,24.4,3.4,24.4L400.7,136.6L400.7,136.6
		z"/>
	<path class="st2" d="M393.8,180.8c8.4,8.9,10.7,8.9,19.6,0.5c-8.9,8.4-8.9,10.7-0.5,19.6c-8.4-8.9-10.7-8.9-19.6-0.5
		C402.2,192,402.2,189.7,393.8,180.8z"/>
	<path class="st2" d="M87.1,112.2c8.4,8.9,10.7,8.9,19.6,0.5c-8.9,8.4-8.9,10.7-0.5,19.6c-8.4-8.9-10.7-8.9-19.6-0.5
		C95.4,123.3,95.5,121,87.1,112.2z"/>
	<path class="st2" d="M4,238.8c8.4,8.9,10.7,8.9,19.6,0.5c-8.9,8.4-8.9,10.7-0.5,19.6c-8.4-8.9-10.7-8.9-19.6-0.5
		C12.3,249.9,12.4,247.6,4,238.8z"/>
	<path class="st2" d="M-92,216.3c8.4,8.9,10.7,8.9,19.6,0.5c-8.9,8.4-8.9,10.7-0.5,19.6c-8.4-8.9-10.7-8.9-19.6-0.5
		C-83.7,227.5-83.6,225.2-92,216.3z"/>
	<path class="st2" d="M491.8,282.5c8.4,8.9,10.7,8.9,19.5,0.5c-8.9,8.4-8.9,10.7-0.5,19.6c-8.4-8.9-10.7-8.9-19.6-0.5
		C500.1,293.7,500.2,291.4,491.8,282.5z"/>
	<path class="st0" d="M189.4,254l76.6-22.5c1.4-0.4,2.3-1.9,1.8-3.4l-31.3-106.4c-0.4-1.4-1.9-2.3-3.4-1.8l-52.5,15.4
		c-0.7,0.2-1.2,0.6-1.6,1.3l-17.2,30.2c-0.4,0.6-0.5,1.4-0.2,2.1l24.4,83.3C186.4,253.6,187.9,254.5,189.4,254L189.4,254z"/>
	<path class="st5" d="M189.4,254l76.6-22.5c1.4-0.4,2.3-1.9,1.8-3.4l-31.3-106.4c-0.4-1.4-1.9-2.3-3.4-1.8l-52.5,15.4
		c-0.7,0.2-1.2,0.6-1.6,1.3l-17.2,30.2c-0.4,0.6-0.5,1.4-0.2,2.1l24.4,83.3C186.4,253.6,187.9,254.5,189.4,254L189.4,254z"/>
	<path class="st0" d="M180.3,136.9l6.4,21.8c0.4,1.5-0.4,3.1-2,3.6l-22.7,6.8"/>
	<path class="st5" d="M180.3,136.9l6.4,21.8c0.4,1.5-0.4,3.1-2,3.6l-22.7,6.8"/>
	<path class="st6" d="M195.3,217.1l-4.3,1.3c-0.3,0.1-0.5,0.5-0.4,0.8l5.4,18.3c0.1,0.3,0.5,0.5,0.8,0.4l4.3-1.3
		c0.3-0.1,0.5-0.5,0.4-0.8l-5.4-18.3C196,217.2,195.7,217,195.3,217.1z"/>
	<path class="st6" d="M219.2,216.2l-4.3,1.3c-0.3,0.1-0.5,0.5-0.4,0.8l3.7,12.7c0.1,0.3,0.5,0.5,0.8,0.4l4.3-1.3
		c0.3-0.1,0.5-0.5,0.4-0.8l-3.7-12.7C219.9,216.3,219.5,216.1,219.2,216.2z"/>
	<path class="st6" d="M228.7,207.3l-4.3,1.3c-0.3,0.1-0.5,0.5-0.4,0.8l5.4,18.3c0.1,0.3,0.5,0.5,0.8,0.4l4.3-1.3
		c0.3-0.1,0.5-0.5,0.4-0.8l-5.4-18.3C229.4,207.4,229,207.2,228.7,207.3z"/>
	<path class="st6" d="M204.8,208.3l-4.3,1.3c-0.3,0.1-0.5,0.5-0.4,0.8l7,23.8c0.1,0.3,0.5,0.5,0.8,0.4l4.3-1.3
		c0.3-0.1,0.5-0.5,0.4-0.8l-7-23.8C205.5,208.4,205.1,208.2,204.8,208.3z"/>
	<path class="st7" d="M179.1,180.4l51.5-15.1"/>
	<path class="st7" d="M181.6,188.8l51.5-15.1"/>
	<path class="st7" d="M184,197.1l51.5-15.1"/>
	<path class="st3" d="M293.9,225.3l1.9-4.1c0.4-0.8,0-1.7-0.8-2l-25.7-9.2l-1.1,2l23.6,13.9C292.6,226.4,293.5,226.1,293.9,225.3
		L293.9,225.3z"/>
	<path class="st6" d="M250.1,224.7c11.5,0,20.8-9.3,20.8-20.8s-9.3-20.8-20.8-20.8c-11.5,0-20.8,9.3-20.8,20.8
		S238.6,224.7,250.1,224.7z"/>
	<path class="st0" d="M250.1,220.4c9.1,0,16.4-7.4,16.4-16.4s-7.4-16.4-16.4-16.4c-9.1,0-16.4,7.4-16.4,16.4S241,220.4,250.1,220.4z
		"/>
	<path class="st5" d="M250.1,224.7c11.5,0,20.8-9.3,20.8-20.8s-9.3-20.8-20.8-20.8c-11.5,0-20.8,9.3-20.8,20.8
		S238.6,224.7,250.1,224.7z"/>
	<path class="st5" d="M250.2,195.9l-0.1,10.1"/>
	<path class="st5" d="M250,211.9L250,211.9L250,211.9L250,211.9L250,211.9z"/>
	<path class="st3" d="M470.8,369.8l-20.4,4.1l8.2,40.9l-43.8,8.8l-8.2-40.9l-80.2,16.1l-6.4-31.7l49-125.2l52.7-10.6l21.1,104.8
		l20.4-4.1L470.8,369.8z M387.6,288.1l-23.2,63.8l34.6-7L387.6,288.1L387.6,288.1z"/>
	<path class="st3" d="M133.5,391l-20.6-3.4l-6.9,41.1l-44-7.3l6.9-41.1l-80.7-13.5l5.3-31.9l90.3-99.6l53,8.8l-17.6,105.5l20.6,3.4
		L133.5,391L133.5,391z M84.7,285l-44.3,51.4l34.8,5.8L84.7,285z"/>
	<path class="st8" d="M599,375h-719v96h719V375z"/>
	<path class="st6" d="M-63.7,441.4h-41.1c-0.1,0-0.2,0.1-0.2,0.2v1.7c0,0.1,0.1,0.2,0.2,0.2h41.1c0.1,0,0.2-0.1,0.2-0.2v-1.7
		C-63.4,441.5-63.5,441.4-63.7,441.4z"/>
	<path class="st6" d="M49.1,441.4H8c-0.1,0-0.2,0.1-0.2,0.2v1.7c0,0.1,0.1,0.2,0.2,0.2h41.1c0.1,0,0.2-0.1,0.2-0.2v-1.7
		C49.3,441.5,49.2,441.4,49.1,441.4z"/>
	<path class="st6" d="M151.7,414.9h-41.1c-0.1,0-0.2,0.1-0.2,0.2v1.7c0,0.1,0.1,0.2,0.2,0.2h41.1c0.1,0,0.2-0.1,0.2-0.2v-1.7
		C152,415,151.9,414.9,151.7,414.9z"/>
	<path class="st6" d="M210.1,444.2H169c-0.1,0-0.2,0.1-0.2,0.2v1.7c0,0.1,0.1,0.2,0.2,0.2h41.1c0.1,0,0.2-0.1,0.2-0.2v-1.7
		C210.4,444.3,210.2,444.2,210.1,444.2z"/>
	<path class="st6" d="M354.1,444.2H313c-0.1,0-0.2,0.1-0.2,0.2v1.7c0,0.1,0.1,0.2,0.2,0.2h41.1c0.1,0,0.2-0.1,0.2-0.2v-1.7
		C354.4,444.3,354.3,444.2,354.1,444.2z"/>
	<path class="st6" d="M515.3,442.6h-41.1c-0.1,0-0.2,0.1-0.2,0.2v1.7c0,0.1,0.1,0.2,0.2,0.2h41.1c0.1,0,0.2-0.1,0.2-0.2v-1.7
		C515.5,442.7,515.4,442.6,515.3,442.6z"/>
	<path class="st6" d="M3.4,410.6h-41.1c-0.1,0-0.2,0.1-0.2,0.2v1.7c0,0.1,0.1,0.2,0.2,0.2H3.4c0.1,0,0.2-0.1,0.2-0.2v-1.7
		C3.6,410.8,3.5,410.6,3.4,410.6z"/>
	<path class="st6" d="M290.2,409.6h-41.1c-0.1,0-0.2,0.1-0.2,0.2v1.7c0,0.1,0.1,0.2,0.2,0.2h41.1c0.1,0,0.2-0.1,0.2-0.2v-1.7
		C290.4,409.7,290.3,409.6,290.2,409.6z"/>
	<path class="st6" d="M582.3,409.4h-41.1c-0.1,0-0.2,0.1-0.2,0.2v1.7c0,0.1,0.1,0.2,0.2,0.2h41.1c0.1,0,0.2-0.1,0.2-0.2v-1.7
		C582.6,409.5,582.5,409.4,582.3,409.4z"/>
	<path class="st6" d="M438.5,399h-41.1c-0.1,0-0.2,0.1-0.2,0.2v1.7c0,0.1,0.1,0.2,0.2,0.2h41.1c0.1,0,0.2-0.1,0.2-0.2v-1.7
		C438.8,399.1,438.7,399,438.5,399z"/>
</g>
</svg>
