<?xml version="1.0" encoding="utf-8"?>
<!-- Generator: Adobe Illustrator 19.0.0, SVG Export Plug-In . SVG Version: 6.00 Build 0)  -->
<svg version="1.1" id="Layer_1" xmlns="http://www.w3.org/2000/svg" xmlns:xlink="http://www.w3.org/1999/xlink" x="0px" y="0px"
	 viewBox="-332 196 614 410" style="enable-background:new -332 196 614 410;" xml:space="preserve">
<style type="text/css">
	.st0{clip-path:url(#SVGID_2_);}
	.st1{fill:#EFE8EC;}
	.st2{fill:#FFFFFF;}
	.st3{fill:#ECECEC;}
	.st4{fill:#E4E4E4;}
	.st5{fill:#FFDFAC;}
	.st6{fill:#FDE9C9;}
	.st7{fill:#ED9500;}
	.st8{fill:#F7A726;}
	.st9{fill:#823756;}
</style>
<g>
	<defs>
		<rect id="SVGID_1_" x="-331.3" y="196" width="612.6" height="410"/>
	</defs>
	<clipPath id="SVGID_2_">
		<use xlink:href="#SVGID_1_"  style="overflow:visible;"/>
	</clipPath>
	<g class="st0">
		<path class="st1" d="M276.6,506.9h-64.4c4.7-19.2,7.2-39.3,7.2-59.9c0-41.1-9.9-79.8-27.3-114h45.7c2.6,0,4.8-2.1,4.8-4.8
			c0-2.6-2.1-4.8-4.8-4.8h-50.8C143.8,247.4,62.1,196-31.7,196c-62.3,0-119.4,22.7-163.2,60.3h-77.3c-2.6,0-4.8,2.1-4.8,4.8
			c0,2.6,2.1,4.8,4.8,4.8h66.8c-5.3,5.1-10.4,10.5-15.3,16h-105.9c-2.6,0-4.8,2.1-4.8,4.8c0,2.6,2.1,4.8,4.8,4.8h97.9
			c-33.8,42.8-54,96.8-54,155.6c0,32.9,6.3,64.3,17.8,93.1h-12.5c-2.6,0-4.8,2.1-4.8,4.8c0,2.6,2.1,4.8,4.8,4.8h16.6
			c1.7,3.9,3.6,7.7,5.5,11.4h-56.3c-2.6,0-4.8,2.1-4.8,4.8c0,2.6,2.1,4.8,4.8,4.8h61.4c5.9,10.4,12.4,20.3,19.7,29.6h397.8
			c13.5-17.5,24.8-36.9,33.3-57.6h46.7c2.6,0,4.8-2.1,4.8-4.8s-2.1-4.8-4.8-4.8h-43c2-5.4,3.8-11,5.4-16.6h66.9
			c2.6,0,4.8-2.1,4.8-4.8C281.3,509.1,279.2,506.9,276.6,506.9z"/>
		<path class="st2" d="M73.8,600.2H43.4c0-2.2,1.8-4,4-4h22.5C72.1,596.2,73.8,598,73.8,600.2L73.8,600.2z"/>
		<path class="st2" d="M66.6,596.2h-16L55.8,448l3.5,2.3L66.6,596.2z"/>
		<path class="st2" d="M71.6,600.2H41.2c0-2.2,1.8-4,4-4h22.5C69.8,596.2,71.6,598,71.6,600.2L71.6,600.2z"/>
		<path class="st2" d="M56.4,449.3l76.5,44.2l-0.8-4.3c-0.2-0.9-0.6-1.6-1.3-2.2l-50-38.7c-0.9-0.7-2.1-0.9-3.2-0.6l-10,3
			c-0.9,0.3-2,0.2-2.8-0.3l-6.7-3.8L56.4,449.3L56.4,449.3z"/>
		<path class="st2" d="M54.8,446.5l-76.5,44.2l4.2,1.4c0.8,0.3,1.7,0.3,2.5-0.1l58.5-23.9c1.1-0.4,1.9-1.4,2.1-2.5l2.4-10.2
			c0.2-1,0.8-1.8,1.7-2.3l6.7-3.8L54.8,446.5L54.8,446.5z"/>
		<path class="st2" d="M58,446.5v-88.4l-3.3,2.9c-0.7,0.6-1.1,1.4-1.2,2.2l-8.5,62.6c-0.2,1.1,0.3,2.3,1.1,3.1l7.6,7.2
			c0.7,0.7,1.1,1.6,1.1,2.6v7.7H58z"/>
		<path class="st2" d="M63.7,596.2H49L54.2,448h4.3L63.7,596.2z"/>
		<path class="st2" d="M60,448.8c0.5-2-0.8-4-2.8-4.5c-2-0.5-4,0.8-4.5,2.8c-0.5,2,0.8,4,2.8,4.5C57.5,452.1,59.5,450.8,60,448.8z"
			/>
		<path class="st2" d="M56.1,451.2c1.9,0,3.4-1.5,3.4-3.4c0-1.9-1.5-3.4-3.4-3.4c-1.9,0-3.4,1.5-3.4,3.4
			C52.7,449.6,54.2,451.2,56.1,451.2z"/>
		<path class="st2" d="M-20.4,491.1l73.1-43.4l-0.1,0l-74.4,42.9L-20.4,491.1z"/>
		<path class="st2" d="M63.7,595.2H49.1v1h14.7V595.2z"/>
		<path class="st2" d="M56.9,359l1,85.6l0.1,0v-86.5L56.9,359z"/>
		<path class="st2" d="M132.6,492l-74.1-41.6l0,0.1l74.4,42.9L132.6,492z"/>
		<path class="st3" d="M173.7,600.2h-48.7c0-3.5,2.8-6.4,6.4-6.4h36C170.9,593.8,173.7,596.6,173.7,600.2L173.7,600.2z"/>
		<path class="st3" d="M162.2,593.8h-25.6l8.3-237.3l5.6,3.7L162.2,593.8z"/>
		<path class="st2" d="M170.1,600.2h-48.7c0-3.5,2.8-6.4,6.4-6.4h36C167.3,593.8,170.1,596.6,170.1,600.2L170.1,600.2z"/>
		<path class="st2" d="M145.8,358.6l122.5,70.7l-1.5-7.8c-0.2-0.9-0.6-1.6-1.3-2.2l-81.5-63.1c-0.9-0.7-2.1-0.9-3.2-0.6l-18,5.4
			c-0.9,0.3-2,0.2-2.8-0.3l-11.5-6.6L145.8,358.6L145.8,358.6z"/>
		<path class="st2" d="M143.2,354.1L20.7,424.8l7.5,2.6c0.8,0.3,1.7,0.3,2.5-0.1l97.1-39.8L133,366l12.8-7.4L143.2,354.1
			L143.2,354.1z"/>
		<path class="st2" d="M148.4,354.1V212.6l-6,5.2c-0.7,0.6-1.1,1.4-1.2,2.2l-13.9,102.2c-0.2,1.1,0.3,2.3,1.1,3.1l13.7,12.9
			c0.7,0.7,1.1,1.6,1.1,2.6v13.2L148.4,354.1L148.4,354.1z"/>
		<path class="st2" d="M157.5,593.8H134l8.3-237.3h6.9L157.5,593.8z"/>
		<path class="st3" d="M151.3,358.8c1.3-3.1-0.2-6.6-3.3-7.9c-3.1-1.3-6.6,0.2-7.9,3.3c-1.3,3.1,0.2,6.6,3.3,7.9
			C146.5,363.3,150.1,361.9,151.3,358.8z"/>
		<path class="st2" d="M150.4,358.2c1.2-2.8-0.2-6-3-7.2c-2.8-1.2-6,0.2-7.2,3c-1.2,2.8,0.2,6,3,7.2
			C146.1,362.4,149.3,361,150.4,358.2z"/>
		<path class="st3" d="M22.9,425.6l117-69.4l-0.1-0.1L20.7,424.8L22.9,425.6z"/>
		<path class="st3" d="M157.5,592.2h-23.5v1.5h23.5V592.2z"/>
		<path class="st3" d="M146.6,214.1l1.6,137l0.1,0V212.6L146.6,214.1z"/>
		<path class="st3" d="M267.8,427l-118.6-66.6l0,0.1l119.1,68.8L267.8,427z"/>
		<path class="st2" d="M-187.7,391.2c0-15.7-12.8-28.5-28.5-28.5s-28.5,12.8-28.5,28.5v65.6c0,15.7,12.8,28.5,28.5,28.5
			s28.5-12.8,28.5-28.5V391.2z"/>
		<path class="st4" d="M-214.6,600.3h-3.1V408.2c0-0.9,0.7-1.6,1.6-1.6s1.6,0.7,1.6,1.6V600.3z"/>
		<path class="st4" d="M-214.6,434.3l-8.6-15c-0.4-0.7-1.4-1-2.1-0.6c-0.7,0.4-1,1.4-0.6,2.1l8.6,15L-214.6,434.3L-214.6,434.3z"/>
		<path class="st4" d="M-215,452.2l8.6-15c0.4-0.7,0.2-1.7-0.6-2.1c-0.7-0.4-1.7-0.2-2.1,0.6l-8.6,15L-215,452.2L-215,452.2z"/>
		<path class="st2" d="M-107.2,334.5c0-20-16.2-36.2-36.2-36.2c-20,0-36.2,16.2-36.2,36.2v83.3c0,20,16.2,36.2,36.2,36.2
			c20,0,36.2-16.2,36.2-36.2V334.5z"/>
		<path class="st4" d="M-141.4,600.1h-3.9V356.2c0-1.1,0.9-2,2-2s2,0.9,2,2L-141.4,600.1L-141.4,600.1z"/>
		<path class="st4" d="M-141.4,389.3l-11-19c-0.5-0.9-1.8-1.3-2.7-0.7c-0.9,0.5-1.3,1.8-0.7,2.7l11,19L-141.4,389.3z"/>
		<path class="st4" d="M-141.9,412l11-19c0.5-0.9,0.2-2.2-0.7-2.7c-0.9-0.5-2.2-0.2-2.7,0.7l-11,19L-141.9,412z"/>
		<path class="st5" d="M-198.6,589.5c1.7-1.6,2.4-3.3,1.8-4.6c-0.8-1.6-3.5-1.8-6.4-0.7c0.1-0.4,0.3-0.8,0.4-1.2
			c1.5-4.9,0.7-9.6-2-10.4c-2.6-0.8-5.8,2.3-7.4,7.1c-1.3-5.4-4.7-9.2-7.6-8.5c-2.7,0.6-4.1,5-3.2,10.1c-4-1.8-7.9-1.6-9.1,0.5
			c-1.3,2.2,0.7,5.8,4.5,8.4c-1.8,0.6-3,1.7-3.2,3.1c-0.2,1.7,1.2,3.4,3.5,4.4c-0.1,0.3-0.2,0.7-0.1,1c0.2,1,1.5,1.7,3.2,1.7v0h0.3
			c0,0,0,0,0,0h21.4v0c0.4-0.1,0.7-0.2,0.8-0.5c0.1-0.2,0-0.4-0.1-0.6c1.1-0.1,2-0.6,2.3-1.3c0.2-0.6,0.1-1.2-0.4-1.9
			c2.9-0.2,5.2-1.5,5.2-3.1C-194.6,591.4-196.2,590.1-198.6,589.5L-198.6,589.5z"/>
		<path class="st6" d="M-153.6,580.4c3.1-2.9,4.4-6.1,3.2-8.5c-1.5-2.9-6.5-3.3-11.8-1.3c0.3-0.7,0.5-1.4,0.8-2.1
			c2.8-9.1,1.2-17.6-3.6-19.2c-4.7-1.5-10.7,4.3-13.7,13c-2.4-10-8.7-17-14-15.7c-5,1.2-7.5,9.3-5.9,18.6c-7.4-3.3-14.5-3-16.7,0.9
			c-2.3,4.1,1.3,10.7,8.3,15.5c-3.3,1.1-5.6,3.1-5.9,5.7c-0.4,3.1,2.3,6.2,6.5,8.1c-0.2,0.6-0.3,1.2-0.2,1.8c0.4,1.9,2.8,3,5.9,3.2
			v0h0.5c0,0,0,0,0,0h39.3v0c0.8-0.1,1.3-0.4,1.5-0.9c0.1-0.3,0.1-0.7-0.1-1.1c2.1-0.2,3.6-1,4.1-2.4c0.4-1.1,0.1-2.3-0.7-3.5
			c5.4-0.4,9.5-2.7,9.6-5.7C-146.2,583.9-149.2,581.5-153.6,580.4L-153.6,580.4z"/>
		<path class="st6" d="M114.1,582.5c-2.7-2.6-4-5.5-2.9-7.5c1.3-2.5,5.8-2.9,10.5-1.1c-0.2-0.6-0.5-1.3-0.7-1.9
			c-2.5-8.1-1.1-15.7,3.2-17.1c4.2-1.3,9.6,3.8,12.2,11.6c2.2-8.9,7.7-15.1,12.5-14c4.5,1.1,6.7,8.3,5.2,16.5
			c6.6-2.9,12.9-2.7,14.9,0.8c2.1,3.6-1.2,9.5-7.4,13.8c2.9,1,5,2.8,5.2,5c0.3,2.8-2,5.5-5.8,7.2c0.2,0.5,0.3,1.1,0.1,1.6
			c-0.4,1.7-2.5,2.7-5.3,2.8v0h-0.4c0,0,0,0,0,0h-35v0c-0.7-0.1-1.2-0.4-1.4-0.8c-0.1-0.3-0.1-0.7,0.1-1c-1.8-0.2-3.2-0.9-3.7-2.1
			c-0.4-0.9-0.1-2,0.6-3.1c-4.8-0.3-8.5-2.4-8.6-5.1C107.5,585.6,110.2,583.5,114.1,582.5L114.1,582.5z"/>
		<path class="st5" d="M154.5,593.1c-1.1-1-1.6-2.2-1.2-3c0.5-1,2.3-1.2,4.2-0.5c-0.1-0.3-0.2-0.5-0.3-0.8c-1-3.3-0.4-6.3,1.3-6.9
			c1.7-0.5,3.9,1.5,4.9,4.7c0.9-3.6,3.1-6.1,5-5.7c1.8,0.4,2.7,3.3,2.1,6.7c2.6-1.2,5.2-1.1,6,0.3c0.8,1.5-0.5,3.8-3,5.6
			c1.2,0.4,2,1.1,2.1,2c0.1,1.1-0.8,2.2-2.3,2.9c0.1,0.2,0.1,0.4,0.1,0.6c-0.2,0.7-1,1.1-2.1,1.1h-0.2c0,0,0,0,0,0h-14.1v0
			c-0.3,0-0.5-0.2-0.6-0.3c0-0.1,0-0.3,0-0.4c-0.7-0.1-1.3-0.4-1.5-0.9c-0.1-0.4,0-0.8,0.3-1.3c-1.9-0.1-3.4-1-3.5-2.1
			C151.9,594.3,153,593.5,154.5,593.1L154.5,593.1z"/>
		<path class="st2" d="M-17.8,583.5c-2.6-2.4-3.7-5.2-2.7-7.1c1.3-2.4,5.4-2.8,9.9-1.1c-0.2-0.6-0.4-1.2-0.6-1.8
			c-2.4-7.6-1-14.8,3-16.1c4-1.2,9,3.6,11.5,10.9c2-8.4,7.3-14.2,11.8-13.2c4.2,1,6.3,7.8,4.9,15.6c6.2-2.7,12.2-2.5,14.1,0.8
			c2,3.4-1.1,8.9-6.9,13c2.8,0.9,4.7,2.6,4.9,4.8c0.3,2.6-1.9,5.2-5.5,6.8c0.2,0.5,0.3,1,0.1,1.5c-0.4,1.6-2.4,2.6-5,2.7v0h-0.4
			c0,0,0,0,0,0h-33v0c-0.6-0.1-1.1-0.4-1.3-0.8c-0.1-0.3-0.1-0.6,0.1-1c-1.7-0.2-3-0.9-3.5-2c-0.3-0.9-0.1-1.9,0.6-2.9
			c-4.5-0.3-8-2.3-8.1-4.8C-24,586.5-21.5,584.4-17.8,583.5L-17.8,583.5z"/>
		<path class="st6" d="M19.3,590.8c-1.5-1.4-2.1-2.9-1.5-4c0.7-1.4,3.1-1.6,5.6-0.6c-0.1-0.3-0.3-0.7-0.4-1
			c-1.3-4.3-0.6-8.4,1.7-9.1c2.2-0.7,5.1,2,6.5,6.2c1.2-4.7,4.1-8.1,6.7-7.5c2.4,0.6,3.6,4.4,2.8,8.8c3.5-1.5,6.9-1.4,8,0.4
			c1.1,1.9-0.6,5.1-3.9,7.4c1.6,0.5,2.6,1.5,2.8,2.7c0.2,1.5-1.1,2.9-3.1,3.8c0.1,0.3,0.1,0.6,0.1,0.9c-0.2,0.9-1.3,1.4-2.8,1.5v0
			h-0.2c0,0,0,0,0,0H22.7v0c-0.4,0-0.6-0.2-0.7-0.4c-0.1-0.2,0-0.4,0.1-0.5c-1-0.1-1.7-0.5-2-1.1c-0.2-0.5,0-1.1,0.3-1.7
			c-2.6-0.2-4.5-1.3-4.6-2.7C15.8,592.4,17.2,591.3,19.3,590.8L19.3,590.8z"/>
		<path class="st2" d="M38,365.5c-0.2,0-0.5,0-0.7,0.1c0-0.1,0-0.2,0-0.3c0-2.6-2.1-4.7-4.7-4.7c-2.2,0-4,1.5-4.5,3.4
			c-0.3-0.1-0.5-0.1-0.8-0.1c-1.7,0-3.1,1.4-3.1,3.1c0,1.7,1.4,3.1,3.1,3.1c0.1,0,0.1,0,0.2,0v0H38c1.2,0,2.2-1,2.2-2.2
			C40.3,366.5,39.3,365.5,38,365.5L38,365.5z"/>
		<path class="st2" d="M-44.3,314c-1.3,0-2.5,0.4-3.5,1c-1.1-4.6-5.1-8-10-8c-0.4,0-0.9,0-1.3,0.1c-2.3-5.1-7.4-8.6-13.3-8.6
			c-8,0-14.6,6.5-14.6,14.6c0,0.1,0,0.2,0,0.3c-1-0.5-2.1-0.7-3.2-0.7c-4.1,0-7.5,3.4-7.5,7.5s3.4,7.5,7.5,7.5h45.8
			c3.8,0,6.8-3,6.8-6.8C-37.5,317-40.5,314-44.3,314L-44.3,314z"/>
		<path class="st2" d="M-114.1,475.7c0.8,0,1.6,0.2,2.3,0.6c0.7-3,3.4-5.2,6.6-5.2c0.3,0,0.6,0,0.8,0.1c1.5-3.3,4.8-5.7,8.7-5.7
			c5.3,0,9.6,4.3,9.6,9.6c0,0.1,0,0.1,0,0.2c0.6-0.3,1.4-0.5,2.1-0.5c2.7,0,4.9,2.2,4.9,4.9c0,2.7-2.2,4.9-4.9,4.9h-30.1
			c-2.5,0-4.5-2-4.5-4.5C-118.6,477.7-116.6,475.7-114.1,475.7L-114.1,475.7z"/>
		<path class="st4" d="M185.7,573.5l-0.1,0.3c0,0-0.2,0.7-0.7,1.6c-0.4,0.8-1.2,1.9-2.3,2.6c-1.2,0.7-2.5,0.8-3.4,0.8
			c-1,0-1.7-0.2-1.7-0.2l-0.3-0.1l0.1-0.3c0,0,0.2-0.7,0.7-1.6c0.4-0.8,1.2-1.9,2.3-2.6c1.2-0.7,2.5-0.8,3.4-0.8
			c1,0,1.7,0.2,1.7,0.2L185.7,573.5z M178,578c0.7,0.1,2.8,0.4,4.4-0.6c1.6-1,2.4-2.9,2.6-3.6c-0.7-0.1-2.8-0.4-4.4,0.6
			C179,575.4,178.2,577.3,178,578z"/>
		<path class="st2" d="M181.8,580c-2.6,1-5.5-0.3-5.5-0.3s1.3-2.9,3.9-3.8c2.6-1,5.5,0.3,5.5,0.3S184.4,579,181.8,580z"/>
		<path class="st4" d="M176.3,542.4v0.3c0,0,0,0.9-0.3,2.1c-0.3,1.1-0.8,2.7-2,3.8c-1.2,1.2-2.8,1.7-3.9,2c-1.2,0.3-2.1,0.3-2.1,0.3
			h-0.3v-0.3c0,0,0-0.9,0.3-2.1c0.3-1.1,0.8-2.7,2-3.8c1.2-1.2,2.8-1.7,3.9-2c1.2-0.3,2.1-0.3,2.1-0.3L176.3,542.4L176.3,542.4z
			 M168.3,550.3c0.9-0.1,3.5-0.4,5.1-2c1.7-1.7,2-4.2,2.1-5.1c-0.9,0.1-3.5,0.4-5.1,2C168.8,546.8,168.4,549.3,168.3,550.3z"/>
		<path class="st2" d="M173.6,551.4c-2.8,2-6.7,1.3-6.7,1.3s0.7-3.9,3.5-5.8c2.8-2,6.7-1.3,6.7-1.3S176.4,549.5,173.6,551.4z"/>
		<path class="st4" d="M-182.4,533.3l0.2,0.2c0,0,0.6,0.5,1.2,1.3c0.6,0.8,1.2,2,1.4,3.4c0.1,1.4-0.4,2.7-0.8,3.5
			c-0.5,0.9-0.9,1.5-1,1.5l-0.2,0.2l-0.2-0.2c0,0-0.6-0.5-1.2-1.3c-0.6-0.8-1.2-2-1.4-3.4c-0.1-1.4,0.4-2.7,0.8-3.5
			c0.5-0.9,0.9-1.5,1-1.5L-182.4,533.3L-182.4,533.3z M-181.7,542.6c0.5-0.6,1.6-2.4,1.4-4.4c-0.2-2-1.6-3.5-2.1-4.1
			c-0.5,0.6-1.6,2.4-1.4,4.4C-183.6,540.4-182.2,542-181.7,542.6z"/>
		<path class="st2" d="M-178.1,539.8c-0.3,2.9-2.8,5-2.8,5s-2.1-2.5-1.8-5.4c0.3-2.9,2.8-5,2.8-5S-177.9,537-178.1,539.8z"/>
		<path class="st4" d="M-237.4,566.2l0.2,0c0,0,0.7,0,1.5,0.1c0.8,0.1,1.9,0.4,2.8,1.2c0.9,0.8,1.4,1.8,1.6,2.6
			c0.3,0.8,0.3,1.4,0.3,1.5l0,0.2l-0.2,0c0,0-0.7,0-1.5-0.1c-0.8-0.1-1.9-0.4-2.8-1.2c-0.9-0.8-1.4-1.8-1.6-2.6
			c-0.3-0.8-0.3-1.4-0.3-1.5L-237.4,566.2z M-231.5,571.4c-0.1-0.7-0.5-2.4-1.7-3.5c-1.2-1.1-3-1.2-3.7-1.2c0.1,0.6,0.5,2.4,1.7,3.5
			C-234,571.3-232.2,571.4-231.5,571.4z"/>
		<path class="st2" d="M-231,567.7c1.5,1.9,1.2,4.6,1.2,4.6s-2.7-0.3-4.3-2.2c-1.5-1.9-1.2-4.6-1.2-4.6S-232.5,565.8-231,567.7z"/>
		<path class="st4" d="M103.4,558.8l0.3,0c0,0,0.7,0,1.7,0.2c0.9,0.2,2.1,0.6,3.1,1.5c1,0.9,1.4,2.1,1.7,3c0.3,0.9,0.3,1.6,0.3,1.7
			l0,0.3l-0.3,0c0,0-0.7,0-1.7-0.2c-0.9-0.2-2.1-0.6-3.1-1.5c-1-0.9-1.4-2.1-1.7-3c-0.3-0.9-0.3-1.6-0.3-1.7L103.4,558.8z
			 M109.8,564.9c-0.1-0.7-0.4-2.7-1.8-4c-1.3-1.3-3.3-1.5-4.1-1.5c0.1,0.7,0.4,2.7,1.8,4C107,564.6,109,564.8,109.8,564.9z"/>
		<path class="st2" d="M110.5,560.7c1.6,2.2,1.2,5.2,1.2,5.2s-3.1-0.5-4.7-2.6c-1.6-2.2-1.2-5.2-1.2-5.2S108.9,558.5,110.5,560.7z"
			/>
		<path class="st7" d="M27.6,583.5H-98.8l2.3-8.3l4.5-16.3l2.7-9.8l4-14.5l7.7-28l4-14.5l28.2-102h19.5l10.3,37.4l17.9,64.6l4,14.5
			l7.7,28l4,14.5l7.2,26.1L27.6,583.5z"/>
		<path class="st8" d="M27.6,583.5H-98.8l2.3-8.3l4.5-16.3c88.1-5.2,76.5-131.5,76.5-131.5l40.8,147.7L27.6,583.5L27.6,583.5z"/>
		<path class="st8" d="M53.4,583.5h-178.1v16.9H53.4V583.5z"/>
		<path class="st9" d="M27.6,583.5H-98.8l2.3-8.3H25.3L27.6,583.5z"/>
		<path class="st7" d="M6.3,506.6c0,0-2.6,55.8-66.8,68.6l85.8,0L6.3,506.6z"/>
		<path class="st2" d="M6.3,506.6h-83.9l4-14.5H2.3L6.3,506.6z"/>
		<path class="st2" d="M18.1,549.1H-89.3l4-14.5h99.3L18.1,549.1z"/>
		<path class="st7" d="M12.2,583.5c0,0-23.6,17.8-111,16.9H53.4v-16.9H12.2L12.2,583.5z"/>
		<path class="st9" d="M79.6,600.2h-232.9c-1.6,0-2.9,1.3-2.9,2.9v0.1c0,1.6,1.3,2.9,2.9,2.9H79.6c1.6,0,2.9-1.3,2.9-2.9v-0.1
			C82.5,601.5,81.2,600.2,79.6,600.2z"/>
		<path class="st9" d="M-148.9,600.2h-37.7c-1.6,0-2.9,1.3-2.9,2.9v0.1c0,1.6,1.3,2.9,2.9,2.9h37.7c1.6,0,2.9-1.3,2.9-2.9v-0.1
			C-146,601.5-147.3,600.2-148.9,600.2z"/>
		<path class="st9" d="M-203.9,600.2h-39.6c-1.6,0-2.9,1.3-2.9,2.9v0.1c0,1.6,1.3,2.9,2.9,2.9h39.6c1.6,0,2.9-1.3,2.9-2.9v-0.1
			C-201,601.5-202.3,600.2-203.9,600.2z"/>
		<path class="st9" d="M129.9,600.2H97.4c-1.6,0-2.9,1.3-2.9,2.9v0.1c0,1.6,1.3,2.9,2.9,2.9h32.5c1.6,0,2.9-1.3,2.9-2.9v-0.1
			C132.7,601.5,131.5,600.2,129.9,600.2z"/>
		<path class="st9" d="M172.4,600.2h-24.7c-1.6,0-2.9,1.3-2.9,2.9v0.1c0,1.6,1.3,2.9,2.9,2.9h24.7c1.6,0,2.9-1.3,2.9-2.9v-0.1
			C175.3,601.5,174,600.2,172.4,600.2z"/>
	</g>
</g>
</svg>
