<?xml version="1.0" encoding="utf-8"?>
<!-- Generator: Adobe Illustrator 19.0.0, SVG Export Plug-In . SVG Version: 6.00 Build 0)  -->
<svg version="1.1" xmlns="http://www.w3.org/2000/svg" xmlns:xlink="http://www.w3.org/1999/xlink" x="0px" y="0px"
	 viewBox="0 0 2982.1 3004.7" style="enable-background:new 0 0 2982.1 3004.7;" xml:space="preserve">
<style type="text/css">
	.st0{fill:#F4F7FA;}
	.st1{fill:url(#SVGID_1_);}
	.st2{opacity:0.16;fill:#FFFFFF;}
	.st3{fill:url(#SVGID_2_);}
	.st4{fill:url(#SVGID_3_);}
	.st5{fill:url(#SVGID_4_);}
	.st6{fill:url(#SVGID_5_);}
	.st7{fill:url(#SVGID_6_);}
	.st8{fill:url(#SVGID_7_);}
	.st9{fill:url(#SVGID_8_);}
	.st10{opacity:0.68;fill:#FFFFFF;}
	.st11{fill:url(#SVGID_9_);}
	.st12{fill:url(#SVGID_10_);}
	.st13{fill:url(#SVGID_11_);}
	.st14{fill:#FFFFFF;}
	.st15{fill:url(#SVGID_12_);}
	.st16{fill:url(#SVGID_13_);}
	.st17{opacity:0.7;fill:#FFFFFF;}
	.st18{fill:url(#SVGID_14_);}
	.st19{fill:url(#SVGID_15_);}
	.st20{fill:url(#SVGID_16_);}
	.st21{fill:url(#SVGID_17_);}
	.st22{fill:url(#SVGID_18_);}
	.st23{opacity:0.3;fill:url(#SVGID_19_);}
	.st24{fill:url(#SVGID_20_);}
	.st25{fill:url(#SVGID_21_);}
	.st26{fill:url(#SVGID_22_);}
	.st27{fill:url(#SVGID_23_);}
	.st28{fill:url(#SVGID_24_);}
	.st29{opacity:0.3;fill:url(#SVGID_25_);}
	.st30{fill:url(#SVGID_26_);}
	.st31{fill:url(#SVGID_27_);}
	.st32{opacity:0.3;fill:url(#SVGID_28_);}
	.st33{fill:url(#SVGID_29_);}
	.st34{fill:url(#SVGID_30_);}
	.st35{opacity:0.3;fill:#E6D8E8;}
	.st36{opacity:0.56;fill:#FFFFFF;}
	.st37{fill:url(#SVGID_31_);}
	.st38{fill:url(#SVGID_32_);}
	.st39{fill:url(#SVGID_33_);}
</style>
<g id="Background">
</g>
<g id="Illustration">
	<g>
		<path class="st0" d="M2773.5,2011.9c-204.3,231.9-545.4,209-544.6,318.3c0.8,120.7,416.6,141,424.4,254.6
			c10.5,153.9-730.1,450-1503.2,328.7c-266.4-41.8-518.6-82.1-736.1-278.7C-182.4,2096.3,254.3,956,325.4,767.3
			c140.6-373,314.8-493.3,368.7-530.8c280.4-195.1,603.1-163,891.2-134.4c218.2,21.7,544.9,58.5,843.2,304.5
			c50.9,41.9,163.1,141.6,264.2,299.7C2938.4,1090.5,3047,1701.6,2773.5,2011.9z"/>
		<g>
			
				<linearGradient id="SVGID_1_" gradientUnits="userSpaceOnUse" x1="-22.9491" y1="937.5897" x2="1226.9113" y2="937.5897" gradientTransform="matrix(0.9992 3.920000e-002 -3.920000e-002 0.9992 88.9563 -61.4868)">
				<stop  offset="3.597120e-003" style="stop-color:#8DE3BE"/>
				<stop  offset="1" style="stop-color:#A4F671"/>
			</linearGradient>
			<path class="st1" d="M998.6,1726.7c49.1-14.9,131.9-39.9,192-116c109.4-138.3,73.1-355.5-3.1-493.7
				c-65.5-118.7-186.8-196-429.5-350.4c-228.6-145.5-306.7-162.3-326.1-251C404.2,389.3,535,295.5,480.6,152.9
				c-6.5-17.1-28.9-75.9-82.6-98.1c-91.8-38-210.7,57.9-266.4,128.7C77.9,251.8,19.9,376.8,63.1,478
				c31.3,73.3,89.1,71.9,101.2,139.3c12.2,67.8-42.6,89.8-68.2,201.4c-10.2,44.6-30.7,134,8.6,211.1
				c50.8,99.7,155.6,88.4,174.6,171.3c13.7,59.9-36.6,85.3-35.6,154.6c1.3,91.2,90,158.2,164.5,213
				C496,1633.2,732.8,1807.3,998.6,1726.7z"/>
			<path class="st2" d="M362.8,93.5c48.8,36.3-100.3,186.3-65.9,391.6C333.8,705.9,560.5,856,665.3,925.3
				c178.8,118.3,257.1,96.9,370.5,227.4c44.9,51.7,138.3,159.3,123,304.1c-1.4,13.5-19.6,163.2-137.6,230.7
				c-133.9,76.5-294.5-11.1-432.9-86.5c-83.6-45.6-250.7-136.7-235.5-230.6c9.3-57.4,84.6-102.6,145.7-114.4
				c87.2-16.9,157.6,31.9,165.9,17c7.5-13.3-42.4-65.7-111.8-105.6c-138.8-79.7-213.8-27.6-316.4-100.9
				c-12.4-8.9-110-80.7-108.7-185.5c0.8-60.5,34.4-133.5,83.6-144.3c55.7-12.2,107.1,60.4,120.3,49c12.6-10.9-26.8-84-76.3-150.5
				c-72.7-97.7-106.6-99.9-132.8-161.2c-39.9-93.5-3.8-188.7,1.6-202.3C174.4,144.2,321,62.5,362.8,93.5z"/>
		</g>
		<g>
			
				<linearGradient id="SVGID_2_" gradientUnits="userSpaceOnUse" x1="1166.3796" y1="1228.2203" x2="929.5494" y2="2495.5833" gradientTransform="matrix(0.9992 3.940000e-002 -3.940000e-002 0.9992 -258.5296 -551.8347)">
				<stop  offset="3.597120e-003" style="stop-color:#8DE3BE"/>
				<stop  offset="1" style="stop-color:#A4F671"/>
			</linearGradient>
			<path class="st3" d="M796.9,1388.7c24.7,31.2,221.1,6.5,334.3-91.6c22.7-19.7,63.6-55.2,74.5-108.6
				c13.3-65.2-33.3-83.2-24.7-153.2c7.8-64.2,48.8-63.4,60.8-142.6c4.5-29.7,13.6-90-31.3-123.2c-26.1-19.3-48-13-60-30.2
				c-21.4-30.9,43-59.8,46.5-122.5c1.9-33.9-15.9-59.9-51.5-112c-32.4-47.4-50.6-74.1-85.4-81.5c-51.1-10.9-80.5,32-114.8,21.1
				c-55.5-17.6-0.6-136.9-80.4-195.6c-50.9-37.5-130.1-30.8-144.2-29.4C568.4,234.8,430.9,403,472.2,524.2
				c32.6,95.6,164.4,126.6,155.3,222.3c-3.2,33.2-20.9,48.7-14.7,91.4c7.9,55.2,46.9,95.2,67.7,116.1
				c78.9,79.2,153.7,77.3,164.5,128.5c6.8,32.2-22,37.3-21,88.9c1,47.2,25.4,56.2,27.6,95.4C855.6,1337.3,780.2,1367.5,796.9,1388.7
				z"/>
			<path class="st2" d="M616.4,293.7C562,306.4,524.5,372.3,515,422.3c-13.6,71.7,22.1,154.2,82.2,195.8
				c93.3,64.8,202.2,0.7,241.6,60.9c20.7,31.7,13.4,84.7-12.8,108.6c-46.2,42-136.9-18.7-163.2,15c-18.8,24,2.8,86.8,44.3,123.7
				c83,73.8,219.9,21.6,235,64.9c3.5,10.2-13.9,40.4-48.9,100.8c-26.4,45.6-31.8,50.1-32.5,65.1c-2.1,45.4,44.8,57.8,47.3,102.4
				c2.9,51.6-56.6,85.4-48.8,96.5c8.2,11.6,83.7-11.5,132.8-56.8c116.3-107.4,72.2-328.6,56.7-406.5
				C985.9,578.6,754.8,261.3,616.4,293.7z"/>
		</g>
		<g>
			<linearGradient id="SVGID_3_" gradientUnits="userSpaceOnUse" x1="688.3273" y1="1798.7152" x2="1070.7034" y2="1758.7654">
				<stop  offset="3.597000e-003" style="stop-color:#26474F"/>
				<stop  offset="1" style="stop-color:#448A8C"/>
			</linearGradient>
			<path class="st4" d="M530.8,2593.7c-45.7,2.7-83-29.3-83-71.2V1011.2c0-41.9,37.3-74.7,83-73l2156.2,78.2
				c34.9,1.3,63.2,31.9,63.2,68.4v1313.1c0,36.4-28.3,67.7-63.2,69.8L530.8,2593.7z"/>
			<linearGradient id="SVGID_4_" gradientUnits="userSpaceOnUse" x1="1503.4353" y1="2966.8914" x2="1584.4496" y2="2850.8438">
				<stop  offset="0" style="stop-color:#448A8C"/>
				<stop  offset="0.9964" style="stop-color:#26474F"/>
			</linearGradient>
			<path class="st5" d="M1936.5,2761c-34.5-12-60.2-42.7-67.5-80.4l-50.2-260.5l-429.1,16l-52.8,271.4c-7.4,38,22.2,76.1,56.3,90.1
				l179.5,73.7c33.4,13.7,69.3,19.2,105,16l379.4-34.1c11.1-1,20-10.1,21.3-21.9c1.3-11.7,9.1-24.9-1.5-28.6L1936.5,2761z"/>
			<linearGradient id="SVGID_5_" gradientUnits="userSpaceOnUse" x1="1748.6783" y1="2937.1428" x2="1624.6881" y2="2264.0547">
				<stop  offset="0" style="stop-color:#448A8C"/>
				<stop  offset="0.9964" style="stop-color:#26474F"/>
			</linearGradient>
			<path class="st6" d="M1940.8,2745.1c-34.4-11.8-60.2-42.1-67.4-79.4l-50.1-257.2l-418.6,15.8l-52.8,267.9
				c-7.4,37.5,12.2,75.2,46.2,89l179.3,72.8c33.4,13.5,69.2,18.9,104.8,15.8l379-33.6c11.1-1,20-10,21.3-21.6
				c1.3-11.6-5.4-22.5-15.9-26.2L1940.8,2745.1z"/>
			<g>
				<g>
					<linearGradient id="SVGID_6_" gradientUnits="userSpaceOnUse" x1="2054.5442" y1="1079.0396" x2="2675.0283" y2="193.4654">
						<stop  offset="0" style="stop-color:#448C81"/>
						<stop  offset="0.9964" style="stop-color:#264E4F"/>
					</linearGradient>
					<path class="st7" d="M547.8,2593.7c-45.7,2.7-83-29.3-83-71.2V1011.2c0-41.9,37.3-74.7,83-73l2156.2,78.2
						c34.9,1.3,63.2,31.9,63.2,68.4v1313.1c0,36.4-28.3,67.7-63.2,69.8L547.8,2593.7z"/>
					<linearGradient id="SVGID_7_" gradientUnits="userSpaceOnUse" x1="1785.0485" y1="1184.1876" x2="1008.9044" y2="3649.3271">
						<stop  offset="0" style="stop-color:#448C81"/>
						<stop  offset="0.9964" style="stop-color:#264E4F"/>
					</linearGradient>
					<path class="st8" d="M2704.1,1047.3L547.8,973.4c-24.4-0.8-44.3,16.6-44.3,39v1175.8v332.1c0,22.4,19.9,39.4,44.3,38.1
						l2156.2-121.6c18.7-1.1,33.9-17.8,33.9-37.3v-300.1V1083.9C2737.9,1064.3,2722.8,1048,2704.1,1047.3z"/>
					<linearGradient id="SVGID_8_" gradientUnits="userSpaceOnUse" x1="2160.9155" y1="772.376" x2="323.2962" y2="3815.3171">
						<stop  offset="0" style="stop-color:#48FCB7"/>
						<stop  offset="3.291840e-003" style="stop-color:#48FCBA"/>
						<stop  offset="4.088082e-002" style="stop-color:#46FDD2"/>
						<stop  offset="8.307634e-002" style="stop-color:#45FEE5"/>
						<stop  offset="0.1326" style="stop-color:#45FFF2"/>
						<stop  offset="0.1957" style="stop-color:#44FFFA"/>
						<stop  offset="0.3183" style="stop-color:#44FFFC"/>
						<stop  offset="0.3905" style="stop-color:#45FEF1"/>
						<stop  offset="0.5168" style="stop-color:#47FDD4"/>
						<stop  offset="0.6822" style="stop-color:#4BFBA5"/>
						<stop  offset="0.8658" style="stop-color:#4FF869"/>
						<stop  offset="1" style="stop-color:#4FF869"/>
					</linearGradient>
					<path class="st9" d="M547.8,2430c-9.5,0.5-17.3-6.2-17.3-15V1013.3c0-8.7,7.7-15.5,17.3-15.2l2156.2,70.9
						c7.3,0.2,13.2,6.6,13.2,14.3v1226.5c0,7.6-5.9,14.1-13.2,14.5L547.8,2430z"/>
				</g>
				<g>
					<polygon class="st10" points="2630.6,2248.6 642.4,2335.9 642.4,1207.6 2630.6,1249.3 					"/>
					<polygon class="st10" points="2630.6,1215.2 642.4,1169 642.4,1072.7 2630.6,1129.8 					"/>
					<g>
						<linearGradient id="SVGID_9_" gradientUnits="userSpaceOnUse" x1="2564.1724" y1="966.522" x2="2475.5498" y2="1154.1936">
							<stop  offset="0" style="stop-color:#C2FF85"/>
							<stop  offset="1" style="stop-color:#FBF36F"/>
						</linearGradient>
						<path class="st11" d="M2479.6,1168.6c0,6.1-4.8,10.9-10.7,10.8c-5.9-0.1-10.7-5.2-10.7-11.3c0-6.1,4.8-10.9,10.7-10.8
							C2474.8,1157.4,2479.6,1162.5,2479.6,1168.6z"/>
						<linearGradient id="SVGID_10_" gradientUnits="userSpaceOnUse" x1="2599.7776" y1="985.5776" x2="2511.4458" y2="1172.6333">
							<stop  offset="0" style="stop-color:#C2FF85"/>
							<stop  offset="1" style="stop-color:#FBF36F"/>
						</linearGradient>
						<path class="st12" d="M2523.6,1169.7c0,6.1-4.8,10.9-10.7,10.7c-5.9-0.1-10.7-5.2-10.7-11.3c0-6.1,4.8-10.9,10.7-10.7
							C2518.8,1158.6,2523.6,1163.6,2523.6,1169.7z"/>
						<linearGradient id="SVGID_11_" gradientUnits="userSpaceOnUse" x1="2635.1887" y1="1004.5104" x2="2547.1462" y2="1190.9534">
							<stop  offset="0" style="stop-color:#C2FF85"/>
							<stop  offset="1" style="stop-color:#FBF36F"/>
						</linearGradient>
						<path class="st13" d="M2567.4,1170.9c0,6.1-4.7,10.9-10.6,10.7c-5.9-0.1-10.6-5.2-10.6-11.3c0-6.1,4.8-10.9,10.6-10.7
							C2562.6,1159.8,2567.4,1164.8,2567.4,1170.9z"/>
					</g>
					<g>
						<polygon class="st10" points="2228.2,2068.5 685.8,2117 685.8,1236.9 2228.2,1266.7 						"/>
					</g>
					<g>
						<polygon class="st14" points="2609.4,1541.2 2255.2,1540.5 2255.2,1523.2 2609.4,1524.3 						"/>
						<polygon class="st14" points="2477.6,1570.4 2255.2,1570.3 2255.2,1553 2477.6,1553.3 						"/>
					</g>
					<g>
						<g>
							<polygon class="st10" points="2609.4,1830.9 2255.2,1836.9 2255.2,1606 2609.4,1605.2 							"/>
						</g>
						<polygon class="st14" points="2609.4,1872.3 2255.2,1879.2 2255.2,1861.9 2609.4,1855.4 						"/>
						<polygon class="st14" points="2477.6,1904.3 2255.2,1909 2255.2,1891.8 2477.6,1887.2 						"/>
					</g>
					<g>
						<g>
							<polygon class="st10" points="2609.4,2162.1 2255.2,2175.6 2255.2,1944.7 2609.4,1936.3 							"/>
						</g>
						<polygon class="st14" points="2609.4,2203.4 2255.2,2217.9 2255.2,2200.6 2609.4,2186.5 						"/>
						<polygon class="st14" points="2477.6,2238.2 2255.2,2247.8 2255.2,2230.5 2477.6,2221.2 						"/>
					</g>
					<g>
						<polygon class="st14" points="1753.2,2176.5 685.8,2216.1 685.8,2158.3 1753.2,2122.2 						"/>
						<polygon class="st14" points="2228.2,2158.9 2075.9,2164.5 2075.9,2111.3 2228.2,2106.2 						"/>
						<polygon class="st14" points="2052.4,2165.4 1896.7,2171.2 1896.7,2117.4 2052.4,2112.1 						"/>
						<polygon class="st14" points="1174.1,2265.9 685.8,2286 685.8,2257.1 1174.1,2237.8 						"/>
					</g>
				</g>
			</g>
		</g>
		<g>
			<linearGradient id="SVGID_12_" gradientUnits="userSpaceOnUse" x1="1431.6213" y1="1017.122" x2="2004.5607" y2="1080.7819">
				<stop  offset="0" style="stop-color:#893976"/>
				<stop  offset="1" style="stop-color:#311944"/>
			</linearGradient>
			<path class="st15" d="M2537.1,769.4c0,286.7-375,975.2-530.4,1215.2c-26.4,40.8-135.1,33.2-161.6-7.6
				c-155.5-240-579.4-920.9-579.4-1207.6c0-351.1,284.6-635.7,635.7-635.7S2537.1,418.3,2537.1,769.4z"/>
			<linearGradient id="SVGID_13_" gradientUnits="userSpaceOnUse" x1="2309.5085" y1="64.9878" x2="1172.9827" y2="2431.4485">
				<stop  offset="0" style="stop-color:#FF9085"/>
				<stop  offset="1" style="stop-color:#FB6FBB"/>
			</linearGradient>
			<path class="st16" d="M2606.1,769.4c0,286.7-424,967.6-579.4,1207.6c-26.4,40.8-86.1,40.8-112.5,0
				c-155.5-240-579.4-920.9-579.4-1207.6c0-351.1,284.6-635.7,635.7-635.7S2606.1,418.3,2606.1,769.4z"/>
			<circle class="st17" cx="1970.4" cy="710.7" r="350.1"/>
			<circle class="st17" cx="1970.4" cy="710.7" r="329.3"/>
		</g>
		<g>
			
				<linearGradient id="SVGID_14_" gradientUnits="userSpaceOnUse" x1="3010.0083" y1="2756.5305" x2="3032.5503" y2="3043.4297" gradientTransform="matrix(-1 -2.400000e-003 -2.400000e-003 1 4077.1072 2.4953)">
				<stop  offset="0" style="stop-color:#442019"/>
				<stop  offset="1" style="stop-color:#A06E39"/>
			</linearGradient>
			<path class="st18" d="M1016.2,2894.8c0,0,90.6,41.5,92.1,48c1.5,6.6-58.3-2.3-82.8-1.5c-24.4,0.9-44.5-6.4-42.3-16.7
				c2.2-10.3,10.9-36.3,10.9-36.3L1016.2,2894.8z"/>
			
				<linearGradient id="SVGID_15_" gradientUnits="userSpaceOnUse" x1="3068.2024" y1="2916.2571" x2="3064.104" y2="2619.1196" gradientTransform="matrix(-1 -2.400000e-003 -2.400000e-003 1 4077.1072 2.4953)">
				<stop  offset="0" style="stop-color:#FFC444"/>
				<stop  offset="0.9964" style="stop-color:#F36F56"/>
			</linearGradient>
			<path class="st19" d="M1019.6,2861.3l-5.6,40.8c0,0-14.4,5.1-24-1l-4-44.8L1019.6,2861.3z"/>
			
				<linearGradient id="SVGID_16_" gradientUnits="userSpaceOnUse" x1="3435.9966" y1="2723.0659" x2="3458.5378" y2="3009.9548" gradientTransform="matrix(-1 -2.400000e-003 -2.400000e-003 1 4077.1072 2.4953)">
				<stop  offset="0" style="stop-color:#442019"/>
				<stop  offset="1" style="stop-color:#A06E39"/>
			</linearGradient>
			<path class="st20" d="M592.2,2861.3l-10.6,16.9c-3,4.7-3.9,10.4-2.5,15.8c3.7,14.1,11,41.6,14.2,48.7
				c4.4,9.8,63.1,15.7,63.1,15.7s5.3-7.4-6.9-16.3c-12.2-8.9-20-10.3-24.3-23.5c-4.3-13.1-7.1-50.3-7.1-50.3L592.2,2861.3z"/>
			
				<linearGradient id="SVGID_17_" gradientUnits="userSpaceOnUse" x1="3458.6013" y1="2910.8723" x2="3454.5029" y2="2613.7263" gradientTransform="matrix(-1 -2.400000e-003 -2.400000e-003 1 4077.1072 2.4953)">
				<stop  offset="0" style="stop-color:#FFC444"/>
				<stop  offset="0.9964" style="stop-color:#F36F56"/>
			</linearGradient>
			<path class="st21" d="M636.3,2818.3c-3.9,3.1-22.9,60.3-22.9,60.3s-6.1,7.8-17.7-3.8c-11.6-11.5-5.2-5.2-5.2-5.2l2.3-56.3
				L636.3,2818.3z"/>
			
				<linearGradient id="SVGID_18_" gradientUnits="userSpaceOnUse" x1="2997.2874" y1="2434.8997" x2="3216.9839" y2="2434.8997" gradientTransform="matrix(-1 -2.400000e-003 -2.400000e-003 1 4077.1072 2.4953)">
				<stop  offset="0" style="stop-color:#8C4478"/>
				<stop  offset="0.9964" style="stop-color:#773E63"/>
			</linearGradient>
			<path class="st22" d="M1071.5,2040.6c4.5,121.9,4.4,254.3-3,395.7c-8.3,159.3-24.5,306.4-44.8,439.8c-7.4,0.2-15.2,0.2-23.4,0
				c-5.5-0.2-10.8-0.4-16-0.8c-10.3-27.7-22.5-64.1-33.4-107.6c-11.4-45.7-18.3-86.7-23.2-126c-17.1-138.1,3.4-150.1-10.6-252.4
				c-12.3-90.6-30.2-94.2-50.9-222.9c-22.4-139.6-5.4-160.5,2.8-168.1C904.3,1966.3,986.6,1988.5,1071.5,2040.6z"/>
			
				<linearGradient id="SVGID_19_" gradientUnits="userSpaceOnUse" x1="2997.2866" y1="2434.9092" x2="3216.9822" y2="2434.9092" gradientTransform="matrix(-1 -2.400000e-003 -2.400000e-003 1 4077.1072 2.4953)">
				<stop  offset="0" style="stop-color:#8C4478"/>
				<stop  offset="0.9964" style="stop-color:#773E63"/>
			</linearGradient>
			<path class="st23" d="M869.1,1998.5c33.5-30.6,109.9-11.9,190.6,35.2c-93.2,100.2-103.4,165.3-92.4,207.5
				c12.5,47.8,50.7,61.6,50.4,113.9c-0.3,64.2-58.3,81-57.2,148.9c0.7,44.9,26.2,44.5,32,100c7,65.6-26.3,88.2-15.7,136.8
				c4.6,20.9,17.7,48.2,55.3,76.4c-2.8,19.9-5.6,39.7-8.5,59c-7.4,0.2-15.2,0.2-23.4,0c-5.5-0.2-10.8-0.4-16-0.8
				c-10.3-27.7-22.5-64.1-33.4-107.6c-11.4-45.7-18.3-86.7-23.2-126c-17.1-138.1,3.4-150.1-10.6-252.4
				c-12.3-90.6-30.2-94.2-50.9-222.9C843.9,2026.9,860.9,2006,869.1,1998.5z"/>
			
				<linearGradient id="SVGID_20_" gradientUnits="userSpaceOnUse" x1="3058.2795" y1="2413.2429" x2="3500.5535" y2="2413.2429" gradientTransform="matrix(-1 -2.400000e-003 -2.400000e-003 1 4077.1072 2.4953)">
				<stop  offset="0" style="stop-color:#8C4478"/>
				<stop  offset="0.9964" style="stop-color:#773E63"/>
			</linearGradient>
			<path class="st24" d="M1013.9,2038.5C933.6,2155.3,847,2300.8,769.4,2475c-58.6,131.6-101.2,255.3-132.6,365.5
				c-4.2,1.9-14.1,5.8-26.8,4.1c-17.3-2.3-27.6-13.4-30.3-16.5c-12.4-79.1-10.9-146-6.5-194.3c2.8-30.9,7.8-82.4,27.7-146
				c22.3-71.2,37.5-75.2,66.5-150.5c30.1-78.2,22.9-97.7,51.8-195.5c11.9-40.2,31.7-100,64.4-171.5
				C860.3,1993,937.1,2015.7,1013.9,2038.5z"/>
			
				<linearGradient id="SVGID_21_" gradientUnits="userSpaceOnUse" x1="2638.1089" y1="1408.2281" x2="2139.7903" y2="2226.3638" gradientTransform="matrix(-1 0 0 1 3283.1531 0)">
				<stop  offset="0" style="stop-color:#F98280"/>
				<stop  offset="0.9964" style="stop-color:#D761AA"/>
			</linearGradient>
			<path class="st25" d="M1340.1,1873.6c-0.8,28.4-47.5,53.5-85.1,61.2c-88,18-190-46-238.4-116.7c-9.5-13.9-20.1-30.7-22.6-29.4
				c-5.8,2.9,47.1,89.9,70.1,188.7c11.7,50.6,8.7,74.3,30.6,107.9c5,7.6,11.1,15.6,8.9,24.6c-5.4,22.6-57.1,28.5-92.9,32.5
				c-37.8,4.3-73.1,3.9-108,3.4c-55.9-0.8-60.3-3.7-73,2.5c-38.8,19.1-36.2,64.7-65.5,70.8c-24.6,5.1-49.5-22.3-57.4-31
				c-41-45.2-38.9-99.7-46.1-154.6c-16.9-127.7-86.3-267.7-154.2-356.3c-20.6-26.9-34.9-41-35.8-66
				C468,1538,584.1,1457,680.8,1447.7c26.5-2.5,74-1.7,118.4,2.4c17.8,1.7,36.7,4.1,57.1,7.7c49.3,8.6,83.7,14.6,118.7,30.7
				c141.2,64.6,110.4,208.4,263.2,307.8C1290.7,1830.5,1340.9,1843.8,1340.1,1873.6z"/>
			
				<linearGradient id="SVGID_22_" gradientUnits="userSpaceOnUse" x1="2536.99" y1="1397.8068" x2="2490.0557" y2="1811.8308" gradientTransform="matrix(-1 0 0 1 3283.1531 0)">
				<stop  offset="0" style="stop-color:#FFC444"/>
				<stop  offset="0.9964" style="stop-color:#F36F56"/>
			</linearGradient>
			<path class="st26" d="M761.6,1371.7c0,0-6.1,33.8-20,57.9c-12.6,21.8-64.8,29.6-75.6,33.4c-10.9,3.8,16.4,22.7,45.4,29.6
				c29,6.9,113.8,11.3,130.4,2.2c16.6-9.1-10.8-11.9-30.7-22.4c-19.9-10.5-26.6-53.1-20.4-71.2
				C796.8,1383,761.6,1371.7,761.6,1371.7z"/>
			<g>
				
					<linearGradient id="SVGID_23_" gradientUnits="userSpaceOnUse" x1="4401.1826" y1="2178.0969" x2="4325.8027" y2="1986.6447" gradientTransform="matrix(-0.9989 4.750000e-002 4.750000e-002 0.9989 5026.3022 -890.4031)">
					<stop  offset="0" style="stop-color:#444B8C"/>
					<stop  offset="0.9964" style="stop-color:#3E4177"/>
				</linearGradient>
				<path class="st27" d="M816.8,1361.9c21-15,26.9-55.7,15.2-64.8c-3.3-2.6-6.5-1.4-54,17.6c-23.6,9.5-35.2,14.5-39,24.9
					c-2.3,6.4-2,14.9,0.6,21.7c1.3,3.5,3.9,7.8,9.7,16.1c5.1,7.3,4.8,7.1,6.3,9.2c3.8,5.1,11,13.8,24.3,23.8
					c0.7-3.7,1.9-8.4,3.9-13.4c0.8-1.9,3.8-9.6,8.6-16C800.5,1369.9,809.9,1366.8,816.8,1361.9z"/>
				
					<linearGradient id="SVGID_24_" gradientUnits="userSpaceOnUse" x1="2494.7485" y1="1350.1541" x2="2531.625" y2="1655.2239" gradientTransform="matrix(-1 0 0 1 3283.1531 0)">
					<stop  offset="0" style="stop-color:#FFC444"/>
					<stop  offset="0.9964" style="stop-color:#F36F56"/>
				</linearGradient>
				<path class="st28" d="M762.8,1400.6c0,0,13.8,20.5,39.3,17.7c22.8-2.5,23.9-54,8.8-64.2c-5-3.4-14.9-4.5-22.7-1.9
					c-4.6,1.5-6.1,3.5-13.8,5.9c-7,2.2-9.1,1.5-11.1,3.4c-2.6,2.4-4.3,8,0.8,22.8c-4.6-4.2-9.9-5.7-13.5-3.8
					c-0.6,0.3-2.1,1.4-2.9,3.1C744.8,1389.5,750.5,1396.7,762.8,1400.6z"/>
			</g>
			
				<linearGradient id="SVGID_25_" gradientUnits="userSpaceOnUse" x1="1956.9133" y1="1830.8429" x2="2312.72" y2="1830.8429" gradientTransform="matrix(-1 0 0 1 3283.1531 0)">
				<stop  offset="0" style="stop-color:#F98280"/>
				<stop  offset="0.9964" style="stop-color:#D761AA"/>
			</linearGradient>
			<path class="st29" d="M1216.6,1869.2c-63.8-14.4-89.2-13.9-120.8-39.3c-52.5-42.3-60.4-106.7-90.9-106
				c-14.4,0.4-26.1,15.1-34.5,29.5c7.7,12,15.4,24.1,23.1,36.1c0-0.5,0.1-0.8,0.4-0.9c2.5-1.3,13.1,15.5,22.6,29.4
				c48.4,70.7,150.4,134.7,238.4,116.7c25.2-5.2,54.5-18.1,71.3-34.7C1282.8,1885.4,1245.7,1875.7,1216.6,1869.2z"/>
			
				<linearGradient id="SVGID_26_" gradientUnits="userSpaceOnUse" x1="5971.7075" y1="506.1178" x2="6051.7319" y2="506.1178" gradientTransform="matrix(-0.8553 0.5182 0.5182 0.8553 6247.2832 -1623.4496)">
				<stop  offset="0" style="stop-color:#FFC444"/>
				<stop  offset="0.9964" style="stop-color:#F36F56"/>
			</linearGradient>
			<path class="st30" d="M1320.5,1924c0,0,36-3.6,57.5-12.8c21.5-9.2,35.3,4,33.3,13.1c-2,9.1-37.3,21.8-51.4,22.3
				C1345.9,1947.1,1320.5,1924,1320.5,1924z"/>
			
				<linearGradient id="SVGID_27_" gradientUnits="userSpaceOnUse" x1="2907.7239" y1="1572.449" x2="2409.4045" y2="2390.5859" gradientTransform="matrix(-1 0 0 1 3283.1531 0)">
				<stop  offset="0" style="stop-color:#F98280"/>
				<stop  offset="0.9964" style="stop-color:#D761AA"/>
			</linearGradient>
			<path class="st31" d="M545.2,2114.5c-38.7,3.4-125.7,5-187.2-51.9c-102.4-94.8-51.6-275.2-16-352.8c40.9-89,106-138.7,145.5-169
				c49.1-37.5,79-60.5,115-55.3c93.2,13.3,157.7,204.2,106.6,258.9c-16.7,17.9-33.3,7.8-81.8,23.2c-15.8,5-133.6,42.5-154.1,129.3
				c-14.4,60.7,22.2,131.8,87.2,179.6C555.4,2089.1,550.3,2101.8,545.2,2114.5z"/>
			
				<linearGradient id="SVGID_28_" gradientUnits="userSpaceOnUse" x1="2183.1455" y1="1943.6979" x2="2913.1299" y2="1943.6979" gradientTransform="matrix(-1 0 0 1 3283.1531 0)">
				<stop  offset="0" style="stop-color:#F98280"/>
				<stop  offset="0.9964" style="stop-color:#D761AA"/>
			</linearGradient>
			<path class="st32" d="M978.4,2083c-43.8-27.7-50.2-55.7-99.2-74.6c-63.7-24.6-94.2,6.6-125.8-18.6c-37.6-30-4.3-82.3-32.4-173.1
				c-4.8-15.4-41-132.4-124.1-147.4c-38.8-7-90,7.9-109.7,40.8c-15.4,25.7-1.1,44.9-19.8,73.3c-18.8,28.4-41.2,21.4-65.1,45.1
				c-38,37.6-43.8,116.8-9.5,161.6c16,20.9,36.8,29.2,75.9,44.7c23.9,9.5,46.1,15.4,65.2,19.2c-47.9-46-72.7-105.2-60.5-157
				c12.8-54.1,63.4-89,103.5-108.9c40.1,75.5,72.9,163.1,83.9,245.5c7.3,54.9,5.1,109.4,46.1,154.6c7.9,8.7,32.8,36.1,57.4,31
				c29.2-6.1,26.6-51.8,65.5-70.8c12.7-6.3,17.1-3.4,73-2.5c34.9,0.5,70.2,0.9,108-3.4c31.9-3.6,76.2-8.7,89.4-25.7
				C1042.5,2115.1,1004,2099.2,978.4,2083z"/>
			<g>
				
					<linearGradient id="SVGID_29_" gradientUnits="userSpaceOnUse" x1="1813.0143" y1="1997.3091" x2="2719.1851" y2="1997.3091" gradientTransform="matrix(-1 0 0 1 3283.1531 0)">
					<stop  offset="0" style="stop-color:#8C4478"/>
					<stop  offset="0.9964" style="stop-color:#4F263D"/>
				</linearGradient>
				<path class="st33" d="M570.6,2144.8l-4.5-13.2c-7.2-21.1,4.6-43.6,26.3-50.3l851.8-259.5l26,88l-847.5,261
					C601.1,2177.5,577.7,2165.9,570.6,2144.8z"/>
				
					<linearGradient id="SVGID_30_" gradientUnits="userSpaceOnUse" x1="977.2768" y1="1711.2717" x2="1912.2773" y2="1711.2717" gradientTransform="matrix(-1 0 0 1 3283.1531 0)">
					<stop  offset="0" style="stop-color:#8C4478"/>
					<stop  offset="0.9964" style="stop-color:#4F263D"/>
				</linearGradient>
				<path class="st34" d="M1973.6,2174.4c-244,79.1-505.5-59.2-581.8-315.5c-78.1-262.5,69.1-541,326.1-615
					c252.4-72.7,507.6,82.4,572.7,339.7C2354.2,1835,2213.4,2096.7,1973.6,2174.4z M1953.9,2102.7
					c202.5-65.1,321.2-285.9,266.8-497.8c-55.4-216-270.2-345.1-481.5-283.6c-214.6,62.4-337.8,295.1-273.2,514.8
					C1529.2,2051.5,1748.4,2168.7,1953.9,2102.7z"/>
				<path class="st35" d="M1444.2,1821.9l-108.6,33.1c-7.5,34.6-21.9,54.5-36.5,66.6c-54.9,45.5-128.1-4.1-230.3,49.2
					c-51.3,26.8-41.5,43.8-89.6,62.5c-79.5,30.9-115.8-11.9-186.2,16.2c-71.1,28.4-78.1,89.8-118.5,87.6
					c-17.3-0.9-39.5-13.5-64.3-61.1l-17.8,5.4c-21.7,6.6-33.5,29.1-26.3,50.3l4.5,13.2c7.2,21.1,30.5,32.7,52.1,26l847.5-261
					L1444.2,1821.9z"/>
				<path class="st36" d="M1974,2137.9c-212.5,68.4-439.5-52.7-505.1-275.6c-67-227.5,60.5-468.5,282.9-533.1
					c218.9-63.6,441,70.2,498.2,293.8C2306.1,1842.2,2183.4,2070.6,1974,2137.9z"/>
				
					<linearGradient id="SVGID_31_" gradientUnits="userSpaceOnUse" x1="-7220.1255" y1="3342.1985" x2="-7690.9141" y2="2815.0767" gradientTransform="matrix(0.8705 0.4922 -0.4922 0.8705 9894.7363 2881.1338)">
					<stop  offset="0" style="stop-color:#8C4478"/>
					<stop  offset="0.9964" style="stop-color:#4F263D"/>
				</linearGradient>
				<path class="st37" d="M1990.1,2196.5c-244,79.1-505.5-59.2-581.8-315.5c-78.1-262.5,69.1-541,326.1-615
					c252.4-72.7,507.6,82.4,572.7,339.7C2370.7,1857,2229.9,2118.7,1990.1,2196.5z M1970.4,2124.8
					c202.5-65.1,321.2-285.9,266.8-497.8c-55.4-216-270.2-345.1-481.5-283.6c-214.6,62.4-337.8,295.1-273.2,514.8
					C1545.7,2073.6,1764.9,2190.8,1970.4,2124.8z"/>
				
					<linearGradient id="SVGID_32_" gradientUnits="userSpaceOnUse" x1="-7912.188" y1="2572.5706" x2="-7273.6831" y2="3275.4631" gradientTransform="matrix(0.8705 0.4922 -0.4922 0.8705 9894.7363 2881.1338)">
					<stop  offset="0" style="stop-color:#8C4478"/>
					<stop  offset="0.9964" style="stop-color:#4F263D"/>
				</linearGradient>
				<path class="st38" d="M1983.1,2171.2c-230.4,74.5-476.9-56.4-548.6-298.3c-73.2-247.3,65.4-509.5,307.4-579.5
					c237.9-68.7,478.8,77.1,540.5,319.8C2342.8,1850.6,2209.8,2097.9,1983.1,2171.2z M1970.4,2124.8
					c202.5-65.1,321.2-285.9,266.8-497.8c-55.4-216-270.2-345.1-481.5-283.6c-214.6,62.4-337.8,295.1-273.2,514.8
					C1545.7,2073.6,1764.9,2190.8,1970.4,2124.8z"/>
			</g>
			
				<linearGradient id="SVGID_33_" gradientUnits="userSpaceOnUse" x1="-6049.8706" y1="323.1062" x2="-6032.1577" y2="222.8427" gradientTransform="matrix(0.8553 -0.5182 0.5182 0.8553 5620.8076 -1243.5961)">
				<stop  offset="0" style="stop-color:#FFC444"/>
				<stop  offset="0.9964" style="stop-color:#F36F56"/>
			</linearGradient>
			<path class="st39" d="M548.5,2106.3l8.6-21.4c0,0,14.1,0.9,25.6-7.4c6.3-4.5,17.4-5.8,20.7-4.9c3.2,0.9,15.5,0.4,1.5,7
				c-13.9,6.7-13.8,11.6-8,17.1c5.8,5.5,27.9,17.2,35.9,17.8c8,0.6-6.4,12.9-14.5,14.5c-8,1.6-21.2,3.6-37.5-6
				C574.8,2119.3,548.5,2106.3,548.5,2106.3z"/>
		</g>
	</g>
</g>
</svg>
