<?xml version="1.0" encoding="UTF-8"?>
<svg id="Layer_1" data-name="Layer 1" xmlns="http://www.w3.org/2000/svg" viewBox="0 0 400 164">
  <defs>
    <style>
      .cls-1 {
        fill: #fff;
      }
    </style>
  </defs>
  <path class="cls-1" d="M253.78,71.18c-2.16,2.59-4.64,4.15-7.72,4.66-.83,.14-1.68,.16-2.52,.16-5.52,.01-11.05-.04-16.57,.02-3.21,.04-6.05-.84-8.49-2.92-.42-.36-.62-.36-1,.06-4.92,5.58-13.59,5.82-18.74,.53-.42-.43-.63-.3-1.01,.04-5.87,5.26-13.2,5.06-18.67-.51-.4-.41-.61-.5-1.09-.09-2.38,2.03-5.14,2.93-8.27,2.89-3.68-.05-7.37-.04-11.05,0-3.26,.03-6.1-1.02-8.48-3.23-.57-.53-.84-.44-1.36,.04-2.26,2.08-4.94,3.18-8.03,3.18-9.82,0-19.64,.03-29.46,0-6.66-.03-11.99-5.32-12.07-11.98-.06-5.52,0-11.05-.04-16.57,0-.75,.2-.98,.96-.96,1.57,.06,3.15,.06,4.72,0,.8-.03,.95,.26,.95,.98-.03,5.18,.11,10.36-.05,15.54-.13,4.22,2.84,6.57,6.57,6.52,9.28-.12,18.57-.03,27.85-.04,3,0,5.23-1.66,5.85-4.37,.17-.73,.15-1.52,.15-2.29,.01-6.25,.04-12.51-.02-18.76-.01-1.1,.33-1.36,1.34-1.29,1.34,.08,2.69,.08,4.03,0,.99-.06,1.3,.19,1.29,1.24-.06,6.29-.03,12.58-.03,18.88,0,1.19,0,2.38,.58,3.47,1.08,2,2.78,3.06,5.03,3.1,3.91,.06,7.83,.06,11.74,0,3.08-.05,5.44-2.31,5.49-5.36,.09-5.45,.08-10.89,.04-16.34,0-.98,.18-1.36,1.24-1.28,1.45,.1,2.92,.07,4.37,0,.81-.04,1.03,.2,1.02,1.02-.03,5.68-.02,11.36,0,17.04,0,3.62,2.74,6.39,6.29,6.39,3.54,0,6.31-2.77,6.32-6.37,.01-6.22,.03-12.43-.03-18.65-.01-1.09,.33-1.36,1.34-1.29,1.38,.08,2.76,.08,4.14,0,.94-.05,1.23,.21,1.23,1.19-.05,6.29-.03,12.58-.02,18.88,0,3.22,2.39,5.91,5.47,6.22,3.29,.33,6.27-1.72,6.92-4.91,.21-1.04,.15-2.14,.15-3.21,.01-6.25,.03-12.51-.02-18.76,0-1.04,.29-1.31,1.28-1.25,1.34,.09,2.69,.08,4.03,0,1.01-.06,1.36,.19,1.35,1.29-.06,6.48-.05,12.97-.02,19.45,.01,2.84,1.42,4.84,3.85,5.65,.7,.23,1.41,.32,2.15,.32,5.6,0,11.2,0,16.81,0,3.76,0,6.04-2.39,6.04-6.15,0-4.92-2.19-8.92-5.16-12.6-2.52-3.12-5.46-5.82-8.52-8.37-.65-.55-1-1.1-.9-1.94,.05-.42,.07-.86-.03-1.26-.47-2.02,.54-3.2,2.06-4.38,5.26-4.07,11.25-6.3,17.75-7.36,3.94-.64,7.92-.88,11.91-.95,.85-.01,1.13,.2,1.09,1.07-.08,1.49-.08,2.99,0,4.49,.05,.92-.31,1.07-1.12,1.07-4.77-.02-9.5,.34-14.15,1.47-3.34,.81-6.47,2.1-9.39,3.94-.81,.51-.77,.8-.09,1.38,2.42,2.07,4.71,4.29,6.68,6.8,4.93,6.3,7.84,13.55,9.91,21.18,.34,1.26,.76,1.73,2.12,1.66,2.53-.13,5.06-.04,7.6-.04,4.34,0,6.51-2.12,6.57-6.47,.04-2.88-.02-5.76,.02-8.63,.09-6.63,4.4-11.77,10.93-12.82,4.1-.66,7.76,.51,10.78,3.4,.6,.57,.88,.53,1.43-.02,2.22-2.25,4.98-3.36,8.1-3.67,.65-.06,.88,.12,.86,.8-.04,1.69-.03,3.38,0,5.06,0,.51-.12,.72-.69,.77-3.22,.29-5.7,3.24-5.61,6.46,.1,3.71,.23,7.44-.11,11.15-.48,5.4-3.26,9.22-8.3,11.14-5.05,1.92-9.68,.83-13.57-2.91-.86-.83-1.28-.93-2.23-.15-2.02,1.64-4.42,2.42-7.04,2.42-4.91,0-9.82-.01-14.73,.03-.73,0-1.01-.25-1.13-.92-.23-1.23-.53-2.45-.85-3.92Zm41.36-11.75c0-1.69,.02-3.38,0-5.06-.04-3.58-2.83-6.42-6.31-6.42-3.47,0-6.31,2.82-6.34,6.4-.03,3.41-.03,6.83,0,10.24,.03,3.59,2.84,6.35,6.37,6.34,3.46-.01,6.23-2.78,6.28-6.31,.02-1.73,0-3.45,0-5.18Z"/>
  <path class="cls-1" d="M250.66,126.47c-2.66,1.68-5.33,2.33-8.2,2.26-6.78-.16-12.22-5.57-12.32-12.36-.05-3.15-.02-6.29,0-9.44,.02-8.16,5.24-13.56,13.38-14.18,11.57-.89,19.17,5.32,23.33,13.8,1.74,3.54,3.31,7.17,5.85,10.26,2.92,3.55,6.7,5.39,11.25,5.68,1.69,.11,3.37,.1,5.05-.18,3.96-.67,6.04-2.94,6.14-6.94,.09-3.34,.08-6.68,0-10.01-.09-3.82-3.84-6.42-7.89-5.59-3.09,.63-5.22,2.61-7.1,4.95-.3,.37-.24,.79-.24,1.21,0,2.07-.03,4.14,.01,6.21,.01,.7-.2,.94-.91,.91-1.61-.05-3.22-.03-4.83,0-.59,.01-.89-.08-.89-.8,.02-8.32,.01-16.65,0-24.97,0-.53,.14-.74,.71-.73,1.73,.03,3.45,.04,5.18,0,.67-.02,.74,.3,.74,.84-.02,2.34,0,4.68,0,7.02,0,.42,0,.83,0,1.44,1.96-1.2,3.89-2.07,6-2.51,7.27-1.52,14.11,2.8,15.59,9.9,.14,.67,.19,1.37,.19,2.06,.02,3.38,.06,6.75,0,10.13-.13,7.35-4.76,12.48-12.08,13.47-4.05,.55-8.04,.3-11.93-.94-4.91-1.57-8.6-4.75-11.51-8.92-1.93-2.78-3.43-5.8-4.86-8.86-1.43-3.06-3.26-5.83-6-7.88-4.31-3.22-9.13-3.77-14.2-2.38-2.69,.73-4.32,3.2-4.4,6.48-.08,3.37-.1,6.75,0,10.13,.14,4.6,5.62,7.21,9.86,4.75,1.79-1.04,2.86-2.74,3.96-4.4,.23-.34,.14-.74,.14-1.12,0-2.23,.03-4.45-.01-6.67-.01-.76,.23-.99,.98-.97,1.57,.05,3.15,.04,4.72,0,.65-.02,.85,.2,.85,.85-.02,6.56-.02,13.12,0,19.68,0,.64-.19,.87-.84,.86-1.57-.04-3.15-.05-4.72,0-.74,.02-1.05-.2-.98-.97,.05-.6,.01-1.2,.01-2.06Z"/>
  <path class="cls-1" d="M146.67,117.18c0,3.84-.03,7.67,.02,11.51,.01,.93-.27,1.17-1.16,1.13-1.42-.07-2.84-.08-4.26,0-.92,.05-1.15-.25-1.15-1.15,.04-7.17,.02-14.35,.02-21.52,0-3.64-1.81-6.13-5.07-7.05-4.42-1.24-8.67,1.97-8.68,6.55,0,7.33-.02,14.65,.02,21.98,0,.93-.21,1.28-1.19,1.22-1.45-.09-2.92-.08-4.37,0-.92,.05-1.15-.25-1.15-1.15,.03-7.37,.02-14.73,.01-22.1,0-3.4-2.36-6.17-5.64-6.66-3.53-.53-6.76,1.41-7.79,4.65-.22,.68-.2,1.36-.2,2.05,0,7.33-.02,14.65,.02,21.98,0,.96-.27,1.27-1.23,1.22-1.45-.08-2.92-.07-4.37,0-.87,.04-1.09-.23-1.09-1.09,.03-7.21,.02-14.42,.02-21.64,0-4.19-2.08-6.68-6.2-7.35-.66-.11-.7-.37-.69-.88,.02-1.61,.04-3.22-.01-4.83-.02-.73,.22-.91,.92-.86,3.31,.24,6.18,1.46,8.52,3.79,.64,.63,.95,.61,1.59,0,4.8-4.54,13.25-5.54,18.89,.11,.54,.54,.8,.5,1.35,0,4.01-3.7,8.7-4.8,13.84-3.05,5.01,1.71,8.02,5.34,8.9,10.61,.3,1.78,.1,3.6,.11,5.4,.02,2.38,0,4.76,0,7.14Z"/>
  <path class="cls-1" d="M177.78,125.99c-3.02,1.68-5.99,2.63-9.19,2.68-6.8,.11-12.15-4.64-12.58-11.42-.25-3.97-.34-7.97,.03-11.95,.63-6.76,6.25-11.94,13.02-12.03,3.03-.04,6.06-.04,9.09,0,3.49,.04,6.2,2.73,6.21,6.23,.03,9.78,0,19.56,.02,29.34,0,.68-.16,.96-.89,.94-1.61-.04-3.22-.04-4.83,0-.72,.02-.94-.25-.9-.94,.05-.87,.01-1.75,.01-2.85Zm0-17.1c0-2.72,0-5.44,0-8.16,0-.49,.03-.9-.68-.89-2.87,.04-5.76-.08-8.62,.1-3.34,.21-5.92,3.16-5.94,6.49-.01,3.33-.01,6.67,0,10,0,3.23,2.33,5.57,5.56,5.63,3.73,.06,6.7-1.62,9.33-4.08,.39-.37,.35-.82,.36-1.27,0-2.61,0-5.21,0-7.82Z"/>
  <path class="cls-1" d="M208.93,117.08c-.42,.15-.58,.52-.81,.81-3.18,4.03-6.37,8.06-9.53,12.11-.46,.59-.75,.77-1.4,.21-1.15-1.01-2.36-1.97-3.61-2.84-.76-.53-.63-.89-.13-1.52,3.56-4.47,7.07-8.97,10.64-13.43,.47-.59,.48-.94,0-1.53-3.54-4.43-7.01-8.92-10.58-13.33-.68-.84-.53-1.2,.25-1.75,1.13-.8,2.24-1.63,3.24-2.57,.8-.75,1.17-.48,1.73,.26,3.12,4.03,6.32,8,9.44,12.04,.6,.77,.86,.64,1.38-.03,3.18-4.08,6.41-8.12,9.58-12.21,.51-.65,.81-.67,1.41-.15,1.16,1,2.36,1.96,3.61,2.85,.68,.48,.66,.78,.17,1.4-3.54,4.43-7.02,8.92-10.57,13.34-.63,.78-.53,1.22,.04,1.93,3.52,4.4,6.98,8.85,10.5,13.25,.53,.66,.55,.99-.17,1.49-1.25,.88-2.44,1.86-3.61,2.84-.55,.46-.84,.48-1.32-.14-3.27-4.21-6.59-8.38-9.89-12.56-.12-.15-.24-.29-.36-.44Z"/>
  <path class="cls-1" d="M124.98,81c2.15,0,3.87,1.71,3.89,3.84,.02,2.14-1.81,3.98-3.93,3.95-2.18-.03-3.89-1.8-3.86-3.99,.03-2.16,1.72-3.8,3.9-3.79Z"/>
</svg>