<?xml version="1.0" encoding="UTF-8"?>
<svg id="Layer_1" data-name="Layer 1" xmlns="http://www.w3.org/2000/svg" xmlns:xlink="http://www.w3.org/1999/xlink" viewBox="0 0 400 164">
  <defs>
    <style>
      .cls-1 {
        fill: url(#linear-gradient-2);
      }

      .cls-2 {
        fill: url(#linear-gradient-6);
      }

      .cls-3 {
        fill: url(#linear-gradient-5);
      }

      .cls-4 {
        fill: url(#linear-gradient-7);
      }

      .cls-5 {
        fill: url(#linear-gradient-3);
      }

      .cls-6 {
        fill: url(#linear-gradient);
      }

      .cls-7 {
        fill: url(#linear-gradient-4);
      }
    </style>
    <linearGradient id="linear-gradient" x1="27.54" y1="81.3" x2="366.78" y2="81.3" gradientUnits="userSpaceOnUse">
      <stop offset="0" stop-color="#7d542f"/>
      <stop offset="1" stop-color="#b4925e"/>
    </linearGradient>
    <linearGradient id="linear-gradient-2" x1="27.54" y1="81.25" x2="366.78" y2="81.25" xlink:href="#linear-gradient"/>
    <linearGradient id="linear-gradient-3" x1="27.54" y1="81.51" x2="366.78" y2="81.51" xlink:href="#linear-gradient"/>
    <linearGradient id="linear-gradient-4" x1="27.54" y1="81.03" x2="366.78" y2="81.03" xlink:href="#linear-gradient"/>
    <linearGradient id="linear-gradient-5" x1="27.54" y1="80.81" x2="366.78" y2="80.81" xlink:href="#linear-gradient"/>
    <linearGradient id="linear-gradient-6" x1="27.54" y1="88.18" x2="366.78" y2="88.18" xlink:href="#linear-gradient"/>
    <linearGradient id="linear-gradient-7" x1="27.54" y1="76.8" x2="366.78" y2="76.8" xlink:href="#linear-gradient"/>
  </defs>
  <path class="cls-6" d="M294.63,98.75c-2.68-5.02-5.19-10.13-8.05-15.05-1.36-2.34-.81-3.38,1.31-4.72,3.73-2.36,5.86-5.9,6.16-10.39,.61-9.08-6.03-16.03-15.89-16.22-8.87-.17-17.73,.96-26.62,.34-.98-.07-2.26-.2-2.33,1.16-.06,1.14,1.02,1.59,2.08,1.78,5.42,.97,6.66,4.63,6.59,9.58-.17,11.72-.1,23.45-.03,35.18,.02,3.03-.36,5.68-3.48,7.13-.69,.32-1.68,.61-1.4,1.73,.27,1.08,1.22,.98,2.03,.97,6.03-.08,12.05-.19,18.08-.29,.84-.01,1.8,.07,2.07-.95,.27-1.01-.53-1.65-1.34-1.73-5.42-.5-6.07-4.59-6.44-8.69-.32-3.49-.34-7.03-.25-10.54,.04-1.82-1.01-4.49,1.84-5.03,2.75-.52,5.85-.91,7.88,1.79,1.29,1.72,2.23,3.72,3.18,5.67,2.66,5.4,5.01,11,8.93,15.65,4.58,5.43,10.88,5.11,16.48-1.55-6.21,1.37-8.72-1.92-10.79-5.81Zm-10.42-23.72c-1.96,3.82-12.18,6.29-15.76,3.78-1.25-.87-1.38-2.21-1.38-3.57,0-2.34,0-4.67,0-7.01,0-2.17-.06-4.34,0-6.51,.16-5.51,1.74-6.83,7.14-6.05,8.4,1.21,13.87,11.8,10,19.36Z"/>
  <path class="cls-1" d="M334.29,51.57c-17.75-.15-29.89,11.93-30.06,29.91-.16,17.39,10.83,29.25,27.32,29.45,17.36,.21,29.02-12.27,29.18-31.23,.15-17.06-10.13-27.99-26.44-28.13Zm12.86,48.77c-5.75,8.62-16.8,9.82-24.36,2.7-9.55-9.01-11.76-31.52-4.13-42.16,5.41-7.55,16.44-8.25,23.95-1.53,5.62,5.03,8.93,13.86,8.92,24.39,.2,5.53-.91,11.39-4.38,16.6Z"/>
  <path class="cls-5" d="M225.88,106.09c-3.03-.05-4.78-1.2-5.29-4.14-.99-5.65-1-11.34-.42-17.02,.15-1.49,.46-2.86,2.25-3.54,5.96-2.23,12.1,.64,14.22,6.81,.21,.61,.36,1.31,1.71,1.09,.94-6.32-.81-12.66-.31-20.52-1.43,1.59-1.94,1.99-2.25,2.51-3.12,5.29-7.67,7.54-13.32,5.6-4.63-1.59-2.02-6.03-2.56-9.19-.33-1.95,.05-4.02-.06-6.02-.22-4.14,1.95-5.76,5.79-5.65,7.22,.19,15.33-1.21,16.46,10.44,2.44-3.87,1.27-6.9,1.3-9.8,.04-3.04-1.18-4.18-4.55-4.11-10.89,.24-21.79-.01-32.68,0-1.17,0-2.69-.72-3.45,.82,.06,.97,.65,1.28,1.32,1.37,5.59,.7,6.8,4.26,6.68,9.29-.23,9.72-.02,19.44-.08,29.16-.03,5.84,1.3,12.15-5.34,15.69,1.25,1.62,2.51,1.07,3.57,1.03,7.71-.29,15.4-.29,23.09,.63,2.27,.27,4.72-.04,6.95-.63,5.69-1.5,9.36-8.51,7.53-13.95-7.01,7.9-12.04,10.26-20.59,10.13Z"/>
  <path class="cls-7" d="M94.1,107.19c-4.18-1.2-5.26-4.84-6.62-8.25-5.64-14.14-11.24-28.29-16.92-42.41-.65-1.62-.71-4.26-2.72-4.4-2.16-.15-2.39,2.52-3.06,4.1-5.85,13.69-11.52,27.46-17.4,41.13-1.61,3.75-2.47,8.15-6.9,10.03-.77,.32-1.55,.92-1.01,1.91,.49,.89,1.47,.65,2.24,.48,4.35-.98,8.67-.32,13.02,0,1.22,.09,2.74,.63,3.46-1.09-8.53-5.08-9.18-5.99-6.14-14.29,3.57-9.71,7.74-19.21,11.66-28.79,.47,.02,.94,.04,1.41,.05,4.04,11.81,9.6,23.05,12.69,35.22,.63,2.49,1.13,5.1-2.29,6.19-.81,.26-1.66,.73-1.4,1.71,.25,.93,1.2,1.07,2.08,.95,5.69-.75,11.38-.29,17.07,.09,.79,.05,1.79,.23,2.12-.81,.33-1.04-.5-1.6-1.27-1.82Z"/>
  <path class="cls-3" d="M129.99,52.57c-.18-.24-.38-.26-.6-.06-4.24-1.29-8.49-1.08-12.72,.04-6.01,.12-12.03,.22-18.04,.37-1.09,.03-2.63-.18-2.65,1.46-.02,1.37,1.38,1.12,2.31,1.27,4.98,.77,6.45,4.19,6.46,8.65,.02,10.03,.06,20.06,0,30.1-.04,5.44,1.59,11.47-5.17,15.16,7.8-.54,15.17-.31,22.56,.25,2.62,.2,5.36,.56,7.88-.79,14.06-2.12,23.66-15.43,23.2-32.15-.36-13.14-10.16-23.39-23.21-24.29Zm12.04,40.16c-2.02,6.23-5.99,10.69-12.03,13.28-3.15,1.31-6.57,.95-9.73,.74-3.54-.24-6.09-2.93-6.14-6.71-.18-13.56-.22-27.12-.1-40.69,.04-4.33,3.72-4.29,6.67-4.15,3.11,.15,6.2,.98,9.29,1.51,12.14,8.35,16.65,21.82,12.04,36.02Z"/>
  <path class="cls-2" d="M185.36,86.07c-3.84-1.98-7.95-3.53-12.07-4.86-9.03-2.91-15.19-7.94-14.33-18.88-5.3,6.48-1.95,17.16,5.98,20.55,6.14,2.62,12.42,4.94,18.51,7.68,4.3,1.93,6.24,5.53,5.3,10.25-.95,4.79-4.07,7.57-8.89,8.29-7.52,1.12-14.88-2.92-18-9.94-.93-2.08-1.45-4.34-2.15-6.52-1.84,5.88-.34,11.77-.38,17.63,0,.4,.85,1.11,1.36,1.18,6.76,.86,13.35,3.57,20.32,2.2,6.5-1.27,11.24-6.14,12.3-12.38,1.15-6.76-1.27-11.76-7.95-15.2Z"/>
  <path class="cls-4" d="M190.65,78.7c-5.87-2.8-12.02-5.03-17.98-7.64-3.42-1.49-6.02-3.77-5.61-7.99,.42-4.41,3.7-6.21,7.33-7.27,10.07-2.94,18.83,1.66,22.92,11.38,0-4.26-.01-8.52,0-12.78,0-1.13-.4-2.04-1.52-2.29-9.21-2.12-18.5-3.88-27.36,1.04-4.29,2.38-6.13,6.51-6.07,11.39,.05,4.81,2.19,8.36,6.69,10.25,4.31,1.82,8.65,3.56,13.01,5.24,12.65,4.85,16.12,10.36,14.8,23.6,6.99-7.62,4.02-20.04-6.2-24.92Z"/>
</svg>