<?xml version="1.0" encoding="UTF-8"?>
<svg id="Layer_1" data-name="Layer 1" xmlns="http://www.w3.org/2000/svg" viewBox="0 0 400 164">
  <defs>
    <style>
      .cls-1 {
        fill: #01539c;
      }

      .cls-2 {
        fill: #d4a211;
      }

      .cls-3 {
        fill: #d4a10f;
      }

      .cls-4 {
        fill: #d4a110;
      }
    </style>
  </defs>
  <g>
    <path class="cls-1" d="M322.78,90.57c1.1,.83,1.72,1.92,2.16,3.15,.55,1.52,1.21,2.99,1.77,4.51,.79,2.15,1.68,4.26,2.52,6.4,.11,.29,.18,.59,.27,.88-.17,.2-.38,.13-.56,.13-2.3,0-4.6-.02-6.9,.02-.56,0-.81-.21-.98-.69-.86-2.4-1.88-4.74-2.85-7.09-.37-.89-.82-1.74-1.24-2.61-.4-.84-1.07-1.23-1.97-1.21-.7,.02-1.41-.13-2.1,.09-.13,.64-.06,1.3-.06,1.94,0,2.9,0,5.79,0,8.69,0,.89,.09,.85-.8,.85-2.13,0-4.26,0-6.39,0-.81,0-.81,0-.81-.85,0-4.46,0-8.92,0-13.37,0-5.34,0-10.68,0-16.01,0-.2,0-.4,0-.6-.02-.35,.11-.54,.49-.52,.17,.01,.34,0,.51,0,4.63,0,9.26-.01,13.89,0,2.4,0,4.31,1.03,5.78,2.9,1.45,1.85,1.94,3.99,1.84,6.3-.04,.96-.17,1.91-.47,2.83-.31,.98-.94,1.75-1.71,2.39-.76,.63-1.56,1.22-2.4,1.86Zm-9.93-6.46c0,.85,.01,1.7,0,2.55,0,.37,.13,.51,.5,.5,.91-.01,1.82,0,2.72,0,1.57,0,2.43-.59,3.01-2.01,.68-1.67-.72-4.07-2.65-4.05-.99,0-1.99,0-2.98,0-.58,0-.59,.02-.59,.63,0,.79,0,1.59,0,2.38Z"/>
    <path class="cls-1" d="M183.64,105.57c.57-1.59,1.13-3.09,1.65-4.61,1.41-4.12,2.86-8.23,4.33-12.33,1.13-3.14,2.18-6.31,3.28-9.47,.52-1.5,1.14-2.96,1.55-4.5,.08-.29,.26-.38,.56-.38,2.7,.01,5.4,.01,8.1,0,.34,0,.53,.12,.62,.43,.5,1.71,1.2,3.35,1.73,5.06,.55,1.78,1.25,3.52,1.85,5.29,.96,2.78,1.88,5.58,2.85,8.36,1.28,3.69,2.57,7.37,3.86,11.06,.12,.34,.28,.68,.28,1.05-.21,.18-.45,.11-.66,.11-2.41,0-4.83,0-7.24,0-.77,0-.75-.01-.94-.73-.38-1.42-.79-2.84-1.18-4.25-.1-.37-.29-.55-.71-.54-3.07,.02-6.14,.02-9.2,0-.46,0-.65,.19-.78,.59-.49,1.48-1.01,2.95-1.49,4.43-.11,.33-.19,.53-.61,.52-2.53-.03-5.06-.02-7.58-.02-.05,0-.11-.03-.25-.07Zm15.31-21.67c-.9,3.04-2.01,5.83-2.74,8.75h5.56c-.9-2.9-1.73-5.77-2.81-8.75Z"/>
    <path class="cls-1" d="M140.16,105.64c-2.81,0-5.5,0-8.2,0-.38,0-.54-.11-.64-.49-.37-1.36-.84-2.7-1.14-4.08-.03-.14-.1-.27-.12-.4-.06-.41-.27-.56-.69-.56-3.09,.01-6.19,.02-9.28,0-.55,0-.71,.33-.79,.71-.33,1.41-.91,2.73-1.39,4.09-.26,.74-.27,.74-1.07,.74-2.3,0-4.6,0-6.9,0-.11,0-.22-.02-.35-.03-.02-.09-.07-.18-.05-.24,.84-2.41,1.7-4.81,2.52-7.22,.91-2.68,1.93-5.33,2.79-8.02,.54-1.7,1.27-3.34,1.79-5.04,.8-2.57,1.87-5.04,2.64-7.62,.26-.89,.68-1.74,.95-2.64,.14-.46,.36-.55,.79-.55,2.33,.01,4.66,0,6.98,.01,.47,0,1.05-.21,1.39,.13,.29,.29,.34,.82,.48,1.25,1.56,4.52,3.13,9.03,4.68,13.55,1.11,3.24,2.18,6.5,3.32,9.73,.78,2.18,1.48,4.39,2.29,6.69Zm-12.57-12.98c-.93-2.92-1.85-5.8-2.83-8.87-.98,3.08-1.9,5.95-2.84,8.87h5.66Z"/>
    <path class="cls-1" d="M331.81,105.56c.55-1.56,1.09-3.04,1.61-4.54,1.24-3.55,2.45-7.11,3.72-10.65,.94-2.61,1.86-5.22,2.76-7.84,.88-2.6,1.95-5.13,2.67-7.78,.1-.35,.29-.48,.67-.48,2.67,.02,5.34,.02,8.01,0,.47,0,.56,.25,.68,.58,.81,2.36,1.62,4.72,2.44,7.07,1.14,3.29,2.29,6.57,3.43,9.86,1.17,3.4,2.33,6.8,3.49,10.2,.29,.86,.59,1.71,.9,2.56,.12,.33,.17,.65,.12,.99-.18,.15-.39,.1-.58,.1-2.41,0-4.83,0-7.24,0-.72,0-.73,0-.88-.73-.3-1.44-.82-2.83-1.18-4.25-.12-.47-.38-.55-.79-.55-1.36,.02-2.73,0-4.09,0-1.62,0-3.24,0-4.86,0-.73,0-.75,0-.97,.65-.48,1.42-1.07,2.81-1.43,4.27-.08,.33-.16,.62-.65,.62-2.53-.03-5.06-.02-7.58-.02-.05,0-.11-.03-.25-.07Zm18.11-12.91c-.89-2.92-1.72-5.8-2.82-8.72-.91,3.01-2.01,5.78-2.73,8.72h5.55Z"/>
    <path class="cls-1" d="M230.54,98.75c.35,.13,.64,.08,.91,.08,3.27,0,6.53,0,9.8,0,.73,0,.74,0,.74,.74,0,1.79,0,3.58,0,5.37,0,.97,.09,.88-.86,.88-4.88,0-9.77,0-14.65,0-2.02,0-4.03,0-6.05,0-.76,0-.76,0-.77-.72,0-2.24,0-4.49,0-6.73,0-.38,.1-.7,.32-1.02,2.18-3.17,4.34-6.36,6.52-9.54,1.38-2.01,2.77-4.01,4.15-6.01,.14-.2,.33-.39,.33-.67-.3-.15-.62-.08-.92-.08-2.98,0-5.96,0-8.95,0-.23,0-.45,0-.68-.01-.2,0-.3-.12-.31-.32,0-.14,0-.28,0-.43,0-1.73,0-3.46,0-5.2,0-.85-.05-.79,.78-.79,5.48,0,10.96,0,16.44,0,1.22,0,2.44,0,3.66,0,.63,0,.64,.01,.64,.66,0,2.3,0,4.6,0,6.9,0,.39-.11,.71-.33,1.02-3.09,4.51-6.19,9.02-9.27,13.53-.51,.75-.99,1.52-1.52,2.34Z"/>
    <path class="cls-1" d="M276.94,90.05c0-4.91,0-9.82,0-14.73,0-.23,0-.45,0-.68,0-.25,.13-.35,.37-.35,.17,0,.34,0,.51,0,6.11,0,12.21,0,18.32,0,.06,0,.11,0,.17,0,.77,0,.74-.05,.74,.74,0,1.68,0,3.35,0,5.03,0,1.03,.12,.98-.94,.98-3.35,0-6.7,0-10.05,0-.2,0-.4,.02-.6,0-.46-.05-.57,.18-.57,.6,.02,1.59,0,3.18,0,4.77,0,.58,.02,.6,.63,.6,2.87,0,5.74,0,8.6,0,1.17,0,1.03-.11,1.04,1.06,0,1.5,0,3.01,0,4.51,0,1.1,.12,.97-.93,.97-2.81,0-5.62,0-8.43,0-.17,0-.34,.02-.51,0-.42-.05-.53,.15-.53,.55,.02,1.22,0,2.44,.01,3.66,0,.48-.2,1.07,.1,1.4,.31,.33,.92,.12,1.39,.12,3.55,.01,7.1,0,10.65,0,.2,0,.4,.01,.6,0,.38-.03,.56,.09,.56,.52-.02,1.85-.01,3.69,0,5.54,0,.36-.12,.53-.49,.49-.17-.02-.34,0-.51,0-6.39,0-12.78,0-19.17,0-.17,0-.34,0-.51,0-.31,.02-.49-.09-.46-.43,.01-.2,0-.4,0-.6,0-4.91,0-9.82,0-14.73Z"/>
    <path class="cls-1" d="M249.1,90.05c0-4.91,0-9.82,0-14.73,0-.23,0-.45,0-.68,0-.25,.12-.36,.36-.35,.2,0,.4,0,.6,0,6.08,0,12.15,0,18.23,0,.17,0,.34,0,.51,0,.32-.02,.47,.11,.46,.44,0,1.96,0,3.92,0,5.88,0,.35-.18,.43-.48,.43-.57,0-1.14,0-1.7,0-3.04,0-6.08,0-9.12,0-.2,0-.4,.01-.6,0-.34-.02-.44,.16-.44,.47,0,1.68,.01,3.35,0,5.03,0,.55,.36,.47,.69,.47,2.41,0,4.83,0,7.24,0,.65,0,1.31,0,1.96,0,.35,0,.52,.11,.51,.49-.01,1.85,0,3.69,0,5.54,0,.51-.03,.52-.73,.52-2.9,0-5.79,0-8.69,0-1.25,0-1.07-.16-1.08,1.08-.01,1.25,0,2.5,0,3.75,0,.8-.18,.9,.87,.9,3.72,0,7.44,0,11.16,0,.23,0,.46,.02,.68,0,.44-.04,.6,.13,.59,.58-.02,1.33,0,2.67,0,4,0,.48-.02,.97,0,1.45,.03,.42-.15,.56-.55,.52-.14-.02-.28,0-.43,0-6.36,0-12.72,0-19.08,0-.17,0-.34-.01-.51,0-.31,.02-.48-.09-.46-.43,.01-.2,0-.4,0-.6,0-4.91,0-9.82,0-14.73Z"/>
    <path class="cls-1" d="M178.75,90.48c0,4.2,0,8.4,0,12.6,0,1.27,.03,2.54,.08,3.82,.06,1.69-.26,3.37-.94,4.96-.59,1.37-1.33,2.63-2.42,3.65-1.54,1.44-3.42,2.07-5.5,2.16-1.96,.08-3.82-.39-5.65-1.06-.43-.16-.85-.3-1.28-.46-.32-.12-.42-.33-.33-.67,.52-1.91,1.03-3.82,1.54-5.73,.09-.35,.28-.44,.63-.29,.47,.21,.95,.37,1.46,.45,1.4,.24,2.53-.28,3.36-1.35,.93-1.21,1.29-2.62,1.07-4.15-.04-.28-.03-.57-.03-.85,0-5.22,0-10.44,0-15.67,0-4.17-.03-8.34-.05-12.51,0-.17,0-.34,0-.51,.02-.63,.02-.65,.68-.65,2.21,0,4.43,0,6.64,0,.72,0,.73,.01,.73,.76,0,5.17,0,10.33,0,15.5Z"/>
    <path class="cls-1" d="M145.52,89.92c0-4.83,0-9.66,0-14.48,0-.2,.02-.4,0-.6-.06-.47,.17-.57,.59-.57,2.24,.01,4.49,.02,6.73,0,.42,0,.56,.15,.52,.54-.02,.2,0,.4,0,.6,0,7.41,0,14.82,0,22.24,0,.11,0,.23,0,.34,0,.88-.08,.83,.83,.83,2.81,0,5.62,0,8.44,0,.79,0,.79,0,.79,.79,0,1.76,0,3.52,0,5.28,0,.65-.01,.67-.66,.67-5.54,0-11.08,0-16.62,0-.66,0-.67-.01-.67-.74,0-4.97,0-9.94,0-14.91,.02,0,.04,0,.05,0Z"/>
  </g>
  <g>
    <path class="cls-3" d="M46.06,87.54c.25-.46,.23-.98,.31-1.48,.62-3.97,2.56-7.19,5.5-9.86,1.8-1.63,3.86-2.91,5.91-4.19,1.58-.99,3.18-1.95,4.77-2.94,1.26-.79,2.44-1.69,3.42-2.83,.82-.95,1.33-2.01,1.28-3.3,0-.08,.01-.17-.08-.23-.19-.03-.28,.15-.42,.23-.96,.61-2.19,.54-3.02-.17-.98-.84-1.08-2.08-.67-3.01,.66-1.51,2.83-1.92,4.05-.78,.49,.46,.8,1.04,1.03,1.66,.33,.9,.49,1.85,.58,2.8,.18,1.95,.26,3.89,.07,5.85-.18,1.84-.75,3.57-1.51,5.24-1.17,2.59-2.41,5.15-3.58,7.74-1.57,3.47-2.79,7.06-3.54,10.8-.59,2.94-.9,5.91-.8,8.92,.05,1.78,.21,3.56,.59,5.3,.13,.62-.13,.96-.56,1.27-.25,.18-.37,.15-.44-.17-.14-.62-.25-1.25-.35-1.87-.59-3.88-.69-7.78-.39-11.68,.28-3.57,1.17-7.02,2.34-10.4,1.14-3.3,2.66-6.42,4.16-9.56,.89-1.88,1.79-3.75,2.43-5.74,.14-.44,.31-.87,.2-1.34-.09-.03-.15,.01-.18,.06-.83,1.36-2.03,2.34-3.3,3.23-1.97,1.37-3.97,2.69-5.94,4.06-2.36,1.64-4.56,3.47-6.36,5.74-2.35,2.98-3.46,6.38-3.36,10.17,.02,.7,.03,1.4,.15,2.09,.04,.23,.07,.46,.21,.69,.29-.14,.32-.43,.41-.67,.27-.75,.62-1.44,1.15-2.04,1.18-1.33,2.86-1.41,4.16-.2,.63,.59,1.11,1.29,1.5,2.04,1.06,2.03,1.62,4.19,1.51,6.49-.02,.45-.08,.89-.22,1.31-.62,2.01-1.88,2.37-3.49,2.13-.75-.11-1.41-.47-1.99-.95-.48-.39-.93-.81-1.39-1.21-.11-.09-.19-.22-.4-.28,.04,1.84,.22,3.61,.87,5.31,.32,.84,.74,1.62,1.26,2.35,2.13,2.97,6.41,2.68,8.43,.3,.81-.95,1.36-2.05,1.77-3.21,.7-1.95,1.07-3.97,1.4-6,.2-1.21,.34-2.43,.59-3.64,.24-1.18,.84-2.1,1.75-2.88,1.18-1,2.31-2.06,3.4-3.16,.34-.35,.67-.71,.96-1.1,.14-.18,.26-.39,.51-.49,.23,.29,.19,.65,.24,.97,.16,.96,.27,1.93,.4,2.9,.08,.67-.1,1.25-.52,1.78-.84,1.05-1.86,1.91-2.83,2.83-.57,.54-1.12,1.1-1.7,1.63-.41,.38-.59,.86-.65,1.4-.16,1.48-.32,2.95-.51,4.42-.26,1.96-.6,3.9-1.28,5.76-.24,.66-.53,1.3-.88,1.9-1.31,2.21-3.44,2.97-5.8,2.7-2.11-.24-3.69-1.38-5.07-2.9-1.97-2.18-3.02-4.79-3.52-7.64-.25-1.42-.38-2.86-.4-4.3-.01-1.18-.22-2.31-.66-3.41-.65-1.62-1.07-3.3-1.27-5.04-.03-.29-.06-.59-.23-.85v-2.55Zm6.39,11.09c.6,.03,1.19-.12,1.67-.47,1.03-.75,1.64-1.89,.46-3.09-.48-.49-1.03-.63-1.67-.45-.29,.08-.55,.21-.8,.38-.83,.6-1.39,1.41-1.75,2.36-.14,.38-.09,.52,.27,.73,.55,.32,1.14,.55,1.81,.53Z"/>
    <path class="cls-3" d="M86.55,84.03c-.21,0-.3,.1-.39,.18-1.35,1.17-2.78,2.23-4.19,3.32-1.03,.79-1.99,1.65-2.75,2.72-.09,.13-.18,.29-.38,.34-.04-.06-.11-.12-.14-.2-.4-1.03-.79-2.06-.97-3.16-.17-.99,.02-1.89,.64-2.7,.49-.64,1.01-1.26,1.41-1.96,.71-1.24,1.12-2.55,1.19-3.99,.06-1.5-.4-2.84-1.16-4.1-.89-1.48-1.97-2.81-3.11-4.11-1.15-1.31-2.33-2.58-3.56-3.82-.18-.18-.33-.38-.56-.5-.21,.07-.13,.25-.14,.38-.01,.49-.02,.98,0,1.46,.12,3.64-.74,7.07-2.27,10.34-.73,1.56-1.51,3.09-2.21,4.66-1.12,2.52-1.89,5.14-1.8,7.94,.03,.93-.56,1.33-1.23,1.8-.22-.76-.21-1.49-.25-2.2-.2-3.37,.47-6.58,1.71-9.69,.94-2.36,2-4.68,2.9-7.06,.58-1.53,1.12-3.06,1.5-4.66,.52-2.15,.38-4.24-.49-6.29-.39-.93-.76-1.89-.93-2.9-.34-1.95,.05-3.75,1.04-5.44,.65-1.11,.67-.87,.11-2.14-.52-1.18-1.07-2.36-1.21-3.67-.16-1.54-.22-3.1,.08-4.63,.3-1.54,1.1-2.79,2.43-3.67,.32-.21,.65-.37,1.06-.21-.02,.28-.21,.4-.38,.52-1.64,1.21-2.02,2.9-1.8,4.8,.26,2.24,1.25,4.16,2.52,5.97,1.22,1.74,2.58,3.37,3.89,5.03,3.54,4.48,7.04,8.99,10.11,13.81,2.57,4.03,4.9,8.2,6.55,12.7,1.5,4.09,2.39,8.32,2.09,12.72-.19,2.71-.71,5.34-1.97,7.78-1.98,3.85-5.09,6.16-9.39,6.82-2.42,.37-4.78,.14-7.09-.62-.72-.24-.79-.35-.69-1.11,.11-.84,.25-1.68,.46-2.5,.21-.83,.26-.86,1.09-.7,.85,.16,1.71,.31,2.59,.31,3.31-.02,6.12-1.16,8.39-3.6,2.28-2.46,3.5-5.37,3.82-8.68,.13-1.38,.19-2.75,.03-4.13-.22-1.85-.83-3.59-1.51-5.31-1.43-3.6-3.36-6.95-5.49-10.18-3.23-4.9-6.82-9.52-10.45-14.12-1.16-1.47-2.29-2.95-3.43-4.43-.51-.66-.55-.65-.97,.07-.91,1.58-.8,3.17,.03,4.73,.51,.96,1.22,1.78,1.96,2.58,1.29,1.41,2.61,2.79,3.89,4.2,1.62,1.78,3.12,3.65,4.24,5.78,1.06,2,1.72,4.1,1.61,6.4-.03,.7-.22,1.37-.35,2.05,.23,.13,.35-.03,.47-.12,1-.79,1.93-1.66,2.75-2.64,.16-.19,.3-.42,.53-.54,.17,.02,.2,.15,.23,.27,.81,2.86,1.42,5.76,1.59,8.74,.16,2.69-.67,5.05-2.25,7.19-1.31,1.76-2.85,3.31-4.36,4.89-1.07,1.12-2.12,2.26-3.15,3.42-1.11,1.24-1.8,2.65-2.08,4.29-.32,1.88-.59,3.77-.79,5.67-.22,2.13-.45,4.26-.87,6.36-.16,.82-.44,1.6-.92,2.29-.81,1.17-1.92,1.8-3.36,1.9-2.12,.16-3.85-.68-5.4-2-1.87-1.59-3.13-3.61-4.13-5.82-.19-.42-.16-.46,.23-.72,.05-.04,.11-.07,.16-.1q.6-.34,.96,.25c.54,.89,1.09,1.77,1.81,2.53,.59,.62,1.23,1.16,2.01,1.54,1.65,.8,3.24,.46,4.39-.96,.65-.8,1.04-1.74,1.31-2.73,.33-1.23,.46-2.5,.64-3.76,.33-2.35,.67-4.7,1.16-7.03,.4-1.88,1.27-3.54,2.42-5.07,1.42-1.89,3.11-3.54,4.82-5.16,1.65-1.57,3.21-3.22,4.4-5.17,.78-1.28,1.34-2.65,1.34-4.19,0-.08,0-.17-.02-.28Z"/>
    <path class="cls-3" d="M73.07,103.2c-.14,.67-.28,1.36-.42,2.04-.06,.27-.12,.54-.19,.8-.12,.44-.15,.46-.52,.14-.67-.56-1.27-1.19-1.82-1.86-1.37-1.64-2.46-3.45-3.38-5.37-.1-.21-.13-.38,.07-.55,.26-.22,.5-.46,.73-.71,.22-.23,.4-.18,.57,.05,.06,.08,.14,.16,.2,.24,1.2,1.63,2.63,3.04,4.17,4.36,.16,.14,.31,.29,.46,.43,.12,.11,.16,.24,.14,.41Z"/>
    <path class="cls-3" d="M62.06,67.66c-1.38,0-2.51-1.14-2.5-2.52,0-1.39,1.12-2.52,2.5-2.52,1.4,0,2.57,1.18,2.54,2.56-.03,1.38-1.17,2.5-2.54,2.49Z"/>
    <path class="cls-3" d="M70.57,113.86c-.9,1.1-1.77,2.16-2.66,3.25-.89-.72-1.74-1.42-2.59-2.11-.14-.11-.15-.22-.03-.37,.78-.95,1.56-1.9,2.33-2.85,.12-.15,.23-.14,.37-.03,.85,.7,1.69,1.39,2.57,2.11Z"/>
    <path class="cls-3" d="M71.2,108.22c-.9,1.1-1.76,2.16-2.66,3.25-.88-.72-1.73-1.41-2.58-2.11-.14-.12-.16-.23-.04-.37,.78-.95,1.56-1.9,2.33-2.84,.11-.14,.22-.16,.37-.04,.85,.7,1.7,1.39,2.58,2.11Z"/>
    <path class="cls-3" d="M77.63,92.41c-.02,.05-.06,.13-.09,.21-.49,1.01-.98,2.02-1.45,3.03-.14,.3-.28,.37-.58,.22-.85-.43-1.71-.84-2.57-1.25-.23-.11-.26-.21-.15-.44,.52-1.04,1.02-2.09,1.52-3.14,.1-.21,.19-.29,.43-.17,.89,.44,1.79,.87,2.68,1.3,.09,.04,.2,.08,.2,.24Z"/>
    <path class="cls-3" d="M88.24,99.05c-.57,1.18-1.12,2.3-1.65,3.43-.12,.26-.26,.27-.49,.15-.85-.43-1.71-.84-2.57-1.25-.23-.11-.31-.22-.18-.49,.51-1.02,1.01-2.05,1.5-3.09,.11-.24,.22-.32,.48-.19,.94,.47,1.9,.93,2.91,1.42Z"/>
    <path class="cls-4" d="M71.94,84.86c-.45-.8-.37-1.52,.16-2.21,.64-.82,1.35-1.57,2.05-2.34,1.06-1.16,2.14-2.28,3.14-3.5,.08-.1,.14-.24,.29-.21,.14,.03,.15,.18,.19,.3,.22,.68,.12,1.26-.36,1.83-1.14,1.37-2.37,2.65-3.54,3.99-.5,.57-.99,1.16-1.48,1.74-.12,.14-.2,.33-.46,.4Z"/>
    <path class="cls-4" d="M53.98,84.86c.02-1.08,.23-1.93,.7-2.71,.68-1.12,1.56-2.06,2.63-2.81,.19-.14,.46-.38,.66-.13,.14,.17-.16,.35-.3,.5-.53,.58-1.07,1.14-1.59,1.74-.45,.51-.83,1.07-1.05,1.73-.12,.35-.15,.71,0,1.05,.15,.33,.41,.55,.79,.54,.39-.01,.53-.27,.57-.63,.03-.23,.16-.44,.35-.59,.17-.14,.32-.08,.37,.13,.21,.83-.71,2.55-1.51,2.8-.47,.15-.88,0-1.2-.37-.35-.41-.45-.9-.44-1.25Z"/>
    <path class="cls-2" d="M82.1,116.34c-.01,.75-.74,1.24-1.37,.98-.61-.25-1.06-.68-1.43-1.22-.63-.94-1.02-1.99-1.34-3.07-.02-.06-.04-.12-.04-.19-.01-.13-.01-.27,.14-.32,.15-.05,.25,.06,.31,.17,.13,.24,.26,.48,.36,.74,.16,.41,.34,.82,.56,1.21,.12,.21,.25,.39,.43,.55,.47,.42,1.06,.24,1.22-.37,.05-.19-.04-.5,.23-.53,.27-.03,.34,.28,.44,.48,.26,.51,.4,1.07,.49,1.57Z"/>
  </g>
</svg>