<?xml version="1.0" encoding="UTF-8"?>
<svg id="Layer_1" data-name="Layer 1" xmlns="http://www.w3.org/2000/svg" viewBox="0 0 400 164">
  <defs>
    <style>
      .cls-1 {
        fill: #fee1de;
      }

      .cls-2 {
        fill: #eb6562;
      }

      .cls-3 {
        fill: #fac7c4;
      }

      .cls-4 {
        fill: #191a14;
      }

      .cls-5 {
        fill: #191a15;
      }

      .cls-6 {
        fill: #e73b41;
      }

      .cls-7 {
        fill: #181914;
      }
    </style>
  </defs>
  <path class="cls-6" d="M269.26,54.92c-5.37-4.95-10.37-9.51-15.3-14.12-3.73-3.48-4.21-7.07-1.47-10.23,2.78-3.21,7.27-3.75,10.84-.83,4.12,3.37,7.95,7.1,11.89,10.69,3.36,3.07,6.74,6.11,10.03,9.26,3.6,3.45,3.7,7.06,.1,10.46-7,6.6-14.11,13.09-21.23,19.57-2.21,2.01-4.75,3.06-7.87,2.12-5.85-1.76-7.48-7.47-3.14-11.78,3.78-3.75,7.81-7.26,11.71-10.89,1.42-1.32,2.8-2.67,4.45-4.24Z"/>
  <path class="cls-6" d="M130.64,108.92c5.34,4.96,10.39,9.62,15.4,14.3,1.32,1.24,2.66,2.46,3.02,4.41,.96,5.2-4,9.69-9.24,8.28-1.64-.44-3.06-1.33-4.33-2.51-6.66-6.19-13.39-12.32-20.03-18.53-4.58-4.28-4.58-7.56-.05-11.78,6.65-6.2,13.34-12.37,20.03-18.53,2.21-2.04,4.71-3.14,7.81-2.45,2.77,.61,4.79,2.14,5.61,4.83,.83,2.71,.02,5.15-2.06,7.09-3.61,3.37-7.25,6.7-10.89,10.05-1.62,1.49-3.24,2.98-5.28,4.86Z"/>
  <path class="cls-7" d="M184.36,92.34v-19.86c.86-1.22,1.94-1.1,2.96-1.1,5.83,0,11.66,0,17.49,0,.65,0,1.3,.04,1.94,.13,6.33,.86,8.3,4.65,5.45,10.45,2.85,6.42,.92,10.09-5.92,10.74-6.58,.63-13.2,.19-19.81,.22-.61,0-1.22-.34-2.12-.6Zm23.61-12.56c.5-3.56,.29-4.2-2.31-4.29-5.27-.18-10.56-.05-16.05-.05-.1,1.72-.39,3.18,.29,4.8,6.11-.19,12.16,.46,18.08-.45Zm-18.16,9.31c5.36-.2,10.65,.24,15.95-.31,2.38-.25,3.16-1.37,2.23-3.97-6.08-.93-12.21-.32-18.54-.49-.07,1.7-.37,2.94,.37,4.76Z"/>
  <path class="cls-2" d="M168.29,98.58c2.71-.24,5.13,.6,7.31,2.1,6.57,4.53,6.12,13.33-.85,17.22-4.33,2.42-8.66,2.26-12.92-.1-4.03-2.23-5.87-6.31-5.05-10.8,.76-4.13,4.56-7.57,9.18-8.28,.76-.12,1.55-.11,2.32-.15Z"/>
  <path class="cls-2" d="M230.96,44.73c6.18,.02,11.17,3.95,11.73,9.22,.78,7.36-6.02,12.32-12.82,11.72-5.91-.53-10.22-4.47-10.68-9.12-.68-6.84,4.31-11.84,11.77-11.82Z"/>
  <path class="cls-3" d="M188.04,109.3c.04-6.9,7.5-12.08,14.32-10.36,2.4,.61,4.57,1.65,6.32,3.59,4.6,5.11,2.83,10.92-1.59,14.48-5.5,4.43-16.16,2.27-18.4-4.43-.42-1.27-.7-2.48-.64-3.29Z"/>
  <path class="cls-1" d="M230.96,98.72c5.44,.06,9.88,3.21,11.44,8.06,1.23,3.83-.28,7.18-3.03,9.43-5.53,4.53-10.47,4.65-16.3,.58-5.9-4.12-4.58-13.43,2.13-16.69,1.86-.9,3.82-1.63,5.76-1.38Z"/>
  <path class="cls-3" d="M199.99,44.88c5.19,0,9.69,3.14,11.14,8.04,1.29,4.37-.91,7.59-4.15,10.07-5.87,4.49-13.37,3.17-17.3-2.55-4.33-6.3,.16-14.75,7.97-15.54,.77-.08,1.56-.01,2.34-.01Z"/>
  <path class="cls-1" d="M168.44,44.85c5.64,.03,11.24,4.22,11.8,8.55,.65,5.02-3.92,11.04-9.13,11.69-4.08,.5-7.66-.4-11.11-3.21-5.99-4.88-2.63-14.14,3.49-16.28,1.76-.61,3.5-.84,4.95-.75Z"/>
  <path class="cls-5" d="M158.99,76.37c-.66,1.34-.39,2.34-.39,3.36,.48,.19,.83,.45,1.18,.45,5.33,.03,10.66,.03,15.99,.05,1.03,0,2.08,.04,3.09,.23,.81,.15,1.37,.71,1.39,1.63,.03,1.04-.4,1.83-1.45,1.99-1.15,.18-2.32,.22-3.48,.23-5.43,.02-10.87,0-16.24,0-.58,3.87-.57,4,2.52,4.44,4.52,.65,9.09,.14,13.63,.31,1.52,.06,3.13-.4,4.67,.62,.81,2.04,.06,3.26-2.15,3.25-5.97-.04-11.97,.48-17.91-.38-4.83-.7-6.17-2.36-6.19-7.2,0-2.34-.02-4.68,0-7.02,.04-3.71,1.08-5.06,4.63-6.17,3.42-1.07,6.91-.86,10.3-.67,1.19,1.02,1.11,2.1,.54,3.4-3.19,1.3-6.97-.6-10.14,1.47Z"/>
  <path class="cls-4" d="M223.25,76.69v10.95c1.8,1.54,3.94,1.36,5.97,1.39,4.15,.08,8.3,.02,12.46,.03,1.44,0,3.17-.08,3.13,1.94-.03,1.92-1.67,2.01-3.17,1.99-5.32-.06-10.65,.06-15.95-.21-5.91-.31-7.64-2.36-7.66-8.32,0-2.08-.04-4.15,.01-6.23,.08-3.48,1.13-4.92,4.34-6.07,1.35-.48,2.74-.76,4.19-.76,5.06,0,10.12,0,15.18,0,1.48,0,3.09-.06,3.15,1.94,.06,2.04-1.54,2.03-3.03,2.03-4.67-.01-9.34-.02-14.01,0-1.53,0-3.14-.17-4.61,1.34Z"/>
</svg>