<?xml version="1.0" encoding="UTF-8"?>
<svg id="Layer_1" data-name="Layer 1" xmlns="http://www.w3.org/2000/svg" viewBox="0 0 400 164">
  <defs>
    <style>
      .cls-1 {
        fill: #a8ab1c;
      }

      .cls-2 {
        fill: #a8ab1b;
      }

      .cls-3 {
        fill: #a8ac1d;
      }

      .cls-4 {
        fill: #a7aa1a;
      }

      .cls-5 {
        fill: #a7ab1b;
      }

      .cls-6 {
        fill: #a5a915;
      }

      .cls-7 {
        fill: #a7ab1c;
      }

      .cls-8 {
        fill: #005837;
      }

      .cls-9 {
        fill: #a6a815;
      }

      .cls-10 {
        fill: #a5a916;
      }

      .cls-11 {
        fill: #a5a814;
      }

      .cls-12 {
        fill: #a7aa18;
      }

      .cls-13 {
        fill: #a6a814;
      }

      .cls-14 {
        fill: #a9ac1d;
      }

      .cls-15 {
        fill: #a4a813;
      }

      .cls-16 {
        fill: #005838;
      }
    </style>
  </defs>
  <path class="cls-8" d="M299.86,61.91c-1.06,2.74-2.27,5.36-3.39,8.03-2.53,6.06-5.09,12.1-7.6,18.16-.3,.71-.64,1.03-1.42,.94-.61-.07-1.23-.01-1.85-.01q-1.02,0-1.4-.92c-1.41-3.5-2.82-6.99-4.23-10.49-1.66-4.14-3.33-8.28-4.98-12.42-.39-.97-.72-1.95-1.2-2.94v1.1c0,8.06,0,16.12,0,24.18,0,.15,0,.29,0,.44-.01,1.18,.1,1.04-1.05,1.05-.76,0-1.53-.01-2.29,0-.43,.01-.59-.17-.56-.58,.02-.22,0-.44,0-.65,0-9.84,0-19.68,0-29.52,0-.22,.01-.44,0-.65-.03-.42,.17-.57,.58-.57,1.6,.01,3.2,.02,4.79,0,.55-.01,.65,.36,.8,.73,1.11,2.72,2.22,5.44,3.33,8.16,2.16,5.31,4.32,10.61,6.48,15.92,.34,.82,.67,1.65,.88,2.6,3.6-8.87,7.36-17.53,10.99-26.24,.06-.13,.13-.26,.17-.4,.15-.56,.46-.8,1.09-.78,1.45,.06,2.91,.05,4.36,0,.6-.02,.79,.21,.72,.76-.02,.14,0,.29,0,.44,0,9.88,0,19.75,0,29.63,0,1.34,.15,1.15-1.15,1.16-.84,0-1.67-.01-2.51,0-.41,.01-.61-.12-.58-.55,.02-.29,0-.58,0-.87,0-8.57,0-17.14,0-25.71Z"/>
  <path class="cls-15" d="M162.59,61.44c-1.55-.83-3.11-1.41-4.76-1.69-3.29-.56-6.57-.69-9.81,.3-4.68,1.43-8.25,6.17-8.52,11.05-.38,6.91,4.27,12.39,11.21,13.81,2.9,.59,5.77,.36,8.64-.2,.62-.12,.62-.47,.62-.93,0-2.65,0-5.3,0-7.95,0-.36-.03-.73,0-1.09,.05-.55-.15-.78-.73-.76-2.29,.06-4.57,0-6.86,.16-.75,.05-1.5,0-2.33,0,.5-1.05,1.1-2.04,1.5-3.12,.45-1.22,.46-1.24,1.79-1.14,3.33,.25,6.67,.39,10.01,.41,.86,0,.87,.02,.87,.92,0,4.97-.02,9.95-.04,14.92,0,.94,.17,.85-.87,1.19-4.42,1.42-8.95,2.02-13.53,1.25-6.84-1.15-11.95-4.76-14.11-11.56-2.62-8.21,1.36-17.07,10.56-20.21,2.9-.99,5.88-1.25,8.92-1.01,1.48,.11,2.96,.26,4.42,.57,1.43,.3,2.77,.82,4.07,1.49,.48,.24,.52,.48,.28,.92-.46,.86-.87,1.74-1.34,2.67Z"/>
  <path class="cls-8" d="M263.82,89.03c-1.62,0-3.03-.01-4.43,0-.4,0-.58-.22-.77-.5-.57-.84-1.15-1.68-1.73-2.51-2.28-3.32-4.58-6.63-6.84-9.96-.36-.53-.73-.8-1.4-.76-.94,.06-1.89,0-2.83,.02-.82,0-.83,.01-.83,.83,0,3.81,0,7.62,0,11.43q0,1.44-1.43,1.44c-.69,0-1.38,0-2.07,0-.74-.01-.75-.02-.76-.8,0-.25,0-.51,0-.76,0-8.31,0-16.63,0-24.94,0-1.57-.1-3.12-.47-4.64-.06-.24-.16-.49-.01-.74,.24-.13,.5-.08,.75-.08,3.45,0,6.9,0,10.35,0,1.2,0,2.39,.09,3.58,.28,6.13,.98,9.15,8.33,5.19,13.64-1.3,1.74-2.97,2.96-5.12,3.46-.35,.08-.7,.18-1.2,.32,.78,1.26,1.66,2.4,2.48,3.57,.81,1.16,1.63,2.31,2.45,3.47,.84,1.19,1.67,2.37,2.51,3.56,.81,1.15,1.63,2.31,2.59,3.67Zm-18.83-22.88c0,1.71,.02,3.41-.01,5.12-.01,.58,.19,.77,.75,.73,.65-.04,1.31,0,1.96-.01,1.56-.03,3.12,.08,4.67-.15,2.54-.38,4.24-1.82,4.77-4.13,.22-.95,.29-1.93,.15-2.92-.4-2.82-1.88-4.22-4.68-4.3-2.29-.06-4.57-.04-6.86-.04-.73,0-.74,.02-.75,.8,0,1.63,0,3.27,0,4.9Z"/>
  <path class="cls-16" d="M331.8,70.57c-.34,.66-.64,1.22-.92,1.79-.35,.72-.69,1.44-.89,2.22-.11,.41-.32,.49-.71,.45-3.83-.38-7.68-.37-11.53-.48-.84-.03-.85-.01-.85,.8,0,3.16,0,6.31,0,9.47,0,.86,.01,.87,.91,.87,4.97,0,9.94,0,14.92,0,.22,0,.44,0,.65,0,.81,.02,.82,.02,.83,.84,0,.62-.03,1.24,0,1.85,.04,.55-.2,.71-.7,.65-.14-.02-.29,0-.44,0-6.42,0-12.85,0-19.27,0-1.29,0-1.18,.13-1.18-1.15,0-9.87,0-19.74,0-29.61,0-1.36-.08-1.21,1.25-1.21,6.21,0,12.41,0,18.62,0,.22,0,.44,.01,.65,0,.41-.03,.6,.12,.59,.55-.02,.76-.02,1.52,0,2.29,.01,.44-.19,.56-.59,.55-1.2-.02-2.4,0-3.59,0-3.92,0-7.84,0-11.76,0-.88,0-.89,.01-.89,.88,0,2.83,0,5.66,0,8.49,0,1.07-.1,1.02,.98,1.01,4.46-.06,8.93,.02,13.39-.25,.14,0,.27,0,.54,0Z"/>
  <path class="cls-15" d="M103.33,69.9c-.3,.6-.63,1.2-.91,1.81-.26,.56-.5,1.13-.73,1.7-.32,.83-.31,.84-1.23,.76-3.69-.31-7.39-.39-11.1-.43-.81,0-.83,0-.83,.85,0,3.09,0,6.17,0,9.26,0,1.1-.02,1.02,1,1.02,4.9,0,9.8,0,14.71,0,.25,0,.51,0,.76,0,.79,.02,.8,.02,.81,.76,.01,.65-.02,1.31,0,1.96,.02,.49-.19,.63-.65,.61-.69-.02-1.38,0-2.07,0-5.85,0-11.69,0-17.54,0-.25,0-.51-.01-.76,0-.43,.02-.59-.18-.56-.59,.01-.22,0-.44,0-.65,0-9.8,0-19.61,0-29.41,0-.15,0-.29,0-.44,.02-.81,.02-.82,.87-.83,4.03,0,8.06,0,12.09,0,2.43,0,4.87,0,7.3,0,.83,0,.84,.02,.85,.84,0,.54,0,1.09,0,1.63-.01,.85-.02,.86-.92,.86-1.16,0-2.32,0-3.49,0-3.81,0-7.63,0-11.44,0-.99,0-.98-.09-.98,.92,0,2.87,0,5.74,0,8.61,0,.88,.01,.89,.91,.89,4.39,.03,8.79-.14,13.18-.23,.22,0,.43-.05,.71,.09Z"/>
  <path class="cls-8" d="M230.21,70.45c-.76,1.38-1.43,2.62-1.83,3.98-.12,.41-.36,.47-.73,.42-1.62-.2-3.26-.18-4.89-.28-2.18-.14-4.35-.13-6.53-.17-.92-.02-.93,0-.93,.95,0,3.05,0,6.1,0,9.15,0,1.2,.03,1.03,1.09,1.03,5.01,0,10.02,0,15.03,0,.25,0,.51,0,.76,0,.33-.01,.44,.16,.43,.47,0,.8,0,1.6,0,2.4,0,.31-.11,.47-.44,.46-.22,0-.44,0-.65,0-6.46,0-12.93,0-19.39,0-.22,0-.44,0-.65,0-.32,0-.46-.15-.44-.46,0-.22,0-.44,0-.65,0-9.87,0-19.75,0-29.62,0-1.25-.18-1.17,1.16-1.17,6.28,0,12.56,0,18.84,0,.18,0,.36,.01,.54,0,.42-.03,.59,.14,.57,.57-.02,.69-.04,1.38,0,2.07,.05,.62-.24,.71-.77,.71-3.52-.02-7.04,0-10.57,0-1.6,0-3.2,0-4.79,0-.72,0-.73,.02-.74,.82,0,2.9,0,5.81,0,8.71,0,.86,.02,.87,.93,.87,4.43,.02,8.86-.11,13.29-.23,.18,0,.36,0,.7,0Z"/>
  <path class="cls-8" d="M338.55,86.22c1.2-.84,2.31-1.75,3.32-2.75,.11,.04,.2,.05,.25,.1,2.86,2.47,6.23,2.75,9.73,2.15,1.88-.32,3.41-1.3,3.92-3.31,.43-1.69,.16-3.23-1.1-4.53-.69-.72-1.49-1.26-2.37-1.7-2.04-1.03-4.08-2.04-6.11-3.1-1.65-.85-3.19-1.85-4.53-3.16-3.15-3.09-2.44-7.65-.06-10.1,1.63-1.68,3.68-2.59,5.93-2.97,4.54-.76,8.89-.17,12.91,2.2,.06,.03,.1,.1,.22,.24-.61,1.01-1.23,2.05-1.88,3.14-.49-.1-.86-.39-1.27-.59-3.06-1.51-6.26-2.01-9.62-1.34-.93,.19-1.79,.59-2.52,1.21-1.84,1.56-1.92,4.06-.19,5.73,.74,.71,1.6,1.24,2.48,1.76,1.62,.96,3.32,1.79,5,2.64,1.55,.79,3.05,1.67,4.5,2.63,4.41,2.91,4.22,9.96-.04,12.99-1.93,1.37-4.11,1.98-6.41,2.16-4.42,.34-8.48-.66-12.15-3.4Z"/>
  <path class="cls-15" d="M129.65,69.8c-.79,1.43-1.46,2.68-1.86,4.04-.14,.47-.46,.4-.77,.35-1.22-.2-2.46-.15-3.69-.26-1.92-.17-3.84-.14-5.77-.17-.82-.02-.84,0-.84,.85,0,4.1,0,8.2,0,12.3,0,1.45,.16,1.28-1.26,1.29-.69,0-1.38,0-2.07,0-.86-.01-.86-.02-.87-.92,0-.11,0-.22,0-.33,0-9.8,0-19.6,0-29.4,0-.15,0-.29,0-.44,.02-.81,.02-.83,.86-.83,5.81,0,11.62,0,17.42,0,.89,0,.92,.02,.9,.9-.02,.78,.35,1.78-.18,2.29-.48,.46-1.45,.13-2.21,.14-3.78,.01-7.55,0-11.33,0-.25,0-.51,0-.76,0-.3,0-.49,.1-.49,.43,0,3.16,0,6.32,0,9.47,0,.56,.4,.51,.77,.51,1.92-.02,3.85-.03,5.77-.07,2.06-.04,4.13-.1,6.39-.16Z"/>
  <path class="cls-16" d="M198.38,70.59c-.37,.74-.76,1.5-1.12,2.28-.19,.39-.34,.8-.49,1.21-.3,.82-.3,.82-1.11,.74-5.18-.48-10.36-.5-15.55-.38-.88,.02-.89,.03-.9,.89,0,4.06,0,8.13,0,12.19,0,1.5,.24,1.3-1.32,1.32-.65,0-1.31,0-1.96,0-1.08,0-.98,0-.98-1.03,0-.07,0-.15,0-.22v-29.4c0-.15,0-.29,0-.44,.02-.82,.02-.83,.85-.84,.83,0,1.67,0,2.5,0,.9,0,.9,.01,.91,.88,0,1.71,0,3.41,0,5.12,0,2.21,0,4.43,0,6.64,0,.87,.01,.88,.9,.92,4.03,.21,8.05,.24,12.08,.12,1.92-.06,3.85-.12,5.77-.17,.14,0,.29-.04,.43,.14Z"/>
  <path class="cls-11" d="M335.04,103.85c2.16,0,4.19,0,6.22,0,.37,0,.54-.13,.52-.51-.02-.29,0-.58,0-.87-.01-1.61-.61-2.25-2.21-2.3-.68-.02-1.21-.22-1.48-.87-.13-.31-.09-.6,.34-.6,.83,0,1.67-.08,2.49,.14,1.31,.36,2.3,1.57,2.39,2.93,.02,.33,0,.65,0,.98,0,1.17-.16,1.1,1.12,1.1,.78,0,.79-.01,.8-.76,0-.4,0-.8,0-1.2,.05-1.41,.7-2.42,2-2.97,1.34-.56,2.6-.33,3.64,.64,1.01,.93,1.34,2.13,.88,3.48-.08,.24-.27,.44-.21,.82,.84,0,1.7-.03,2.56,0,.56,.02,.66-.23,.66-.72-.02-1.6,0-3.19,0-4.79,0-.33,0-.66,.04-.98,.06-.47,.34-.78,.77-.98,.49-.22,.68-.14,.68,.4,.02,2.65,0,5.3,0,7.95,0,.4-.16,.61-.59,.59-.29-.01-.58,0-.87,0-9.95,0-19.9,0-29.85,0-.25,0-.51,.02-.76,0-.51-.04-.7,.12-.82,.69-.53,2.57-3.23,3.61-5.41,2.11-.39-.26-.75-.58-1.08-.91-.33-.33-.26-.54,.2-.67,.72-.22,1.32,.04,1.93,.44,.96,.63,1.95,.37,2.52-.58,.09-.15,.15-.33,.21-.5,.12-.35,.03-.57-.38-.57-.51,0-1.02,.02-1.52-.02-1.99-.15-3.25-1.56-3.19-3.55,.05-1.67,1.34-3,3.04-3.13,1.67-.13,3.23,1,3.56,2.57,.14,.68,.11,1.37,.11,2.06,0,.39,.11,.59,.56,.59,1.45-.02,2.9-.02,4.36,0,.42,0,.59-.16,.57-.58-.02-.43,0-.87,0-1.31,0-1.47,.67-2.5,2.01-3.06,1.34-.56,2.6-.29,3.64,.66,1.03,.95,1.22,2.18,.85,3.51-.06,.21-.16,.4-.32,.77Zm12.84,0h0c.29-.01,.58,.02,.87-.02,1.22-.16,2.01-1.55,1.49-2.6-.4-.8-1.12-1.21-1.94-1.09-.69,.11-1.44,.87-1.53,1.65-.06,.5,0,1.01-.03,1.52-.02,.45,.2,.57,.59,.54,.18-.01,.36,0,.54,0Zm-16.39,0c.22,0,.43,.01,.65,0,1.05-.07,1.84-.88,1.84-1.89,0-.97-.83-1.81-1.78-1.82-.98,0-1.77,.79-1.84,1.88-.02,.36,.01,.72-.01,1.08-.04,.53,.11,.84,.71,.75,.14-.02,.29,0,.43,0Zm-9.7-1.46c0-.1,0-.47-.06-.82-.15-.78-.82-1.36-1.56-1.44-.74-.07-1.49,.38-1.83,1.09-.33,.7-.15,1.53,.42,2.08,.51,.49,1.13,.57,1.8,.55,1.35-.04,1.21,.16,1.23-1.47Z"/>
  <path class="cls-16" d="M203.58,72.9c0,4.93,0,9.87,0,14.8,0,.25,0,.51,0,.76,0,.27-.15,.39-.4,.39-1.12,0-2.25,0-3.37,0-.27,0-.4-.12-.4-.39,0-.25,0-.51,0-.76,0-9.87,0-19.73,0-29.6,0-.07,0-.15,0-.22,0-1-.06-.95,.94-.95,.83,0,1.67,.02,2.5,0,.55-.02,.76,.15,.75,.74-.03,2.03-.01,4.06-.01,6.09,0,3.05,0,6.09,0,9.14Z"/>
  <path class="cls-8" d="M39.35,74.07c-.02-.44,.21-.6,.34-.8,.66-1,1.28-2.02,1.78-3.11,.55-1.19,.55-1.17,1.8-1.08,2.86,.21,5.73,.31,8.6,.34,4.83,.05,9.66-.07,14.48-.23,.83-.03,1.65-.1,2.46-.14,.06,.2-.04,.32-.11,.44-.88,1.38-1.61,2.84-2.09,4.41-.12,.38-.25,.51-.67,.47-7.49-.73-15.01-.74-22.52-.51-1.34,.04-2.68,.15-4.07,.23Z"/>
  <path class="cls-8" d="M39.36,87.91c-.03-.33,.23-.51,.38-.74,.75-1.16,1.49-2.33,1.96-3.63,.2-.54,.51-.6,.99-.56,5.47,.46,10.96,.41,16.44,.35,3.23-.03,6.46-.17,9.69-.34,.07,.33-.19,.52-.33,.76-.76,1.29-1.42,2.62-1.86,4.04-.11,.34-.17,.57-.64,.53-6.91-.71-13.85-.72-20.78-.58-1.71,.03-3.41,.16-5.11,.23-.24,.01-.5,.11-.73-.07Z"/>
  <path class="cls-8" d="M68.77,55.26c.06,.33-.2,.53-.34,.77-.71,1.23-1.37,2.48-1.76,3.85-.16,.54-.39,.65-.91,.6-5.86-.57-11.74-.67-17.62-.62-2.76,.02-5.51,.16-8.27,.35-.17,.01-.35,.06-.52-.05-.07-.34,.2-.52,.35-.75,.74-1.12,1.47-2.26,1.94-3.52,.23-.62,.54-.72,1.13-.68,6.38,.44,12.77,.35,19.16,.25,2.03-.03,4.06-.15,6.09-.22,.25,0,.5-.1,.75,.03Z"/>
  <path class="cls-13" d="M188.88,103.85c1.75,0,3.42,0,5.09,0,1.67,0,3.34-.02,5.01,0,.53,0,.69-.18,.68-.7-.03-1.05-.03-2.11,0-3.16,.02-.97,.41-1.35,1.53-1.52,0,.73,0,1.45,0,2.17,0,.87,0,1.74,0,2.61,0,.39,.1,.63,.55,.59,.18-.02,.36,0,.54,0,.68-.03,1.53,.27,2.01-.12,.51-.42,.14-1.3,.19-1.97,.12-1.69,1.5-3.05,3.2-3.12,1.75-.07,3.26,1.19,3.5,2.93,.24,1.73-.82,3.24-2.54,3.65-.43,.1-.86,.12-1.3,.12-7.48,0-14.96,0-22.44,0-.82,0-1.57-.16-2.34-.53-.13,.33-.24,.63-.38,.92-.68,1.37-2.24,2.12-3.74,1.79-1.46-.31-2.51-1.57-2.55-3.12-.03-1.12,0-2.24,0-3.36,1.06,.1,1.36,.34,1.44,1.21,.06,.65,.02,1.31,.06,1.96,.06,.94,.64,1.66,1.44,1.82,1.11,.22,2.08-.54,2.12-1.75,.05-1.34,.01-2.69,.02-4.03,0-.51,0-1.01,0-1.52,1.12,.07,1.52,.43,1.57,1.42,.03,.62-.02,1.24,.03,1.85,.09,1.09,.7,1.67,1.86,1.78,0-1.2-.02-2.39,0-3.58,.02-1.01,.39-1.36,1.55-1.49v5.09c1.19-.19,1.69-.66,1.77-1.65,.05-.65,0-1.31,.03-1.96,.04-.79,.44-1.34,1.05-1.49,.24-.06,.46-.02,.45,.28-.06,1.58,.28,3.19-.39,4.89Zm17.16-1.24c.02,1.36-.16,1.23,1.19,1.23,.29,0,.58,.02,.87-.02,.87-.13,1.55-.93,1.58-1.81,.03-.86-.66-1.7-1.51-1.86-.86-.16-1.67,.36-2.01,1.28-.15,.39-.1,.78-.12,1.18Z"/>
  <path class="cls-9" d="M226.35,100.28c-.56-.25-1.06-.48-1.16-1.1-.06-.34,0-.55,.42-.55,2.25,.01,4.5-.06,6.75,.04,1.72,.07,2.95,1.54,2.98,3.3,.03,1.84-1.06,3.11-2.89,3.33-.39,.05-.8,.03-1.2,.03-5.04,0-10.09,0-15.13,0-.25,0-.51,.01-.76,0-.38-.02-.58,.08-.63,.53-.25,2.51-3.29,3.93-5.56,2.17-.43-.33-.89-.63-1.22-1.19,.56-.47,1.15-.48,1.78-.22,.2,.08,.37,.22,.56,.33,1.36,.81,2.8,.08,2.86-1.51,.06-1.3,.01-2.61,.01-3.92,0-.54,.01-1.09,0-1.63,0-.45,.2-.77,.58-.97,.24-.13,.5-.39,.79-.2,.24,.15,.13,.46,.13,.7,.01,1.27,.02,2.54,0,3.81,0,.46,.14,.64,.62,.63,1.56-.02,3.12-.01,4.68,0,.41,0,.58-.15,.58-.57-.02-1.09-.03-2.18,0-3.26,.03-.99,.39-1.34,1.54-1.53,0,1.35-.01,2.68,0,4.01,.02,1.6-.21,1.34,1.4,1.36,.93,.01,1.86,0,2.9,0-.56-1.25-.77-2.4-.04-3.57Zm3.8,2.31c.02-.47,.02-1.05-.3-1.57-.59-.95-1.37-1-2.05-.13-.73,.92-.36,2.27,.78,2.79,1.08,.5,1.58,.19,1.58-1.1Zm1.05-2.31c.62,.92,.49,1.94,.51,2.95,.01,.59,.17,.7,.71,.57,.77-.18,1.4-.92,1.46-1.71,.05-.71-.38-1.41-1.09-1.73-.48-.22-.97-.28-1.59-.08Z"/>
  <path class="cls-13" d="M261.6,98.48c0,1.21,0,2.4,0,3.59,0,.36,.02,.73,0,1.09-.04,.5,.12,.73,.66,.71,.72-.04,1.45-.04,2.18,0,.54,.03,.68-.19,.67-.69-.02-1.56,0-3.12,0-4.68,0-.25-.01-.51,0-.76,.08-.87,.36-1.16,1.35-1.42,.23,.19,.15,.46,.15,.69,0,2.47,0,4.94,0,7.41,0,.91-.01,.93-.87,.93-7.55,0-15.11,.01-22.66,0-2.27,0-3.6-1.35-3.56-3.48,.03-1.72,1.24-3.02,2.96-3.19,1.72-.17,3.29,.95,3.65,2.59,.14,.65,.14,1.3,.11,1.95-.03,.54,.19,.68,.7,.67,1.74-.02,3.49,0,5.23,0,2.29,0,4.58,0,6.86,0,1.02,0,1.02,0,1.02-.98,0-.94-.02-1.89,0-2.83,.03-.96,.4-1.34,1.54-1.56Zm-17,4.16c0-.25,.02-.51,0-.76-.08-.96-.86-1.73-1.76-1.74-.9-.01-1.66,.65-1.79,1.57-.13,.98,.51,1.92,1.46,2.1,.28,.05,.58,.04,.87,.04,1.38-.02,1.2,.16,1.21-1.21Z"/>
  <path class="cls-6" d="M286.61,96.26c0,2.29,0,4.5,0,6.71,0,.54-.03,1.09,0,1.63,.04,.59-.23,.73-.77,.73-5.55-.01-11.11,0-16.66-.01-.78,0-.8-.03-.8-.8-.01-2.54,0-5.08,0-7.62,0-.2-.09-.46,.13-.59,.26-.15,.5,.03,.71,.16,.51,.32,.67,.81,.67,1.4-.02,1.67,0,3.34,0,5.01,0,.96,0,.96,.93,.97,1.31,0,2.61,0,3.92,0,.8,0,.8-.02,.82-.85,.02-.58-.03-1.16,.1-1.73,.44-1.9,2.29-3.03,4.14-2.5,1.92,.55,2.92,2.4,2.32,4.25-.08,.24-.17,.47-.31,.83,.98,0,1.87-.02,2.76,0,.56,.01,.53-.34,.53-.72,0-1.74-.01-3.48,0-5.23,.01-1.07,.26-1.35,1.5-1.65Zm-8.4,7.59s0,0,0,0c.29,0,.58,.03,.87,0,1.29-.16,2.06-1.59,1.45-2.68-.43-.77-1.09-1.13-1.88-1-.75,.12-1.48,.91-1.56,1.74-.04,.47,0,.94-.02,1.41-.02,.44,.19,.58,.59,.55,.18-.01,.36,0,.54,0Z"/>
  <path class="cls-13" d="M314.2,98.68c-.13,.98-.46,1.35-1.3,1.44-.22,.02-.44,0-.65,.01-1.03,.07-1.82,.85-1.83,1.8,0,1.01,.79,1.85,1.85,1.91,.65,.03,1.31-.02,1.96,.02,.64,.04,1.09,.43,1.18,.94,.05,.29-.01,.51-.37,.51-.25,0-.51,0-.76,0-5.77,0-11.55,0-17.32,0-.4,0-.8,0-1.19-.07-1.9-.32-3-1.83-2.79-3.77,.19-1.68,1.64-2.89,3.42-2.85,1.81,.04,3.2,1.44,3.29,3.26,.03,.61-.26,1.39,.13,1.79,.44,.44,1.24,.16,1.88,.16,2.5,.02,5.01,0,7.49,0,.18-.4-.09-.67-.17-.97-.55-2.01,.72-3.98,2.8-4.22,.79-.09,1.59-.09,2.38,.02Zm-17.37,5.16c.31,0,.6,0,.89,0,.2,0,.36-.09,.36-.31,.01-.75,.13-1.52-.15-2.25-.39-.98-1.51-1.41-2.41-.97-.97,.47-1.32,1.64-.78,2.57,.48,.83,1.23,1.05,2.1,.96Z"/>
  <path class="cls-6" d="M359.09,105.22c-1.11-.12-1.44-.42-1.45-1.45-.02-2.29,0-4.57-.02-6.86,0-.71,.22-.73,.78-.49,.48,.2,.7,.6,.77,1.1,.07,.5-.01,7.19-.09,7.71Z"/>
  <path class="cls-10" d="M287.97,96.31c1.17,.11,1.52,.38,1.53,1.33,.03,2.36,.02,4.72,0,7.08,0,.54-.16,.62-.67,.45-.55-.19-.86-.61-.86-1.14-.03-2.57-.01-5.14-.01-7.72Z"/>
  <path class="cls-4" d="M295.13,97.74c-.54,0-.91-.41-.9-.99,0-.56,.39-.95,.94-.94,.51,0,1,.45,1.02,.92,.02,.52-.51,1.01-1.06,1Z"/>
  <path class="cls-14" d="M242.65,96.73c.01,.55-.36,.97-.89,1.01-.56,.04-1.05-.41-1.05-.98,0-.51,.43-.94,.96-.95,.55,0,.96,.38,.97,.92Z"/>
  <path class="cls-2" d="M243.83,95.81c.55-.03,.96,.37,.97,.93,0,.57-.38,.99-.92,1-.51,0-.99-.44-1.02-.94-.03-.48,.44-.96,.97-.99Z"/>
  <path class="cls-3" d="M259.72,106.42c.54,0,.97,.43,.96,.96,0,.52-.46,.99-.96,.99-.52,0-.96-.45-.96-.99,0-.55,.41-.96,.96-.96Z"/>
  <path class="cls-3" d="M262.85,107.36c0,.53-.42,.99-.94,1.01-.51,.01-.97-.44-.98-.97-.01-.54,.41-.97,.94-.98,.55,0,.97,.4,.98,.94Z"/>
  <path class="cls-7" d="M340.67,108.58c-.52,.01-.98-.42-1-.95-.02-.53,.39-.97,.93-1,.56-.03,.94,.33,.97,.93,.03,.57-.36,1-.89,1.01Z"/>
  <path class="cls-1" d="M221.1,107.4c0,.56-.42,.98-.94,.97-.53-.01-.92-.44-.91-1,0-.59,.37-.95,.94-.94,.57,0,.92,.38,.91,.97Z"/>
  <path class="cls-1" d="M223.28,107.39c0,.55-.41,.98-.94,.97-.53,0-.92-.43-.91-.99,0-.59,.36-.95,.93-.95,.57,0,.92,.38,.92,.97Z"/>
  <path class="cls-5" d="M202.41,107.33c.03,.52-.39,1-.9,1.03-.52,.04-.96-.38-.98-.93-.02-.58,.34-.99,.88-1.01,.54-.03,.98,.36,1,.91Z"/>
  <path class="cls-5" d="M199.32,108.36c-.52,.02-.96-.4-.98-.94-.02-.57,.34-.98,.89-1,.56-.03,.95,.34,.97,.91,.02,.55-.37,1.01-.88,1.03Z"/>
  <path class="cls-12" d="M298.25,96.8c-.02,.57-.42,.96-.96,.94-.53-.02-.9-.43-.9-1,0-.55,.41-.94,.96-.93,.56,.02,.92,.41,.89,.99Z"/>
</svg>