<?xml version="1.0" encoding="utf-8"?>
<!-- Generator: Adobe Illustrator 19.0.0, SVG Export Plug-In . SVG Version: 6.00 Build 0)  -->
<svg version="1.1" id="Layer_1" xmlns="http://www.w3.org/2000/svg" xmlns:xlink="http://www.w3.org/1999/xlink" x="0px" y="0px"
	 viewBox="-279 199 400 164" style="enable-background:new -279 199 400 164;" xml:space="preserve">
<style type="text/css">
	.st0{fill:#FFFFFF;}
</style>
<path class="st0" d="M-204.1,286.3c-0.6,2-1.2,4-2.2,5.9c-0.4,0.8-0.8,1.5-1.4,2.2c-1,1.3-2.2,2-3.8,2.1c-5.2,0.3-10-0.8-14.2-3.9
	c-2.9-2.1-4.7-5-5.7-8.3c-0.8-2.6-1.3-5.3-1.8-8c-0.2-1.2-0.4-2.4-0.5-3.7c-0.1-1.4,0.3-2.6,1.2-3.6c0.8-1,1.8-1.5,3.1-1.5
	c3.6,0,7.3,0,11,0c0.8,0,1.5-0.1,2.3-0.3c1.7-0.5,2.6-1.6,2.8-3.4c0-0.5,0.1-1,0.1-1.5c0-3.7,0-7.4,0-11c0-2.1,1.4-4,3.8-4.5
	c0.8-0.1,1.5-0.1,2.3-0.1c1.2,0,2.3,0.1,3.5,0.4c2.1,0.5,3.4,1.8,4.2,3.7c0.2,0.6,0.5,0.8,1.1,0.9c3.8,0.6,7.7,1.3,11.5,2
	c1.3,0.2,2.5,0.6,3.7,1.1c3.4,1.4,5.4,3.9,6,7.6c0.7,4,1.2,8,1.5,12c0.4,5.8,0.5,11.6,0.2,17.4c-0.2,3.4-0.4,6.8-1.3,10
	c-1,3.8-2.7,7.1-5.7,9.6c-2.6,2.2-5.7,3.4-9.2,3.7c-2.2,0.2-4.4-0.1-6.4-1c-1.3-0.6-2.4-1.3-3.4-2.2c-3.4-3.2-3.3-8.8,0.2-12.1
	c1.6-1.5,3.5-2.3,5.7-2.3c1.7,0,2.9,1.2,2.7,2.8c-0.1,1.1-0.7,1.8-1.7,2.1c-0.4,0.1-0.8,0.2-1.2,0.3c-1.9,0.3-2.9,2.5-1.6,4.3
	c0.8,1.1,1.9,1.7,3.2,1.9c3.7,0.6,7.4-2.3,7.8-6c0.5-4.4-2.8-8.1-6.2-9.1c-1.1-0.3-2.3-0.4-3.4-0.7c-2.2-0.4-4.3-1.3-5.9-2.9
	c-1-0.9-1.6-2-1.9-3.3C-204,286.7-204,286.5-204.1,286.3L-204.1,286.3z M-185.4,279.9c0.4,0,0.7,0,1,0c0.6,0,0.8-0.1,0.8-0.8
	c0-1-0.4-1.7-1.2-2.3c-1.5-1.1-3.1-1.2-4.8-0.5c-0.6,0.3-1.1,0.7-1.3,1.3c-0.6,1.2-0.5,1.4,0.7,1.7
	C-188.6,279.7-186.9,279.8-185.4,279.9z"/>
<path class="st0" d="M-126.3,283.4c-0.2,2.9-0.3,5.7-0.5,8.5c-0.1,1.4-0.2,2.8-0.2,4.2c0,0.4-0.1,0.6-0.6,0.5c-0.1,0-0.3,0-0.4,0
	c-10,0-19.9,0-29.9,0c-1,0-0.9,0.2-1-1c0-0.6,0-0.6,0.6-0.7c0.7-0.1,1.3-0.3,2-0.5c0.8-0.2,1.2-0.7,1.4-1.5c0.1-0.5,0.1-1,0.1-1.5
	c0-9.4,0-18.8,0-28.3c0-0.6-0.1-1.1-0.2-1.7c-0.2-0.8-0.6-1.3-1.4-1.5c-0.7-0.2-1.3-0.3-2-0.4c-0.4-0.1-0.6-0.2-0.5-0.6
	c0-1.3-0.2-1.1,1.1-1.1c9.6,0,19.1,0,28.7,0c1.2,0,0.9-0.1,1,0.9c0.2,3.1,0.3,6.3,0.5,9.4c0,0.1,0,0.2,0,0.3c0,0.4-0.2,0.6-0.6,0.6
	c-0.6,0-0.1,0-0.1,0c-1.3,0-0.9,0.1-1.5-0.9c-0.8-1.8-1.7-3.5-2.8-5.1c-1.1-1.8-2.7-2.7-4.8-2.7c-2.1-0.1-4.2-0.1-6.3,0.3
	c-0.2,0-0.4,0.1-0.6,0.1c-0.3,0-0.4,0.2-0.4,0.4c0,0.2,0,0.3,0,0.5c0,4.3,0,8.5,0,12.8c0,0.2,0,0.3,0,0.5c0,0.3,0.1,0.4,0.4,0.4
	c1.6,0,3.1,0,4.7-0.3c0.9-0.2,1.6-0.6,2-1.5c0.6-1.2,1.2-2.4,1.6-3.6c0.2-0.6,0.1-0.6,0.8-0.6c1.3,0,1.1-0.1,1.1,1.1
	c0,4.2,0,8.4,0,12.6c0,0.2,0,0.4,0,0.6c0,0.3-0.1,0.5-0.4,0.4c0,0-0.1,0-0.1,0c-1.2,0.1-1.2,0.1-1.5-1c-0.4-1.2-0.9-2.4-1.5-3.6
	c-0.4-0.8-0.9-1.2-1.8-1.4c-1.1-0.2-2.1-0.2-3.2-0.3c-0.5,0-1,0-1.5,0c-0.4,0-0.5,0.1-0.5,0.5c0,0,0,0.1,0,0.2c0,3.9,0,7.7,0,11.6
	c0,0.7,0,1.4,0.2,2c0.2,1,0.8,1.7,1.8,1.9c0.6,0.1,1.3,0.2,1.9,0.2c1.5,0.1,3,0.1,4.5-0.1c1.5-0.2,2.7-0.8,3.6-2
	c1.3-1.7,2.2-3.5,3-5.4c0.4-0.9,0.8-1.9,1.2-2.8c0.1-0.3,0.3-0.4,0.6-0.4C-127.3,283.4-126.8,283.3-126.3,283.4L-126.3,283.4z"/>
<path class="st0" d="M-26.9,270.7c0.4-0.1,0.6-0.3,0.9-0.5c2.3-1.5,4.8-2.8,7.5-3.3c1.5-0.3,3-0.3,4.4-0.1c2.9,0.5,4.7,2.5,5.1,5.4
	c0.1,0.9,0.2,1.7,0.2,2.6c0,5.6,0,11.3,0,16.9c0,0.5,0,0.9,0.1,1.4c0.1,0.6,0.5,1,1.1,1.2c0.6,0.2,1.2,0.4,1.8,0.5
	c0.4,0.1,0.6,0.3,0.5,0.7c0,1.2,0.1,1-1,1c-4.5,0-9.1,0-13.6,0c-0.2,0-0.4,0-0.6,0c-0.1,0-0.2,0-0.2-0.1c-0.2-0.4-0.1-0.8-0.1-1.3
	c0-0.3,0.2-0.3,0.4-0.3c0.5-0.1,1-0.3,1.6-0.4c0.8-0.2,1.2-0.7,1.2-1.5c0-0.6,0.1-1.2,0.1-1.8c0-4.8,0-9.6,0-14.4
	c0-0.8,0-1.6-0.2-2.4c-0.3-1.3-1.2-2.1-2.5-2.3c-1.5-0.2-3,0-4.4,0.3c-0.4,0-0.7,0.1-1,0.2c-0.5,0.1-0.8,0.4-0.8,1
	c0,6.2,0,12.4,0,18.7c0,2,0.2,2.2,2.1,2.7c0.2,0.1,0.4,0.1,0.6,0.1c0.4,0.1,0.5,0.3,0.5,0.7c0,1.2,0.1,1-1,1c-4.6,0-9.2,0-13.8,0
	c-0.9,0-0.8,0.1-0.8-0.8c0-0.1,0-0.3,0-0.4c0-0.3,0.1-0.4,0.4-0.5c0.6-0.1,1.1-0.3,1.6-0.5c0.9-0.3,1.3-0.9,1.4-1.8
	c0-0.4,0-0.8,0-1.1c0-5.9,0-11.7,0-17.5c0-1.6-0.5-2.8-1.9-3.6c-0.5-0.3-0.9-0.6-1.4-0.9c-0.4-0.2-0.6-0.9-0.4-1.3
	c0.1-0.2,0.3-0.2,0.4-0.2c1-0.1,2-0.2,3.1-0.3c2.6-0.3,5.2-0.6,7.7-0.9c0.9-0.1,1.1,0.1,1.1,1C-27,268.7-27,269.7-26.9,270.7
	L-26.9,270.7z"/>
<path class="st0" d="M11,266.8c2.2,0,4.3,0.4,6.3,1.2c4,1.6,6.7,4.4,7.9,8.5c1.1,3.8,1.1,7.6-0.2,11.4c-1.4,4.1-4.2,6.8-8.2,8.3
	c-4.3,1.5-8.6,1.5-12.8-0.3c-3.6-1.5-6-4.1-7.3-7.7c-1.4-4.1-1.4-8.2,0-12.3c1.7-4.8,5.3-7.6,10.3-8.8C8.3,266.9,9.6,266.8,11,266.8
	L11,266.8z M5,281.9c0,1.4,0.1,3,0.2,4.6c0,0.8,0.2,1.6,0.3,2.4c0.2,1.3,0.5,2.6,1.1,3.9c0.4,0.8,1,1.4,1.7,1.8
	c2.7,1.5,5.9,0.3,7-2.5c0.5-1.4,0.8-2.8,1-4.3c0.4-4.1,0.4-8.2-0.1-12.3c-0.2-1.3-0.5-2.6-1-3.7c-0.7-1.4-1.7-2.4-3.3-2.7
	c-0.4-0.1-0.8-0.1-1.2-0.1c-2-0.1-3.4,0.9-4.2,2.7c-0.5,1-0.7,2-0.9,3.1C5.1,277.1,5,279.4,5,281.9z"/>
<path class="st0" d="M75,290.5c0,0.5,0,1,0,1.5c0,0.3-0.2,0.5-0.4,0.7c-2.1,2-4.5,3.4-7.3,4.1c-3.9,1-7.8,0.7-11.5-1
	c-3.2-1.5-5.3-4.1-6.3-7.5c-1.1-3.5-1.3-7.1-0.4-10.7c1.3-5.6,5.8-9.7,11.5-10.7c2.3-0.4,4.6-0.3,6.9,0.3c3.8,0.9,6.2,3.4,7.4,7
	c0.7,2,0.9,4,1,6.1c0,0.4-0.1,0.5-0.5,0.4c-0.2,0-0.4,0-0.6,0c-5.5,0-10.9,0-16.4,0c-0.2,0-0.4,0-0.6,0c-0.2,0-0.4,0.1-0.3,0.3
	c0.1,2.5,0.3,5.1,1.5,7.4c1.2,2.4,3.3,3.5,5.9,3.8c3.3,0.4,6.5-0.2,9.5-1.7C74.5,290.7,74.6,290.5,75,290.5L75,290.5z M57.4,278.7
	c2-0.1,3.9-0.2,5.9-0.3c1-0.1,2.1-0.1,3.2-0.2c0.4,0,0.5-0.2,0.5-0.5c-0.1-1.3-0.1-2.6-0.2-3.9c-0.1-1-0.3-1.9-0.7-2.8
	c-0.4-0.8-0.9-1.5-1.7-1.7c-1.6-0.5-3.1-0.4-4.4,0.8c-0.6,0.6-1,1.3-1.4,2.1c-0.6,1.3-0.9,2.7-1,4.2
	C57.4,277.1,57.3,277.8,57.4,278.7L57.4,278.7z"/>
<path class="st0" d="M-69.4,290.5c0,0.1,0,0.1,0,0.1c0.1,1.7,0.1,1.8-1.3,2.9c-3.9,3.2-8.4,4.4-13.4,3.6c-1.7-0.3-3.3-0.7-4.8-1.5
	c-2.7-1.4-4.6-3.6-5.7-6.5c-1.4-3.9-1.7-8-0.5-12c1.7-5.7,5.6-9,11.4-10.1c2.2-0.4,4.4-0.3,6.5,0.2c4,0.9,6.5,3.4,7.8,7.2
	c0.6,1.8,0.8,3.7,0.9,5.7c0,0.7,0,0.8-0.7,0.8c-5.6,0-11.1,0-16.7,0c-1.2,0-1.1-0.2-1,1c0.1,1.9,0.3,3.7,1,5.5
	c1.1,3.1,3.3,4.7,6.5,5c3.3,0.4,6.4-0.2,9.3-1.6C-69.9,290.7-69.7,290.5-69.4,290.5L-69.4,290.5z M-77.4,278.1c0.1-1.5,0-3-0.2-4.5
	c-0.1-1-0.3-1.9-0.7-2.8c-0.3-0.7-0.8-1.3-1.5-1.6c-1.4-0.6-3.3-0.3-4.4,0.8c-0.7,0.6-1.1,1.4-1.5,2.2c-0.8,1.9-1,3.9-1.1,5.9
	c0,0.6,0,0.6,0.6,0.5c2.7-0.1,5.4-0.3,8-0.4C-78,278.2-77.7,278.2-77.4,278.1z"/>
<path class="st0" d="M-53.8,271.1c0.7-0.7,1.4-1.3,2.1-1.9c1.4-1.1,3-2,4.8-2.4c1-0.2,1.9-0.3,2.9,0c1.9,0.6,3.1,2.3,3.1,4.3
	c-0.1,2-1.4,3.7-3.4,4.1c-1.9,0.4-3.9-0.5-4.8-2.2c-0.5-0.9-1.2-1.3-2.2-1c-0.8,0.2-1.5,0.6-2.1,1.1c-0.2,0.2-0.3,0.3-0.3,0.6
	c0,0.1,0,0.3,0,0.4c0,5.9,0,11.7,0,17.5c0,0.6,0,1.1,0.1,1.7c0.1,0.6,0.4,1,1.1,1.2c0.7,0.1,1.4,0.3,2.1,0.4
	c0.4,0.1,0.6,0.2,0.6,0.6c-0.1,1.3,0.2,1-1,1c-4.7,0-9.5,0-14.2,0c-0.2,0-0.4,0-0.6,0c-0.1,0-0.2,0-0.2-0.1
	c-0.2-0.4-0.1-0.8-0.1-1.2c0-0.2,0.1-0.3,0.3-0.4c0.6-0.2,1.2-0.3,1.8-0.5c0.9-0.2,1.3-0.8,1.4-1.7c0-0.4,0.1-0.9,0.1-1.3
	c0-5.8,0-11.6,0-17.5c0-0.1,0-0.3,0-0.4c0-1.3-0.4-2.4-1.6-3c-0.6-0.3-1.2-0.8-1.8-1.2c-0.3-0.2-0.5-1-0.3-1.3
	c0.1-0.1,0.2-0.1,0.4-0.1c2.4-0.3,4.9-0.6,7.3-0.8c1.1-0.1,2.3-0.3,3.4-0.4c1-0.1,1.3,0.1,1.2,1c0,0.9-0.1,1.7-0.1,2.6
	C-53.9,270.7-54,270.9-53.8,271.1z"/>
<path class="st0" d="M-125.9,267.6c0.3,0,0.5,0,0.7,0c5.1,0,10.2,0,15.3,0c0.9,0,0.8-0.1,0.8,0.8c0,0.7,0,0.7-0.6,0.9
	c-0.4,0.1-0.8,0.2-1.2,0.4c-0.9,0.3-1.3,1-1.4,1.9c0,0.8,0.2,1.6,0.4,2.3c0.7,2,1.4,4,2.2,6c0.9,2.4,1.7,4.8,2.6,7.2
	c0.1,0.2,0.1,0.5,0.4,0.7c0.2-0.1,0.3-0.3,0.3-0.4c1.6-4.4,3.1-8.9,4.7-13.3c0.2-0.7,0.4-1.4,0.4-2.1c0.1-1.2-0.4-1.9-1.6-2.3
	c-0.4-0.1-0.8-0.2-1.2-0.3c-0.4-0.1-0.6-0.3-0.5-0.7c0-0.1,0-0.3,0-0.4c-0.1-0.4,0.1-0.5,0.6-0.5c3.1,0,6.2,0,9.3,0
	c0.5,0,0.6-0.1,0.6,0.6c0,0.1,0,0.2,0,0.2c0,0.6,0,0.7-0.6,0.8c-1.4,0.4-2.2,1.2-2.8,2.5c-0.8,1.7-1.4,3.5-2.1,5.3
	c-2.5,6.3-4.9,12.7-7.4,19c-0.3,0.7-0.1,0.6-0.9,0.6c-1.2,0-2.3,0-3.5,0c-0.5,0-0.7-0.2-0.9-0.6c-2.2-5.5-4.4-11-6.7-16.5
	c-1-2.4-1.9-4.8-2.9-7.1c-0.2-0.4-0.4-0.8-0.6-1.2c-0.5-1-1.3-1.6-2.4-1.9c-0.8-0.2-0.8-0.3-0.8-1.2
	C-125.9,268-125.9,267.8-125.9,267.6L-125.9,267.6z"/>
<path class="st0" d="M47.2,267.6c-0.2,1-0.5,2-0.6,2.9c-0.1,0.4-0.3,0.4-0.6,0.4c-1.6,0-3.3,0-5,0c-0.2,0-0.3,0-0.5,0
	c-0.7,0-0.7,0-0.7,0.7c0,5.9,0,11.7,0,17.5c0,0.6,0,1.2,0.2,1.8c0.3,1,0.9,1.7,1.9,1.9c1,0.3,2,0.2,3.1,0.1c0.8-0.1,1.6-0.2,2.4-0.4
	c0.1,0.4,0,0.9,0,1.3c0,0.3-0.2,0.5-0.4,0.6c-1.7,1.5-3.7,2.3-6,2.7c-1.8,0.3-3.7,0.3-5.5-0.2c-2.6-0.7-4.1-2.5-4.5-5.2
	c-0.1-0.8-0.2-1.6-0.2-2.3c0-5.8,0-11.5,0-17.3c0-0.9-0.4-1.3-1.3-1.3c-0.6,0-1.2,0-1.8,0c-0.3,0-0.4-0.1-0.4-0.4
	c0-0.9,0-0.9,0.8-1.2c3.9-1.8,6.8-4.6,8.3-8.6c0.1-0.4,0.4-0.5,0.7-0.5c0.7,0,1.4,0,2.1,0c0.4,0,0.5,0.1,0.5,0.6c0,1.8,0,3.6,0,5.4
	c0,0.3,0,0.6,0,1c0,0.4,0.1,0.5,0.5,0.5c2,0,4,0,5.9,0C46.5,267.6,46.8,267.6,47.2,267.6L47.2,267.6z"/>
<path class="st0" d="M-231.5,265.8c5.4-5.5,10.8-11.1,16.4-16.7c-0.1,0.7-0.3,1.2-0.3,1.7c-0.2,2.6-0.1,5.2-0.1,7.8
	c0,1.2,0,2.4,0,3.6c0,0.1,0,0.3,0,0.4c-0.1,1.9-1,2.8-2.9,2.8c-3.2,0-6.4,0-9.7,0C-229.2,265.5-230.4,265.5-231.5,265.8
	L-231.5,265.8z"/>
</svg>
