<?xml version="1.0" encoding="UTF-8"?>
<svg id="Layer_1" data-name="Layer 1" xmlns="http://www.w3.org/2000/svg" viewBox="0 0 400 164">
  <defs>
    <style>
      .cls-1 {
        fill: #5ac47b;
      }

      .cls-2 {
        fill: #5ac47a;
      }
    </style>
  </defs>
  <path class="cls-2" d="M310.4,58.98c-1.12-3.63-3.12-6.69-6.22-9-4.78-3.56-12.06-3.64-16.55,.61-.62,.59-1.14,1.28-1.76,1.97-.17-.44-.1-.8-.1-1.15,0-5.79,0-11.58,0-17.37,0-.23-.01-.47,0-.7,.02-.42-.16-.62-.59-.6-.37,.02-.74,0-1.11,0h-15.36c-.88,0-.88,.01-.9,.88v53.12c0,.2,.02,.41,0,.6-.06,.5,.17,.62,.64,.62,5.05-.01,10.11-.01,15.17,0,.48,0,.7-.13,.84-.62,.37-1.24,.81-2.45,1.25-3.74,.53,.64,.98,1.26,1.5,1.81,3.52,3.7,9.58,4.75,14.48,2.47,4.04-1.87,6.67-5.09,8.24-9.15,2.5-6.51,2.5-13.13,.47-19.75Zm-17.8,12.35c-.61,1.5-1.74,2.42-3.46,2.45-1.78,.03-2.88-.91-3.58-2.43-.45-.99-.59-2.05-.55-3.09-.06-1.23,.14-2.38,.68-3.44,.7-1.4,1.82-2.21,3.43-2.19,1.57,.01,2.69,.78,3.32,2.18,.98,2.13,1.04,4.35,.16,6.52Z"/>
  <path class="cls-1" d="M180.22,87.97h-1.04c-5.93,0-11.85-.01-17.78,.02-.71,0-1.05-.21-1.35-.86-2.1-4.51-4.25-9-6.39-13.49-.15-.32-.31-.65-.63-.97,0,.27,0,.55,0,.82,0,4.52,0,9.04,0,13.56,0,.91,0,.92-.92,.92-5.36,0-10.72,0-16.07,0-.89,0-.9,0-.9-.94,0-17.78,0-35.56,0-53.34,0-.93,0-.94,.91-.94,5.36,0,10.72,0,16.07,0,.9,0,.9,0,.9,.95,0,9.38,0,18.75,0,28.13,0,.36,0,.73,0,1.25,.36-.42,.46-.8,.61-1.15,1.81-4.24,3.61-8.48,5.4-12.73,.21-.51,.44-.79,1.08-.79,6.06,.03,12.12,.02,18.18,.02,.1,0,.2,.02,.3,.04,.03,.41-.23,.69-.4,1.01-3.11,5.8-6.22,11.61-9.37,17.39-.38,.7-.4,1.19,.01,1.88,3.66,6.11,7.27,12.25,10.9,18.38,.13,.23,.26,.46,.49,.86Z"/>
  <path d="M219.23,130.37c0-.4,0-.7,0-1,0-9.78,0-19.55,0-29.33q0-1.01,1-1.02c3.92,0,7.83,.01,11.75-.01,.63,0,.96,.15,1.12,.8,.22,.87,.55,1.7,.88,2.69,2.27-3.1,5.24-4.52,8.94-4.28,3.74,.24,6.22,2.48,8.21,5.48,1.24-1.53,2.53-2.95,4.22-3.95,3.31-1.97,6.69-2.2,10.08-.29,2.36,1.33,3.66,3.54,4.55,6.02,1.01,2.81,1.23,5.74,1.24,8.7,.02,5.12,0,10.24,0,15.37,0,.82,0,.82-.89,.82-4.12,0-8.24,0-12.35,0-1.03,0-.92,.13-.92-.89,0-5.06,0-10.11,0-15.17,0-.84-.06-1.68-.4-2.46-.38-.87-.94-1.58-2-1.56-1.04,.02-1.62,.7-1.99,1.58-.3,.72-.36,1.49-.36,2.26,0,5.12,0,10.24,0,15.37,0,.99,.06,.86-.85,.86-4.15,0-8.3,0-12.45,0-.91,0-.85,.13-.85-.86,0-4.99,0-9.98,0-14.96,0-.64-.05-1.27-.16-1.9-.12-.64-.37-1.21-.82-1.69-.83-.9-1.97-.91-2.81-.02-.81,.86-.98,1.94-.98,3.07,0,5.02,0,10.04,0,15.06q0,1.31-1.31,1.31c-3.92,0-7.83,0-11.75,0h-1.12Z"/>
  <path class="cls-2" d="M261.13,86.98v-17.68c0-1.2-.03-2.4-.18-3.6-.82-6.32-3.91-11.24-9.21-14.72-4.77-3.13-10.08-4.14-15.72-3.42-4.48,.57-8.5,2.21-11.97,5.16-.48,.41-.57,.65-.21,1.21,1.88,2.92,3.72,5.88,5.57,8.82,.12,.19,.2,.43,.51,.5,1.1-.95,2.32-1.78,3.72-2.28,2.56-.9,5.07-.76,7.43,.62,1.07,.63,1.76,1.58,2.12,2.87-.45,0-.82,0-1.18,0-2.84,.06-5.68-.13-8.52,.18-2.03,.23-4.05,.52-5.97,1.22-2.72,1-5.12,2.47-6.65,5.05-1.41,2.37-1.74,4.93-1.38,7.63,.44,3.28,1.93,5.94,4.57,7.94,1.83,1.4,3.96,2.05,6.19,2.4,3.56,.55,6.85-.06,9.7-2.43,.98-.81,1.75-1.82,2.58-2.9,.41,1.23,.82,2.35,1.14,3.5,.19,.7,.52,.92,1.26,.92,5.09-.03,10.17-.02,15.26-.02,1.04,0,.94,.08,.94-.99Zm-17.91-15.03c-.11,1.12-.35,2.39-1.02,3.54-.21,.35-.46,.66-.76,.93-.98,.85-2.21,.97-3.12,.31-1.04-.75-1.34-1.95-.77-3.2,.61-1.32,1.75-1.98,3.07-2.37,.54-.16,1.11-.21,1.68-.25,.96-.08,.96-.06,.93,1.06Z"/>
  <path class="cls-2" d="M129.9,67.9c-.13-3.24-.84-6.34-2.33-9.25-5.13-9.99-17.27-14.11-27.48-9.32-8.13,3.8-13.18,12.59-11.71,22.04,1.01,6.51,4.49,11.46,10.19,14.73,4.87,2.81,10.17,3.54,15.7,2.62,4.07-.68,7.71-2.32,10.9-4.96,.52-.43,.59-.72,.21-1.31-1.85-2.87-3.65-5.76-5.45-8.66-.41-.64-.36-.8-1.15-.17-2.78,2.23-5.87,3.12-9.36,1.86-1.66-.6-2.81-1.72-3.36-3.44,.41-.21,.78-.11,1.14-.11,4.75,0,9.51,0,14.26,0,2.58,0,5.15-.01,7.73,.01,.56,0,.76-.15,.74-.72-.05-1.1,.01-2.21-.03-3.32Zm-18-3.03c-.96,0-1.93,0-2.9,0s-1.87-.02-2.8,0c-.45,.01-.6-.17-.55-.59,.1-.83,.27-1.64,.72-2.37,1.2-1.97,4-2.01,5.24-.07,.51,.78,.62,1.68,.75,2.57,.05,.39-.15,.45-.47,.45Z"/>
  <path class="cls-2" d="M185.8,73.09c2.66,2.25,5.59,3.57,9.01,3.68,.55,.02,1.07-.01,1.54-.34,.85-.6,.86-1.37-.04-1.89-.92-.54-1.91-.96-2.91-1.34-2.07-.79-4.02-1.79-5.85-3.04-6.33-4.3-6.56-13.07-1.82-17.9,1.94-1.98,4.33-3.23,7-3.94,8.23-2.19,15.75-.71,22.54,4.43,1.18,.89,1.17,.91,.37,2.16-1.44,2.29-2.88,4.58-4.33,6.88-.5,.8-.49,.78-1.2,.24-1.71-1.3-3.59-2.18-5.76-2.36-.64-.05-1.27-.04-1.83,.35-.83,.57-.87,1.27-.06,1.84,1.02,.72,2.2,1.12,3.35,1.57,1.94,.76,3.78,1.69,5.48,2.89,3.46,2.45,5.16,5.81,5.08,10.02-.09,4.64-2.44,7.94-6.36,10.22-2.5,1.45-5.26,2.11-8.11,2.38-5.51,.52-10.8-.27-15.79-2.77-1.95-.98-3.78-2.14-5.36-3.67-.3-.29-.54-.52-.22-1.01,1.76-2.76,3.49-5.54,5.28-8.4Z"/>
  <path d="M214.33,112.7c-.58-4.52-2.65-8.2-6.31-10.85-5.52-4-11.64-4.61-18.03-2.65-7.57,2.32-12.26,9.44-11.49,16.9,.47,4.55,2.4,8.3,5.96,11.17,3.41,2.75,7.39,3.91,12.1,3.97,1.2-.01,2.77-.15,4.31-.49,4.51-1,8.26-3.2,10.87-7.09,2.22-3.32,3.09-6.97,2.59-10.96Zm-18.17,6.42c-1.71-.12-3.06-1.48-3.45-3.49-.46-2.35,.71-4.58,2.71-5.17,1.62-.48,3.26,.14,4.15,1.58,.53,.85,.72,1.79,.71,2.51,0,2.81-1.84,4.72-4.12,4.56Z"/>
  <path d="M170.17,112.62c-.97-.83-1.94-1.48-3.03-1.9-1.49-.58-3.01-.64-4.5-.03-1.88,.76-2.79,2.61-2.45,4.77,.34,2.1,1.8,3.45,3.92,3.65,1.98,.19,3.66-.56,5.23-1.66,.27-.19,.47-.48,.8-.58,.23,.11,.31,.34,.43,.53,1.68,2.69,3.36,5.38,5.04,8.08,.53,.86,.65,.66-.25,1.41-2.46,2.06-5.32,3.35-8.44,3.95-4.98,.96-9.72,.3-14.07-2.44-9.78-6.16-10.06-20.5-.53-27.04,4.9-3.36,10.27-3.9,15.91-2.45,2.58,.66,4.94,1.84,7.01,3.53,.87,.71,.86,.73,.26,1.68-1.76,2.8-3.52,5.6-5.34,8.5Z"/>
  <path d="M135.04,130.37c-1.84,0-3.68-.02-5.52,0-.52,0-.77-.07-.76-.69,.03-3.48,.03-6.96,0-10.44,0-.6,.21-.72,.76-.71,3.65,.02,7.29,.02,10.94,0,.55,0,.75,.12,.74,.71-.03,3.48-.03,6.96,0,10.44,0,.6-.21,.7-.74,.69-1.81-.03-3.61-.01-5.42-.01Z"/>
</svg>