<?xml version="1.0" encoding="utf-8"?>
<!-- Generator: Adobe Illustrator 19.0.0, SVG Export Plug-In . SVG Version: 6.00 Build 0)  -->
<svg version="1.1" id="Layer_1" xmlns="http://www.w3.org/2000/svg" xmlns:xlink="http://www.w3.org/1999/xlink" x="0px" y="0px"
	 viewBox="-279 199 400 164" style="enable-background:new -279 199 400 164;" xml:space="preserve">
<style type="text/css">
	.st0{fill:#FFFFFF;}
</style>
<path class="st0" d="M-124.3,281.9c-1.9,1.4-3.8,2.8-5.6,4.2c-1.9,1.4-3.7,2.8-5.6,4.2c-0.5,0.4-1,0.6-1.6,0.6c-6,0-12.1,0-18.1,0
	c-0.1,0-0.2-0.1-0.3-0.1c0-0.1,0-0.1,0-0.2c0-0.1,0-0.1,0.1-0.2c0.2-0.1,0.3-0.3,0.5-0.4c8.1-6,16.2-12,24.3-18
	c0.1,0,0.1-0.1,0.1-0.1c0-0.1,0.1-0.1,0.1-0.2c0.1-0.7-0.3-1.3-0.4-2c-2.1-9.3-0.9-17.9,4.9-25.7c2.1-2.7,4.6-4.9,7.5-6.6
	c4.1-2.4,8.5-3.9,13.2-4.6c3.3-0.5,6.7-0.7,10-0.7c11.3,0,22.5,0,33.8,0c0.6,0,1.1,0,1.8,0c0,0.6-0.5,0.8-0.9,1
	c-5.8,4.4-11.5,8.8-17.3,13.2c-13.1,10-26.2,20-39.3,29.9c-1.4,1.1-2.9,2.2-4.2,3.2c-0.1,0.6,0.3,0.9,0.6,1.1
	c1.7,1.6,3.7,2.6,5.8,3.4c4.3,1.4,8.7,1.9,13.2,1.5c7.5-0.6,13.9-3.6,19.9-7.9c3.2-2.3,6.1-4.9,9.2-7.5c2.9-2.4,5.8-4.9,8.6-7.3
	c0.4-0.4,0.9-0.8,1.4-1.3c-1.7-1.5-3.5-2.7-5.2-4c-1.8-1.4-3.6-2.7-5.4-4c-1.8-1.3-3.5-2.6-5.2-3.9c0.2-0.5,0.5-0.4,0.8-0.4
	c5.2,0,10.4,0,15.7,0c0.8,0,1.4,0.2,2.1,0.6c2.2,1.5,4.4,2.9,6.7,4.5c0.5-0.4,1.1-0.7,1.6-1.1c8.8-6.7,17.5-13.4,26.2-20.1
	c0.9-0.7,1.7-1,2.9-1c5.2,0.1,10.3,0,15.5,0c0.5,0,0.9,0,1.5,0c-0.1,0.8-0.7,1-1.1,1.3c-5.4,4.1-10.7,8.1-16.1,12.2
	c-6.3,4.8-12.6,9.5-18.9,14.3c-0.6,0.4-1.1,0.9-1.7,1.4c0.4,0.6,1,1,1.6,1.4c4.2,3,8.5,5.9,12.7,8.8c8.9,6.2,17.7,12.3,26.5,18.5
	c0.3,0.2,0.6,0.4,0.8,0.7c-0.1,0.5-0.6,0.3-0.9,0.3c-6.3,0-12.5,0-18.8,0c-0.9,0-1.5-0.3-2.2-0.8c-6.3-4.7-12.7-9.4-19.1-14
	c-3.2-2.3-6.4-4.7-9.5-7c-0.3-0.2-0.7-0.4-1.1-0.7c-2.4,1.9-4.8,3.8-7.2,5.7c-4.2,3.3-8.3,6.7-12.9,9.4c-5.8,3.5-12,6.4-18.7,7.8
	c-7.7,1.7-15.2,1.2-22.4-2.2C-118.1,287.4-121.4,285.2-124.3,281.9L-124.3,281.9z M-89.9,242.8c-5.1-0.1-10.1-0.5-15.2,0
	c-3.5,0.3-6.9,0.9-10.1,2.2c-5.2,2-9.3,5.2-11.5,10.4c-1.9,4.6-1.9,9.2-0.8,13.9c0.6,0,0.9-0.4,1.3-0.6c7.9-5.7,15.7-11.5,23.6-17.1
	c3.1-2.3,6.2-4.7,9.4-6.8C-92.1,244.1-91,243.4-89.9,242.8L-89.9,242.8z"/>
<path class="st0" d="M-96.5,334.7h-7.8c0,0-0.1-0.1-0.1-0.1c0,0-0.1-0.1-0.1-0.1c0-8.6,0-17.3,0-25.9c0-0.2,0.1-0.3,0.1-0.5h7.9v3.8
	c0.6,0.1,0.7-0.3,0.9-0.5c0.5-0.4,0.9-0.9,1.4-1.3c2.9-2.5,6.3-3,9.9-2.1c2.1,0.6,3.6,1.9,4.5,3.8c0.7,1.4,1.1,2.9,1.2,4.5
	c0.1,1.1,0.2,2.3,0.2,3.5c0,4.5,0,9,0,13.6c0,0.5,0,0.9,0,1.4c-1.3,0.3-5.8,0.4-7.6,0.1c-0.3-0.5-0.1-1.1-0.1-1.7
	c0-4.4,0-8.8,0-13.2c0-1-0.1-2-0.5-2.9c-0.7-1.7-1.9-2.5-3.6-2.4c-2.3,0.1-4.2,1.1-5.8,2.8c-0.5,0.5-0.5,1.1-0.5,1.8
	c0,4.6,0,9.2,0,13.7L-96.5,334.7L-96.5,334.7z"/>
<path class="st0" d="M-42.9,322.7h-19.5c-0.3,2.9,1.1,5.3,3.6,6.4c3.1,1.3,6.2,0.4,9.2-2.9c2,0.5,4.1,1,6.2,1.6
	c-1,2.6-2.6,4.5-4.9,5.9c-3.6,2.3-11.2,2.7-15.5,0c-4.1-2.6-6.3-6.3-6.6-11c-0.2-2.9,0.3-5.7,1.7-8.2c2.3-4.1,5.8-6.4,10.4-6.9
	c1.9-0.2,3.8-0.1,5.7,0.3c4.3,1,7.2,3.6,8.7,7.7C-43,317.8-42.8,320.2-42.9,322.7L-42.9,322.7z M-50,317.9c-0.3-3-2.9-5.2-6.1-5.3
	c-2.9-0.1-6.2,2.6-6,5.3H-50z"/>
<path class="st0" d="M-145.1,322.7h-19.5c-0.6,2.8,1.5,5.6,3.5,6.4c3.1,1.3,6.4,0.4,9.2-2.9c2,0.5,4.1,1,6.3,1.5
	c-1.2,3.1-3.2,5.3-6.1,6.5c-3.9,1.6-8,1.8-12.1,0.4c-5.3-1.9-8.6-6.8-8.7-12.4c-0.1-3.4,0.6-6.4,2.5-9.2c2.3-3.3,5.5-5.1,9.5-5.5
	c1.8-0.2,3.6-0.1,5.4,0.2c5.4,1.1,9,4.9,9.9,10.4C-145.1,319.5-144.8,321-145.1,322.7L-145.1,322.7z M-152.2,317.9
	c-0.4-3.2-3.1-5.4-6.5-5.2c-3,0.1-5.6,2.5-5.6,5.2H-152.2z"/>
<path class="st0" d="M-131,321.2c-3.3-4.4-6.5-8.7-9.9-13.2c1.2,0,2.2,0,3.1,0c0.9,0,1.9,0,2.8,0c1,0,2,0,3,0
	c1.8,2.6,3.6,5.1,5.5,7.8c2-2.6,3.7-5.2,5.6-7.7h8.7c-1.7,2.3-3.4,4.5-5,6.6c-1.6,2.1-3.2,4.2-4.9,6.4c3.4,4.5,6.8,9,10.2,13.5
	c-1.4,0.3-6.4,0.4-8.9,0.1c-1.9-2.7-3.8-5.4-5.9-8.2c-2,2.8-3.9,5.5-5.9,8.3h-8.4c0-0.1,0-0.2,0-0.2c0-0.1,0-0.1,0-0.2
	C-137.7,330-134.4,325.7-131,321.2L-131,321.2z"/>
<path class="st0" d="M-35.8,331.8c0.5-1.9,1.3-3.7,2-5.7c0.5,0.3,0.9,0.5,1.3,0.7c2.4,1.4,5,2.2,7.7,2.6c1,0.1,2.1,0.2,3.1-0.3
	c0.7-0.3,1.1-0.8,1.2-1.6c0-0.7-0.3-1.2-0.8-1.6c-0.7-0.5-1.6-0.8-2.4-1c-1.3-0.4-2.7-0.8-4-1.2c-0.9-0.3-1.9-0.7-2.7-1.2
	c-4.8-2.6-5.5-8.9-1.5-12.6c1.4-1.3,3-2,4.8-2.3c4.1-0.8,8.1-0.1,11.7,2c0.1,0.1,0.3,0.2,0.4,0.3c0,0,0.1,0.1,0.2,0.3
	c-0.5,1.7-1,3.5-1.5,5.3c-0.6,0.1-0.9-0.2-1.3-0.4c-2-1-4.2-1.6-6.5-1.9c-0.8-0.1-1.5,0-2.2,0.3c-1.3,0.5-1.5,2-0.4,2.9
	c0.7,0.5,1.5,0.8,2.3,1.1c1.3,0.5,2.6,0.9,3.9,1.4c1.1,0.4,2.1,0.9,3.2,1.4c5.8,3.2,4.2,10.9,0.3,13.2c-1.5,0.9-3,1.4-4.7,1.6
	c-4.8,0.6-9.4-0.2-13.5-2.9c-0.1-0.1-0.3-0.2-0.4-0.3C-35.6,332-35.7,332-35.8,331.8L-35.8,331.8z"/>
<path class="st0" d="M13.1,310.2c-0.5,1.8-1,3.6-1.5,5.3c-0.5,0.1-0.9-0.2-1.2-0.4c-2-1-4.2-1.6-6.5-1.9c-0.8-0.1-1.5,0-2.2,0.3
	c-1.4,0.6-1.6,2.1-0.3,3c0.7,0.5,1.4,0.8,2.2,1c1.4,0.5,2.7,1,4.1,1.4c1.1,0.4,2.1,0.9,3.1,1.4c5.7,3.2,4.1,11,0,13.3
	c-1.5,0.8-3,1.3-4.6,1.5c-4.8,0.5-9.2-0.2-13.3-2.8c-0.2-0.2-0.5-0.3-0.7-0.8c0.6-1.7,1.3-3.5,1.9-5.3c0.6-0.2,0.9,0.1,1.2,0.3
	c2.4,1.4,5,2.3,7.8,2.7c1,0.1,2.1,0.2,3.1-0.2c0.7-0.3,1.2-0.8,1.3-1.5c0.1-0.8-0.3-1.3-1-1.7c-0.7-0.4-1.5-0.7-2.2-0.9
	c-1.4-0.4-2.9-0.9-4.3-1.3c-1-0.3-1.8-0.7-2.7-1.2c-5.3-2.8-4.5-10-1-12.7c1.3-1,2.8-1.8,4.4-2.1c4.3-0.8,8.4-0.2,12.2,2.2
	C12.8,309.9,12.9,310,13.1,310.2L13.1,310.2z"/>
</svg>
