<?xml version="1.0" encoding="UTF-8"?>
<svg id="Layer_1" data-name="Layer 1" xmlns="http://www.w3.org/2000/svg" viewBox="0 0 400 164">
  <defs>
    <style>
      .cls-1 {
        fill: #fed403;
      }

      .cls-2 {
        fill: #fdd403;
      }

      .cls-3 {
        fill: #006c97;
      }

      .cls-4 {
        fill: #fefefe;
      }
    </style>
  </defs>
  <path class="cls-1" d="M200.13,117.58c-33.37,0-66.73,0-100.1,0-5.95,0-9.72-3.76-9.72-9.72-.01-16.26,.06-32.52-.07-48.79-.04-5.29,3.89-10.17,10.13-10.1,12.38,.13,24.77,.09,37.15,.1,19.22,0,38.43-.02,57.65-.02,33.5,0,67.01,0,100.51,0,2.25,0,4.5-.22,6.75,.17,3.9,.68,7.37,4.75,7.35,8.67-.09,16.94-.04,33.88-.04,50.82,0,4.85-3.69,8.67-8.55,8.86-.41,.02-.81,0-1.22,0-33.28,0-66.55,0-99.83,0Z"/>
  <path class="cls-4" d="M108.25,97.8c-4.56-7.3-5.44-15.13-2.79-23.21,2.59-7.92,7.95-13.64,15.68-16.7,8.85-3.5,17.5-2.76,25.56,2.59,.78,1.04,.66,2.21,.47,3.38-.53,3.17-2.01,5.97-3.6,8.7-.72,1.24-1.5,2.46-2.37,3.62-.34,.46-.77,.98-.36,1.59,.37,.55,.96,.36,1.49,.28,1.2-.18,2.42-.18,3.63-.33,1.35-.17,1.81,.36,1.67,1.72-.08,.76-.06,1.53-.11,2.3-.03,.4-.1,.88,.35,1.08,.51,.22,.86-.18,1.13-.53,1-1.28,1.79-2.7,2.64-4.08,1.46-2.37,2.38-4.95,3.02-7.64,.08-.36,0-.85,.55-.96,3.3,5.1,4.26,10.74,3.59,16.67-.85,7.55-4.22,13.84-10.18,18.54-6.2,4.88-13.32,6.78-21.19,5.64-3.66-.53-7.07-1.72-10.19-3.74,.15-.55,.65-.6,1.07-.69,6.94-1.5,12.54-5.42,17.88-9.82,1.64-1.35,1.87-1.33,3.31,.2,.53,.56,1.04,1.49,1.95,1.17,.83-.3,.67-1.29,.76-2.03,.47-4.03,1.11-8.05,1.43-12.1,.13-1.55-.19-1.85-1.72-1.7-3.95,.39-7.91,.68-11.87,.98-.79,.06-1.83-.12-2.18,.74-.35,.87,.58,1.41,1.1,2.01,.24,.27,.5,.52,.75,.78,.73,.76,.78,1.56-.03,2.23-5.26,4.41-10.78,8.39-17.71,9.8-1.28,.26-2.61,.43-3.77-.47Z"/>
  <path class="cls-3" d="M220.68,84.76c.99-3.28,2-6.55,2.95-9.83,.63-2.18,1.17-2.64,3.4-2.68,.77-.01,1.54,0,2.31,0,2.32,.01,2.74,.33,3.44,2.61,1,3.27,2,6.55,3,9.82,.01,.03,.07,.05,.21,.17,.41-.75,.53-1.56,.76-2.33,.79-2.63,1.6-5.26,2.44-7.88,.52-1.65,1.34-2.28,3.05-2.35,1.13-.05,2.26-.04,3.39-.02,1.67,.04,1.94,.4,1.42,1.98-1.66,5.09-3.34,10.17-5.01,15.26-.41,1.24-.82,2.48-1.23,3.72-.47,1.43-1.39,2.18-2.98,2.27-4.62,.26-4.91,.1-6.37-4.32-1.05-3.2-2.1-6.4-3.25-9.91-1.29,3.96-2.47,7.63-3.67,11.3-.82,2.51-1.34,2.88-4,2.92-.36,0-.72,0-1.08,0-2.81-.05-3.23-.41-4.12-3.1-1.95-5.95-3.93-11.89-5.9-17.83-.63-1.89-.37-2.27,1.61-2.29,1.08,0,2.17,.01,3.25,.05,1.63,.06,2.43,.71,2.92,2.3,1.04,3.39,2.1,6.77,3.15,10.15,.1,0,.21,0,.31,0Z"/>
  <path class="cls-3" d="M108.25,97.8c3.52,.79,6.67-.41,9.76-1.87,4.07-1.91,7.66-4.53,11.14-7.34,1.29-1.04,1.29-1.12,.15-2.37-.49-.53-1.05-1-1.48-1.57-.97-1.28-.7-1.97,.88-2.12,3.82-.37,7.64-.67,11.46-.99,.72-.06,1.44-.12,2.16-.19,1.52-.15,1.93,.21,1.76,1.7-.44,3.81-.91,7.61-1.37,11.42-.11,.9-.2,1.79-.35,2.68-.19,1.09-.98,1.39-1.83,.67-.58-.49-1.16-1.02-1.6-1.63-.68-.93-1.26-.87-2.09-.16-2.76,2.39-5.67,4.58-8.84,6.43-3.18,1.86-6.53,3.23-10.13,3.99-.21,.05-.41,.15-.62,.23-3.8-2.16-6.76-5.17-9-8.9Z"/>
  <path class="cls-3" d="M201.27,93.79c-4.65,2.58-9.28,2.94-13.96,.63-2.48-1.23-3.73-3.44-3.64-6.18,.1-2.86,1.62-4.9,4.24-6.09,1.97-.9,4.06-1.17,6.21-1.15,1.85,.02,3.71,0,5.56,.03,.85,.01,1.11-.35,1-1.17-.21-1.62-.99-2.57-2.57-2.9-2.26-.47-4.41-.5-6.05,1.53-.49,.61-1.25,.72-1.97,.76-.9,.06-1.8,.05-2.7,0-1.8-.09-2.24-.66-1.86-2.43,.3-1.42,.97-2.67,2.37-3.27,5.34-2.28,10.75-2.62,16.13-.19,2.36,1.06,3.7,3.07,3.94,5.61,.48,4.99,.18,10.01,.18,15.02,0,.99-.53,1.47-1.53,1.47-1.13,0-2.26,.05-3.39,.04-1.12-.01-1.94-.45-1.95-1.72Z"/>
  <path class="cls-3" d="M279.88,103.05c-1.79-.06-3.2-.04-4.55-.47-1.29-.41-1.69-1.59-1.32-3.66,.22-1.24,1.06-1.47,2.1-1.37,.72,.07,1.42,.23,2.14,.31,2.77,.31,3.92-1.68,4.57-3.54,.13-.37,.04-.61-.4-.64-5.24-.35-7.48-4-8.97-8.33-1.29-3.74-2.4-7.55-3.56-11.34-.38-1.23-.03-1.71,1.24-1.75,1.26-.04,2.53,.05,3.79,0,1.36-.04,2.04,.63,2.42,1.88,1.04,3.45,2.13,6.89,3.26,10.31,.45,1.37,1.09,2.68,2.37,3.52,1.08,.71,1.47,.59,1.83-.66,1.02-3.5,1.99-7.02,2.99-10.53,.28-1,.6-1.98,.88-2.98,.3-1.06,.97-1.57,2.07-1.56,1.26,.01,2.53-.03,3.79,0,1.41,.04,1.71,.44,1.34,1.77-1.71,6.07-3.46,12.13-5.15,18.21-.63,2.26-1.26,4.5-2.41,6.57-1.94,3.49-5.02,4.58-8.41,4.24Z"/>
  <path class="cls-3" d="M165.8,83.73c.16-3.16-.35-6.86,.11-10.56,.21-1.66,.53-3.3,1.44-4.74,1.12-1.79,2.86-2.71,4.85-3.16,3.66-.82,7.34-.79,11.04-.25,1.06,.15,1.58,.77,1.62,1.82,.01,.27,0,.54,0,.81,0,2.32-.46,2.77-2.85,2.42-1.99-.29-3.95-.42-5.91,.11-2.19,.59-3.48,2.91-2.9,5.1,.19,.7,.7,.58,1.18,.58,1.99,0,3.97,.03,5.96-.02,1.2-.03,1.76,.52,1.8,1.67,0,.09,0,.18,0,.27,.11,3.02-.08,3.23-3.1,3.26-1.54,.01-3.07,.05-4.61-.03-.96-.05-1.27,.29-1.26,1.23,.04,3.7,.02,7.4,.01,11.1,0,1.84-.26,2.1-2.12,2.12-1.17,.01-2.34,.02-3.51,0-1.52-.03-1.77-.29-1.77-1.87,0-3.11,0-6.23,0-9.87Z"/>
  <path class="cls-3" d="M257.23,74.75c2.62-1.98,5.43-2.92,8.54-2.92,1.6,0,1.93,.33,2.01,1.86,.22,4.02,0,4.25-4.02,3.96-1.24-.09-2.45-.08-3.56,.5-1.91,1.01-3.32,2.2-3.15,4.78,.23,3.5,.07,7.03,.05,10.55,0,1.67-.3,1.95-1.98,1.98-1.26,.02-2.53,0-3.79,0-1.08,0-1.65-.44-1.64-1.63,.03-6.63,.03-13.26,0-19.89,0-1.23,.55-1.72,1.72-1.7,.99,.02,1.99,0,2.98,0q2.48,0,2.84,2.5Z"/>
  <path class="cls-3" d="M155.21,69.59c-.9,4.88-3.16,9.12-6.06,13.07-.38,.52-.76,.94-1.44,.68-.68-.26-.68-.83-.59-1.47,.13-.93,.13-1.89,.27-2.82,.13-.88-.21-1.14-1.03-1.05-1.34,.15-2.69,.23-4.03,.38-.76,.09-1.55,.35-2.03-.53-.46-.83,.24-1.35,.63-1.91,1.92-2.72,3.69-5.52,4.92-8.64,.87-2.21,1.39-4.46,.86-6.84,3.64,2.29,6.5,5.31,8.52,9.11Z"/>
  <path class="cls-2" d="M196.99,85.87c.68,0,1.35,0,2.03,0,.66,0,1.6-.23,1.73,.6,.15,.95,.58,2.19-.48,2.88-2.14,1.4-4.54,2.02-7.09,1.49-1.4-.29-2.16-1.41-2.06-2.62,.1-1.14,1.13-2.17,2.48-2.29,1.12-.1,2.25-.02,3.38-.02v-.04Z"/>
</svg>