<?xml version="1.0" encoding="utf-8"?>
<!-- Generator: Adobe Illustrator 19.0.0, SVG Export Plug-In . SVG Version: 6.00 Build 0)  -->
<svg version="1.1" id="Layer_1" xmlns="http://www.w3.org/2000/svg" xmlns:xlink="http://www.w3.org/1999/xlink" x="0px" y="0px"
	 viewBox="-190 220 172 51" style="enable-background:new -190 220 172 51;" xml:space="preserve">
<style type="text/css">
	.st0{fill:#FFFFFF;}
</style>
<g>
	<path class="st0" d="M-137.2,245l-2.8-1.2c-0.2-0.5-0.5-1-0.7-1.5c-0.7-1.2-1.5-2.2-2.4-3.3c-0.9-1-1.9-1.8-3-2.6
		c-2.1-1.5-4.4-2.6-7.1-3.4c-2.1-0.7-4.4-1-6.7-1.1l-0.2-2.9c1.5-0.3,2.6-1.6,2.6-3.2c0-1.8-1.5-3.3-3.3-3.3s-3.3,1.5-3.3,3.3
		c0,1.6,1.1,2.9,2.6,3.2l-0.2,2.9c-2.3,0.1-4.6,0.4-6.8,1.1c-2.5,0.7-4.9,1.9-7.1,3.4c-1.1,0.8-2.1,1.7-3,2.6
		c-1,1.1-1.8,2.1-2.5,3.3c-0.2,0.5-0.5,1-0.7,1.5l-2.8,1.2c-1,0.4-1.6,1.3-1.6,2.3v5.9c0,1,0.6,1.9,1.5,2.3l2.8,1.2
		c0.2,0.5,0.5,1,0.7,1.5c0.7,1.1,1.4,2.2,2.4,3.3c0.9,0.9,1.9,1.8,3,2.6c2.1,1.5,4.4,2.6,7.1,3.4c1.1,0.3,2.5,0.7,3.8,0.8
		c1.3,0.2,2.6,0.2,3.9,0.2c1.3,0,2.6-0.1,3.9-0.2c1.3-0.2,2.5-0.5,3.8-0.8c2.6-0.7,5-1.9,7.1-3.4c1.1-0.8,2.1-1.7,3-2.6
		c1-1.1,1.7-2.1,2.4-3.3c0.2-0.5,0.5-1,0.7-1.5l2.8-1.2c0.9-0.4,1.5-1.3,1.5-2.3v-5.9C-135.6,246.3-136.2,245.4-137.2,245z
		 M-141.9,257.4c-0.6,1-1.3,2.1-2.2,3.1c-0.8,0.9-1.7,1.7-2.8,2.5c-2,1.4-4.2,2.5-6.6,3.2c-1.1,0.3-2.4,0.6-3.6,0.7
		c-2.4,0.3-4.9,0.3-7.4,0c-1.3-0.2-2.5-0.4-3.6-0.7c-2.5-0.7-4.7-1.8-6.6-3.2c-1.1-0.7-2-1.6-2.8-2.5c-0.9-1-1.6-2-2.2-3.1
		c-0.7-1.2-1.1-2.3-1.4-3.5c-0.3-1.2-0.5-2.5-0.5-3.7c0-1.3,0.2-2.6,0.5-3.7c0.3-1.2,0.8-2.4,1.4-3.5s1.3-2.1,2.2-3
		c0.8-0.9,1.7-1.7,2.8-2.5c2-1.4,4.2-2.5,6.6-3.2c2.3-0.7,4.8-1.1,7.3-1.1c2.5,0,4.9,0.3,7.3,1.1c2.5,0.7,4.7,1.8,6.6,3.2
		c1.1,0.7,2,1.6,2.8,2.5c0.9,0.9,1.6,2,2.2,3.1c0.7,1.1,1.1,2.2,1.5,3.5c0.3,1.2,0.5,2.5,0.5,3.7c0,1.2-0.2,2.5-0.5,3.7
		C-140.8,255.1-141.3,256.3-141.9,257.4z"/>
	<path class="st0" d="M-160.8,240.6c-9.7,0-16.7,0-16.7,11.4c0,6.3,7.5,11.4,16.7,11.4c9.2,0,16.7-5.1,16.7-11.4
		C-144.1,240.6-151.1,240.6-160.8,240.6z M-168.1,256.8c-1.5,0-2.7-2.1-2.7-4.8c0-2.6,1.2-4.8,2.7-4.8c1.5,0,2.6,2.1,2.6,4.8
		C-165.5,254.6-166.6,256.8-168.1,256.8z M-153.5,256.8c-1.5,0-2.6-2.1-2.6-4.8c0-2.6,1.2-4.8,2.6-4.8c1.5,0,2.6,2.1,2.6,4.8
		C-150.9,254.6-152,256.8-153.5,256.8z"/>
	<path class="st0" d="M-115.2,246.7c-0.4-0.7-1-1.3-1.7-1.7c-0.7-0.4-1.6-0.6-2.5-0.6c-1.1,0-2,0.2-2.8,0.7c-0.8,0.5-1.5,1.2-2,2.1
		c-0.5,0.9-0.7,1.9-0.7,3.1c0,1.2,0.2,2.2,0.7,3.1c0.5,0.9,1.1,1.6,2,2.1c0.8,0.5,1.8,0.7,3,0.7c1.4,0,2.5-0.3,3.4-1.1
		c0.9-0.7,1.5-1.7,1.7-3.1h-6.2v-2.8h9.7v3.1c-0.2,1.2-0.7,2.4-1.6,3.5c-0.8,1.1-1.8,1.9-3,2.6c-1.2,0.7-2.6,1-4.2,1
		c-1.7,0-3.3-0.4-4.7-1.2c-1.4-0.7-2.5-1.9-3.3-3.3c-0.8-1.4-1.2-3-1.2-4.8c0-1.8,0.4-3.4,1.2-4.8c0.8-1.4,1.9-2.5,3.3-3.3
		c1.4-0.8,3-1.2,4.7-1.2c2.1,0,3.8,0.5,5.3,1.5c1.5,1,2.5,2.4,3.1,4.2H-115.2z"/>
	<path class="st0" d="M-104.3,244.1v4.5h6.1v2.9h-6.1v4.8h6.8v3h-10.4v-18.1h10.4v3H-104.3z"/>
	<path class="st0" d="M-78.9,259.3h-3.6l-8.1-12.4v12.4h-3.6v-18.1h3.6l8.1,12.4v-12.4h3.6V259.3z"/>
	<path class="st0" d="M-71.7,241.3v18.1h-3.6v-18.1H-71.7z"/>
	<path class="st0" d="M-64.7,241.3v11.1c0,1.2,0.3,2.1,1,2.8c0.7,0.7,1.6,1,2.7,1c1.1,0,2.1-0.3,2.7-1c0.7-0.7,1-1.6,1-2.8v-11.1
		h3.6v11.1c0,1.6-0.3,2.8-1,3.9c-0.7,1.1-1.6,1.9-2.6,2.4c-1.1,0.5-2.3,0.8-3.7,0.8c-1.3,0-2.5-0.2-3.6-0.8c-1.1-0.5-2-1.3-2.5-2.4
		c-0.7-1.1-1-2.4-1-3.9v-11.1H-64.7z"/>
	<path class="st0" d="M-47.4,258.8c-1-0.4-1.8-1.1-2.4-1.9c-0.6-0.8-0.9-1.7-0.9-2.9h3.9c0.1,0.7,0.3,1.3,0.8,1.7
		c0.5,0.4,1.1,0.7,2,0.7s1.5-0.2,2-0.6c0.5-0.4,0.7-0.9,0.7-1.6c0-0.5-0.2-1-0.5-1.3c-0.3-0.3-0.7-0.6-1.2-0.8
		c-0.5-0.2-1.1-0.4-2.1-0.7c-1.1-0.3-2.1-0.7-2.9-1c-0.7-0.3-1.4-0.8-1.9-1.5c-0.5-0.7-0.8-1.6-0.8-2.7c0-1.1,0.2-2,0.8-2.8
		c0.5-0.8,1.3-1.4,2.2-1.8c1-0.4,2.1-0.7,3.3-0.7c1.9,0,3.4,0.4,4.5,1.3s1.8,2.1,1.9,3.8h-3.9c0-0.7-0.3-1.2-0.8-1.6
		c-0.5-0.4-1.1-0.6-2-0.6c-0.7,0-1.2,0.2-1.7,0.6c-0.4,0.3-0.7,0.9-0.7,1.6c0,0.5,0.2,0.9,0.5,1.2c0.3,0.3,0.7,0.6,1.1,0.7
		c0.5,0.2,1.1,0.4,2,0.7c1.1,0.3,2.1,0.7,2.9,1.1c0.7,0.3,1.4,0.8,1.9,1.6c0.5,0.7,0.8,1.6,0.8,2.7c0,1-0.2,1.9-0.7,2.7
		c-0.5,0.8-1.2,1.5-2.2,2s-2.1,0.7-3.4,0.7C-45.3,259.5-46.5,259.2-47.4,258.8z"/>
	<path class="st0" d="M-35.9,250.1c-0.2-0.2-0.2-0.4-0.2-0.7s0.1-0.5,0.2-0.7s0.4-0.2,0.7-0.2s0.5,0.1,0.7,0.2
		c0.2,0.2,0.2,0.4,0.2,0.7s-0.1,0.5-0.2,0.7c-0.2,0.2-0.4,0.2-0.7,0.2S-35.6,250.2-35.9,250.1z"/>
	<path class="st0" d="M-27,248.4h-3.7l-0.7,1.8h-1.6l3.2-9h1.7l3.2,9h-1.6L-27,248.4z M-27.4,247.2l-1.5-4.1l-1.5,4.1H-27.4z"/>
	<path class="st0" d="M-22,241.3v9h-1.5v-9H-22z"/>
</g>
</svg>
