<?xml version="1.0" encoding="utf-8"?>
<!-- Generator: Adobe Illustrator 19.0.0, SVG Export Plug-In . SVG Version: 6.00 Build 0)  -->
<svg version="1.1" id="Layer_1" xmlns="http://www.w3.org/2000/svg" xmlns:xlink="http://www.w3.org/1999/xlink" x="0px" y="0px"
	 viewBox="-279 199 400 164" style="enable-background:new -279 199 400 164;" xml:space="preserve">
<style type="text/css">
	.st0{fill:#FFFFFF;}
</style>
<path class="st0" d="M-170.8,285.1v24.8h-9.5v-29.6C-180.3,280.3-170.8,285.1-170.8,285.1z"/>
<path class="st0" d="M-152.6,271.2l-13.8-3.5c-3-1.1-4.4-2-4.4-5.4v-10.2h-9.5v10.5c0,6.8,1.3,11.8,11.3,14.4l13.8,3.5
	c0,0,0.1,0,0.1,0c2.9,1,4.2,2,4.2,5.4v23.7h9.5v-24C-141.3,275.1-146,272.9-152.6,271.2z"/>
<path class="st0" d="M-36.6,297.9c-1.1,1.1-2.6,2-4.2,2.6c-1.6,0.6-3.5,0.9-5.5,0.9c-3.5,0-6.3-1-8.5-3c-2.1-2-3.5-4.6-4.1-7.7
	c-0.4-2.1-0.4-4.2,0-6.1c0.4-1.9,1.2-3.5,2.4-4.9c1.1-1.4,2.6-2.4,4.2-3.2c1.7-0.8,3.6-1.2,5.8-1.2s3.9,0.4,5.6,1.1
	c1.6,0.7,3.1,1.7,4.2,2.9c1.1,1.2,2,2.7,2.7,4.3c0.6,1.6,0.9,3.4,0.9,5.2c0.1,1.8-0.2,3.5-0.8,5C-34.5,295.5-35.4,296.8-36.6,297.9
	L-36.6,297.9z M-31.8,267.7l-0.6,4.7c-1.4-1.3-2.9-2.3-4.3-3.1c-1.4-0.8-2.8-1.3-4.1-1.7c-0.8-0.3-1.6-0.4-2.4-0.6
	c-2.5-0.5-4.1-0.3-4.1-0.3l0,0c-0.4,0-0.9,0-1.3,0c-3.7,0.2-6.9,1-9.6,2.5c-2.7,1.5-4.9,3.4-6.6,5.7c-1.6,2.3-2.7,5-3.3,8.1
	c-0.6,3-0.5,6.2,0.1,9.5c0.6,3,1.5,5.6,2.8,7.8c1.3,2.2,2.8,4,4.6,5.4c1.8,1.4,3.8,2.5,5.9,3.2c2.1,0.7,4.4,1.1,6.6,1.1
	c1.3,0,2.5-0.1,3.7-0.2l0,0c0,0,0.6,0,1.7-0.2c1-0.2,2-0.4,2.9-0.7c0,0,0.1,0,0.1,0c2.3-0.7,5-1.9,7.1-3.9l1,5.1h9v0l0.1-42.1
	L-31.8,267.7L-31.8,267.7z"/>
<path class="st0" d="M-103.6,297.9c-1.1,1.1-2.6,2-4.2,2.6c-1.6,0.6-3.5,0.9-5.5,0.9c-3.5,0-6.3-1-8.5-3c-2.1-2-3.5-4.6-4.1-7.7
	c-0.4-2.1-0.4-4.2,0-6.1c0.4-1.9,1.2-3.5,2.4-4.9c1.1-1.4,2.6-2.4,4.2-3.2c1.7-0.8,3.6-1.2,5.8-1.2s3.9,0.4,5.6,1.1
	c1.6,0.7,3.1,1.7,4.2,2.9c1.1,1.2,2,2.7,2.7,4.3c0.6,1.6,0.9,3.4,0.9,5.2c0.1,1.8-0.2,3.5-0.8,5
	C-101.5,295.5-102.4,296.8-103.6,297.9L-103.6,297.9z M-98.8,267.7l-0.6,4.7c-1.4-1.3-2.9-2.3-4.3-3.1c-1.4-0.8-2.8-1.3-4.1-1.7
	c-0.8-0.3-1.6-0.4-2.4-0.6c-2.5-0.5-4.1-0.3-4.1-0.3l0,0c-0.4,0-0.9,0-1.3,0c-3.7,0.2-6.9,1-9.6,2.5c-2.7,1.5-4.9,3.4-6.6,5.7
	c-1.6,2.3-2.7,5-3.3,8.1c-0.6,3-0.5,6.2,0.1,9.5c0.6,3,1.5,5.6,2.8,7.8c1.3,2.2,2.8,4,4.6,5.4c1.8,1.4,3.8,2.5,5.9,3.2
	c2.1,0.7,4.4,1.1,6.6,1.1c1.3,0,2.5-0.1,3.7-0.2l0,0c0,0,0.6,0,1.7-0.2c1-0.2,2-0.4,2.9-0.7c0,0,0.1,0,0.1,0c2.3-0.7,5-1.9,7.1-3.9
	l1,5.1h9v0l0.1-42.1L-98.8,267.7L-98.8,267.7z"/>
<path class="st0" d="M-83.9,309.9h9.5v-57.8h-9.5V309.9z"/>
<path class="st0" d="M21.4,278.6C21.4,278.6,21.4,278.6,21.4,278.6c-0.4-1-0.9-2-1.5-3c-1.7-2.6-4.3-4.6-7.1-5.8
	c-0.9-0.4-1.8-0.7-2.6-1c-2.6-0.8-5.6-1-7.4-1c0,0-5.9,0.1-10.4,3l-0.5-3h-8.6v42.1l0,0h9.4h0.1l0,0v-23.4c0.1-2.5,0.5-5.2,2.7-7.2
	c2-1.9,4.9-2.7,7.3-2.7h0.1c2.4,0,5.3,0.8,7.3,2.7c2.2,2,2.6,4.7,2.7,7.2v23.4h9.5v-26.1C22.3,282.1,22,280.3,21.4,278.6L21.4,278.6
	z"/>
</svg>
