<?xml version="1.0" encoding="UTF-8"?>
<svg id="Layer_1" data-name="Layer 1" xmlns="http://www.w3.org/2000/svg" viewBox="0 0 400 164">
  <defs>
    <style>
      .cls-1 {
        fill: #fff;
      }

      .cls-2 {
        fill: #f9e059;
      }

      .cls-3 {
        fill: #171b21;
      }
    </style>
  </defs>
  <path class="cls-3" d="M145.01,78.65c-.04-2.51-.04-5.02,0-7.52,0-.8-.25-1.37-.81-1.94-8.89-8.85-17.78-17.71-26.64-26.6-.57-.57-1.15-.81-1.94-.79-2.44,.04-4.89,.04-7.34,0-.88-.02-1.5,.28-2.1,.89-1.19,1.23-2.44,2.39-3.86,3.76-1.41-1.35-2.72-2.55-3.95-3.8-.61-.61-1.25-.85-2.11-.84-2.39,.05-4.77,.05-7.16,0-.86-.02-1.48,.26-2.1,.87-8.82,8.92-17.66,17.83-26.52,26.72-.62,.62-.83,1.27-.82,2.11,.04,2.27,.07,4.53,0,6.8-.04,1.12,.27,1.96,1.1,2.75,1.19,1.12,2.38,2.26,3.45,3.7-1.16,1.22-2.25,2.46-3.46,3.57-.84,.77-1.13,1.62-1.09,2.75,.08,2.2,.08,4.41,0,6.61-.04,1.08,.36,1.81,1.1,2.56,4.58,4.51,9.11,9.07,13.65,13.61,.38,.39,.7,.86,1.45,1.09,1.48-1.48,3.04-3.03,4.58-4.58,1.61-1.6,3.21-3.2,4.81-4.81,1.56-1.55,3.12-3.11,4.68-4.67,1.6-1.6,3.19-3.21,4.81-4.8,1.54-1.52,3.01-3.12,4.8-4.7v25.22c-1.55,.33-3.03-.11-4.42,.29v5.17h10.07v-30.95c8.13,8.13,15.94,15.93,23.69,23.68,.29-.14,.43-.17,.51-.25,4.98-4.98,9.96-9.96,14.96-14.92,.53-.53,.67-1.1,.66-1.8-.02-2.45-.04-4.9,0-7.35,.02-.86-.23-1.51-.85-2.11-1.26-1.23-2.46-2.51-3.78-3.87,1.34-1.38,2.55-2.66,3.81-3.89,.57-.56,.84-1.14,.82-1.95Zm-69.77,28.52c-1.47-1.48-3.23-3.26-5-5.03-1.47-1.47-2.92-2.97-4.42-4.41-.62-.6-.86-1.23-.87-2.09-.04-4.04-.09-4.06,2.86-6.97,1.3-1.28,2.67-2.49,4.15-3.84-1.14-1.16-2.02-2.07-2.91-2.97-1.07-1.08-2.14-2.19-3.25-3.23-.63-.59-.76-1.27-.87-2.1-.36-2.83,.44-4.98,2.71-6.87,2.4-1.99,4.45-4.37,6.67-6.57,.42-.42,.75-.99,1.24-1.08,7.59,7.6,15.09,15.12,22.4,22.44-7.44,7.43-15.01,15.01-22.71,22.7Zm62.26-18.1c1.81,1.52,2.43,3.26,2.3,5.58-.09,1.46-.44,2.51-1.5,3.52-3.08,2.96-6.07,6.03-8.92,8.88-7.64-7.63-15.18-15.18-22.74-22.74,7.34-7.33,14.86-14.85,22.53-22.51,.28,0,.53,.48,.86,.8,2.91,2.9,5.79,5.82,8.72,8.69,.72,.69,.91,1.44,1.04,2.4,.36,2.8-.5,4.93-2.75,6.69-1.47,1.15-2.68,2.64-4.09,4.05,1.43,1.76,2.93,3.29,4.55,4.65Z"/>
  <path class="cls-3" d="M284.95,79.65h-4.27c-.33-1.91-.11-3.71-.14-5.62h16.87v5.67c-1.25,0-2.4,0-3.55,0-.54,0-1.12-.09-1.58,.31-2.83,2.41-5.66,4.82-8.59,7.32,3.08,4.34,6.08,8.57,9.13,12.87h5.95c.19,1.92,.15,3.72,.03,5.62h-13.12c0-1.4,.01-2.72,0-4.04,0-.6,.1-1.21-.29-1.77-2.13-3.06-4.24-6.12-6.42-9.27-1.83,1.21-3.31,2.66-4.9,3.97-.36,.29-.46,.69-.46,1.15,.01,1.34,0,2.68,0,4.12,2,.44,3.96,.02,6,.29v5.53h-17.08c-.13-1.85-.09-3.61-.02-5.45,1.45-.4,2.94,0,4.48-.29V63.88c-1.5-.36-3.05,.06-4.62-.29-.23-1.85-.14-3.66-.07-5.58h11.25v31.07c.13,.07,.26,.14,.39,.21,3.81-2.96,7.46-6.12,11.16-9.2-.06-.14-.12-.29-.18-.43Z"/>
  <path class="cls-3" d="M307.35,79.66h-5.71c-.31-1.92-.12-3.72-.13-5.61h12.78c.26,1.02,.18,1.94,.13,2.84-.09,1.69,.24,3.25,.88,4.81,2.04,4.98,4,9.99,6,14.98,.11,.28,.28,.53,.59,1.12,2.59-6.09,5.08-11.93,7.69-18.07h-7.42c-.28-2.01-.14-3.81-.14-5.7h18.33v5.5c-1.33,.39-2.7-.03-4.08,.29-.88,1.35-1.38,2.93-2.03,4.44-4.42,10.28-8.82,20.57-13.21,30.86-2.56,6.01-6.04,7.91-12.5,6.77-1.01-.18-2.06-.29-3.03-.93-.13-1.54-.15-3.11,.03-4.86h8.3c1.52-3.41,2.98-6.7,4.45-9.98,.35-.77,0-1.43-.3-2.1-2.76-6.33-5.52-12.67-8.28-19-.76-1.73-1.52-3.46-2.37-5.37Z"/>
  <path class="cls-3" d="M217.65,79.68h-6.14c-.2-1.92-.11-3.67-.07-5.71,4.18-.1,8.3-.06,12.65,0,0,4.47,0,8.8,0,13.13s0,8.55,0,12.91c1.63,.36,3.16,0,4.76,.28v5.52h-9.96c-.28-1.54,0-3.07-.18-4.6-.68,.02-.85,.63-1.21,.99-3.92,3.93-8.64,5.15-13.98,3.99-3.24-.71-5.15-2.91-6.07-6.01-.53-1.77-.76-3.58-.75-5.44,.02-4.29,0-8.57,0-12.86,0-.65,.17-1.34-.29-2.15h-4.54v-5.69h11.15c.39,.69,.24,1.31,.24,1.91,.01,5.45,0,10.9,0,16.35,0,.8,0,1.59,.03,2.39,.14,3.97,2,5.79,6,5.78,2.4-.01,4.56-.79,6.46-2.27,1.32-1.03,2.02-2.25,1.96-4.07-.14-4.7-.05-9.42-.05-14.43Z"/>
  <path class="cls-3" d="M256.74,98.08c.83,1.74,1.09,3.51,1.75,5.18-1.04,1.05-2.38,1.36-3.61,1.81-4.21,1.53-8.54,2.14-12.97,1.13-4.45-1.01-7.51-3.72-9.11-7.98-2.06-5.48-2.16-11.03,.1-16.46,2.14-5.14,6.15-7.93,11.7-8.42,4.68-.41,9.09,.62,13.46,2.57-.2,3.76-.77,7.41-1.25,11.16-1.79,.24-3.46,.19-5.29,.03v-7.27c-2.58-.99-5.09-1.3-7.63-.53-2.64,.79-4.08,2.8-4.83,5.34-.99,3.37-.88,6.78,.06,10.14,1.19,4.25,4.69,6.31,9.38,5.68,2.8-.37,5.51-1.06,8.24-2.37Z"/>
  <path class="cls-3" d="M189.71,100.22c.13,1.94,.24,3.69,.36,5.53-2.76,.98-5.46,1.27-8.19,.55-2.36-.62-3.65-2.36-4.23-4.64-.4-1.55-.44-3.14-.44-4.74,0-10.34,0-20.69,0-31.03,0-.66,.09-1.33-.19-2.15h-5.14c-.29-1.98-.14-3.79-.11-5.72h11.73c.4,.62,.22,1.31,.22,1.96,.01,11.75,0,23.5,.01,35.25,0,.98,0,1.96,.13,2.93,.2,1.56,.99,2.3,2.55,2.33,1.03,.02,2.06-.17,3.29-.28Z"/>
  <path class="cls-2" d="M79.78,57.48c3.12-3.13,6.45-6.46,9.77-9.79,.04-.04,.09-.09,.14-.12,1.03-.77,5.68-.52,6.59,.4,1.94,1.95,3.85,3.93,5.64,5.77,.84,.06,1.08-.43,1.41-.76,1.66-1.63,3.31-3.27,4.93-4.93,.54-.55,1.08-.87,1.9-.89,4.26-.13,4.26-.15,7.31,2.89,2.55,2.55,5.1,5.09,7.53,7.5-7.65,7.65-15.2,15.21-22.59,22.6-7.39-7.41-14.93-14.96-22.63-22.67Z"/>
  <path class="cls-1" d="M98.56,68.78c1.19-1.29,2.36-2.51,3.72-3.68,1.53,.98,2.57,2.43,3.95,3.68-1.15,1.45-2.48,2.65-3.76,3.84-1.3-1.28-2.54-2.49-3.91-3.84Z"/>
</svg>