<?xml version="1.0" encoding="UTF-8"?>
<svg id="Layer_1" data-name="Layer 1" xmlns="http://www.w3.org/2000/svg" xmlns:xlink="http://www.w3.org/1999/xlink" viewBox="0 0 400 164">
  <defs>
    <style>
      .cls-1 {
        fill: url(#linear-gradient-2);
      }

      .cls-2 {
        fill: url(#linear-gradient-5);
      }

      .cls-3 {
        fill: url(#linear-gradient-3);
      }

      .cls-4 {
        fill: url(#linear-gradient);
      }

      .cls-5 {
        fill: url(#linear-gradient-4);
      }
    </style>
    <linearGradient id="linear-gradient" x1="93.51" y1="48.65" x2="189.15" y2="63.34" gradientUnits="userSpaceOnUse">
      <stop offset="0" stop-color="#2e88bd"/>
      <stop offset="1" stop-color="#191f4f"/>
    </linearGradient>
    <linearGradient id="linear-gradient-2" x1="90.48" y1="68.34" x2="186.13" y2="83.02" xlink:href="#linear-gradient"/>
    <linearGradient id="linear-gradient-3" x1="88.83" y1="79.15" x2="184.47" y2="93.83" xlink:href="#linear-gradient"/>
    <linearGradient id="linear-gradient-4" x1="89.57" y1="74.33" x2="185.21" y2="89.01" xlink:href="#linear-gradient"/>
    <linearGradient id="linear-gradient-5" x1="90.3" y1="69.54" x2="185.95" y2="84.22" xlink:href="#linear-gradient"/>
  </defs>
  <path class="cls-4" d="M235.27,31.29c-1.68,.89-2.08,2.39-2.08,4.19,0,15.58,.09,31.17-.15,46.75-.15,9.62-9.11,17.58-18.69,16.94-7.36-.49-12.7-4.13-15.46-11.06-2.59-6.5-.93-13.77,4.22-18.48,5.57-5.08,11.93-6.13,18.9-3.18,2.73,1.16,4.63,.64,5.61-1.54,1-2.22,.03-4.38-2.5-5.55-15.72-7.26-34.42,4.15-35.13,21.43-.57,14.01,10.29,25.71,24.19,26.07,14.36,.37,26.52-11.01,26.6-24.94,.05-7.44,0-14.87,0-22.31h.02c0-8.15,.02-16.3-.01-24.45-.01-3.33-2.87-5.31-5.54-3.89Z"/>
  <path class="cls-1" d="M299.08,73.87c-4.14-11.68-15.64-18.35-28.07-16.28-12.11,2.02-21.29,12.6-21.32,24.59-.01,7.44,0,14.87,0,22.31h-.02c0,2.85,0,5.7,0,8.54,0,5.46-.02,10.92,.02,16.38,.01,2,1.1,3.29,3.05,3.67,1.95,.38,3.38-.44,4.22-2.25,.42-.9,.29-1.86,.29-2.8,.04-15.35-.1-30.7,.18-46.04,.21-11.19,11.4-19.32,22.27-16.61,9.64,2.41,15.3,12.63,12.19,22.02-3.19,9.63-13.77,14.3-23.31,10.29-2.86-1.2-4.88-.68-5.82,1.5-.97,2.26,.1,4.5,2.84,5.64,7.47,3.11,14.85,2.87,21.94-1.05,10.79-5.97,15.57-18.55,11.55-29.9Z"/>
  <path class="cls-3" d="M115.3,70.43c-2.07-5.56-5.1-10.37-10.76-12.94-1.94-.88-4.02-.23-4.68,1.43-.73,1.83-.35,3.47,1.47,4.49,6.05,3.37,8.32,8.81,8.46,15.39,.08,3.8,.01,7.59,.02,11.39,0,4.35-.03,8.7,.01,13.05,.02,2.46,1.37,3.86,3.53,3.84,2.07-.02,3.29-1.45,3.3-4.05,.03-8.31,.04-16.61,0-24.92-.02-2.62-.42-5.21-1.34-7.68Z"/>
  <path class="cls-5" d="M134.53,57.43c-5.85-2.38-11.45-1.53-16.83,1.41-1.76,.96-2.33,2.62-1.39,4.46,.95,1.85,2.7,2.39,4.43,1.45,3.46-1.89,7.04-2.16,10.8-1.53,7.58,2.98,10.4,8.65,10.05,16.61-.34,7.81-.09,15.65-.06,23.47,.01,2.45,1.22,3.76,3.29,3.79,2.02,.03,3.4-1.22,3.4-3.41,.03-9.64,.19-19.29-.1-28.92-.23-7.91-6.42-15.44-13.59-17.34Z"/>
  <path class="cls-2" d="M163.44,56.52c-4.69-1.12-9.06-.03-13.15,2.21-1.84,1.01-2.28,3.07-1.27,4.69,1.09,1.75,2.73,2.19,4.48,1.23,2.5-1.37,5.17-1.79,7.94-1.88,4.67,.8,8.31,3.17,10.91,7.13,1.36,2.94,1.58,6.04,1.55,9.25-.09,7.83-.04,15.66-.03,23.48,0,2.91,1.2,4.48,3.36,4.52,2.23,.04,3.4-1.45,3.41-4.41,.01-8.7,0-17.4,0-26.09,0-4.22-1.06-8.09-3.58-11.52-3.27-4.88-7.76-7.83-13.63-8.6Z"/>
</svg>