<?xml version="1.0" encoding="utf-8"?>
<!-- Generator: Adobe Illustrator 19.0.0, SVG Export Plug-In . SVG Version: 6.00 Build 0)  -->
<svg version="1.1" id="Layer_1" xmlns="http://www.w3.org/2000/svg" xmlns:xlink="http://www.w3.org/1999/xlink" x="0px" y="0px"
	 viewBox="-279 199 400 164" style="enable-background:new -279 199 400 164;" xml:space="preserve">
<style type="text/css">
	.st0{fill:#FFFFFF;}
</style>
<path class="st0" d="M-35.8,302.3h-8.8c0.3-1.6,0.5-3.1,0.8-4.6c0.7-4.1,1.5-8.3,2.2-12.4c0.3-2,0.1-3.9-0.9-5.7
	c-1.6-3-4.7-4.2-7.9-3.1c-4.1,1.5-6.5,4.4-7.2,8.8c-0.9,5.6-1.9,11.1-2.9,16.7c0,0.1-0.1,0.2-0.2,0.4h-8.8c0.1-0.7,0.2-1.3,0.3-2
	c0.8-4.3,1.5-8.7,2.3-13c0.3-1.5,0.6-3,0.4-4.5c-0.3-2.9-1.9-5.7-5.2-6.6C-72,276-72.5,276-73,276c-2,0-4.1,0-6.1,0
	c-1.3,0-1.9,0.6-2.1,1.8c-1.4,7.8-2.8,15.7-4.1,23.5c-0.1,0.3-0.1,0.7-0.3,1h-8.6c-0.3-0.3-0.2-0.5-0.1-0.8
	c1.4-8.1,2.9-16.2,4.3-24.3c0.3-1.8,0.6-3.5,0.9-5.3c0.4-2.7,2.8-4.9,5.5-4.9c4.5,0,9-0.1,13.5,0c3.9,0.1,7.4,1.6,9.9,4.8
	c0.2,0.2,0.3,0.5,0.7,0.7c1.3-1.2,2.7-2.1,4.2-3c3-1.7,6.3-2.6,9.7-2.5c7.3,0.2,12.3,5,13.2,12c0.4,2.8-0.1,5.6-0.6,8.3
	c-0.8,4.7-1.7,9.5-2.6,14.2C-35.5,301.7-35.5,302-35.8,302.3L-35.8,302.3z"/>
<path class="st0" d="M-126.4,314.8c0.4-2.8,0.8-5.7,1.2-8.6c0.9,0,1.8,0.3,2.6,0.4c2.4,0.4,4.8,0.5,7.3,0.1c4.2-0.8,6.9-3.4,7.8-7.7
	c0.1-0.5,0.2-1,0.3-1.6c-0.4,0-0.6,0.4-0.7,0.6c-3.1,3.5-6.9,4.5-11.4,3.9c-2.2-0.3-4.3-1-6.1-2.3c-2.7-1.8-4.2-4.5-5-7.6
	c-0.7-3-0.5-5.9,0.1-8.9c1-5.3,1.9-10.6,2.9-16c0,0,0-0.1,0.1-0.1c0.8-0.2,7.9-0.3,9.2-0.1c-0.6,3.3-1.2,6.6-1.7,9.9
	c-0.5,2.8-1.1,5.6-1.4,8.5c-0.2,1.7,0,3.4,1.1,4.8c1.1,1.5,2.6,1.9,4.3,1.8c6.6-0.4,10.9-4.5,12-10.5c0.8-4.5,1.6-9,2.4-13.5
	c0.1-0.3,0.2-0.7,0.3-1h9.1c-0.2,1.3-0.4,2.5-0.6,3.7c-0.9,5.1-1.8,10.2-2.8,15.3c-0.9,4.6-1.5,9.3-2.6,13.8
	c-1,3.9-2.7,7.5-5.4,10.5c-2.8,3-6.3,4.7-10.3,5.4c-3.8,0.7-7.6,0.4-11.4-0.5C-125.8,315.1-126.1,315.1-126.4,314.8L-126.4,314.8z"
	/>
<path class="st0" d="M-137.6,302.3h-8.9c0.3-1.4,0.5-2.7,0.7-4.1c-0.4,0.1-0.6,0.4-0.8,0.6c-2.4,2.2-5.3,3.6-8.6,3.6
	c-3.9,0-7.5-1.1-10.4-3.9c-2.6-2.5-4.1-5.5-4.4-9.1c-0.5-6.2,1.7-11.3,5.9-15.7c3.2-3.3,7-5.4,11.5-6.3c0.9-0.2,1.9-0.3,2.8-0.3
	c3.8,0,7.5,0,11.3,0c2.6,0,4.5,1.3,5.5,3.6c0.5,1.2,0.5,2.5,0.3,3.8c-0.6,3.8-1.3,7.5-2,11.3c-0.9,4.8-1.7,9.6-2.5,14.4
	C-137.4,300.8-137.5,301.5-137.6,302.3L-137.6,302.3z M-148.8,276c-1.1,0-2.5-0.1-3.9,0.2c-4.1,0.9-7.7,4.4-8.3,9
	c-0.5,4.4,2,8.1,6.9,8.2c4.8,0.1,9.1-3.1,10.4-7.8c0.6-2.1,0.8-4.2,1.2-6.3c0.3-1.8-1-3.2-2.8-3.3C-146.4,275.9-147.4,276-148.8,276
	L-148.8,276z"/>
<path class="st0" d="M-29.3,287.4c0.1-4.9,2-9.1,5.3-12.7c3.7-4,8.3-6.4,13.7-7.1c5.3-0.6,10,0.6,13.8,4.4c2.1,2.1,3.3,4.8,3.7,7.7
	c0.7,5.2-1,9.7-4.2,13.7c-3.9,4.9-9,7.7-15.2,8.3c-5.6,0.5-10.7-1-14.3-5.7C-28.5,293.5-29.4,290.6-29.3,287.4L-29.3,287.4z
	 M-12.7,293.1c1.1,0.1,2.1,0,3-0.3c4.8-1.4,8-5.7,7.7-10.4c-0.1-2.2-1.2-3.8-3-5c-2.1-1.3-4.4-1.4-6.7-1c-4.5,0.9-7.8,4.4-8.4,9
	c-0.3,2.6,0.5,4.8,2.7,6.4C-15.9,292.7-14.3,293.1-12.7,293.1L-12.7,293.1z"/>
<path class="st0" d="M-208.2,302.5c-0.8,4.4-1.6,8.8-2.4,13.2h-8.9c0.4-2.4,0.8-4.7,1.2-7c0.7-3.9,1.4-7.9,2.1-11.9
	c1-5.8,2-11.5,3.1-17.3c0.4-2,0.7-3.9,1-5.9c0.5-3.2,3.2-6,6.5-6.6c1.2-0.2,2.4-0.3,3.8-0.1c-1.6,8.8-3.1,17.4-4.7,26.3
	c1.5,0,2.9,0,4.3,0c1.4,0,2.9,0,4.3,0h13c-0.1,1.8-0.6,3.2-1.5,4.6c-1.7,2.6-4.3,3.8-7.3,4.2c-1.3,0.2-2.5,0.2-3.8,0.2
	c-3.1,0-6.2,0-9.3,0C-207.4,302.3-207.8,302.2-208.2,302.5L-208.2,302.5z"/>
<path class="st0" d="M17.9,293.3h12.9c1.4,0,2.9,0,4.3,0c1.4,0,2.8,0,4.3,0c-0.2,4.2-3.4,7.8-7.7,8.6c-1.3,0.2-2.5,0.4-3.8,0.4
	c-6.5,0-12.9,0-19.4,0c-0.4,0-0.7,0.1-1.1-0.2c0.3-1.6,0.6-3.2,0.8-4.8c0.8-4.8,1.7-9.6,2.5-14.3c0.8-4.3,1.5-8.6,2.3-12.9
	c0.6-3.3,1.2-6.6,1.7-9.9c0.6-3.5,3.6-6.5,7.8-6.7c0.8,0,1.5,0,2.4,0c-1.2,6.7-2.3,13.3-3.5,19.9C20.3,280,19.1,286.6,17.9,293.3
	L17.9,293.3z"/>
<path class="st0" d="M39.9,297.7c0.3-1.9,0.6-3.6,0.9-5.2c0.8-4.6,1.6-9.2,2.4-13.9c0.3-1.7-0.6-2.6-2.4-2.6c-5.8,0-11.6,0-17.5,0
	c-0.4,0-0.8,0.1-1.2-0.1c0.1-4.1,3-7.4,6.6-8.4c1.1-0.3,2.3-0.5,3.5-0.5c4.5,0,9,0,13.5,0c1.5,0,2.9,0.3,4.1,1
	c1.8,1.1,2.5,2.8,2.7,4.8c0.1,1.5-0.3,2.9-0.5,4.4c-0.5,3.6-1,7.2-1.6,10.7c-0.7,3.9-2.8,6.7-6.5,8.3
	C42.8,296.8,41.4,297.2,39.9,297.7L39.9,297.7z"/>
<path class="st0" d="M-202.3,275.8c0.4-2.8,1.4-5.1,3.6-6.8c1.8-1.4,3.8-2,6-2c4.8-0.1,9.6,0,14.4,0c1.2,0,2.5,0.2,3.6,0.8
	c2.3,1.3,3.2,3.4,3,5.9c-0.3,3.2-0.9,6.5-1.4,9.7c-0.2,1.3-0.4,2.7-0.6,4c-0.7,4.3-2.9,7.4-7.1,9c-1.1,0.5-2.3,0.8-3.6,1.2
	c0.2-1.5,0.4-2.8,0.7-4.1c0.8-4.7,1.7-9.5,2.5-14.2c0-0.1,0-0.2,0-0.2c0.3-2.1-0.4-3.1-2.7-3.1c-5.6,0.1-11.3,0-16.9,0
	C-201.3,276-201.7,276-202.3,275.8L-202.3,275.8z"/>
<path class="st0" d="M60.9,302.1c-0.3,0.2-0.5,0.2-0.8,0c0.2-1.2,0.4-2.5,0.6-4c-1,1.5-1.4,2.9-2.4,4.4c-0.7-1.4-0.6-2.8-1.1-4.2
	c-0.5,1.3-0.4,2.7-0.7,3.9c-0.2,0.2-0.4,0.2-0.7,0.1c0.2-1.6,0.5-3.3,0.7-4.9c0.4-0.3,0.8-0.3,1.2-0.1c0.2,1.1,0.5,2.3,0.7,3.6
	c0.9-1.2,1.3-2.5,2-3.6c0.3-0.2,0.7-0.1,1.1-0.1C61.5,298.9,61,300.5,60.9,302.1L60.9,302.1z"/>
<path class="st0" d="M54.1,297.9c-0.2,1.3-0.4,2.5-0.6,3.7c-0.1,0.4-0.1,0.9-0.9,0.7c0.2-1.4,0.4-2.9,0.6-4.3
	c-0.4-0.3-0.9,0-1.3-0.3c-0.1-0.4,0-0.6,0.4-0.6c1,0,2,0,3.1,0C55.4,297.6,55,297.8,54.1,297.9L54.1,297.9z"/>
</svg>
