<?xml version="1.0" encoding="UTF-8"?>
<svg id="Layer_1" data-name="Layer 1" xmlns="http://www.w3.org/2000/svg" viewBox="0 0 400 164">
  <defs>
    <style>
      .cls-1 {
        fill: #646464;
      }

      .cls-2 {
        fill: #383838;
      }
    </style>
  </defs>
  <path class="cls-2" d="M210.38,75.34h13.61c-.63,1.9-1.92,2.9-3.48,3.54-2.13,.87-4.41,1.07-6.68,1.21-1.3,.08-2.61,.03-3.91,.05-1.88,.03-2.37,.39-3.13,2.31-1.7,4.28-3.38,8.57-5.09,12.85-1.21,3.01-2.43,6.02-3.34,9.14-.36,1.24-.62,2.52-.84,3.8-.13,.71-.13,1.53,.51,1.98,.64,.45,1.35,.12,2.01-.23,2.61-1.39,4.81-3.33,7.01-5.26,1.62-1.43,2.88-3.2,4.42-4.69,.19-.18,.38-.35,.69-.63,.43,.99,.41,1.86-.1,2.71-2.06,3.4-4.24,6.72-6.99,9.61-1.23,1.29-2.72,2.22-4.48,2.64-3.94,.95-9.27-1.58-8.51-7.72,.13-1.08,.4-2.14,.65-3.48-1.99,2.11-3.78,4-5.57,5.89-2.09,2.21-4.62,3.78-7.41,4.94-1.65,.69-3.38,.87-5.15,.73-3.62-.28-7.24-3.3-8.09-7.63-.14-.7-.3-1.39-.47-2.21-1.19,1.58-2.3,3.06-3.43,4.53-1.29,1.66-2.82,3.07-4.61,4.17-3.37,2.08-6.55,.98-8.4-2.01-1.48-2.38-1.86-4.94-1.25-7.67,.77-3.42,1.81-6.76,2.74-10.14,.09-.31,.23-.61,.05-1.02-.83,.44-1.18,1.29-1.73,1.94-2.34,2.8-4.65,5.62-6.97,8.44-1.78,2.17-3.28,4.53-4.49,7.07-.53,1.12-1.11,2.22-1.89,3.18-1.42,1.75-4.94,1.56-6.14-.33-.49-.78-.3-1.63-.04-2.45,.5-1.6,1-3.2,1.59-5.11-.93,.46-1.25,1.06-1.65,1.56-1.47,1.83-2.98,3.62-4.83,5.1-3.13,2.51-6.27,2.21-8.87-.91-1.38-1.66-1.93-3.21-2.19-6.38-.58,.96-1.06,1.75-1.54,2.55-1.19,1.95-2.5,3.81-4.19,5.37-3.16,2.92-7.6,1.78-9.04-2.3-.63-1.79-.81-3.78-.54-6.41-.76,.5-1.22,1.21-1.74,1.85-1.64,2.03-3.25,4.08-5.17,5.86-1.56,1.44-3.31,2.58-5.45,2.82-3.72,.42-7.14-2.48-7.84-6.38-.45-2.52,.1-4.91,.62-7.32,2.42-11.03,6.57-21.44,11.29-31.64,1.09-2.36,2.09-4.76,3.47-6.97,.73-1.17,1.62-2.21,2.68-3.09,1.29-1.07,2.68-1.22,4.15-.36,1.78,1.05,3.16,2.54,4.25,4.25,.93,1.45,.8,3.2,.47,4.77-1.67,7.9-4.87,15.07-10.42,21.04-1.83,1.97-3.97,3.57-6.45,4.64-1.09,.47-1.76,1.14-2.04,2.37-.79,3.54-2.15,6.94-2.71,10.54-.11,.72-.19,1.42-.04,2.13,.38,1.71,1.5,2.27,3.03,1.43,.91-.5,1.74-1.14,2.58-1.75,3.43-2.49,6.46-5.47,9.7-8.2,.65-.55,.8-1.27,.98-2.05,1.2-5.12,3.18-9.89,6.64-13.93,1.42-1.66,3.11-2.94,5.22-3.63,1.76-.58,3.43-.51,5.1,.33,1.41,.71,2.61,1.71,3.89,2.6,.31,.21,.53,.55,.94,.59,.39-.32,.41-.8,.6-1.21,.62-1.38,1.6-1.76,3.02-1.22,2.74,1.05,3.89,3.42,3.02,6.31-.4,1.31-1.03,2.52-1.71,3.71-2.16,3.79-4.03,7.72-5.84,11.68-.63,1.38-.87,2.85-1.21,4.3-.04,.19-.03,.39-.03,.58-.02,.67,.04,1.4,.66,1.73,.69,.36,1.37,.02,1.97-.47,3.61-2.9,7.01-6.04,10.14-9.46,.94-1.02,1.58-2.23,2-3.54,1.39-4.25,3.27-8.33,4.5-12.64,.58-2.03,1.54-2.42,3.55-1.73,.43,.15,.86,.3,1.26,.51,1.98,1.05,2.54,2.44,1.71,4.54-1.25,3.13-2.59,6.23-3.85,9.36-.38,.93-.87,1.85-.99,3.02,.9-.4,1.21-1.08,1.63-1.64,3.08-4.12,6.15-8.25,9.46-12.19,1.35-1.61,2.87-3.03,4.7-4.08,1.08-.62,2.24-1.11,3.52-.91,2.34,.36,3.72,2.78,2.82,5.03-.45,1.14-1.08,2.21-1.68,3.29-1.92,3.46-4.05,6.82-5.53,10.52-1,2.49-1.63,5.06-1.87,7.73-.05,.52-.05,1.05,0,1.56,.17,1.82,1,2.29,2.58,1.46,1.1-.58,2.06-1.37,2.96-2.22,2.3-2.13,4.53-4.32,6.64-6.63,.53-.57,.97-1.13,1.09-2,.92-6.45,3.85-11.79,8.92-15.94,1.93-1.59,3.99-2.85,6.49-3.41,1.35-.3,2.63-.19,3.82,.3,3.16,1.3,5.77,5.81,4.81,9.33-1.1,4.03-3.58,6.86-7.09,8.9-2.14,1.24-4.46,2.08-6.83,2.79-1.18,.36-2.33,.79-3.52,1.12-.99,.27-1.55,.73-1.56,1.86,0,.96-.37,1.91-.32,2.9,.13,2.57,1.6,3.7,4.15,3.25,3.23-.58,5.92-2.26,8.59-4.01,3.67-2.42,7.03-5.16,9.27-9.06,1-1.76,1.85-3.58,2.55-5.47,1.28-3.47,2.47-6.97,3.7-10.46,.04-.12,.12-.23,.15-.36,.27-.95,.15-1.15-.83-1.24-1.88-.16-3.76-.29-5.64-.46-.62-.06-1.5,.24-1.74-.51-.24-.73,.42-1.32,.98-1.74,1.47-1.12,3.1-1.9,4.99-1.94,1.17-.02,2.35-.05,3.52,.01,.78,.04,1.15-.27,1.44-.97,1.59-3.98,3.24-7.93,4.83-11.91,.64-1.6,.78-1.69,2.41-1.18,.87,.27,1.71,.62,2.47,1.13,1.84,1.23,2.39,3.07,1.44,5.1-.91,1.94-1.95,3.82-2.91,5.73-.31,.62-.76,1.22-.6,2.24Zm-92.59,10.21c-.82-.04-1.53,.28-2.23,.64-1.9,.96-3.36,2.45-4.62,4.12-3.74,4.94-6.15,10.49-7.26,16.59-.07,.38-.14,.79-.06,1.15,.19,.92,.93,1.27,1.76,.84,.7-.36,1.32-.85,1.81-1.46,3.26-4.04,6.58-8.05,9.17-12.59,1.25-2.2,2.51-4.39,3.8-6.57,.96-1.61,.81-2.04-1.03-2.52-.44-.11-.9-.13-1.34-.2Zm-17.56-19.68c-3.05,4.02-11.34,21.56-11.7,24.57,2.53-1.58,4.37-3.84,5.93-6.35,2.09-3.36,4.26-6.69,5.61-10.46,.9-2.51,1.2-5.03,.17-7.76Zm73.07,33.97c4.31-1.68,7.92-4.34,11.08-7.64,.44-.46,.76-1.05,1.09-1.6,.62-1.04,.75-2.2,.62-3.38-.15-1.42-.95-1.88-2.31-1.36-.92,.35-1.71,.93-2.47,1.53-4.08,3.21-6.23,7.68-8.02,12.46Z"/>
  <path class="cls-2" d="M277.72,88.42v23.78c1.67,.53,3.5-.35,5.1,.57-.17,.95-.8,1.03-1.48,1.04-1.17,0-2.35,0-3.52,0-3.65,0-7.3,0-10.95,0-.73,0-1.44,.01-1.98-.58q.79-.75,4-.98V63.42c-1.63-.49-3.43,.37-4.95-.71,.05-.67,.5-.86,1.05-.93,.13-.02,.26,0,.39,0,7.89,.03,15.78,0,23.67,.11,3.86,.05,7.23,1.47,9.87,4.38,1.62,1.79,2.7,3.81,2.66,6.31-.02,1.56,0,3.13-.02,4.69-.05,3.47-1.67,6.06-4.45,8.02-1.17,.83-2.46,1.45-3.81,2.13,.56,1.58,1.52,2.9,2.31,4.28,3.65,6.37,7.37,12.71,10.99,19.1,.68,1.19,1.46,1.71,2.8,1.55,.91-.11,1.82-.06,2.6,.69-.33,.87-1.06,.76-1.73,.76-5.35,0-10.69,0-16.04,0-.26,0-.52,0-.78-.03-.37-.03-.6-.25-.63-.62-.03-.39,.25-.53,.58-.64,.57-.19,1.16-.16,1.74-.16,.9,0,1.8,0,2.93,0-1.16-2.11-2.18-3.99-3.21-5.85-3.03-5.46-6.09-10.9-9.07-16.38-.67-1.24-1.49-1.83-2.93-1.74-1.68,.1-3.36,.02-5.14,.02Zm-.04-1.3c3.54,0,6.91,.05,10.28-.02,2.31-.04,4.16-.97,5.13-3.22,.46-1.07,.83-2.16,1-3.34,.37-2.59,.42-5.19,.28-7.79-.11-1.94-.16-3.9-.71-5.79-.73-2.49-2.27-3.64-4.85-3.66-3.19-.03-6.38-.04-9.57-.03-.5,0-1.04-.17-1.55,.24v23.6Z"/>
  <path class="cls-2" d="M57.32,91.38c4.75-1.28,8.92-3.24,12.53-6.18,5.23-4.26,9.38-9.36,11.48-15.91,.49-1.51,.69-3.03,.65-4.61-.04-1.86-.8-3.22-2.52-4.05-2.52-1.22-5.18-1.73-7.95-1.54-6.75,.46-12.82,2.8-17.96,7.19-4.52,3.86-7.64,8.65-8.57,14.66-.15,.95-.17,1.92-.26,2.96-1.12-.06-2.13-.26-3.06-.69-2.21-1.04-3.16-3.19-2.58-5.71,.96-4.21,2.99-7.88,5.69-11.19,5.3-6.52,12.32-10.33,20.34-12.21,3.72-.87,7.61-.89,11.35,.52,1.42,.53,2.72,1.24,3.85,2.24,2.2,1.94,4.27,4,6.12,6.3,1.34,1.67,1.64,3.47,1.22,5.49-.96,4.69-3.19,8.77-6.14,12.47-5.87,7.36-13.37,12.24-22.54,14.49-.06,.02-.12,.07-.18,.06-2.81-.13-3.65,1.68-4.3,4.01-1.28,4.62-2.78,9.18-4.2,13.76-.37,1.18-.57,1.25-1.63,.75-1.75-.82-2.62-2.76-2.13-4.95,.78-3.48,1.61-6.94,2.42-10.42,.09-.38,.07-.8,.24-1.14,.38-.77,.05-1.26-.55-1.64-.6-.38-1.24-.7-1.87-1.05-1.45-.8-2.09-2.02-2.01-3.81,2.09,.11,4.01,.83,6.14,.74,.69-2,1.41-4,2.08-6.02,2.1-6.34,4.41-12.6,6.76-18.85,.7-1.86,.83-1.9,2.75-1.24,2.35,.81,3.95,2.62,2.61,5.85-2.47,5.93-4.98,11.83-7.14,17.88-.19,.54-.39,1.08-.65,1.83Z"/>
  <path class="cls-2" d="M334.82,63.26v49.1c1.23,0,2.44,0,3.65,0,.57,0,1.39-.09,1.4,.63,.02,.86-.84,.8-1.48,.81-5.28,0-10.56,0-15.84,0-.59,0-1.17,0-1.51-.76,1.48-1.13,3.24-.47,4.85-.77,.4-1.44,.57-42.89,.18-48.96-1.71-.02-3.45-.04-5.18-.05-3.24,0-3.25,0-4.37,2.96-1.49,3.95-3.42,7.71-4.8,11.71-.17,.5-.37,1.07-1.02,.94-.56-.12-.77-.68-.86-1.2-.07-.38-.03-.78-.03-1.17,0-4.17-.01-8.35-.01-12.52,0-.39-.03-.79,.04-1.17,.12-.64,.48-1.06,1.19-1.04,.46,0,.91-.01,1.37-.01,12.06,0,24.12,0,36.19,0,.33,0,.65-.02,.98,0,1.18,.08,1.47,.34,1.52,1.55,.05,1.04,.02,2.09,.02,3.13,0,3.52,0,7.04,0,10.57,0,.7,.16,1.65-.66,1.82-.81,.17-1.12-.72-1.39-1.38-1.65-4.02-3.28-8.05-4.92-12.08-.15-.36-.3-.72-.43-1.09-.28-.78-.81-1.05-1.65-1.03-2.34,.05-4.69,.02-7.24,.02Z"/>
  <path class="cls-2" d="M261.99,112.99c-.27,.73-.81,.82-1.42,.82-5.21,0-10.43,0-15.64,0-.25,0-.53-.03-.76-.13-.29-.12-.6-.3-.59-.69,.02-.41,.38-.55,.68-.56,1.04-.05,2.08-.03,3.12-.06,.38-.01,.78,.12,1.26-.23-.15-1.34-.73-2.63-1.12-3.97-.94-3.24-1.9-6.47-2.86-9.7-.22-.73-.5-1.18-1.46-1.17-5.28,.06-10.56,.04-15.84,.01-.95,0-1.54,.21-1.83,1.27-1.23,4.36-2.55,8.7-3.83,13.05-.05,.17,.02,.36,.04,.74,1.24,0,2.46-.03,3.68,.01,.48,.02,1.23-.03,1.27,.57,.04,.7-.65,.85-1.27,.85-3,0-6,0-8.99,0-.51,0-.83-.31-1.29-.56,.51-.93,1.37-.88,2.18-.89,2.93-.04,2.32,.45,3.2-2.47,4.71-15.57,9.4-31.15,14.1-46.72,.42-1.38,.41-1.39,1.82-1.4,1.17,0,2.35-.01,3.52,0,1.49,.03,1.63,.13,2.07,1.52,1.24,3.96,2.48,7.91,3.72,11.87,2.58,8.29,5.16,16.58,7.74,24.87,1.12,3.59,2.25,7.17,3.38,10.75q.49,1.55,2.16,1.56c1.02,0,2.06-.12,2.96,.64Zm-26.92-45.29c-2.84,8.82-6.03,17.45-8.62,26.35h17.26c-2.62-8.96-5.7-17.61-8.64-26.35Z"/>
  <path class="cls-1" d="M361.07,65.72c0,1.91-1.52,3.45-3.43,3.49-1.93,.04-3.67-1.67-3.63-3.56,.04-1.91,1.78-3.57,3.7-3.51,1.82,.05,3.37,1.7,3.36,3.59Zm-3.27-2.85c-1.82-.08-3.04,1-3.07,2.73-.04,1.7,1.21,3.01,2.88,3.03,1.45,.02,2.87-1.34,2.95-2.83,.08-1.49-1.21-2.87-2.75-2.93Z"/>
  <path class="cls-1" d="M358.2,67.63l-.86-1.52h-.37v1.52h-.78v-3.91h1.47c.3,0,.56,.05,.77,.16,.21,.11,.37,.25,.48,.43,.11,.18,.16,.38,.16,.61,0,.26-.07,.49-.22,.7-.15,.21-.37,.35-.67,.43l.94,1.59h-.91Zm-1.23-2.11h.66c.21,0,.37-.05,.48-.16s.16-.25,.16-.43-.05-.33-.16-.43c-.1-.1-.26-.15-.48-.15h-.66v1.17Z"/>
</svg>