<?xml version="1.0" encoding="UTF-8"?>
<svg id="Layer_1" data-name="Layer 1" xmlns="http://www.w3.org/2000/svg" viewBox="0 0 400 164">
  <defs>
    <style>
      .cls-1 {
        fill: #feb515;
      }

      .cls-2 {
        fill: #feb517;
      }

      .cls-3 {
        fill: #feb414;
      }
    </style>
  </defs>
  <path class="cls-3" d="M167.87,85.66c-.14,18.08-14.71,32.51-32.7,32.4-17.93-.11-32.38-14.8-32.2-32.74,.18-18.08,14.7-32.24,32.92-32.09,17.69,.15,32.12,14.78,31.99,32.43Zm-32.48-11.59c-6.39,0-11.61,5.19-11.61,11.52,0,6.32,5.24,11.59,11.57,11.61,6.34,.02,11.61-5.17,11.67-11.5,.06-6.39-5.18-11.64-11.62-11.63Z"/>
  <path class="cls-3" d="M178.03,85.62c0-5.03,0-10.06,0-15.1,0-4.5,3.4-6.74,7.6-5.04,.57,.23,1.14,.47,1.66,.79,3.22,1.99,6.5,1.92,9.85,.36,3.98-1.87,8.12-2.1,12.35-1.09,.91,.22,1.81,.55,2.63,.99,3.22,1.69,6.44,1.62,9.7,.18,3.38-1.49,6.92-1.91,10.57-1.67,3.69,.25,6.85,2.6,7.8,5.77,.26,.87,.37,1.75,.37,2.66,0,9.16,.01,18.33,0,27.49,0,3.25-2.22,5.58-5.26,5.59-3.1,.01-5.31-2.33-5.31-5.66,0-7.69,0-15.38,0-23.07,0-1.02-.06-2.04-.22-3.05-.54-3.41-2.76-4.92-6.17-4.22-2.83,.58-4.88,2.21-6.32,4.66-1.59,2.7-2.28,5.68-2.54,8.75-.49,5.8-.11,11.61-.23,17.42-.08,3.89-4.05,6.36-7.52,4.66-2.14-1.05-3.03-2.87-3.03-5.2,0-7.61,0-15.22,0-22.83,0-1.31,0-2.62-.32-3.9-.62-2.55-2.14-3.75-4.76-3.65-4.06,.17-6.84,2.22-8.46,5.88-1.14,2.57-1.69,5.31-1.74,8.1-.11,5.36-.1,10.72-.11,16.08,0,2.28-.65,4.2-2.76,5.37-3.47,1.94-7.73-.46-7.78-4.45-.06-5.28-.02-10.56-.02-15.83h0Z"/>
  <path class="cls-3" d="M272.09,91.46c0,2.95,0,5.89,0,8.84,0,3.93-2.53,6.6-6.33,6.3-.94-.08-1.89,.1-2.82-.12-2.35-.57-3.98-2.51-4.13-5.18-.13-2.28-.07-4.58-.08-6.87,0-3.97,.02-7.94,.02-11.9,0-2.89-1.2-4.38-3.99-5.02-4.49-1.02-6.56-5.52-4.39-9.53,.78-1.45,2.02-2.24,3.63-2.39,3.55-.34,4.66-1.13,4.98-4.61,.68-7.33,6.08-13.62,14.86-15.78,4.72-1.16,9.52-1.03,14.31-.89,3.09,.09,5.25,2.71,5.14,5.77-.11,2.93-2.52,5.16-5.59,5.22-2.99,.06-5.98-.22-8.96,.2-4.17,.59-6.64,4.01-5.97,8.19,.16,1,.7,1.51,1.66,1.67,2.16,.38,4.34,.12,6.5,.2,.94,.03,1.9-.05,2.82,.1,3.14,.51,4.8,2.77,4.63,6.17-.16,3.18-2.2,5.39-5.27,5.56-1.92,.11-3.85,.03-5.78,.06-3.58,.05-5.22,1.73-5.23,5.31,0,2.9,0,5.81,0,8.71h0Z"/>
  <path class="cls-3" d="M75.2,108.81c-5.75-.13-11.6-1.22-17.38-2.83-.72-.2-1.37-.55-1.94-1.03-1.14-.97-1.52-2.31-1.06-3.76,.45-1.41,1.48-2.09,2.9-2.27,2.1-.27,4.03,.53,6.04,.9,3.66,.67,7.26,1.72,11.05,1.36,1.54-.15,2.98-.58,4.2-1.54,2.75-2.15,2.37-6.13-.96-7.36-4.14-1.54-8.19-3.3-12.28-4.95-2.43-.98-4.63-2.29-6.31-4.32-3.76-4.53-3.06-11.29,1.55-15.01,3.21-2.59,7-3.64,11-4.09,5.09-.57,10.14-.35,15.11,.95,1.15,.3,2.28,.66,3.25,1.38,1.48,1.09,1.97,2.6,1.32,4.07-.6,1.35-1.94,1.96-3.74,1.54-2.39-.55-4.71-1.36-7.19-1.5-2.26-.13-4.5-.23-6.71,.37-.96,.26-1.84,.69-2.61,1.32-2.18,1.82-2.19,4.37-.02,6.18,2.08,1.73,4.56,2.69,7.09,3.56,2.63,.9,5.29,1.73,7.88,2.72,3.94,1.5,7.12,3.93,8,8.26,1.22,5.99-.74,10.23-5.9,13.11-4.04,2.26-8.47,2.91-13.29,2.96Z"/>
  <path class="cls-3" d="M297.71,119.8c-1.27-.08-2.22,.05-3.15-.15-2.02-.43-2.97-1.64-2.83-3.65,.11-1.59,1.54-2.96,3.29-3.08,1.8-.12,3.6,.01,5.4-.22,4.95-.64,9.12-4.09,10.12-8.56,.47-2.08,.32-4.09-.69-6.07-4.83-9.47-9.59-18.97-14.38-28.45-.55-1.08-1.11-2.16-.27-3.32,.86-1.2,2.17-1.46,3.51-1.35,2.52,.2,4.47,1.28,5.75,3.6,2.59,4.69,5.29,9.31,7.96,13.96,.53,.92,1.14,1.8,1.94,2.52,1.22,1.09,2.89,1.12,4.14,.07,1.16-.97,1.87-2.26,2.5-3.6,2.05-4.41,4.09-8.82,6.14-13.23,1.14-2.44,3.93-3.79,6.52-3.21,1.97,.45,2.72,1.83,1.9,3.67-5.7,12.75-11.29,25.56-17.17,38.23-4.09,8.8-11.39,12.82-20.68,12.84Z"/>
  <path class="cls-1" d="M339.21,94.01c3.55,.02,6.21,2.72,6.16,6.25-.05,3.5-2.78,6.08-6.38,6.05-3.53-.03-5.97-2.61-5.93-6.26,.04-3.6,2.55-6.06,6.16-6.04Zm-.04,1.45c-2.63-.01-4.56,2-4.55,4.74,.01,2.68,1.92,4.67,4.48,4.68,2.63,.01,4.57-2.01,4.55-4.74-.02-2.68-1.93-4.67-4.49-4.68Z"/>
  <path class="cls-2" d="M341.68,103.01c-2.16,.68-2.01-1.47-3.2-2.29,0,.63,0,1.09,0,1.55,.01,.48,.02,.88-.67,.88-.63,0-.75-.27-.74-.82,.02-1.51,.04-3.02,0-4.53-.02-.65,.22-.88,.85-.82,.61,.05,1.23,0,1.83,.09,.68,.11,1.25,.47,1.44,1.18,.18,.69,0,1.34-.63,1.72-.54,.33-.5,.57-.15,1.02,.46,.61,.82,1.3,1.27,2.02Zm-3.21-4.17c.1,.29-.2,.81,.4,.81,.47,0,.85-.23,.9-.77,.05-.59-.35-.77-.82-.81-.59-.05-.41,.44-.47,.78Z"/>
</svg>