<?xml version="1.0" encoding="UTF-8"?>
<svg id="Layer_1" data-name="Layer 1" xmlns="http://www.w3.org/2000/svg" viewBox="0 0 400 164">
  <path d="M54.69,50.55c20.86,0,41.72,0,62.59-.02,.79,0,1.02,.19,1.01,1-.03,7.19-.02,14.37-.02,21.56v1.27c.64-.76,1.11-1.39,1.64-1.95,3.54-3.78,8-5.12,13.06-4.96,8.12,.26,13.51,5.16,14.54,13.22,.13,1.06,.18,2.11,.18,3.16,0,9.27,0,18.54,.02,27.82,0,.83-.18,1.09-1.05,1.07-2.7-.06-5.4-.06-8.1,0-.91,.02-1.18-.19-1.18-1.14,.04-8.85,.03-17.71,.02-26.57,0-1.8-.25-3.58-1.04-5.24-1.11-2.3-2.96-3.54-5.49-3.85-8.46-1.04-12.63,6.07-12.62,11.64,.02,7.99,0,15.98,.03,23.97,0,.9-.19,1.21-1.15,1.18-2.7-.07-5.4-.07-8.1,0-.98,.03-1.13-.29-1.13-1.18,.03-16.75,0-33.5,.05-50.24,0-1-.27-1.19-1.21-1.19-6.14,.04-12.28,.04-18.42,0-.85,0-1.06,.2-1.05,1.05,.03,16.78,.01,33.56,.04,50.34,0,.94-.18,1.25-1.19,1.22-2.73-.08-5.46-.02-8.2-.03-1.46,0-1.36,.24-1.36-1.31,0-14.57,0-29.13,0-43.7,0-2.18-.04-4.36,.02-6.54,.02-.79-.19-1.03-1-1.02-6.59,.03-13.18,.02-19.77,.02-.38,0-.77,.07-1.12-.16v-9.43Z"/>
  <path d="M233.01,73.74c0-.35,0-.7,0-1.04,0-7.06,.01-14.12-.02-21.18,0-.79,.18-1.04,1-1.03,2.76,.05,5.53,.05,8.29,0,.81-.01,1,.23,1,1.02-.02,14.92-.02,29.84-.02,44.76,0,5.07,0,10.14,0,15.21q0,1.22-1.26,1.22c-2.7,0-5.4-.03-8.1,.02-.74,.01-.93-.23-.91-.93,.05-1.52,.01-3.04,.01-4.86-1.69,2.31-3.65,3.81-5.94,4.89-7.59,3.57-17.74,1.93-23.25-6.69-5.36-8.39-5.18-21.45,.44-29.66,6.29-9.2,18.23-10.03,25.25-4.97,1.28,.92,2.39,2.01,3.5,3.25Zm0,16.55c.05-2.99-.54-6.05-2.2-8.82-2.35-3.95-5.75-6.02-10.47-5.58-4.39,.41-7.07,3-8.75,6.85-.88,2.02-1.25,4.17-1.36,6.35-.18,3.53,.28,6.96,1.86,10.18,3.6,7.33,13.31,7.9,17.88,1.55,2.22-3.1,3.07-6.57,3.03-10.53Z"/>
  <path d="M154.84,98.33c0-4.17-.03-8.34,.01-12.51,.02-2.54,.38-5.05,1.22-7.46,1.71-4.93,5.04-8.29,10.01-9.9,5.62-1.82,11.33-1.86,16.96-.07,6.64,2.12,10.06,6.96,11.12,13.66,.32,2,.37,4.02,.36,6.04,0,7.86-.02,15.72,.02,23.58,0,.87-.25,1.06-1.08,1.05-2.73-.05-5.47-.05-8.2,0-.86,.02-1.13-.18-1.13-1.09,.04-8.25,.02-16.49,.02-24.74,0-1.32-.08-2.62-.42-3.91-.98-3.77-3.73-6.18-7.62-6.6-1.67-.18-3.34-.09-4.95,.45-3.45,1.14-5.68,4.22-5.95,8.2-.03,.45-.03,.9-.03,1.35,0,8.47,0,16.94,.01,25.41,0,.69-.14,.94-.89,.93-2.86-.05-5.72-.04-8.58,0-.73,.01-.92-.19-.91-.91,.03-4.49,.02-8.98,.02-13.48Z"/>
  <path d="M316.2,56.4c2.92,0,5.85,0,8.77,0,1.98,0,2.78,1.18,2.09,3.05-.63,1.68-1.28,3.35-1.91,5.02-.42,1.11-.16,1.47,1.04,1.47,5.94,0,11.89,0,17.83,0,.51,0,1.09-.11,1.25,.58,.17,.73-.41,.91-.91,1.14-11.64,5.37-23.29,10.73-34.93,16.1-.44,.2-.87,.48-1.33,.07-.47-.41-.23-.87-.06-1.32,.74-1.94,1.49-3.89,2.22-5.83,.41-1.09,.15-1.47-1.05-1.47-2.86,0-5.72,0-8.58,0-1.18,0-1.37-.28-.96-1.38,2.01-5.47,4.03-10.93,6.01-16.41,.29-.81,.73-1.06,1.56-1.04,2.99,.04,5.98,.02,8.96,.02Z"/>
  <path d="M276.7,112.7c-1.29,0-2.57-.05-3.85,.02-.88,.05-1.01-.17-.71-.99,1.92-5.16,3.8-10.32,5.69-15.49,5.43-14.91,10.87-29.82,16.27-44.74,.31-.86,.76-1.09,1.59-1.08,2.57,.04,5.14,.04,7.71,0,.81-.01,.88,.17,.61,.89-3.4,9.25-6.77,18.52-10.14,27.78-3.97,10.88-7.95,21.75-11.89,32.64-.28,.76-.62,1.04-1.43,1-1.28-.07-2.57-.02-3.85-.02Z"/>
  <path d="M250.49,97.97c0-4.49-.15-8.99,.04-13.47,.22-5.1,1.87-9.68,5.99-13.05,3.1-2.53,6.77-3.57,10.67-3.94,1.34-.13,2.69-.11,4.04-.19,.57-.03,.8,.13,.8,.74-.03,2.57-.02,5.13,0,7.7,0,.59-.19,.78-.78,.76-1.45-.05-2.89,.02-4.29,.46-3.61,1.15-5.44,3.77-6.04,7.38-.18,1.04-.21,2.1-.2,3.16,0,8.05-.01,16.11,.03,24.16,0,.87-.24,1.06-1.07,1.04-2.7-.05-5.4-.05-8.1,0-.85,.02-1.14-.17-1.13-1.09,.05-4.56,.02-9.11,.02-13.67h.03Z"/>
</svg>