<?xml version="1.0" encoding="UTF-8"?>
<svg id="Layer_1" data-name="Layer 1" xmlns="http://www.w3.org/2000/svg" viewBox="0 0 400 164">
  <defs>
    <style>
      .cls-1 {
        fill: #223657;
      }
    </style>
  </defs>
  <path class="cls-1" d="M115.67,114.14c-1.18-.24-2.39-.32-3.56-.62-3.48-.9-6.49-2.52-8.64-5.5-4.1-5.66-3.28-17.01,7.54-19.84,1.58-.42,3.2-.63,4.84-.63,4.36,0,8.71-.02,13.07,0,.53,0,.66-.14,.65-.66-.04-1.42,0-2.84-.02-4.26-.04-2.74-1.2-4.25-3.83-5.02-1.99-.59-4.04-.64-6.09-.63-1.78,0-3.55,.12-5.28,.63-1.01,.3-1.94,.76-2.77,1.42-.85,.68-1.57,.67-2.35-.06-1.24-1.15-2.48-2.31-3.7-3.49-.82-.78-.79-1.61,.05-2.36,2.46-2.19,5.38-3.45,8.6-3.96,5.23-.83,10.44-.66,15.52,.94,5.51,1.74,8.67,5.91,8.99,11.68,.04,.77,.07,1.55,.07,2.32,0,9.14,0,18.27,0,27.41,0,1.66-.45,2.11-2.13,2.11-1.7,0-3.39,0-5.09,0-1.49,0-1.98-.49-1.98-2,0-.61,0-1.21,0-1.82,0-.1,.02-.22-.11-.26-.13-.04-.19,.06-.25,.14-2.02,2.82-5.04,3.69-8.23,4.25-.38,.07-.79-.03-1.13,.22h-4.15Zm7.43-19.45s0,0,0,.01c-1.88,0-3.77-.03-5.65,.01-1.7,.04-3.38,.28-4.92,1.08-2.59,1.35-3.48,4.53-1.94,6.97,.82,1.3,2.07,2.07,3.51,2.47,3.7,1.03,7.41,.89,11.09-.13,2.48-.68,3.83-2.4,4.2-4.92,.24-1.65,.11-3.3,.17-4.95,.02-.43-.1-.56-.55-.56-1.97,.02-3.94,.01-5.91,.01Z"/>
  <path class="cls-1" d="M298.53,114.14c-1.03-.16-2.06-.27-3.08-.47-7.71-1.49-12.62-6.05-14.54-13.63-1.6-6.31-1.56-12.66,.58-18.84,2.55-7.38,7.84-11.54,15.65-12.36,4.9-.52,9.46,.55,13.5,3.41,4.28,3.02,6.66,7.23,7.5,12.34,.47,2.87,.23,5.76,.27,8.64,0,.65-.4,1.1-1.04,1.24-.28,.06-.58,.07-.87,.07-8.33,0-16.67,0-25,0-.21,0-.42,0-.63,0-1.22,.01-1.69,.53-1.63,1.76,.24,4.52,3.24,8.1,7.74,9.19,4.47,1.07,8.53,.08,12.22-2.58,.22-.16,.43-.34,.66-.48,.59-.37,1.3-.32,1.78,.18,1.38,1.43,2.75,2.87,4.09,4.34,.58,.63,.47,1.38-.22,1.98-3.01,2.57-6.48,4.17-10.38,4.86-.82,.14-1.64,.25-2.46,.38h-4.15Zm.6-26.6c2.76,0,5.52,0,8.29,0,1.14,0,1.69-.6,1.56-1.68-.25-1.96-.85-3.8-2.09-5.35-2.61-3.29-6.14-4.03-10.04-3.28-4.17,.8-6.9,3.99-7.5,8.42-.18,1.33,.32,1.9,1.69,1.9,2.7,0,5.4,0,8.1,0Z"/>
  <path class="cls-1" d="M205.28,114.14c-.71-.26-1.46-.24-2.19-.35-5.1-.78-9.64-2.82-13.71-5.94-.83-.64-.92-1.48-.23-2.28,1.12-1.33,2.26-2.64,3.4-3.95,.82-.94,1.64-1.03,2.62-.23,2.01,1.65,4.22,2.94,6.74,3.62,3.82,1.04,7.66,1.3,11.52,.22,.89-.25,1.72-.66,2.46-1.21,1.63-1.22,2.24-2.87,1.93-4.85-.19-1.24-.93-2.13-2.03-2.7-1.57-.82-3.29-1.08-5.01-1.27-2-.21-4.02-.17-6.02-.26-2.99-.13-5.84-.79-8.46-2.27-4.59-2.6-6.37-6.91-5.89-11.69,.59-5.93,4.2-9.32,9.6-11.13,2.87-.96,5.85-1.21,8.86-1.13,4.07,.11,8.03,.76,11.75,2.5,1.21,.57,2.37,1.23,3.48,1.99,.84,.58,.99,1.39,.4,2.22-.96,1.34-1.95,2.67-2.93,4-.94,1.27-1.53,1.4-2.91,.58-1.97-1.17-4.04-2.1-6.29-2.57-2.96-.61-5.94-.76-8.89,.07-2.42,.68-3.75,2.35-3.84,4.6-.07,1.73,.71,2.92,2.21,3.68,1.53,.78,3.2,.94,4.88,.97,3.44,.05,6.85,.41,10.23,1.04,1.95,.36,3.78,1.06,5.44,2.16,3.06,2.04,4.35,5.06,4.72,8.58,.43,4.11-.61,7.7-3.7,10.57-2.05,1.9-4.5,3.09-7.15,3.89-1.83,.55-3.7,.88-5.6,1.03-.12,0-.26-.04-.33,.11h-5.03Z"/>
  <path class="cls-1" d="M360.86,112.63c-.41,.77-1.04,1.02-1.9,1-2.28-.04-4.57-.03-6.85,0-.77,0-1.29-.27-1.72-.91-2.68-4.04-5.4-8.05-8.09-12.08-.35-.53-.77-.86-1.43-.83-.59,.03-.94,.38-1.24,.84-2.67,3.99-5.36,7.98-8.01,11.98-.48,.73-1.06,1.03-1.92,1.02-2.3-.04-4.61-.02-6.91,0-.65,0-1.21-.14-1.54-.76-.31-.6-.08-1.11,.28-1.62,4.5-6.39,9-12.78,13.49-19.18,.67-.96,.68-1.29,0-2.25-4.26-6.07-8.52-12.15-12.79-18.22-.27-.38-.53-.75-.47-1.25,.07-.63,.57-1.16,1.26-1.17,2.64-.02,5.28-.01,7.91,0,.59,0,.93,.4,1.22,.86,2.48,3.85,4.97,7.68,7.44,11.53,.28,.44,.6,.8,1.16,.87,.71,.09,1.18-.26,1.55-.84,2.44-3.79,4.91-7.57,7.33-11.38,.48-.76,1.04-1.09,1.94-1.08,2.3,.04,4.61,.02,6.91,0,.65,0,1.21,.11,1.54,.74,.34,.64,.06,1.15-.31,1.67-4.28,6.09-8.55,12.18-12.82,18.27-.67,.96-.67,1.24,0,2.19,4.5,6.39,8.99,12.79,13.48,19.18,.18,.25,.32,.53,.48,.8v.63Z"/>
  <path class="cls-1" d="M145.88,91.38c0-6.67,0-13.34,0-20.01,0-1.7,.51-2.2,2.21-2.2,1.72,0,3.43,0,5.15,0,1.33,0,1.91,.6,1.91,1.92,0,.79,0,1.59,0,2.38,0,.17-.12,.42,.11,.49,.17,.05,.27-.17,.37-.29,1.17-1.34,2.52-2.45,4.12-3.24,7.07-3.49,16.59-1.75,21.18,5.44,1.62,2.54,2.26,5.35,2.26,8.34,0,9.16,0,18.32,0,27.47,0,1.3-.63,1.92-1.92,1.93-1.74,0-3.48,0-5.21,0-1.56,0-2.13-.56-2.13-2.1,0-7.99,0-15.97,0-23.96,0-1.45-.14-2.88-.63-4.26-1.22-3.42-4.2-5.59-7.97-5.79-2.95-.15-5.62,.53-7.72,2.74-1.88,1.99-2.46,4.45-2.46,7.1,0,7.97,0,15.93,0,23.9,0,.21,0,.42,0,.63-.03,1.03-.65,1.71-1.68,1.72-1.97,.03-3.94,.03-5.91,0-1-.01-1.63-.67-1.69-1.66-.01-.21,0-.42,0-.63,0-6.65,0-13.3,0-19.95Z"/>
  <path class="cls-1" d="M257.95,95.26c0-5.52,0-11.04,0-16.56,0-1.31-.42-1.73-1.72-1.73-1.38,0-2.76,0-4.15,0-1.18,0-1.67-.51-1.67-1.69,0-1.48,0-2.97,0-4.45,0-1.06,.52-1.57,1.58-1.58,1.4,0,2.81,0,4.21,0,1.33,0,1.73-.43,1.75-1.78,.03-1.94-.08-3.89,.09-5.83,.45-5.44,3.91-9.2,9.31-10.12,2.66-.45,5.35-.23,8.02-.25,.73,0,1.24,.54,1.26,1.3,.03,1.86,.03,3.72,0,5.58-.01,.82-.58,1.29-1.45,1.31-1.51,.04-3.02-.09-4.52,.07-1.87,.2-2.99,1.23-3.28,3.07-.28,1.81-.13,3.63-.11,5.45,0,.72,.62,1.18,1.44,1.18,2.05,.01,4.1,0,6.16,0,1.31,0,1.78,.47,1.78,1.77,0,1.42,0,2.84,0,4.26,0,1.18-.5,1.69-1.67,1.69-2.03,0-4.06,0-6.09,0-1.17,0-1.63,.47-1.63,1.64,0,11.06,0,22.12,0,33.18,0,1.41-.42,1.83-1.83,1.83-1.93,0-3.85,0-5.78,0-1.18,0-1.68-.5-1.68-1.68,0-5.56,0-11.12,0-16.68Z"/>
  <path class="cls-1" d="M46.68,90.95c0-4.14,0-8.28,0-12.42,0-1.17-.4-1.57-1.59-1.57-1.47,0-2.93,0-4.4,0-1.12,0-1.55-.44-1.55-1.56,0-1.57,0-3.14,0-4.7,0-.98,.47-1.45,1.47-1.45,1.53,0,3.06,0,4.59,0,1.05,0,1.48-.44,1.48-1.49,0-3.51,0-7.02,0-10.54,0-1.04,.44-1.5,1.48-1.51,2.09-.01,4.19-.01,6.28,0,1.08,0,1.53,.47,1.53,1.53,0,3.47,0,6.94,0,10.41,0,1.22,.38,1.59,1.62,1.6,1.24,0,2.47,0,3.71,0,1.06,0,1.5,.43,1.5,1.48,0,1.59,0,3.18,0,4.77,0,1.04-.44,1.47-1.5,1.48-1.28,0-2.55,0-3.83,0-1.08,0-1.49,.41-1.49,1.47,0,7.53,0,15.05,0,22.58,0,.91,.11,1.79,.52,2.62,.55,1.11,1.46,1.69,2.7,1.72,.77,.02,1.55,0,2.32,0,.85,.01,1.28,.44,1.28,1.28,0,1.88,0,3.76,0,5.64,0,.77-.42,1.31-1.14,1.31-2.61,0-5.23,.23-7.79-.56-4.03-1.25-6.63-4.41-7.08-8.6-.19-1.71-.09-3.42-.1-5.14-.02-2.78,0-5.56,0-8.34Z"/>
  <path class="cls-1" d="M70.93,91.36c0-6.84,0-13.67,0-20.51,0-1.26,.42-1.69,1.69-1.69,1.99,0,3.98,0,5.97,0,1.17,0,1.63,.46,1.63,1.64,0,.88,0,1.76,0,2.63,0,.15-.1,.37,.12,.43,.19,.06,.29-.13,.4-.25,2.23-2.49,5.01-4.01,8.29-4.59,3.85-.69,7.58-.39,11.08,1.54,1.05,.58,1.21,1.27,.5,2.24-1.32,1.8-2.65,3.6-3.98,5.4-.76,1.03-1.3,1.14-2.39,.48-3.68-2.23-9.33-1.37-12,1.84-1.38,1.66-1.99,3.62-2,5.74-.04,4.93-.02,9.87-.02,14.8,0,3.62,0,7.23,0,10.85,0,1.19-.48,1.68-1.67,1.68-1.99,0-3.98,0-5.97,0-1.2,0-1.66-.47-1.66-1.68,0-6.86,0-13.72,0-20.57Z"/>
  <path class="cls-1" d="M245.13,91.42c0,6.69,0,13.38,0,20.07,0,1.48-.65,2.13-2.15,2.13-1.67,0-3.35,0-5.02,0-1.43,0-2.11-.69-2.11-2.12,0-13.38,0-26.76,0-40.13,0-1.44,.68-2.12,2.1-2.13,1.72,0,3.43,0,5.15,0,1.37,0,2.03,.68,2.03,2.05,0,6.71,0,13.42,0,20.13Z"/>
  <path class="cls-1" d="M240.45,61.33c-3.24-.02-5.89-2.43-6-5.46-.13-3.61,3.22-6.51,6.87-5.93,2.88,.45,5.01,2.57,5.19,5.14,.25,3.51-2.43,6.27-6.06,6.25Z"/>
</svg>