<?xml version="1.0" encoding="utf-8"?>
<!-- Generator: Adobe Illustrator 19.0.0, SVG Export Plug-In . SVG Version: 6.00 Build 0)  -->
<svg version="1.1" id="Layer_1" xmlns="http://www.w3.org/2000/svg" xmlns:xlink="http://www.w3.org/1999/xlink" x="0px" y="0px"
	 viewBox="-15.3 206 332.7 90" style="enable-background:new -15.3 206 332.7 90;" xml:space="preserve">
<style type="text/css">
	.st0{fill:#FFFFFF;}
</style>
<g>
	<g>
		<path class="st0" d="M269.6,260.2c1.1,0.8,1.7,1.9,2.2,3.1c0.5,1.5,1.2,3,1.8,4.5c0.8,2.1,1.7,4.3,2.5,6.4
			c0.1,0.3,0.2,0.6,0.3,0.9c-0.2,0.2-0.4,0.1-0.6,0.1c-2.3,0-4.6,0-6.9,0c-0.6,0-0.8-0.2-1-0.7c-0.9-2.4-1.9-4.7-2.9-7.1
			c-0.4-0.9-0.8-1.7-1.2-2.6c-0.4-0.8-1.1-1.2-2-1.2c-0.7,0-1.4-0.1-2.1,0.1c-0.1,0.6-0.1,1.3-0.1,1.9c0,2.9,0,5.8,0,8.7
			c0,0.9,0.1,0.9-0.8,0.9c-2.1,0-4.3,0-6.4,0c-0.8,0-0.8,0-0.8-0.9c0-4.5,0-8.9,0-13.4c0-5.3,0-10.7,0-16c0-0.2,0-0.4,0-0.6
			c0-0.3,0.1-0.5,0.5-0.5c0.2,0,0.3,0,0.5,0c4.6,0,9.3,0,13.9,0c2.4,0,4.3,1,5.8,2.9c1.5,1.9,1.9,4,1.8,6.3c0,1-0.2,1.9-0.5,2.8
			c-0.3,1-0.9,1.8-1.7,2.4C271.2,259,270.4,259.6,269.6,260.2L269.6,260.2z M259.7,253.8c0,0.9,0,1.7,0,2.6c0,0.4,0.1,0.5,0.5,0.5
			c0.9,0,1.8,0,2.7,0c1.6,0,2.4-0.6,3-2c0.7-1.7-0.7-4.1-2.6-4.1c-1,0-2,0-3,0c-0.6,0-0.6,0-0.6,0.6
			C259.7,252.2,259.7,253,259.7,253.8L259.7,253.8z"/>
		<path class="st0" d="M130.4,275.2c0.6-1.6,1.1-3.1,1.6-4.6c1.4-4.1,2.9-8.2,4.3-12.3c1.1-3.1,2.2-6.3,3.3-9.5
			c0.5-1.5,1.1-3,1.6-4.5c0.1-0.3,0.3-0.4,0.6-0.4c2.7,0,5.4,0,8.1,0c0.3,0,0.5,0.1,0.6,0.4c0.5,1.7,1.2,3.3,1.7,5.1
			c0.6,1.8,1.3,3.5,1.9,5.3c1,2.8,1.9,5.6,2.9,8.4c1.3,3.7,2.6,7.4,3.9,11.1c0.1,0.3,0.3,0.7,0.3,1c-0.2,0.2-0.4,0.1-0.7,0.1
			c-2.4,0-4.8,0-7.2,0c-0.8,0-0.8,0-0.9-0.7c-0.4-1.4-0.8-2.8-1.2-4.3c-0.1-0.4-0.3-0.6-0.7-0.5c-3.1,0-6.1,0-9.2,0
			c-0.5,0-0.6,0.2-0.8,0.6c-0.5,1.5-1,3-1.5,4.4c-0.1,0.3-0.2,0.5-0.6,0.5c-2.5,0-5.1,0-7.6,0C130.7,275.3,130.6,275.3,130.4,275.2
			L130.4,275.2z M145.8,253.5c-0.9,3-2,5.8-2.7,8.7h5.6C147.7,259.4,146.8,256.5,145.8,253.5L145.8,253.5z"/>
		<path class="st0" d="M87,275.3c-2.8,0-5.5,0-8.2,0c-0.4,0-0.5-0.1-0.6-0.5c-0.4-1.4-0.8-2.7-1.1-4.1c0-0.1-0.1-0.3-0.1-0.4
			c-0.1-0.4-0.3-0.6-0.7-0.6c-3.1,0-6.2,0-9.3,0c-0.6,0-0.7,0.3-0.8,0.7c-0.3,1.4-0.9,2.7-1.4,4.1c-0.3,0.7-0.3,0.7-1.1,0.7
			c-2.3,0-4.6,0-6.9,0c-0.1,0-0.2,0-0.3,0c0-0.1-0.1-0.2-0.1-0.2c0.8-2.4,1.7-4.8,2.5-7.2c0.9-2.7,1.9-5.3,2.8-8
			c0.5-1.7,1.3-3.3,1.8-5c0.8-2.6,1.9-5,2.6-7.6c0.3-0.9,0.7-1.7,0.9-2.6c0.1-0.5,0.4-0.6,0.8-0.6c2.3,0,4.7,0,7,0
			c0.5,0,1.1-0.2,1.4,0.1c0.3,0.3,0.3,0.8,0.5,1.3c1.6,4.5,3.1,9,4.7,13.6c1.1,3.2,2.2,6.5,3.3,9.7C85.5,270.8,86.2,273,87,275.3
			L87,275.3z M74.4,262.3c-0.9-2.9-1.8-5.8-2.8-8.9c-1,3.1-1.9,5.9-2.8,8.9H74.4L74.4,262.3z"/>
		<path class="st0" d="M278.6,275.2c0.5-1.6,1.1-3,1.6-4.5c1.2-3.5,2.5-7.1,3.7-10.6c0.9-2.6,1.9-5.2,2.8-7.8c0.9-2.6,2-5.1,2.7-7.8
			c0.1-0.3,0.3-0.5,0.7-0.5c2.7,0,5.3,0,8,0c0.5,0,0.6,0.3,0.7,0.6c0.8,2.4,1.6,4.7,2.4,7.1c1.1,3.3,2.3,6.6,3.4,9.9
			c1.2,3.4,2.3,6.8,3.5,10.2c0.3,0.9,0.6,1.7,0.9,2.6c0.1,0.3,0.2,0.6,0.1,1c-0.2,0.1-0.4,0.1-0.6,0.1c-2.4,0-4.8,0-7.2,0
			c-0.7,0-0.7,0-0.9-0.7c-0.3-1.4-0.8-2.8-1.2-4.3c-0.1-0.5-0.4-0.6-0.8-0.6c-1.4,0-2.7,0-4.1,0c-1.6,0-3.2,0-4.9,0
			c-0.7,0-0.8,0-1,0.7c-0.5,1.4-1.1,2.8-1.4,4.3c-0.1,0.3-0.2,0.6-0.6,0.6c-2.5,0-5.1,0-7.6,0C278.8,275.3,278.8,275.2,278.6,275.2
			L278.6,275.2z M296.7,262.3c-0.9-2.9-1.7-5.8-2.8-8.7c-0.9,3-2,5.8-2.7,8.7H296.7L296.7,262.3z"/>
		<path class="st0" d="M177.3,268.4c0.4,0.1,0.6,0.1,0.9,0.1c3.3,0,6.5,0,9.8,0c0.7,0,0.7,0,0.7,0.7c0,1.8,0,3.6,0,5.4
			c0,1,0.1,0.9-0.9,0.9c-4.9,0-9.8,0-14.6,0c-2,0-4,0-6.1,0c-0.8,0-0.8,0-0.8-0.7c0-2.2,0-4.5,0-6.7c0-0.4,0.1-0.7,0.3-1
			c2.2-3.2,4.3-6.4,6.5-9.5c1.4-2,2.8-4,4.1-6c0.1-0.2,0.3-0.4,0.3-0.7c-0.3-0.2-0.6-0.1-0.9-0.1c-3,0-6,0-8.9,0c-0.2,0-0.4,0-0.7,0
			c-0.2,0-0.3-0.1-0.3-0.3c0-0.1,0-0.3,0-0.4c0-1.7,0-3.5,0-5.2c0-0.8-0.1-0.8,0.8-0.8c5.5,0,11,0,16.4,0c1.2,0,2.4,0,3.7,0
			c0.6,0,0.6,0,0.6,0.7c0,2.3,0,4.6,0,6.9c0,0.4-0.1,0.7-0.3,1c-3.1,4.5-6.2,9-9.3,13.5C178.3,266.8,177.9,267.6,177.3,268.4
			L177.3,268.4z"/>
		<path class="st0" d="M223.7,259.7c0-4.9,0-9.8,0-14.7c0-0.2,0-0.4,0-0.7c0-0.3,0.1-0.4,0.4-0.4c0.2,0,0.3,0,0.5,0
			c6.1,0,12.2,0,18.3,0c0.1,0,0.1,0,0.2,0c0.8,0,0.7-0.1,0.7,0.7c0,1.7,0,3.3,0,5c0,1,0.1,1-0.9,1c-3.4,0-6.7,0-10,0
			c-0.2,0-0.4,0-0.6,0c-0.5-0.1-0.6,0.2-0.6,0.6c0,1.6,0,3.2,0,4.8c0,0.6,0,0.6,0.6,0.6c2.9,0,5.7,0,8.6,0c1.2,0,1-0.1,1,1.1
			c0,1.5,0,3,0,4.5c0,1.1,0.1,1-0.9,1c-2.8,0-5.6,0-8.4,0c-0.2,0-0.3,0-0.5,0c-0.4-0.1-0.5,0.1-0.5,0.5c0,1.2,0,2.4,0,3.7
			c0,0.5-0.2,1.1,0.1,1.4c0.3,0.3,0.9,0.1,1.4,0.1c3.5,0,7.1,0,10.6,0c0.2,0,0.4,0,0.6,0c0.4,0,0.6,0.1,0.6,0.5c0,1.9,0,3.7,0,5.5
			c0,0.4-0.1,0.5-0.5,0.5c-0.2,0-0.3,0-0.5,0c-6.4,0-12.8,0-19.2,0c-0.2,0-0.3,0-0.5,0c-0.3,0-0.5-0.1-0.5-0.4c0-0.2,0-0.4,0-0.6
			C223.7,269.5,223.7,264.6,223.7,259.7L223.7,259.7z"/>
		<path class="st0" d="M195.9,259.7c0-4.9,0-9.8,0-14.7c0-0.2,0-0.4,0-0.7c0-0.3,0.1-0.4,0.4-0.4c0.2,0,0.4,0,0.6,0
			c6.1,0,12.2,0,18.2,0c0.2,0,0.3,0,0.5,0c0.3,0,0.5,0.1,0.5,0.4c0,2,0,3.9,0,5.9c0,0.3-0.2,0.4-0.5,0.4c-0.6,0-1.1,0-1.7,0
			c-3,0-6.1,0-9.1,0c-0.2,0-0.4,0-0.6,0c-0.3,0-0.4,0.2-0.4,0.5c0,1.7,0,3.4,0,5c0,0.6,0.4,0.5,0.7,0.5c2.4,0,4.8,0,7.2,0
			c0.6,0,1.3,0,2,0c0.4,0,0.5,0.1,0.5,0.5c0,1.9,0,3.7,0,5.5c0,0.5,0,0.5-0.7,0.5c-2.9,0-5.8,0-8.7,0c-1.3,0-1.1-0.2-1.1,1.1
			c0,1.3,0,2.5,0,3.8c0,0.8-0.2,0.9,0.9,0.9c3.7,0,7.4,0,11.2,0c0.2,0,0.5,0,0.7,0c0.4,0,0.6,0.1,0.6,0.6c0,1.3,0,2.7,0,4
			c0,0.5,0,1,0,1.4c0,0.4-0.1,0.6-0.5,0.5c-0.1,0-0.3,0-0.4,0c-6.4,0-12.7,0-19.1,0c-0.2,0-0.3,0-0.5,0c-0.3,0-0.5-0.1-0.5-0.4
			c0-0.2,0-0.4,0-0.6C195.9,269.5,195.9,264.6,195.9,259.7L195.9,259.7z"/>
		<path class="st0" d="M125.6,260.1c0,4.2,0,8.4,0,12.6c0,1.3,0,2.5,0.1,3.8c0.1,1.7-0.3,3.4-0.9,5c-0.6,1.4-1.3,2.6-2.4,3.6
			c-1.5,1.4-3.4,2.1-5.5,2.2c-2,0.1-3.8-0.4-5.6-1.1c-0.4-0.2-0.9-0.3-1.3-0.5c-0.3-0.1-0.4-0.3-0.3-0.7c0.5-1.9,1-3.8,1.5-5.7
			c0.1-0.3,0.3-0.4,0.6-0.3c0.5,0.2,0.9,0.4,1.5,0.4c1.4,0.2,2.5-0.3,3.4-1.4c0.9-1.2,1.3-2.6,1.1-4.1c0-0.3,0-0.6,0-0.9
			c0-5.2,0-10.4,0-15.7c0-4.2,0-8.3-0.1-12.5c0-0.2,0-0.3,0-0.5c0-0.6,0-0.7,0.7-0.7c2.2,0,4.4,0,6.6,0c0.7,0,0.7,0,0.7,0.8
			C125.5,249.8,125.5,255,125.6,260.1L125.6,260.1z"/>
		<path class="st0" d="M92.3,259.6c0-4.8,0-9.7,0-14.5c0-0.2,0-0.4,0-0.6c-0.1-0.5,0.2-0.6,0.6-0.6c2.2,0,4.5,0,6.7,0
			c0.4,0,0.6,0.2,0.5,0.5c0,0.2,0,0.4,0,0.6c0,7.4,0,14.8,0,22.2c0,0.1,0,0.2,0,0.3c0,0.9-0.1,0.8,0.8,0.8c2.8,0,5.6,0,8.4,0
			c0.8,0,0.8,0,0.8,0.8c0,1.8,0,3.5,0,5.3c0,0.6,0,0.7-0.7,0.7c-5.5,0-11.1,0-16.6,0c-0.7,0-0.7,0-0.7-0.7
			C92.3,269.5,92.3,264.5,92.3,259.6C92.3,259.6,92.3,259.6,92.3,259.6L92.3,259.6z"/>
	</g>
	<g>
		<path class="st0" d="M-7.1,257.2c0.3-0.5,0.2-1,0.3-1.5c0.6-4,2.6-7.2,5.5-9.9c1.8-1.6,3.9-2.9,5.9-4.2c1.6-1,3.2-1.9,4.8-2.9
			c1.3-0.8,2.4-1.7,3.4-2.8c0.8-0.9,1.3-2,1.3-3.3c0-0.1,0-0.2-0.1-0.2c-0.2,0-0.3,0.2-0.4,0.2c-1,0.6-2.2,0.5-3-0.2
			c-1-0.8-1.1-2.1-0.7-3c0.7-1.5,2.8-1.9,4-0.8c0.5,0.5,0.8,1,1,1.7c0.3,0.9,0.5,1.9,0.6,2.8c0.2,1.9,0.3,3.9,0.1,5.8
			c-0.2,1.8-0.8,3.6-1.5,5.2c-1.2,2.6-2.4,5.1-3.6,7.7c-1.6,3.5-2.8,7.1-3.5,10.8c-0.6,2.9-0.9,5.9-0.8,8.9c0,1.8,0.2,3.6,0.6,5.3
			c0.1,0.6-0.1,1-0.6,1.3c-0.3,0.2-0.4,0.1-0.4-0.2c-0.1-0.6-0.3-1.3-0.3-1.9c-0.6-3.9-0.7-7.8-0.4-11.7c0.3-3.6,1.2-7,2.3-10.4
			c1.1-3.3,2.7-6.4,4.2-9.6c0.9-1.9,1.8-3.8,2.4-5.7c0.1-0.4,0.3-0.9,0.2-1.3c-0.1,0-0.2,0-0.2,0.1c-0.8,1.4-2,2.3-3.3,3.2
			c-2,1.4-4,2.7-5.9,4.1c-2.4,1.6-4.6,3.5-6.4,5.7c-2.3,3-3.5,6.4-3.4,10.2c0,0.7,0,1.4,0.2,2.1c0,0.2,0.1,0.5,0.2,0.7
			c0.3-0.1,0.3-0.4,0.4-0.7c0.3-0.8,0.6-1.4,1.2-2c1.2-1.3,2.9-1.4,4.2-0.2c0.6,0.6,1.1,1.3,1.5,2c1.1,2,1.6,4.2,1.5,6.5
			c0,0.5-0.1,0.9-0.2,1.3c-0.6,2-1.9,2.4-3.5,2.1c-0.8-0.1-1.4-0.5-2-1c-0.5-0.4-0.9-0.8-1.4-1.2c-0.1-0.1-0.2-0.2-0.4-0.3
			c0,1.8,0.2,3.6,0.9,5.3c0.3,0.8,0.7,1.6,1.3,2.4c2.1,3,6.4,2.7,8.4,0.3c0.8-0.9,1.4-2,1.8-3.2c0.7-1.9,1.1-4,1.4-6
			c0.2-1.2,0.3-2.4,0.6-3.6c0.2-1.2,0.8-2.1,1.8-2.9c1.2-1,2.3-2.1,3.4-3.2c0.3-0.4,0.7-0.7,1-1.1c0.1-0.2,0.3-0.4,0.5-0.5
			c0.2,0.3,0.2,0.6,0.2,1c0.2,1,0.3,1.9,0.4,2.9c0.1,0.7-0.1,1.3-0.5,1.8c-0.8,1.1-1.9,1.9-2.8,2.8c-0.6,0.5-1.1,1.1-1.7,1.6
			c-0.4,0.4-0.6,0.9-0.7,1.4c-0.2,1.5-0.3,2.9-0.5,4.4c-0.3,2-0.6,3.9-1.3,5.8c-0.2,0.7-0.5,1.3-0.9,1.9c-1.3,2.2-3.4,3-5.8,2.7
			c-2.1-0.2-3.7-1.4-5.1-2.9c-2-2.2-3-4.8-3.5-7.6c-0.3-1.4-0.4-2.9-0.4-4.3c0-1.2-0.2-2.3-0.7-3.4c-0.7-1.6-1.1-3.3-1.3-5
			c0-0.3-0.1-0.6-0.2-0.9L-7.1,257.2L-7.1,257.2z M-0.7,268.3c0.6,0,1.2-0.1,1.7-0.5c1-0.8,1.6-1.9,0.5-3.1c-0.5-0.5-1-0.6-1.7-0.4
			c-0.3,0.1-0.5,0.2-0.8,0.4c-0.8,0.6-1.4,1.4-1.8,2.4c-0.1,0.4-0.1,0.5,0.3,0.7C-2,268.1-1.4,268.3-0.7,268.3L-0.7,268.3z"/>
		<path class="st0" d="M33.4,253.7c-0.2,0-0.3,0.1-0.4,0.2c-1.3,1.2-2.8,2.2-4.2,3.3c-1,0.8-2,1.6-2.8,2.7c-0.1,0.1-0.2,0.3-0.4,0.3
			c0-0.1-0.1-0.1-0.1-0.2c-0.4-1-0.8-2.1-1-3.2c-0.2-1,0-1.9,0.6-2.7c0.5-0.6,1-1.3,1.4-2c0.7-1.2,1.1-2.6,1.2-4
			c0.1-1.5-0.4-2.8-1.2-4.1c-0.9-1.5-2-2.8-3.1-4.1c-1.2-1.3-2.3-2.6-3.6-3.8c-0.2-0.2-0.3-0.4-0.6-0.5c-0.2,0.1-0.1,0.3-0.1,0.4
			c0,0.5,0,1,0,1.5c0.1,3.6-0.7,7.1-2.3,10.3c-0.7,1.6-1.5,3.1-2.2,4.7c-1.1,2.5-1.9,5.1-1.8,7.9c0,0.9-0.6,1.3-1.2,1.8
			c-0.2-0.8-0.2-1.5-0.3-2.2c-0.2-3.4,0.5-6.6,1.7-9.7c0.9-2.4,2-4.7,2.9-7.1c0.6-1.5,1.1-3.1,1.5-4.7c0.5-2.1,0.4-4.2-0.5-6.3
			c-0.4-0.9-0.8-1.9-0.9-2.9c-0.3-1.9,0.1-3.8,1-5.4c0.7-1.1,0.7-0.9,0.1-2.1c-0.5-1.2-1.1-2.4-1.2-3.7c-0.2-1.5-0.2-3.1,0.1-4.6
			c0.3-1.5,1.1-2.8,2.4-3.7c0.3-0.2,0.7-0.4,1.1-0.2c0,0.3-0.2,0.4-0.4,0.5c-1.6,1.2-2,2.9-1.8,4.8c0.3,2.2,1.3,4.2,2.5,6
			c1.2,1.7,2.6,3.4,3.9,5c3.5,4.5,7,9,10.1,13.8c2.6,4,4.9,8.2,6.6,12.7c1.5,4.1,2.4,8.3,2.1,12.7c-0.2,2.7-0.7,5.3-2,7.8
			c-2,3.9-5.1,6.2-9.4,6.8c-2.4,0.4-4.8,0.1-7.1-0.6c-0.7-0.2-0.8-0.4-0.7-1.1c0.1-0.8,0.3-1.7,0.5-2.5c0.2-0.8,0.3-0.9,1.1-0.7
			c0.8,0.2,1.7,0.3,2.6,0.3c3.3,0,6.1-1.2,8.4-3.6c2.3-2.5,3.5-5.4,3.8-8.7c0.1-1.4,0.2-2.8,0-4.1c-0.2-1.9-0.8-3.6-1.5-5.3
			c-1.4-3.6-3.4-6.9-5.5-10.2c-3.2-4.9-6.8-9.5-10.4-14.1c-1.2-1.5-2.3-2.9-3.4-4.4c-0.5-0.7-0.6-0.7-1,0.1c-0.9,1.6-0.8,3.2,0,4.7
			c0.5,1,1.2,1.8,2,2.6c1.3,1.4,2.6,2.8,3.9,4.2c1.6,1.8,3.1,3.7,4.2,5.8c1.1,2,1.7,4.1,1.6,6.4c0,0.7-0.2,1.4-0.3,2.1
			c0.2,0.1,0.3,0,0.5-0.1c1-0.8,1.9-1.7,2.7-2.6c0.2-0.2,0.3-0.4,0.5-0.5c0.2,0,0.2,0.1,0.2,0.3c0.8,2.9,1.4,5.8,1.6,8.7
			c0.2,2.7-0.7,5.1-2.3,7.2c-1.3,1.8-2.8,3.3-4.4,4.9c-1.1,1.1-2.1,2.3-3.2,3.4c-1.1,1.2-1.8,2.7-2.1,4.3c-0.3,1.9-0.6,3.8-0.8,5.7
			c-0.2,2.1-0.4,4.3-0.9,6.4c-0.2,0.8-0.4,1.6-0.9,2.3c-0.8,1.2-1.9,1.8-3.4,1.9c-2.1,0.2-3.8-0.7-5.4-2c-1.9-1.6-3.1-3.6-4.1-5.8
			c-0.2-0.4-0.2-0.5,0.2-0.7c0,0,0.1-0.1,0.2-0.1c0.4-0.2,0.7-0.1,1,0.3c0.5,0.9,1.1,1.8,1.8,2.5c0.6,0.6,1.2,1.2,2,1.5
			c1.7,0.8,3.2,0.5,4.4-1c0.7-0.8,1-1.7,1.3-2.7c0.3-1.2,0.5-2.5,0.6-3.8c0.3-2.4,0.7-4.7,1.2-7c0.4-1.9,1.3-3.5,2.4-5.1
			c1.4-1.9,3.1-3.5,4.8-5.2c1.7-1.6,3.2-3.2,4.4-5.2c0.8-1.3,1.3-2.7,1.3-4.2C33.3,253.9,33.3,253.8,33.4,253.7L33.4,253.7z"/>
		<path class="st0" d="M19.9,272.8c-0.1,0.7-0.3,1.4-0.4,2c-0.1,0.3-0.1,0.5-0.2,0.8c-0.1,0.4-0.2,0.5-0.5,0.1
			c-0.7-0.6-1.3-1.2-1.8-1.9c-1.4-1.6-2.5-3.5-3.4-5.4c-0.1-0.2-0.1-0.4,0.1-0.6c0.3-0.2,0.5-0.5,0.7-0.7c0.2-0.2,0.4-0.2,0.6,0
			c0.1,0.1,0.1,0.2,0.2,0.2c1.2,1.6,2.6,3,4.2,4.4c0.2,0.1,0.3,0.3,0.5,0.4C19.9,272.5,19.9,272.7,19.9,272.8L19.9,272.8z"/>
		<path class="st0" d="M8.9,237.3c-1.4,0-2.5-1.1-2.5-2.5c0-1.4,1.1-2.5,2.5-2.5c1.4,0,2.6,1.2,2.5,2.6
			C11.4,236.2,10.2,237.3,8.9,237.3L8.9,237.3z"/>
		<path class="st0" d="M17.4,283.5c-0.9,1.1-1.8,2.2-2.7,3.3c-0.9-0.7-1.7-1.4-2.6-2.1c-0.1-0.1-0.2-0.2,0-0.4
			c0.8-1,1.6-1.9,2.3-2.9c0.1-0.1,0.2-0.1,0.4,0C15.6,282.1,16.5,282.8,17.4,283.5L17.4,283.5z"/>
		<path class="st0" d="M18,277.9c-0.9,1.1-1.8,2.2-2.7,3.3c-0.9-0.7-1.7-1.4-2.6-2.1c-0.1-0.1-0.2-0.2,0-0.4
			c0.8-0.9,1.6-1.9,2.3-2.8c0.1-0.1,0.2-0.2,0.4,0C16.3,276.5,17.1,277.1,18,277.9z"/>
		<path class="st0" d="M24.4,262.1c0,0.1-0.1,0.1-0.1,0.2c-0.5,1-1,2-1.4,3c-0.1,0.3-0.3,0.4-0.6,0.2c-0.8-0.4-1.7-0.8-2.6-1.3
			c-0.2-0.1-0.3-0.2-0.2-0.4c0.5-1,1-2.1,1.5-3.1c0.1-0.2,0.2-0.3,0.4-0.2c0.9,0.4,1.8,0.9,2.7,1.3
			C24.3,261.9,24.4,261.9,24.4,262.1L24.4,262.1z"/>
		<path class="st0" d="M35,268.7c-0.6,1.2-1.1,2.3-1.7,3.4c-0.1,0.3-0.3,0.3-0.5,0.1c-0.8-0.4-1.7-0.8-2.6-1.3
			c-0.2-0.1-0.3-0.2-0.2-0.5c0.5-1,1-2.1,1.5-3.1c0.1-0.2,0.2-0.3,0.5-0.2C33.1,267.7,34,268.2,35,268.7L35,268.7z"/>
		<path class="st0" d="M18.7,254.5c-0.4-0.8-0.4-1.5,0.2-2.2c0.6-0.8,1.3-1.6,2.1-2.3c1.1-1.2,2.1-2.3,3.1-3.5
			c0.1-0.1,0.1-0.2,0.3-0.2c0.1,0,0.2,0.2,0.2,0.3c0.2,0.7,0.1,1.3-0.4,1.8c-1.1,1.4-2.4,2.7-3.5,4c-0.5,0.6-1,1.2-1.5,1.7
			C19.1,254.2,19,254.4,18.7,254.5L18.7,254.5z"/>
		<path class="st0" d="M0.8,254.5c0-1.1,0.2-1.9,0.7-2.7c0.7-1.1,1.6-2.1,2.6-2.8c0.2-0.1,0.5-0.4,0.7-0.1c0.1,0.2-0.2,0.4-0.3,0.5
			c-0.5,0.6-1.1,1.1-1.6,1.7c-0.5,0.5-0.8,1.1-1,1.7c-0.1,0.4-0.2,0.7,0,1.1c0.2,0.3,0.4,0.6,0.8,0.5c0.4,0,0.5-0.3,0.6-0.6
			c0-0.2,0.2-0.4,0.3-0.6c0.2-0.1,0.3-0.1,0.4,0.1c0.2,0.8-0.7,2.6-1.5,2.8c-0.5,0.2-0.9,0-1.2-0.4C0.9,255.3,0.8,254.9,0.8,254.5
			L0.8,254.5z"/>
		<path class="st0" d="M28.9,286c0,0.8-0.7,1.2-1.4,1c-0.6-0.3-1.1-0.7-1.4-1.2c-0.6-0.9-1-2-1.3-3.1c0-0.1,0-0.1,0-0.2
			c0-0.1,0-0.3,0.1-0.3c0.2,0,0.3,0.1,0.3,0.2c0.1,0.2,0.3,0.5,0.4,0.7c0.2,0.4,0.3,0.8,0.6,1.2c0.1,0.2,0.3,0.4,0.4,0.6
			c0.5,0.4,1.1,0.2,1.2-0.4c0.1-0.2,0-0.5,0.2-0.5c0.3,0,0.3,0.3,0.4,0.5C28.7,284.9,28.8,285.5,28.9,286z"/>
	</g>
</g>
</svg>
