<?xml version="1.0" encoding="utf-8"?>
<!-- Generator: Adobe Illustrator 19.0.0, SVG Export Plug-In . SVG Version: 6.00 Build 0)  -->
<svg version="1.1" id="Layer_1" xmlns="http://www.w3.org/2000/svg" xmlns:xlink="http://www.w3.org/1999/xlink" x="0px" y="0px"
	 viewBox="-193 237.8 124 26.5" style="enable-background:new -193 237.8 124 26.5;" xml:space="preserve">
<style type="text/css">
	.st0{fill:#FFFFFF;}
</style>
<path class="st0" d="M-97.2,249.4v3.4H-108v4.5h11.1v3.7h-14.9c0-3.8,0-7.7,0-11.6H-97.2z M-177.2,241c0.2,0,0.3,0,0.4,0.3
	c2.9,6.5,5.8,12.9,8.7,19.4c0,0.1,0,0.1,0.1,0.3h-1.5c-0.8,0-1.5,0-2.2,0c-0.3,0-0.4-0.1-0.5-0.4c-1.7-3.9-3.4-7.9-5.1-11.8
	c-0.5-1.2-1-2.4-1.6-3.6c-0.1,0.2-0.1,0.3-0.2,0.4c-2.2,5-4.4,10-6.6,15c-0.1,0.3-0.2,0.4-0.5,0.4c-1,0-2,0-3,0l-0.7,0
	c0.1-0.1,0.1-0.2,0.2-0.4c2.9-6.4,5.7-12.8,8.6-19.1c0.1-0.3,0.2-0.4,0.5-0.4C-179.5,241.1-178.4,241.1-177.2,241z M-159.8,241.1
	c0.2,0,0.4,0.1,0.5,0.3c1.9,2.6,3.9,5.3,5.8,7.9c0.1,0.1,0.1,0.2,0.3,0.3c0.1-0.1,0.2-0.2,0.2-0.3c1.9-2.6,3.9-5.3,5.8-7.9
	c0.2-0.2,0.3-0.3,0.6-0.3c1.2,0,2.4,0,3.5,0h0.4V261h-3.7v-14.3c0,0,0,0-0.1,0c-0.1,0.1-0.1,0.2-0.2,0.3c-2,2.6-4,5.3-6,7.9
	c-0.4,0.5-0.9,0.5-1.2,0c-1.9-2.6-3.9-5.3-5.8-7.9c-0.1-0.1-0.1-0.2-0.2-0.3c0,0,0,0-0.1,0V261h-3.7v-19.8c0.1,0,0.2,0,0.3,0H-159.8
	z M-80.1,241c1.2,0,2.3,0.2,3.3,0.7c2.4,1.1,3.8,3.5,3.7,6.1c0,0.8-0.2,1.7-0.5,2.4c-0.8,1.9-2.2,3-4.1,3.5c-0.1,0-0.3,0.1-0.4,0.1
	c0.2,0.2,0.3,0.4,0.5,0.6c1.8,2,3.5,4,5.3,6c0.1,0.1,0.2,0.3,0.3,0.5h-4.3c-0.2,0-0.4-0.1-0.5-0.2c-1.8-2-3.6-4.1-5.3-6.1
	c-0.2-0.2-0.4-0.3-0.7-0.3c-1,0-2.1,0-3.1,0v6.6c-1.3,0-2.5,0-3.8,0v-10h0.4c2.9,0,5.9,0,8.8,0c0.5,0,1.1,0,1.5-0.2
	c1.4-0.4,2.2-1.8,2.1-3.4c-0.1-1.4-1.2-2.5-2.7-2.7c-0.3,0-0.6,0-0.9,0h-9.2V241c0.1,0,0.2,0,0.2,0H-80.1z M-125.9,241
	c1.2,0,2.4,0.2,3.5,0.7c1.9,0.9,2.9,2.4,3.1,4.4c0.2,2-0.6,3.5-2.5,4.5c0,0,0.1,0.1,0.1,0.1c2.1,0.7,3.1,3.1,3,4.7
	c-0.1,2.3-1.2,4-3.3,4.8c-0.6,0.2-1.3,0.4-2,0.5c-0.7,0.1-1.5,0.2-2.2,0.2h-9.4v-11.8h0.4c3.2,0,6.3-0.1,9.5-0.1
	c0.4,0,0.9-0.1,1.3-0.3c1.2-0.4,1.6-1.6,1.1-2.8c-0.4-0.9-1.2-1.3-2.1-1.5c-0.3,0-0.6-0.1-0.9-0.1c-3,0-5.9,0-8.9,0h-0.4V241
	c0.1,0,0.2,0,0.3,0H-125.9z M-126.2,252.3h-5.4c-0.1,0-0.2,0-0.3,0v5.1c2.1,0,4.2,0,6.3,0c0.7,0,1.4-0.2,2-0.5
	c0.5-0.3,0.9-0.7,1.1-1.3c0.3-0.9-0.1-1.8-0.9-2.4C-124.2,252.6-125.2,252.3-126.2,252.3z M-96.8,241.1v3.6h-14.9v-3.6H-96.8z"/>
</svg>
