<?xml version="1.0" encoding="utf-8"?>
<!-- Generator: Adobe Illustrator 19.0.0, SVG Export Plug-In . SVG Version: 6.00 Build 0)  -->
<svg version="1.1" id="Layer_1" xmlns="http://www.w3.org/2000/svg" xmlns:xlink="http://www.w3.org/1999/xlink" x="0px" y="0px"
	 viewBox="-193 232.3 124 37.4" style="enable-background:new -193 232.3 124 37.4;" xml:space="preserve">
<style type="text/css">
	.st0{fill:#FCFCFC;}
</style>
<g>
	<path class="st0" d="M-166.7,257.7c0,0.1,0,0.2,0,0.3c0,2.9,0,5.8,0,8.7c0,0.2,0,0.3-0.3,0.3c-0.9,0-1.8,0-2.8,0
		c-0.2,0-0.2,0-0.2-0.2c0-8.3,0-16.6,0-24.8c0-0.1,0-0.1,0-0.2c0.1,0,0.1,0,0.2,0.1c0.9,0.5,1.8,0.9,2.8,1.4
		c0.2,0.1,0.4,0.2,0.3,0.5c0,0,0,0,0,0c0.2-0.1,0.3-0.2,0.5-0.3c0.8-0.6,1.6-1,2.6-1.3c0.6-0.2,1.1-0.3,1.7-0.3
		c0.3,0,0.6-0.1,0.9-0.1c0.3,0,0.6,0,1,0.1c0.4,0.1,0.8,0.1,1.2,0.2c1.2,0.3,2.2,0.8,3.2,1.5c0.5,0.4,1,0.9,1.5,1.4
		c1,1.1,1.7,2.5,2,4c0.1,0.4,0.1,0.8,0.2,1.3c0,0.3,0.1,0.7,0,1c0,1.1-0.3,2.2-0.7,3.2c-0.3,0.8-0.8,1.5-1.3,2.1
		c-0.8,1-1.8,1.8-2.9,2.4c-0.7,0.4-1.5,0.7-2.3,0.8c-0.8,0.2-1.7,0.2-2.6,0.1c-1.1-0.1-2.1-0.3-3-0.8c-0.6-0.3-1.3-0.7-1.8-1.1
		C-166.5,257.7-166.6,257.7-166.7,257.7z M-166.7,250.7c-0.1,3.2,2.6,5.7,5.5,5.8c3.5,0.1,5.9-2.7,6-5.3c0.1-1.7-0.3-3.1-1.5-4.4
		c-1.1-1.2-2.4-1.8-4-1.9C-164.1,244.7-166.8,247.6-166.7,250.7z"/>
	<path class="st0" d="M-176.1,243.6c0-0.1,0-0.2,0-0.3c0-0.5,0-1,0-1.5c0-0.2,0.1-0.2,0.2-0.2c0.9,0,1.9,0,2.8,0
		c0.2,0,0.2,0.1,0.2,0.2c0,5.9,0,11.8,0,17.6c0,0.2,0,0.2-0.2,0.1c-0.9-0.4-1.8-0.9-2.7-1.3c-0.2-0.1-0.5-0.2-0.4-0.6
		c-0.2,0.1-0.4,0.2-0.5,0.3c-0.9,0.7-1.9,1.1-3,1.4c-1,0.3-2,0.3-3,0.2c-1-0.1-2-0.3-2.9-0.7c-0.8-0.3-1.5-0.8-2.1-1.3
		c-0.9-0.8-1.7-1.7-2.2-2.7c-0.4-0.8-0.7-1.7-0.9-2.6c-0.1-0.7-0.2-1.5-0.1-2.2c0.1-1.1,0.3-2.1,0.8-3.1c0.3-0.7,0.8-1.4,1.3-2
		c0.9-1.1,1.9-1.9,3.2-2.5c0.7-0.3,1.5-0.6,2.3-0.7c0.4-0.1,0.9-0.1,1.3-0.1c1.7-0.1,3.2,0.3,4.7,1.1c0.4,0.2,0.7,0.5,1.1,0.7
		C-176.3,243.5-176.2,243.6-176.1,243.6z M-176.1,250.7c0.1-3.2-2.6-5.7-5.5-5.8c-3.5-0.1-6,2.7-6.1,5.7c-0.1,3.4,2.7,5.8,5.5,5.9
		C-178.7,256.6-176,253.8-176.1,250.7z"/>
	<path class="st0" d="M-98,248.4c-0.2-0.3-0.3-0.6-0.5-0.9c-0.2-0.3-0.3-0.5-0.5-0.7c-0.6-0.6-1.2-1.2-2-1.6
		c-0.5-0.2-0.9-0.4-1.5-0.4c-0.4,0-0.8-0.1-1.3-0.1c-0.7,0-1.4,0.2-2.1,0.5c-0.7,0.3-1.3,0.8-1.8,1.3c-0.8,0.8-1.3,1.8-1.5,2.9
		c-0.1,0.5-0.1,0.9-0.1,1.4c0,0.7,0.2,1.4,0.5,2.1c0.3,0.8,0.9,1.4,1.5,2c0.7,0.6,1.5,1,2.4,1.3c0.7,0.2,1.4,0.2,2.1,0.1
		c0.8-0.1,1.5-0.2,2.1-0.6c0.4-0.2,0.7-0.5,1.1-0.7c0.8-0.6,1.2-1.4,1.7-2.2c0.6-1.1,1.2-2.2,1.8-3.3c0.4-0.7,0.8-1.4,1.2-2.1
		c0.6-1,1.2-2.1,1.8-3.1c0.3-0.5,0.7-1,1.2-1.5c0.7-0.7,1.6-1.2,2.6-1.4c0.2,0,0.3,0,0.5,0c0.8,0,1.5,0,2.3,0
		c-0.3,0.2-0.5,0.4-0.7,0.5c-0.4,0.4-0.8,0.8-1.2,1.2c-0.5,0.5-0.9,1.1-1.3,1.7c-0.3,0.5-0.6,1-0.9,1.5c-0.5,0.9-1,1.7-1.4,2.6
		c-0.3,0.5-0.6,1-0.8,1.5c-0.4,0.8-0.9,1.6-1.3,2.4c-0.3,0.5-0.6,1.1-0.9,1.6c-0.4,0.7-0.8,1.4-1.4,2.1c-0.6,0.6-1.2,1.2-1.9,1.7
		c-1,0.6-2,1.1-3.2,1.3c-0.5,0.1-1,0.1-1.5,0.2c-1.1,0.1-2.2-0.1-3.3-0.5c-1-0.3-1.8-0.8-2.6-1.5c-0.4-0.4-0.8-0.7-1.2-1.1
		c-0.7-0.8-1.3-1.7-1.7-2.7c-0.2-0.6-0.4-1.2-0.5-1.7c-0.1-0.7-0.2-1.4-0.1-2.1c0.1-0.9,0.2-1.7,0.5-2.5c0.3-0.9,0.8-1.8,1.4-2.5
		c0.4-0.4,0.7-0.8,1.1-1.2c0.5-0.5,1.1-0.9,1.8-1.3c0.7-0.4,1.5-0.7,2.3-0.9c0.4-0.1,0.8-0.1,1.2-0.2c0.4,0,0.9,0,1.3,0
		c0.7,0,1.4,0.1,2.1,0.3c0.9,0.2,1.7,0.6,2.5,1.2c0.4,0.3,0.7,0.5,1.1,0.8c0.4,0.3,0.7,0.7,1.1,1.1c0.1,0.1,0.2,0.2,0.1,0.4
		c-0.5,0.9-1,1.8-1.5,2.7C-97.8,248.1-97.9,248.3-98,248.4z"/>
	<path class="st0" d="M-85.7,252.7c0.2,0.4,0.4,0.8,0.7,1.1c0.5,0.8,1.2,1.4,2,1.8c0.6,0.3,1.3,0.6,2,0.6c1.1,0.1,2.2,0,3.2-0.4
		c0.5-0.2,1-0.5,1.4-0.9c0.7-0.6,1.2-1.2,1.5-2c0.2-0.5,0.4-1,0.4-1.6c0-0.3,0.1-0.7,0.1-1c0-1.2-0.4-2.4-1.1-3.3
		c-0.6-0.8-1.3-1.4-2.2-1.8c-0.6-0.3-1.2-0.5-1.8-0.5c-0.4,0-0.8-0.1-1.1,0c-0.6,0-1.2,0.2-1.8,0.4c-0.8,0.3-1.4,0.8-1.9,1.4
		c-0.4,0.4-0.7,0.8-0.9,1.3c-0.4,0.8-0.9,1.6-1.3,2.4c-0.3,0.5-0.6,1-0.8,1.5c-0.4,0.8-0.9,1.6-1.3,2.4c-0.3,0.5-0.6,1.1-0.9,1.6
		c-0.3,0.6-0.7,1.2-1.2,1.8c-0.4,0.5-0.9,1-1.5,1.4c-0.6,0.4-1.2,0.6-1.9,0.7c-0.5,0.1-1.1,0.1-1.6,0.1c-0.4,0-0.7,0-1.1-0.1
		c0.2-0.1,0.4-0.3,0.5-0.4c0.5-0.4,1-0.8,1.4-1.3c0.8-0.9,1.4-1.9,2-2.9c0.4-0.8,0.9-1.6,1.3-2.4c0.5-0.9,1-1.9,1.6-2.8
		c0.5-0.9,0.9-1.7,1.4-2.6c0.3-0.6,0.6-1.2,1-1.7c0.5-0.7,1-1.3,1.6-1.8c0.6-0.6,1.3-1,2.1-1.4c0.7-0.3,1.4-0.5,2.1-0.7
		c0.8-0.2,1.6-0.2,2.4-0.1c0.9,0,1.8,0.3,2.6,0.6c0.8,0.3,1.6,0.8,2.2,1.3c0.6,0.5,1.2,1.1,1.7,1.7c0.4,0.5,0.7,1.1,1,1.6
		c0.3,0.7,0.6,1.5,0.7,2.2c0.1,0.6,0.2,1.3,0.1,1.9c0,1.1-0.2,2.2-0.7,3.2c-0.4,0.9-0.8,1.6-1.4,2.3c-0.4,0.5-0.9,0.9-1.3,1.3
		c-0.5,0.5-1.1,0.8-1.7,1.1c-0.8,0.4-1.6,0.6-2.5,0.8c-0.7,0.1-1.5,0.1-2.2,0.1c-1-0.1-2.1-0.3-3-0.7c-0.7-0.3-1.4-0.7-2-1.3
		c-0.5-0.5-1-1-1.5-1.5c-0.1-0.1-0.1-0.2,0-0.3c0.3-0.5,0.6-1.1,0.9-1.7C-86.3,253.7-86,253.2-85.7,252.7z"/>
	<path class="st0" d="M-136.7,254.8c0,0.2,0,0.3,0,0.5c0,1.1,0,2.2,0,3.3c0,0.2-0.1,0.3-0.2,0.3c-0.7,0.3-1.3,0.5-2,0.7
		c-0.8,0.2-1.7,0.2-2.5,0.1c-0.6,0-1.2-0.2-1.8-0.3c-0.9-0.2-1.8-0.7-2.6-1.2c-0.6-0.4-1.2-0.9-1.7-1.5c-0.5-0.6-1-1.3-1.4-2
		c-0.3-0.7-0.6-1.4-0.7-2.2c-0.1-0.4-0.1-0.9-0.2-1.3c-0.1-1.1,0.1-2.2,0.4-3.2c0.3-1.1,0.9-2,1.6-2.9c0.7-0.8,1.5-1.6,2.4-2.1
		c0.9-0.5,1.8-0.9,2.9-1.1c0.5-0.1,1-0.1,1.5-0.1c0.3,0,0.7,0,1,0c0.6,0.1,1.2,0.2,1.8,0.3c0.9,0.2,1.8,0.7,2.6,1.2
		c0.3,0.2,0.6,0.5,0.9,0.8c0.7,0.5,1.2,1.2,1.6,1.9c0.5,0.8,0.9,1.7,1.1,2.7c0.1,0.4,0.2,0.9,0.2,1.3c0,0.5,0,0.9,0,1.4
		c0,0.1-0.1,0.2-0.2,0.2c0,0-0.1,0-0.1,0c-4.7,0-9.4,0-14.2,0c-0.2,0-0.3,0-0.2,0.3c0.1,0.8,0.4,1.5,0.9,2.1c0.8,1.1,1.8,2,3.1,2.4
		c0.4,0.1,0.8,0.2,1.2,0.2c0.3,0,0.6,0.1,0.8,0c1.1-0.1,2.2-0.4,3.1-1.1C-137.2,255.2-137,255-136.7,254.8z M-140.8,248.2
		c1.7,0,3.3,0,5,0c0.2,0,0.3-0.1,0.2-0.2c-0.3-0.4-0.6-0.9-0.9-1.3c-0.5-0.6-1.1-1-1.8-1.3c-0.6-0.3-1.3-0.4-2-0.5
		c-0.5,0-1,0-1.5,0.1c-1.1,0.2-2,0.7-2.8,1.4c-0.5,0.4-0.9,1-1.2,1.5c0,0.1-0.1,0.2,0,0.2c0,0,0.1,0,0.2,0
		C-144.1,248.2-142.5,248.2-140.8,248.2z"/>
	<path class="st0" d="M-119.2,243.6c0.3-0.2,0.5-0.3,0.7-0.5c1-0.7,2-1.2,3.2-1.5c0.7-0.1,1.5-0.1,2.2-0.1c0.1,0,0.2,0.1,0.2,0.2
		c0,1,0,2,0,3c0,0.1-0.1,0.2-0.2,0.2c-0.3,0-0.6,0-0.9,0c-0.8,0-1.5,0.3-2.2,0.7c-0.5,0.3-0.9,0.6-1.3,1c-0.8,0.8-1.3,1.7-1.6,2.8
		c0,0.2-0.1,0.4-0.1,0.7c0,3.1,0,6.2,0,9.3c0,0.3-0.1,0.3-0.3,0.3c-0.9,0-1.8,0-2.7,0c-0.2,0-0.3,0-0.3-0.3c0-5.9,0-11.7,0-17.6
		c0-0.2,0-0.3,0.3-0.3c0.9,0,1.8,0,2.8,0c0.3,0,0.3,0,0.3,0.3c0,0.5,0,1,0,1.5C-119.2,243.4-119.2,243.5-119.2,243.6z"/>
	<path class="st0" d="M-129,250.6c0-2.9,0-5.8,0-8.8c0-0.3,0-0.3,0.3-0.3c0.9,0,1.8,0,2.7,0c0.2,0,0.3,0,0.3,0.3
		c0,5.9,0,11.7,0,17.6c0,0.3,0,0.3-0.3,0.3c-0.9,0-1.8,0-2.7,0c-0.2,0-0.2,0-0.2-0.2C-129,256.5-129,253.6-129,250.6z"/>
	<path class="st0" d="M-124.9,237.4c0.1,1.3-1.1,2.5-2.5,2.5c-1.2,0-2.4-1-2.4-2.5c0-1.3,1-2.5,2.5-2.5
		C-126.1,235-124.9,236.1-124.9,237.4z"/>
	<path class="st0" d="M-146.9,265.1c0.2,0.2,0.4,0.3,0.5,0.5c0.3,0.5-0.1,1.2-0.7,1.3c-0.5,0.1-0.9,0-1.4,0c-0.2,0-0.4,0-0.6,0
		c-0.1,0-0.2-0.1-0.2-0.2c0-1,0-2,0-3c0-0.1,0.1-0.2,0.2-0.2c0.5,0,1.1,0,1.6,0c0.3,0,0.6,0.1,0.9,0.4c0.2,0.3,0.2,0.8-0.1,1
		C-146.8,265-146.8,265-146.9,265.1z M-148,265.3C-148,265.3-148,265.4-148,265.3c-0.2,0-0.4,0-0.5,0c-0.1,0-0.2,0-0.2,0.2
		c0,0.3,0,0.6,0,0.9c0,0.1,0.1,0.2,0.1,0.2c0.5,0,0.9,0,1.4-0.1c0.2,0,0.4-0.2,0.4-0.5c0-0.4-0.1-0.5-0.3-0.6
		C-147.4,265.4-147.7,265.4-148,265.3z M-148,263.9C-148,263.9-148,263.9-148,263.9c-0.2,0-0.3,0-0.5,0c-0.2,0-0.2,0.1-0.2,0.2
		c0,0.2,0,0.4,0,0.6c0,0.1,0.1,0.2,0.2,0.2c0.4,0,0.7,0,1.1,0c0.2,0,0.4-0.2,0.4-0.3c0-0.4-0.1-0.6-0.4-0.6
		C-147.6,263.9-147.8,263.9-148,263.9z"/>
	<path class="st0" d="M-133,265.2c0.4,0.2,0.4,0.5,0.4,0.8c0,0.3,0,0.5,0,0.8c-0.1,0-0.3,0-0.4,0c-0.1,0-0.2-0.1-0.2-0.2
		c0-0.2-0.1-0.5,0-0.7c0-0.3-0.2-0.5-0.5-0.5c-0.4,0-0.8,0-1.3,0c-0.1,0-0.2,0.1-0.2,0.2c0,0.3,0,0.7,0,1c0,0.2-0.1,0.2-0.3,0.2
		c-0.3,0-0.3,0-0.3-0.2c0-1,0-2,0-3c0-0.2,0.1-0.2,0.2-0.2c0.6,0,1.2,0,1.8,0c0.5,0,0.9,0.2,1,0.7c0.1,0.4,0,0.7-0.3,0.9
		C-132.9,265.1-132.9,265.2-133,265.2z M-134.2,263.9C-134.2,263.9-134.2,263.9-134.2,263.9c-0.2,0-0.4,0-0.6,0
		c-0.2,0-0.2,0.1-0.2,0.2c0,0.2,0,0.5,0,0.7c0,0.2,0.1,0.2,0.2,0.2c0.4,0,0.9,0,1.3,0c0.3,0,0.5-0.2,0.5-0.5c0-0.3-0.1-0.6-0.4-0.6
		C-133.7,263.9-134,263.9-134.2,263.9z"/>
	<path class="st0" d="M-97.6,265.3c0.3,0.2,0.4,0.5,0.4,0.8c0,0.3,0,0.5,0.1,0.8c-0.1,0-0.2,0-0.4,0c-0.2,0-0.2-0.2-0.2-0.4
		c0-0.2,0-0.3,0-0.5c0-0.5-0.2-0.6-0.6-0.6c-0.4,0-0.8,0-1.2,0c-0.1,0-0.2,0.1-0.2,0.2c0,0.4,0,0.7,0,1.1c0,0.2-0.1,0.2-0.3,0.2
		c-0.2,0-0.3,0-0.3-0.2c0-1,0-2,0-3c0-0.1,0.1-0.2,0.2-0.2c0.6,0,1.2,0,1.8,0c0.4,0,0.7,0.1,0.9,0.5c0.2,0.4,0.1,0.8-0.2,1
		C-97.5,265.1-97.5,265.2-97.6,265.3z M-98.9,263.9C-98.9,263.9-98.9,263.9-98.9,263.9c-0.2,0-0.4,0-0.6,0c-0.1,0-0.2,0-0.2,0.2
		c0,0.3,0,0.5,0,0.8c0,0.1,0.1,0.2,0.2,0.2c0.3,0,0.7,0,1,0c0.2,0,0.3,0,0.5-0.1c0.3-0.1,0.3-0.3,0.3-0.6c0-0.2-0.1-0.3-0.3-0.4
		C-98.2,263.9-98.6,263.9-98.9,263.9z"/>
	<path class="st0" d="M-111.9,266.6c-0.3,0.1-0.5,0.3-0.7,0.4c-0.8,0.2-1.7,0-2.2-0.8c-0.2-0.4-0.2-0.8-0.2-1.2
		c0.1-0.4,0.2-0.7,0.5-1c0.3-0.2,0.6-0.4,0.9-0.4c0.4-0.1,0.8,0,1.3,0.1c0.4,0.1,0.6,0.4,0.8,0.8c0,0,0,0.1,0,0.1
		c-0.1,0.1-0.4,0.1-0.5-0.1c-0.1-0.3-0.3-0.5-0.7-0.6c-0.4-0.1-0.7-0.1-1.1,0.1c-0.5,0.2-0.7,0.6-0.7,1.1c0,0.3,0,0.6,0.1,0.9
		c0.2,0.4,0.5,0.6,1,0.6c0.3,0,0.6,0,0.9-0.2c0.3-0.2,0.4-0.4,0.5-0.7c0-0.1,0-0.2-0.2-0.2c-0.3,0-0.5,0-0.8,0c-0.1,0-0.2,0-0.2-0.2
		c0-0.1,0.1-0.2,0.2-0.2c0.4,0,0.9,0,1.3,0c0.1,0,0.2,0.1,0.2,0.2c0,0.5,0,1,0,1.4c0,0.1,0,0.2-0.1,0.2c-0.1,0-0.2,0-0.2-0.1
		C-111.9,266.7-111.9,266.6-111.9,266.6z"/>
	<path class="st0" d="M-88.3,265.2c0-0.5,0-1,0-1.5c0-0.2,0.1-0.2,0.2-0.2c0.5,0,1,0,1.5,0c0.9,0,1.5,0.6,1.5,1.6
		c0,0.5-0.1,0.9-0.3,1.3c-0.3,0.4-0.7,0.6-1.1,0.6c-0.5,0-1,0-1.6,0c-0.2,0-0.2-0.1-0.2-0.2C-88.3,266.2-88.3,265.7-88.3,265.2z
		 M-87.8,265.2c0,0.4,0,0.7,0,1.1c0,0.2,0.1,0.2,0.2,0.2c0.4,0,0.7,0,1.1,0c0.3,0,0.5-0.1,0.7-0.4c0.3-0.5,0.3-1,0.2-1.5
		c-0.1-0.4-0.4-0.6-0.8-0.7c-0.4,0-0.7,0-1.1,0c-0.2,0-0.2,0.1-0.2,0.2C-87.8,264.5-87.8,264.9-87.8,265.2z"/>
	<path class="st0" d="M-74.3,265.2c0-0.5,0-1,0-1.5c0-0.2,0.1-0.2,0.2-0.2c0.5,0,1,0,1.5,0c0.8,0,1.4,0.6,1.5,1.3
		c0.1,0.7,0,1.3-0.5,1.8c-0.2,0.2-0.6,0.3-0.9,0.4c-0.5,0-1,0-1.5,0c-0.2,0-0.2,0-0.2-0.2C-74.3,266.2-74.3,265.7-74.3,265.2z
		 M-73.8,265.2c0,0.4,0,0.7,0,1.1c0,0.2,0.1,0.2,0.2,0.2c0.3,0,0.7,0,1,0c0.3,0,0.6-0.2,0.8-0.5c0.2-0.4,0.2-0.7,0.2-1.1
		c-0.1-0.5-0.5-0.9-1-1c-0.3,0-0.6,0-0.9,0c-0.2,0-0.2,0-0.2,0.2C-73.8,264.5-73.8,264.9-73.8,265.2z"/>
	<path class="st0" d="M-127.1,267c-0.4,0-0.8,0-1.1-0.2c-0.3-0.2-0.4-0.4-0.4-0.8c0-0.1,0.1-0.2,0.2-0.2c0.1,0,0.3-0.1,0.4,0.1
		c0,0.2,0,0.3,0.2,0.4c0.2,0.1,0.4,0.2,0.7,0.2c0.3,0,0.5,0,0.8-0.1c0.3-0.1,0.4-0.2,0.4-0.5c0-0.1-0.1-0.3-0.2-0.3
		c-0.5-0.2-0.9-0.3-1.4-0.5c-0.2-0.1-0.4-0.2-0.6-0.3c-0.4-0.3-0.4-1,0.1-1.3c0.6-0.4,1.2-0.4,1.9-0.1c0.3,0.1,0.5,0.4,0.6,0.8
		c0,0,0,0,0,0.1c-0.1,0.2-0.2,0.1-0.4,0.1c-0.1,0-0.2-0.1-0.2-0.1c0-0.2-0.2-0.4-0.3-0.4c-0.4-0.1-0.8-0.2-1.2,0
		c-0.2,0.1-0.3,0.2-0.2,0.4c0,0.2,0.1,0.3,0.3,0.3c0.5,0.2,1,0.3,1.5,0.5c0.4,0.1,0.6,0.5,0.6,0.8c0,0.4-0.4,0.8-0.8,0.9
		c-0.1,0-0.2,0.1-0.4,0.1C-126.8,267-127,267-127.1,267z"/>
	<path class="st0" d="M-142.4,265.2c0-0.5,0-1,0-1.5c0-0.2,0.1-0.2,0.2-0.2c0.8,0,1.6,0,2.4,0c0.2,0,0.2,0.1,0.2,0.2
		c0,0.2-0.1,0.2-0.2,0.2c-0.6,0-1.3,0-1.9,0c-0.2,0-0.2,0-0.2,0.2c0,0.2,0,0.4,0,0.6c0,0.1,0.1,0.2,0.2,0.2c0.6,0,1.2,0,1.7,0
		c0.1,0,0.2,0,0.2,0.2c0,0.2-0.1,0.2-0.2,0.2c-0.6,0-1.1,0-1.7,0c-0.2,0-0.2,0.1-0.2,0.2c0,0.3,0,0.5,0,0.8c0,0.2,0.1,0.2,0.2,0.2
		c0.6,0,1.3,0,1.9,0c0.1,0,0.2,0,0.2,0.2c0,0.2-0.1,0.2-0.2,0.2c-0.8,0-1.6,0-2.4,0c-0.2,0-0.2-0.1-0.2-0.2
		C-142.4,266.2-142.4,265.7-142.4,265.2z"/>
	<path class="st0" d="M-120.2,266.9c-0.4,0-0.8,0-1.2,0c-0.1,0-0.2-0.1-0.2-0.2c0-1,0-2,0-3c0-0.2,0.1-0.2,0.2-0.2
		c0.8,0,1.6,0,2.4,0c0.1,0,0.2,0,0.2,0.2c0,0.2-0.1,0.2-0.2,0.2c-0.6,0-1.3,0-1.9,0c-0.2,0-0.2,0.1-0.2,0.2c0,0.2,0,0.4,0,0.6
		c0,0.2,0.1,0.2,0.2,0.2c0.6,0,1.1,0,1.7,0c0.2,0,0.2,0,0.2,0.2c0,0.2-0.1,0.2-0.3,0.2c-0.6,0-1.1,0-1.7,0c-0.2,0-0.2,0-0.2,0.2
		c0,0.3,0,0.5,0,0.8c0,0.2,0.1,0.2,0.2,0.2c0.6,0,1.3,0,1.9,0c0.1,0,0.2,0,0.2,0.2c0,0.2-0.1,0.2-0.2,0.2
		C-119.4,266.9-119.8,266.9-120.2,266.9z"/>
	<path class="st0" d="M-104.3,264.8c0,0.3,0,0.6,0,0.9c0,0.7-0.4,1.1-1.1,1.3c-0.4,0.1-0.9,0.1-1.3-0.1c-0.4-0.2-0.7-0.4-0.7-0.9
		c0-0.8,0-1.5,0-2.3c0-0.2,0.2-0.2,0.3-0.2c0.1,0,0.2,0,0.2,0.2c0,0.7,0,1.3,0,2c0,0.3,0.1,0.6,0.4,0.8c0.3,0.2,1.1,0.2,1.4-0.2
		c0.2-0.2,0.2-0.4,0.2-0.6c0-0.7,0-1.3,0-2c0-0.2,0-0.2,0.3-0.2c0.2,0,0.3,0,0.3,0.2C-104.3,264.1-104.3,264.4-104.3,264.8z"/>
	<path class="st0" d="M-159.5,266.6c0.3,0,0.6,0,0.8-0.3c0.1-0.1,0.2-0.3,0.3-0.5c0.1-0.1,0.4-0.3,0.5-0.2c0,0,0,0.1,0,0.2
		c-0.2,0.6-0.6,0.9-1.1,1c-0.6,0.1-1.1,0.1-1.6-0.3c-0.4-0.2-0.6-0.6-0.6-1c-0.1-0.5,0-1,0.3-1.5c0.2-0.4,0.6-0.6,1.1-0.7
		c0.5-0.1,1.1,0,1.5,0.2c0.3,0.2,0.5,0.4,0.5,0.7c0,0,0,0.1,0,0.1c-0.1,0.1-0.4,0-0.5-0.1c-0.3-0.6-0.9-0.6-1.4-0.6
		c-0.7,0.1-1,0.7-1,1.3c0,0.3,0,0.7,0.2,1C-160.3,266.5-160,266.6-159.5,266.6z"/>
	<path class="st0" d="M-81.6,266.9c0.1-0.3,0.2-0.5,0.3-0.8c0.4-0.8,0.7-1.6,1.1-2.4c0.1-0.3,0.3-0.2,0.5-0.2c0.2,0,0.2,0.1,0.2,0.3
		c0.4,1,0.9,2.1,1.3,3.1c-0.2,0.2-0.5,0.1-0.6-0.1c-0.1-0.2-0.2-0.4-0.3-0.6c0-0.1-0.1-0.2-0.3-0.2c-0.4,0-0.8,0-1.2,0
		c-0.2,0-0.2,0.1-0.3,0.2c-0.1,0.2-0.2,0.4-0.3,0.7c0,0.1-0.1,0.2-0.2,0.2C-81.3,266.9-81.4,266.9-81.6,266.9z M-79.8,264.1
		C-79.8,264.1-79.8,264.1-79.8,264.1c-0.2,0.4-0.4,0.9-0.6,1.3c0,0.1,0,0.2,0.1,0.2c0.3,0,0.6,0,0.9,0c0.1,0,0.2-0.1,0.1-0.2
		c-0.1-0.1-0.1-0.3-0.2-0.4C-79.6,264.6-79.7,264.3-79.8,264.1z"/>
	<path class="st0" d="M-153.9,265.2c0-0.5,0-1,0-1.5c0-0.2,0.1-0.2,0.3-0.2c0.3,0,0.3,0,0.3,0.2c0,1,0,2,0,3c0,0.2,0,0.2-0.3,0.2
		c-0.2,0-0.3,0-0.2-0.2C-153.9,266.2-153.9,265.7-153.9,265.2z"/>
	<path class="st0" d="M-93,265.2c0-0.5,0-1,0-1.5c0-0.2,0.1-0.2,0.2-0.2c0.3,0,0.3,0,0.3,0.2c0,1,0,2,0,3c0,0.2,0,0.2-0.3,0.2
		c-0.2,0-0.3,0-0.2-0.2C-93,266.2-93,265.7-93,265.2z"/>
</g>
</svg>
