<?xml version="1.0" encoding="utf-8"?>
<!-- Generator: Adobe Illustrator 19.0.0, SVG Export Plug-In . SVG Version: 6.00 Build 0)  -->
<svg version="1.1" id="Layer_1" xmlns="http://www.w3.org/2000/svg" xmlns:xlink="http://www.w3.org/1999/xlink" x="0px" y="0px"
	 viewBox="-143 236 220 30" style="enable-background:new -143 236 220 30;" xml:space="preserve">
<style type="text/css">
	.st0{fill:#FFFFFF;}
</style>
<path class="st0" d="M-35.8,255.9c-0.9,0.5-1.7,0.8-2.9,0.8c-1.1,0-2.1-0.2-2.9-0.7c-0.8-0.5-1.5-1.1-2-2c-0.5-0.9-0.7-1.8-0.7-2.9
	c0-1.1,0.2-2.1,0.7-2.9c0.5-0.9,1.1-1.5,2-2c0.9-0.5,1.8-0.7,2.9-0.7c1.6,0,3,0.6,4.2,1.7l2-3c-0.7-0.6-1.4-1-2.3-1.4
	c-1.2-0.5-2.6-0.8-4.1-0.8c-1.8,0-3.4,0.4-4.9,1.2c-1.4,0.8-2.6,1.9-3.4,3.3c-0.8,1.4-1.2,3-1.2,4.7c0,1.7,0.4,3.3,1.2,4.7
	c0.8,1.4,1.9,2.5,3.4,3.3c1.4,0.8,3,1.2,4.8,1.2c1.3,0,2.5-0.2,3.7-0.6c1.2-0.4,2.3-0.9,3.3-1.7v-7.2h-3.9V255.9z M-111,256.3v3.5
	h-13v-17.6h12.7v3.5h-8.8v3.6h7.9v3.4h-7.9v3.7H-111z M-126.5,252.2c-0.6-0.7-1.3-1.3-2.3-1.6c0.7-0.4,1.3-0.9,1.7-1.6
	c0.4-0.7,0.6-1.4,0.6-2.3c0-1.4-0.6-2.5-1.7-3.4c-1.1-0.8-2.7-1.2-4.9-1.2h-7.4v17.6h7.9c2.3,0,4-0.4,5.2-1.2c1.2-0.8,1.8-2,1.8-3.6
	C-125.7,253.9-126,253-126.5,252.2z M-136.5,245.5h2.7c1,0,1.7,0.2,2.2,0.5c0.5,0.3,0.8,0.8,0.8,1.5c0,0.7-0.3,1.1-0.8,1.5
	c-0.5,0.3-1.3,0.5-2.2,0.5h-2.7V245.5z M-130.5,256c-0.5,0.3-1.3,0.5-2.4,0.5h-3.6v-4.1h3.6c2.1,0,3.2,0.7,3.2,2
	C-129.7,255.1-130,255.6-130.5,256z M-92.8,259.8v-17.6h-4v10.9l-8.3-10.9h-4v17.6h4v-10.9l8.3,10.9H-92.8z M59.5,242.2v17.6h-4
	l-8.3-10.9v10.9h-4v-17.6h4l8.3,10.9v-10.9H59.5z M-50,259.8v-17.6h-4v10.9l-8.3-10.9h-4v17.6h4v-10.9l8.3,10.9H-50z M-68.7,242.2
	h-3.9v17.6h3.9V242.2z M4.4,243c1.1,0.5,2,1.3,2.6,2.2c0.6,1,0.9,2.1,0.9,3.4c0,1.3-0.3,2.4-0.9,3.4c-0.6,1-1.5,1.7-2.6,2.2
	c-1.1,0.5-2.5,0.8-4,0.8h-2.6v4.9h-4v-17.6h6.6C2,242.2,3.3,242.4,4.4,243z M0.2,251.5c1.2,0,2.1-0.3,2.7-0.8
	c0.6-0.5,0.9-1.2,0.9-2.2c0-1-0.3-1.7-0.9-2.2c-0.6-0.5-1.5-0.8-2.7-0.8h-2.4v6H0.2z M-21.8,257c1.1,1.1,2.2,1.7,3,2
	c0.6,0.3,4.5,2,8,0.3c0.5-0.3,1.4-0.7,2.1-1.7c1.1-1.6,1-3.5,0.7-4.4c-0.2-0.7-0.6-1.2-0.6-1.2c-0.2-0.3-0.4-0.5-0.6-0.7
	c-0.5-0.5-1.1-0.8-1.4-1c-1.3-0.6-2.6-0.9-3.1-1c-0.1,0-0.1,0-0.2,0c-0.6-0.1-1.5-0.3-2.4-0.8c-0.2-0.1-0.4-0.3-0.6-0.6
	c-0.3-0.5-0.3-1.1,0-1.7c0.3-0.4,0.7-0.6,0.9-0.7c0.2-0.1,0.6-0.2,1.4-0.2c0.5,0,1.2,0.1,2.1,0.4c0.6,0.2,1.6,0.7,2.5,1.4
	c0.3-0.5,0.6-1,0.9-1.4l0,0l0,0l0,0c0.3-0.5,0.6-1,0.9-1.5c-0.6-0.5-1.6-1-2.8-1.5c-0.4-0.1-0.8-0.3-1.3-0.4c0,0-0.9-0.2-1.8-0.3
	l0,0c-0.5,0-4.2-0.3-6,2.2c-0.9,1.2-0.9,2.6-0.9,3.1v0c0,0.5,0,1.8,0.9,2.9c0.5,0.7,1.1,1,1.9,1.4l0,0c1,0.6,2.1,0.8,2.7,1
	c0.2,0,0.3,0.1,0.4,0.1l0,0v0h0c0.2,0.1,0.5,0.1,0.9,0.2c1.2,0.3,1.5,0.5,1.8,0.7c0.2,0.2,0.6,0.5,0.7,1.1c0.1,0.6-0.3,1.1-0.3,1.2
	c-0.1,0.2-0.4,0.4-0.9,0.6c-1.3,0.4-3,0-4.2-0.7c-0.3-0.2-0.7-0.5-1.1-0.8c-0.4-0.3-0.8-0.6-1-0.8c-0.4,0.5-0.8,1-1.2,1.4
	C-21,256-21.4,256.5-21.8,257z M63.8,259c-0.7-0.3-1.8-1-3-2c0.8-1,1.6-1.9,2.4-2.9c0.2,0.2,0.6,0.5,1,0.8c0.4,0.3,0.8,0.6,1.1,0.8
	c1.2,0.7,2.9,1.2,4.2,0.7c0.5-0.2,0.8-0.4,0.9-0.6c0.1-0.1,0.4-0.6,0.3-1.2c-0.1-0.6-0.5-0.9-0.7-1.1c-0.3-0.2-0.6-0.4-1.8-0.7
	c-0.4-0.1-0.7-0.2-0.9-0.2c-0.1,0-0.3-0.1-0.4-0.1v0c-0.6-0.2-1.7-0.4-2.7-1l0,0v0c-0.7-0.4-1.3-0.7-1.9-1.4
	c-0.9-1.1-0.9-2.4-0.9-2.9c0-0.5,0-1.8,0.9-3.1c1.8-2.5,5.5-2.2,6-2.2c0.9,0.1,1.8,0.3,1.8,0.3c0.5,0.1,0.9,0.3,1.3,0.4
	c1.2,0.5,2.2,1,2.8,1.5c-0.3,0.5-0.6,1-0.9,1.4l0,0l0,0l0,0c-0.3,0.5-0.6,1-0.9,1.5c-1-0.7-1.9-1.2-2.5-1.4
	c-0.9-0.3-1.5-0.4-2.1-0.4c-0.7,0-1.1,0.1-1.4,0.2c-0.3,0.1-0.7,0.3-0.9,0.7c-0.3,0.5-0.3,1.2,0,1.7c0.2,0.3,0.5,0.5,0.6,0.6
	c0.9,0.5,1.8,0.7,2.4,0.8c0.1,0,0.1,0,0.2,0c0.5,0.1,1.8,0.4,3.1,1c0.3,0.2,0.9,0.4,1.4,1c0.2,0.2,0.4,0.4,0.6,0.7
	c0,0,0.4,0.6,0.6,1.2c0.3,0.9,0.4,2.8-0.7,4.4c-0.7,1-1.6,1.4-2.1,1.7C68.3,261,64.4,259.3,63.8,259z M-79,243.3
	c1.4,0.7,2.6,1.8,3.4,3.1c0.8,1.3,1.2,2.9,1.2,4.6c0,1.8-0.4,3.3-1.2,4.6c-0.8,1.3-1.9,2.4-3.4,3.1c-1.4,0.7-3.1,1.1-5,1.1h-6.5
	v-17.6h6.5C-82.1,242.2-80.5,242.5-79,243.3z M-84.2,256.3c1.7,0,3.1-0.5,4.1-1.4c1-1,1.5-2.3,1.5-3.9c0-1.6-0.5-2.9-1.5-3.9
	c-1-1-2.4-1.4-4.1-1.4h-2.4v10.7H-84.2z M33,246.5c-1.9,0-3.6,1.2-4.2,2.9l-4.7-4.7c-3.5-3.5-9.1-3.5-12.6,0
	c-3.5,3.5-3.5,9.1,0,12.6c1.7,1.7,4,2.6,6.3,2.6c2.3,0,4.5-0.9,6.3-2.6l0.1-0.1l-1.9-1.9l-0.1,0.1c-2.4,2.4-6.3,2.4-8.8,0
	c-2.4-2.4-2.4-6.3,0-8.8c2.4-2.4,6.3-2.4,8.8,0l7.5,7.5l0.1,0.1c0.4,0.4,0.8,0.7,1.3,0.9c0.6,0.3,1.2,0.4,1.8,0.4
	c2.5,0,4.5-2,4.5-4.5S35.4,246.5,33,246.5z M26.7,244.7c3.5-3.5,9.1-3.5,12.6,0c1.7,1.7,2.6,3.9,2.6,6.3c0,2.4-0.9,4.6-2.6,6.3
	c-1.7,1.7-4,2.6-6.3,2.6s-4.5-0.9-6.3-2.6l-4.7-4.7c-0.7,1.7-2.3,2.9-4.2,2.9c-2.5,0-4.5-2-4.5-4.5s2-4.5,4.5-4.5
	c0.8,0,1.6,0.2,2.3,0.6c0.3,0.2,0.6,0.4,0.9,0.6l0.1,0.1l7.5,7.5c2.4,2.4,6.3,2.4,8.8,0c1.2-1.2,1.8-2.7,1.8-4.4
	c0-1.7-0.6-3.2-1.8-4.4c-2.4-2.4-6.3-2.4-8.8,0l-0.1,0.1l-1.9-1.9L26.7,244.7z"/>
</svg>
