<?xml version="1.0" encoding="utf-8"?>
<!-- Generator: Adobe Illustrator 19.0.0, SVG Export Plug-In . SVG Version: 6.00 Build 0)  -->
<svg version="1.1" id="Layer_1" xmlns="http://www.w3.org/2000/svg" xmlns:xlink="http://www.w3.org/1999/xlink" x="0px" y="0px"
	 viewBox="-17.3 216.7 336.7 68.7" style="enable-background:new -17.3 216.7 336.7 68.7;" xml:space="preserve">
<style type="text/css">
	.st0{fill:#FFFFFF;}
</style>
<g>
	<path class="st0" d="M250.9,230.9c-1.1,2.7-2.3,5.4-3.4,8c-2.5,6.1-5.1,12.1-7.6,18.2c-0.3,0.7-0.6,1-1.4,0.9c-0.6-0.1-1.2,0-1.9,0
		c-0.7,0-1.1-0.3-1.4-0.9c-1.4-3.5-2.8-7-4.2-10.5c-1.7-4.1-3.3-8.3-5-12.4c-0.4-1-0.7-1.9-1.2-2.9v1.1c0,8.1,0,16.1,0,24.2
		c0,0.2,0,0.3,0,0.4c0,1.2,0.1,1-1,1.1c-0.8,0-1.5,0-2.3,0c-0.4,0-0.6-0.2-0.6-0.6c0-0.2,0-0.4,0-0.6c0-9.8,0-19.7,0-29.5
		c0-0.2,0-0.4,0-0.7c0-0.4,0.2-0.6,0.6-0.6c1.6,0,3.2,0,4.8,0c0.5,0,0.6,0.4,0.8,0.7c1.1,2.7,2.2,5.4,3.3,8.2
		c2.2,5.3,4.3,10.6,6.5,15.9c0.3,0.8,0.7,1.6,0.9,2.6c3.6-8.9,7.4-17.5,11-26.2c0.1-0.1,0.1-0.3,0.2-0.4c0.1-0.6,0.5-0.8,1.1-0.8
		c1.5,0.1,2.9,0.1,4.4,0c0.6,0,0.8,0.2,0.7,0.8c0,0.1,0,0.3,0,0.4c0,9.9,0,19.8,0,29.6c0,1.3,0.1,1.2-1.1,1.2c-0.8,0-1.7,0-2.5,0
		c-0.4,0-0.6-0.1-0.6-0.5c0-0.3,0-0.6,0-0.9C250.8,248,250.8,239.5,250.9,230.9L250.9,230.9z"/>
	<path class="st0" d="M113.6,230.4c-1.6-0.8-3.1-1.4-4.8-1.7c-3.3-0.6-6.6-0.7-9.8,0.3c-4.7,1.4-8.3,6.2-8.5,11
		c-0.4,6.9,4.3,12.4,11.2,13.8c2.9,0.6,5.8,0.4,8.6-0.2c0.6-0.1,0.6-0.5,0.6-0.9c0-2.7,0-5.3,0-7.9c0-0.4,0-0.7,0-1.1
		c0.1-0.6-0.1-0.8-0.7-0.8c-2.3,0.1-4.6,0-6.9,0.2c-0.8,0.1-1.5,0-2.3,0c0.5-1.1,1.1-2,1.5-3.1c0.4-1.2,0.5-1.2,1.8-1.1
		c3.3,0.3,6.7,0.4,10,0.4c0.9,0,0.9,0,0.9,0.9c0,5,0,9.9,0,14.9c0,0.9,0.2,0.8-0.9,1.2c-4.4,1.4-8.9,2-13.5,1.3
		c-6.8-1.1-11.9-4.8-14.1-11.6c-2.6-8.2,1.4-17.1,10.6-20.2c2.9-1,5.9-1.3,8.9-1c1.5,0.1,3,0.3,4.4,0.6c1.4,0.3,2.8,0.8,4.1,1.5
		c0.5,0.2,0.5,0.5,0.3,0.9C114.5,228.6,114.1,229.5,113.6,230.4L113.6,230.4z"/>
	<path class="st0" d="M214.8,258c-1.6,0-3,0-4.4,0c-0.4,0-0.6-0.2-0.8-0.5c-0.6-0.8-1.1-1.7-1.7-2.5c-2.3-3.3-4.6-6.6-6.8-10
		c-0.4-0.5-0.7-0.8-1.4-0.8c-0.9,0.1-1.9,0-2.8,0c-0.8,0-0.8,0-0.8,0.8c0,3.8,0,7.6,0,11.4c0,1-0.5,1.4-1.4,1.4c-0.7,0-1.4,0-2.1,0
		c-0.7,0-0.8,0-0.8-0.8c0-0.3,0-0.5,0-0.8c0-8.3,0-16.6,0-24.9c0-1.6-0.1-3.1-0.5-4.6c-0.1-0.2-0.2-0.5,0-0.7
		c0.2-0.1,0.5-0.1,0.8-0.1c3.4,0,6.9,0,10.4,0c1.2,0,2.4,0.1,3.6,0.3c6.1,1,9.2,8.3,5.2,13.6c-1.3,1.7-3,3-5.1,3.5
		c-0.4,0.1-0.7,0.2-1.2,0.3c0.8,1.3,1.7,2.4,2.5,3.6c0.8,1.2,1.6,2.3,2.5,3.5c0.8,1.2,1.7,2.4,2.5,3.6
		C213.1,255.5,213.9,256.7,214.8,258L214.8,258z M196,235.1c0,1.7,0,3.4,0,5.1c0,0.6,0.2,0.8,0.8,0.7c0.6,0,1.3,0,2,0
		c1.6,0,3.1,0.1,4.7-0.2c2.5-0.4,4.2-1.8,4.8-4.1c0.2-0.9,0.3-1.9,0.1-2.9c-0.4-2.8-1.9-4.2-4.7-4.3c-2.3-0.1-4.6,0-6.9,0
		c-0.7,0-0.7,0-0.8,0.8C196,231.9,196,233.5,196,235.1z"/>
	<path class="st0" d="M282.8,239.6c-0.3,0.7-0.6,1.2-0.9,1.8c-0.4,0.7-0.7,1.4-0.9,2.2c-0.1,0.4-0.3,0.5-0.7,0.4
		c-3.8-0.4-7.7-0.4-11.5-0.5c-0.8,0-0.9,0-0.9,0.8c0,3.2,0,6.3,0,9.5c0,0.9,0,0.9,0.9,0.9c5,0,9.9,0,14.9,0c0.2,0,0.4,0,0.6,0
		c0.8,0,0.8,0,0.8,0.8c0,0.6,0,1.2,0,1.8c0,0.6-0.2,0.7-0.7,0.6c-0.1,0-0.3,0-0.4,0c-6.4,0-12.9,0-19.3,0c-1.3,0-1.2,0.1-1.2-1.1
		c0-9.9,0-19.7,0-29.6c0-1.4-0.1-1.2,1.3-1.2c6.2,0,12.4,0,18.6,0c0.2,0,0.4,0,0.6,0c0.4,0,0.6,0.1,0.6,0.6c0,0.8,0,1.5,0,2.3
		c0,0.4-0.2,0.6-0.6,0.6c-1.2,0-2.4,0-3.6,0c-3.9,0-7.8,0-11.8,0c-0.9,0-0.9,0-0.9,0.9c0,2.8,0,5.7,0,8.5c0,1.1-0.1,1,1,1
		c4.5-0.1,8.9,0,13.4-0.3C282.4,239.6,282.5,239.6,282.8,239.6L282.8,239.6z"/>
	<path class="st0" d="M54.3,238.9c-0.3,0.6-0.6,1.2-0.9,1.8c-0.3,0.6-0.5,1.1-0.7,1.7c-0.3,0.8-0.3,0.8-1.2,0.8
		c-3.7-0.3-7.4-0.4-11.1-0.4c-0.8,0-0.8,0-0.8,0.9c0,3.1,0,6.2,0,9.3c0,1.1,0,1,1,1c4.9,0,9.8,0,14.7,0c0.3,0,0.5,0,0.8,0
		c0.8,0,0.8,0,0.8,0.8c0,0.7,0,1.3,0,2c0,0.5-0.2,0.6-0.7,0.6c-0.7,0-1.4,0-2.1,0c-5.8,0-11.7,0-17.5,0c-0.3,0-0.5,0-0.8,0
		c-0.4,0-0.6-0.2-0.6-0.6c0-0.2,0-0.4,0-0.7c0-9.8,0-19.6,0-29.4c0-0.2,0-0.3,0-0.4c0-0.8,0-0.8,0.9-0.8c4,0,8.1,0,12.1,0
		c2.4,0,4.9,0,7.3,0c0.8,0,0.8,0,0.8,0.8c0,0.5,0,1.1,0,1.6c0,0.8,0,0.9-0.9,0.9c-1.2,0-2.3,0-3.5,0c-3.8,0-7.6,0-11.4,0
		c-1,0-1-0.1-1,0.9c0,2.9,0,5.7,0,8.6c0,0.9,0,0.9,0.9,0.9c4.4,0,8.8-0.1,13.2-0.2C53.8,238.8,54,238.7,54.3,238.9L54.3,238.9z"/>
	<path class="st0" d="M181.2,239.4c-0.8,1.4-1.4,2.6-1.8,4c-0.1,0.4-0.4,0.5-0.7,0.4c-1.6-0.2-3.3-0.2-4.9-0.3
		c-2.2-0.1-4.4-0.1-6.5-0.2c-0.9,0-0.9,0-0.9,0.9c0,3.1,0,6.1,0,9.2c0,1.2,0,1,1.1,1c5,0,10,0,15,0c0.3,0,0.5,0,0.8,0
		c0.3,0,0.4,0.2,0.4,0.5c0,0.8,0,1.6,0,2.4c0,0.3-0.1,0.5-0.4,0.5c-0.2,0-0.4,0-0.6,0c-6.5,0-12.9,0-19.4,0c-0.2,0-0.4,0-0.6,0
		c-0.3,0-0.5-0.1-0.4-0.5c0-0.2,0-0.4,0-0.7c0-9.9,0-19.7,0-29.6c0-1.3-0.2-1.2,1.2-1.2c6.3,0,12.6,0,18.8,0c0.2,0,0.4,0,0.5,0
		c0.4,0,0.6,0.1,0.6,0.6c0,0.7,0,1.4,0,2.1c0.1,0.6-0.2,0.7-0.8,0.7c-3.5,0-7,0-10.6,0c-1.6,0-3.2,0-4.8,0c-0.7,0-0.7,0-0.7,0.8
		c0,2.9,0,5.8,0,8.7c0,0.9,0,0.9,0.9,0.9c4.4,0,8.9-0.1,13.3-0.2C180.7,239.5,180.9,239.5,181.2,239.4L181.2,239.4z"/>
	<path class="st0" d="M289.6,255.2c1.2-0.8,2.3-1.8,3.3-2.8c0.1,0,0.2,0.1,0.3,0.1c2.9,2.5,6.2,2.8,9.7,2.2c1.9-0.3,3.4-1.3,3.9-3.3
		c0.4-1.7,0.2-3.2-1.1-4.5c-0.7-0.7-1.5-1.3-2.4-1.7c-2-1-4.1-2-6.1-3.1c-1.6-0.8-3.2-1.8-4.5-3.2c-3.1-3.1-2.4-7.6-0.1-10.1
		c1.6-1.7,3.7-2.6,5.9-3c4.5-0.8,8.9-0.2,12.9,2.2c0.1,0,0.1,0.1,0.2,0.2c-0.6,1-1.2,2.1-1.9,3.1c-0.5-0.1-0.9-0.4-1.3-0.6
		c-3.1-1.5-6.3-2-9.6-1.3c-0.9,0.2-1.8,0.6-2.5,1.2c-1.8,1.6-1.9,4.1-0.2,5.7c0.7,0.7,1.6,1.2,2.5,1.8c1.6,1,3.3,1.8,5,2.6
		c1.5,0.8,3,1.7,4.5,2.6c4.4,2.9,4.2,10,0,13c-1.9,1.4-4.1,2-6.4,2.2C297.3,258.9,293.2,257.9,289.6,255.2L289.6,255.2z"/>
	<path class="st0" d="M80.7,238.8c-0.8,1.4-1.5,2.7-1.9,4c-0.1,0.5-0.5,0.4-0.8,0.4c-1.2-0.2-2.5-0.2-3.7-0.3
		c-1.9-0.2-3.8-0.1-5.8-0.2c-0.8,0-0.8,0-0.8,0.9c0,4.1,0,8.2,0,12.3c0,1.4,0.2,1.3-1.3,1.3c-0.7,0-1.4,0-2.1,0
		c-0.9,0-0.9,0-0.9-0.9c0-0.1,0-0.2,0-0.3c0-9.8,0-19.6,0-29.4c0-0.2,0-0.3,0-0.4c0-0.8,0-0.8,0.9-0.8c5.8,0,11.6,0,17.4,0
		c0.9,0,0.9,0,0.9,0.9c0,0.8,0.4,1.8-0.2,2.3c-0.5,0.5-1.4,0.1-2.2,0.1c-3.8,0-7.6,0-11.3,0c-0.3,0-0.5,0-0.8,0
		c-0.3,0-0.5,0.1-0.5,0.4c0,3.2,0,6.3,0,9.5c0,0.6,0.4,0.5,0.8,0.5c1.9,0,3.8,0,5.8-0.1C76.3,238.9,78.4,238.8,80.7,238.8
		L80.7,238.8z"/>
	<path class="st0" d="M149.4,239.6c-0.4,0.7-0.8,1.5-1.1,2.3c-0.2,0.4-0.3,0.8-0.5,1.2c-0.3,0.8-0.3,0.8-1.1,0.7
		c-5.2-0.5-10.4-0.5-15.6-0.4c-0.9,0-0.9,0-0.9,0.9c0,4.1,0,8.1,0,12.2c0,1.5,0.2,1.3-1.3,1.3c-0.6,0-1.3,0-2,0c-1.1,0-1,0-1-1
		c0-0.1,0-0.1,0-0.2v-29.4c0-0.1,0-0.3,0-0.4c0-0.8,0-0.8,0.9-0.8c0.8,0,1.7,0,2.5,0c0.9,0,0.9,0,0.9,0.9c0,1.7,0,3.4,0,5.1
		c0,2.2,0,4.4,0,6.6c0,0.9,0,0.9,0.9,0.9c4,0.2,8.1,0.2,12.1,0.1c1.9-0.1,3.9-0.1,5.8-0.2C149.1,239.4,149.3,239.4,149.4,239.6
		L149.4,239.6z"/>
	<path class="st0" d="M286,272.8c2.2,0,4.2,0,6.2,0c0.4,0,0.5-0.1,0.5-0.5c0-0.3,0-0.6,0-0.9c0-1.6-0.6-2.3-2.2-2.3
		c-0.7,0-1.2-0.2-1.5-0.9c-0.1-0.3-0.1-0.6,0.3-0.6c0.8,0,1.7-0.1,2.5,0.1c1.3,0.4,2.3,1.6,2.4,2.9c0,0.3,0,0.7,0,1
		c0,1.2-0.2,1.1,1.1,1.1c0.8,0,0.8,0,0.8-0.8c0-0.4,0-0.8,0-1.2c0-1.4,0.7-2.4,2-3c1.3-0.6,2.6-0.3,3.6,0.6c1,0.9,1.3,2.1,0.9,3.5
		c-0.1,0.2-0.3,0.4-0.2,0.8c0.8,0,1.7,0,2.6,0c0.6,0,0.7-0.2,0.7-0.7c0-1.6,0-3.2,0-4.8c0-0.3,0-0.7,0-1c0.1-0.5,0.3-0.8,0.8-1
		c0.5-0.2,0.7-0.1,0.7,0.4c0,2.6,0,5.3,0,7.9c0,0.4-0.2,0.6-0.6,0.6c-0.3,0-0.6,0-0.9,0c-10,0-19.9,0-29.9,0c-0.3,0-0.5,0-0.8,0
		c-0.5,0-0.7,0.1-0.8,0.7c-0.5,2.6-3.2,3.6-5.4,2.1c-0.4-0.3-0.8-0.6-1.1-0.9c-0.3-0.3-0.3-0.5,0.2-0.7c0.7-0.2,1.3,0,1.9,0.4
		c1,0.6,2,0.4,2.5-0.6c0.1-0.2,0.1-0.3,0.2-0.5c0.1-0.4,0-0.6-0.4-0.6c-0.5,0-1,0-1.5,0c-2-0.2-3.3-1.6-3.2-3.6c0-1.7,1.3-3,3-3.1
		c1.7-0.1,3.2,1,3.6,2.6c0.1,0.7,0.1,1.4,0.1,2.1c0,0.4,0.1,0.6,0.6,0.6c1.5,0,2.9,0,4.4,0c0.4,0,0.6-0.2,0.6-0.6c0-0.4,0-0.9,0-1.3
		c0-1.5,0.7-2.5,2-3.1s2.6-0.3,3.6,0.7c1,0.9,1.2,2.2,0.9,3.5C286.3,272.3,286.2,272.5,286,272.8L286,272.8z M298.9,272.8
		L298.9,272.8c0.3,0,0.6,0,0.9,0c1.2-0.2,2-1.6,1.5-2.6c-0.4-0.8-1.1-1.2-1.9-1.1c-0.7,0.1-1.4,0.9-1.5,1.6c-0.1,0.5,0,1,0,1.5
		c0,0.4,0.2,0.6,0.6,0.5C298.5,272.8,298.7,272.8,298.9,272.8L298.9,272.8z M282.5,272.8c0.2,0,0.4,0,0.6,0c1-0.1,1.8-0.9,1.8-1.9
		c0-1-0.8-1.8-1.8-1.8c-1,0-1.8,0.8-1.8,1.9c0,0.4,0,0.7,0,1.1c0,0.5,0.1,0.8,0.7,0.8C282.2,272.8,282.4,272.8,282.5,272.8
		L282.5,272.8z M272.8,271.4c0-0.1,0-0.5-0.1-0.8c-0.1-0.8-0.8-1.4-1.6-1.4c-0.7-0.1-1.5,0.4-1.8,1.1c-0.3,0.7-0.1,1.5,0.4,2.1
		c0.5,0.5,1.1,0.6,1.8,0.5C272.9,272.8,272.8,273,272.8,271.4L272.8,271.4z"/>
	<path class="st0" d="M154.6,241.9c0,4.9,0,9.9,0,14.8c0,0.3,0,0.5,0,0.8c0,0.3-0.1,0.4-0.4,0.4c-1.1,0-2.3,0-3.4,0
		c-0.3,0-0.4-0.1-0.4-0.4c0-0.3,0-0.5,0-0.8c0-9.9,0-19.7,0-29.6c0-0.1,0-0.2,0-0.2c0-1-0.1-0.9,0.9-0.9c0.8,0,1.7,0,2.5,0
		c0.6,0,0.8,0.1,0.8,0.7c0,2,0,4.1,0,6.1C154.6,235.8,154.6,238.8,154.6,241.9L154.6,241.9z"/>
	<path class="st0" d="M-9.6,243.1c0-0.4,0.2-0.6,0.3-0.8c0.7-1,1.3-2,1.8-3.1C-7,238-7,238-5.7,238.1c2.9,0.2,5.7,0.3,8.6,0.3
		c4.8,0.1,9.7-0.1,14.5-0.2c0.8,0,1.7-0.1,2.5-0.1c0.1,0.2,0,0.3-0.1,0.4c-0.9,1.4-1.6,2.8-2.1,4.4c-0.1,0.4-0.3,0.5-0.7,0.5
		c-7.5-0.7-15-0.7-22.5-0.5C-6.9,242.9-8.3,243-9.6,243.1L-9.6,243.1z"/>
	<path class="st0" d="M-9.6,256.9c0-0.3,0.2-0.5,0.4-0.7c0.8-1.2,1.5-2.3,2-3.6c0.2-0.5,0.5-0.6,1-0.6c5.5,0.5,11,0.4,16.4,0.3
		c3.2,0,6.5-0.2,9.7-0.3c0.1,0.3-0.2,0.5-0.3,0.8c-0.8,1.3-1.4,2.6-1.9,4c-0.1,0.3-0.2,0.6-0.6,0.5c-6.9-0.7-13.8-0.7-20.8-0.6
		c-1.7,0-3.4,0.2-5.1,0.2C-9.1,257-9.4,257.1-9.6,256.9L-9.6,256.9z"/>
	<path class="st0" d="M19.8,224.2c0.1,0.3-0.2,0.5-0.3,0.8c-0.7,1.2-1.4,2.5-1.8,3.8c-0.2,0.5-0.4,0.7-0.9,0.6
		c-5.9-0.6-11.7-0.7-17.6-0.6c-2.8,0-5.5,0.2-8.3,0.3c-0.2,0-0.3,0.1-0.5-0.1c-0.1-0.3,0.2-0.5,0.3-0.8c0.7-1.1,1.5-2.3,1.9-3.5
		c0.2-0.6,0.5-0.7,1.1-0.7c6.4,0.4,12.8,0.4,19.2,0.3c2,0,4.1-0.1,6.1-0.2C19.3,224.2,19.5,224.1,19.8,224.2L19.8,224.2z"/>
	<path class="st0" d="M139.9,272.8c1.8,0,3.4,0,5.1,0s3.3,0,5,0c0.5,0,0.7-0.2,0.7-0.7c0-1.1,0-2.1,0-3.2c0-1,0.4-1.4,1.5-1.5
		c0,0.7,0,1.5,0,2.2c0,0.9,0,1.7,0,2.6c0,0.4,0.1,0.6,0.6,0.6c0.2,0,0.4,0,0.5,0c0.7,0,1.5,0.3,2-0.1c0.5-0.4,0.1-1.3,0.2-2
		c0.1-1.7,1.5-3,3.2-3.1c1.8-0.1,3.3,1.2,3.5,2.9c0.2,1.7-0.8,3.2-2.5,3.6c-0.4,0.1-0.9,0.1-1.3,0.1c-7.5,0-15,0-22.4,0
		c-0.8,0-1.6-0.2-2.3-0.5c-0.1,0.3-0.2,0.6-0.4,0.9c-0.7,1.4-2.2,2.1-3.7,1.8c-1.5-0.3-2.5-1.6-2.6-3.1c0-1.1,0-2.2,0-3.4
		c1.1,0.1,1.4,0.3,1.4,1.2c0.1,0.7,0,1.3,0.1,2c0.1,0.9,0.6,1.7,1.4,1.8c1.1,0.2,2.1-0.5,2.1-1.8c0.1-1.3,0-2.7,0-4c0-0.5,0-1,0-1.5
		c1.1,0.1,1.5,0.4,1.6,1.4c0,0.6,0,1.2,0,1.8c0.1,1.1,0.7,1.7,1.9,1.8c0-1.2,0-2.4,0-3.6c0-1,0.4-1.4,1.6-1.5v5.1
		c1.2-0.2,1.7-0.7,1.8-1.6c0.1-0.7,0-1.3,0-2c0-0.8,0.4-1.3,1.1-1.5c0.2-0.1,0.5,0,0.4,0.3C140.2,269.5,140.6,271.1,139.9,272.8
		L139.9,272.8z M157,271.6c0,1.4-0.2,1.2,1.2,1.2c0.3,0,0.6,0,0.9,0c0.9-0.1,1.6-0.9,1.6-1.8c0-0.9-0.7-1.7-1.5-1.9
		c-0.9-0.2-1.7,0.4-2,1.3C157,270.8,157.1,271.2,157,271.6L157,271.6z"/>
	<path class="st0" d="M177.4,269.3c-0.6-0.3-1.1-0.5-1.2-1.1c-0.1-0.3,0-0.6,0.4-0.6c2.3,0,4.5-0.1,6.8,0c1.7,0.1,2.9,1.5,3,3.3
		c0,1.8-1.1,3.1-2.9,3.3c-0.4,0-0.8,0-1.2,0c-5,0-10.1,0-15.1,0c-0.3,0-0.5,0-0.8,0c-0.4,0-0.6,0.1-0.6,0.5
		c-0.3,2.5-3.3,3.9-5.6,2.2c-0.4-0.3-0.9-0.6-1.2-1.2c0.6-0.5,1.1-0.5,1.8-0.2c0.2,0.1,0.4,0.2,0.6,0.3c1.4,0.8,2.8,0.1,2.9-1.5
		c0.1-1.3,0-2.6,0-3.9c0-0.5,0-1.1,0-1.6c0-0.5,0.2-0.8,0.6-1c0.2-0.1,0.5-0.4,0.8-0.2c0.2,0.2,0.1,0.5,0.1,0.7c0,1.3,0,2.5,0,3.8
		c0,0.5,0.1,0.6,0.6,0.6c1.6,0,3.1,0,4.7,0c0.4,0,0.6-0.2,0.6-0.6c0-1.1,0-2.2,0-3.3c0-1,0.4-1.3,1.5-1.5c0,1.4,0,2.7,0,4
		c0,1.6-0.2,1.3,1.4,1.4c0.9,0,1.9,0,2.9,0C176.8,271.6,176.6,270.5,177.4,269.3L177.4,269.3z M181.2,271.6c0-0.5,0-1-0.3-1.6
		c-0.6-1-1.4-1-2.1-0.1c-0.7,0.9-0.4,2.3,0.8,2.8C180.7,273.2,181.2,272.9,181.2,271.6L181.2,271.6z M182.2,269.3
		c0.6,0.9,0.5,1.9,0.5,3c0,0.6,0.2,0.7,0.7,0.6c0.8-0.2,1.4-0.9,1.5-1.7c0.1-0.7-0.4-1.4-1.1-1.7
		C183.3,269.1,182.8,269.1,182.2,269.3L182.2,269.3z"/>
	<path class="st0" d="M212.6,267.5c0,1.2,0,2.4,0,3.6c0,0.4,0,0.7,0,1.1c0,0.5,0.1,0.7,0.7,0.7c0.7,0,1.5,0,2.2,0
		c0.5,0,0.7-0.2,0.7-0.7c0-1.6,0-3.1,0-4.7c0-0.3,0-0.5,0-0.8c0.1-0.9,0.4-1.2,1.4-1.4c0.2,0.2,0.1,0.5,0.1,0.7c0,2.5,0,4.9,0,7.4
		c0,0.9,0,0.9-0.9,0.9c-7.5,0-15.1,0-22.7,0c-2.3,0-3.6-1.4-3.6-3.5c0-1.7,1.2-3,3-3.2c1.7-0.2,3.3,1,3.6,2.6c0.1,0.7,0.1,1.3,0.1,2
		c0,0.5,0.2,0.7,0.7,0.7c1.7,0,3.5,0,5.2,0c2.3,0,4.6,0,6.9,0c1,0,1,0,1-1c0-0.9,0-1.9,0-2.8C211.1,268.1,211.5,267.7,212.6,267.5
		L212.6,267.5z M195.6,271.6c0-0.3,0-0.5,0-0.8c-0.1-1-0.9-1.7-1.8-1.7c-0.9,0-1.7,0.6-1.8,1.6c-0.1,1,0.5,1.9,1.5,2.1
		c0.3,0.1,0.6,0,0.9,0C195.8,272.8,195.6,273,195.6,271.6L195.6,271.6z"/>
	<path class="st0" d="M237.6,265.2c0,2.3,0,4.5,0,6.7c0,0.5,0,1.1,0,1.6c0,0.6-0.2,0.7-0.8,0.7c-5.5,0-11.1,0-16.7,0
		c-0.8,0-0.8,0-0.8-0.8c0-2.5,0-5.1,0-7.6c0-0.2-0.1-0.5,0.1-0.6c0.3-0.1,0.5,0,0.7,0.2c0.5,0.3,0.7,0.8,0.7,1.4c0,1.7,0,3.3,0,5
		c0,1,0,1,0.9,1c1.3,0,2.6,0,3.9,0c0.8,0,0.8,0,0.8-0.8c0-0.6,0-1.2,0.1-1.7c0.4-1.9,2.3-3,4.1-2.5c1.9,0.5,2.9,2.4,2.3,4.3
		c-0.1,0.2-0.2,0.5-0.3,0.8c1,0,1.9,0,2.8,0c0.6,0,0.5-0.3,0.5-0.7c0-1.7,0-3.5,0-5.2C236.1,265.8,236.4,265.5,237.6,265.2
		L237.6,265.2z M229.2,272.8L229.2,272.8c0.3,0,0.6,0,0.9,0c1.3-0.2,2.1-1.6,1.5-2.7c-0.4-0.8-1.1-1.1-1.9-1
		c-0.8,0.1-1.5,0.9-1.6,1.7c0,0.5,0,0.9,0,1.4c0,0.4,0.2,0.6,0.6,0.6C228.8,272.8,229,272.9,229.2,272.8L229.2,272.8z"/>
	<path class="st0" d="M265.2,267.7c-0.1,1-0.5,1.3-1.3,1.4c-0.2,0-0.4,0-0.6,0c-1,0.1-1.8,0.9-1.8,1.8c0,1,0.8,1.9,1.9,1.9
		c0.6,0,1.3,0,2,0c0.6,0,1.1,0.4,1.2,0.9c0,0.3,0,0.5-0.4,0.5c-0.3,0-0.5,0-0.8,0c-5.8,0-11.5,0-17.3,0c-0.4,0-0.8,0-1.2-0.1
		c-1.9-0.3-3-1.8-2.8-3.8c0.2-1.7,1.6-2.9,3.4-2.9c1.8,0,3.2,1.4,3.3,3.3c0,0.6-0.3,1.4,0.1,1.8c0.4,0.4,1.2,0.2,1.9,0.2
		c2.5,0,5,0,7.5,0c0.2-0.4-0.1-0.7-0.2-1c-0.5-2,0.7-4,2.8-4.2C263.6,267.5,264.4,267.5,265.2,267.7L265.2,267.7z M247.8,272.8
		c0.3,0,0.6,0,0.9,0c0.2,0,0.4-0.1,0.4-0.3c0-0.8,0.1-1.5-0.1-2.3c-0.4-1-1.5-1.4-2.4-1c-1,0.5-1.3,1.6-0.8,2.6
		C246.2,272.7,247,272.9,247.8,272.8L247.8,272.8z"/>
	<path class="st0" d="M310.1,274.2c-1.1-0.1-1.4-0.4-1.5-1.4c0-2.3,0-4.6,0-6.9c0-0.7,0.2-0.7,0.8-0.5c0.5,0.2,0.7,0.6,0.8,1.1
		C310.2,267,310.2,273.7,310.1,274.2L310.1,274.2z"/>
	<path class="st0" d="M239,265.3c1.2,0.1,1.5,0.4,1.5,1.3c0,2.4,0,4.7,0,7.1c0,0.5-0.2,0.6-0.7,0.5c-0.5-0.2-0.9-0.6-0.9-1.1
		C238.9,270.4,239,267.9,239,265.3L239,265.3z"/>
	<path class="st0" d="M246.1,266.7c-0.5,0-0.9-0.4-0.9-1c0-0.6,0.4-0.9,0.9-0.9c0.5,0,1,0.5,1,0.9
		C247.2,266.2,246.7,266.7,246.1,266.7L246.1,266.7z"/>
	<path class="st0" d="M193.7,265.7c0,0.6-0.4,1-0.9,1c-0.6,0-1.1-0.4-1.1-1c0-0.5,0.4-0.9,1-0.9
		C193.2,264.8,193.6,265.2,193.7,265.7L193.7,265.7z"/>
	<path class="st0" d="M194.8,264.8c0.6,0,1,0.4,1,0.9c0,0.6-0.4,1-0.9,1c-0.5,0-1-0.4-1-0.9C193.8,265.3,194.3,264.8,194.8,264.8z"
		/>
	<path class="st0" d="M210.7,275.4c0.5,0,1,0.4,1,1c0,0.5-0.5,1-1,1c-0.5,0-1-0.4-1-1C209.8,275.8,210.2,275.4,210.7,275.4z"/>
	<path class="st0" d="M213.9,276.3c0,0.5-0.4,1-0.9,1c-0.5,0-1-0.4-1-1c0-0.5,0.4-1,0.9-1C213.4,275.4,213.8,275.8,213.9,276.3z"/>
	<path class="st0" d="M291.7,277.6c-0.5,0-1-0.4-1-1s0.4-1,0.9-1c0.6,0,0.9,0.3,1,0.9C292.6,277.1,292.2,277.5,291.7,277.6
		L291.7,277.6z"/>
	<path class="st0" d="M172.1,276.4c0,0.6-0.4,1-0.9,1c-0.5,0-0.9-0.4-0.9-1c0-0.6,0.4-1,0.9-0.9
		C171.8,275.4,172.1,275.8,172.1,276.4z"/>
	<path class="st0" d="M174.3,276.4c0,0.5-0.4,1-0.9,1c-0.5,0-0.9-0.4-0.9-1c0-0.6,0.4-1,0.9-1C173.9,275.4,174.3,275.8,174.3,276.4
		L174.3,276.4z"/>
	<path class="st0" d="M153.4,276.3c0,0.5-0.4,1-0.9,1c-0.5,0-1-0.4-1-0.9c0-0.6,0.3-1,0.9-1C153,275.4,153.4,275.8,153.4,276.3
		L153.4,276.3z"/>
	<path class="st0" d="M150.3,277.3c-0.5,0-1-0.4-1-0.9c0-0.6,0.3-1,0.9-1c0.6,0,0.9,0.3,1,0.9C151.2,276.9,150.8,277.3,150.3,277.3z
		"/>
	<path class="st0" d="M249.3,265.8c0,0.6-0.4,1-1,0.9c-0.5,0-0.9-0.4-0.9-1c0-0.6,0.4-0.9,1-0.9
		C248.9,264.8,249.3,265.2,249.3,265.8L249.3,265.8z"/>
</g>
</svg>
