<?xml version="1.0" encoding="utf-8"?>
<!-- Generator: Adobe Illustrator 19.0.0, SVG Export Plug-In . SVG Version: 6.00 Build 0)  -->
<svg version="1.1" id="Layer_1" xmlns="http://www.w3.org/2000/svg" xmlns:xlink="http://www.w3.org/1999/xlink" x="0px" y="0px"
	 viewBox="-49 184 400 134" style="enable-background:new -49 184 400 134;" xml:space="preserve">
<style type="text/css">
	.st0{fill:#FFFFFF;}
</style>
<g>
	<path class="st0" d="M-19.7,258.4v46.1h-17.7v-55L-19.7,258.4z"/>
	<path class="st0" d="M14.1,232.6l-25.6-6.5c-5.6-2-8.2-3.7-8.2-10v-19h-17.7v19.5c0,12.6,2.4,21.9,21,26.8l25.6,6.5h0.2
		c5.4,1.9,7.8,3.7,7.8,10v44h17.7v-44.6C35.1,239.8,26.4,235.8,14.1,232.6z"/>
	<path class="st0" d="M229.7,282.2c-2,2-4.8,3.7-7.8,4.8s-6.5,1.7-10.2,1.7c-6.5,0-11.7-1.9-15.8-5.6c-3.9-3.7-6.5-8.5-7.6-14.3
		c-0.7-3.9-0.7-7.8,0-11.3c0.7-3.5,2.2-6.5,4.5-9.1c2-2.6,4.8-4.5,7.8-5.9c3.2-1.5,6.7-2.2,10.8-2.2c4.1,0,7.2,0.7,10.4,2
		c3,1.3,5.8,3.2,7.8,5.4c2,2.2,3.7,5,5,8c1.1,3,1.7,6.3,1.7,9.7c0.2,3.3-0.4,6.5-1.5,9.3C233.6,277.8,231.9,280.2,229.7,282.2
		L229.7,282.2z M238.6,226.1l-1.1,8.7c-2.6-2.4-5.4-4.3-8-5.8c-2.6-1.5-5.2-2.4-7.6-3.2c-1.5-0.6-3-0.7-4.5-1.1
		c-4.6-0.9-7.6-0.6-7.6-0.6l0,0c-0.7,0-1.7,0-2.4,0c-6.9,0.4-12.8,1.9-17.8,4.6c-5,2.8-9.1,6.3-12.3,10.6c-3,4.3-5,9.3-6.1,15.1
		c-1.1,5.6-0.9,11.5,0.2,17.7c1.1,5.6,2.8,10.4,5.2,14.5c2.4,4.1,5.2,7.4,8.5,10s7.1,4.6,11,5.9s8.2,2,12.3,2c2.4,0,4.6-0.2,6.9-0.4
		l0,0c0,0,1.1,0,3.2-0.4c1.9-0.4,3.7-0.7,5.4-1.3h0.2c4.3-1.3,9.3-3.5,13.2-7.2l1.9,9.5h16.7l0,0l0.2-78.2L238.6,226.1L238.6,226.1z
		"/>
	<path class="st0" d="M105.2,282.2c-2,2-4.8,3.7-7.8,4.8s-6.5,1.7-10.2,1.7c-6.5,0-11.7-1.9-15.8-5.6c-3.9-3.7-6.5-8.5-7.6-14.3
		c-0.7-3.9-0.7-7.8,0-11.3c0.7-3.5,2.2-6.5,4.5-9.1c2-2.6,4.8-4.5,7.8-5.9c3.2-1.5,6.7-2.2,10.8-2.2c4.1,0,7.2,0.7,10.4,2
		c3,1.3,5.8,3.2,7.8,5.4c2,2.2,3.7,5,5,8c1.1,3,1.7,6.3,1.7,9.7c0.2,3.3-0.4,6.5-1.5,9.3C109.1,277.8,107.4,280.2,105.2,282.2
		L105.2,282.2z M114.1,226.1l-1.1,8.7c-2.6-2.4-5.4-4.3-8-5.8c-2.6-1.5-5.2-2.4-7.6-3.2c-1.5-0.6-3-0.7-4.5-1.1
		c-4.6-0.9-7.6-0.6-7.6-0.6l0,0c-0.7,0-1.7,0-2.4,0c-6.9,0.4-12.8,1.9-17.8,4.6c-5,2.8-9.1,6.3-12.3,10.6c-3,4.3-5,9.3-6.1,15.1
		c-1.1,5.6-0.9,11.5,0.2,17.7c1.1,5.6,2.8,10.4,5.2,14.5c2.4,4.1,5.2,7.4,8.5,10c3.3,2.6,7.1,4.6,11,5.9c3.9,1.3,8.2,2,12.3,2
		c2.4,0,4.6-0.2,6.9-0.4l0,0c0,0,1.1,0,3.2-0.4c1.9-0.4,3.7-0.7,5.4-1.3h0.2c4.3-1.3,9.3-3.5,13.2-7.2l1.9,9.5h16.7l0,0l0.2-78.2
		L114.1,226.1L114.1,226.1z"/>
	<path class="st0" d="M141.8,304.5h17.7V197.1h-17.7V304.5z"/>
	<path class="st0" d="M337.5,246.4L337.5,246.4c-0.7-1.9-1.7-3.7-2.8-5.6c-3.2-4.8-8-8.5-13.2-10.8c-1.7-0.7-3.3-1.3-4.8-1.9
		c-4.8-1.5-10.4-1.9-13.8-1.9c0,0-11,0.2-19.3,5.6l-0.9-5.6h-16v78.2l0,0h17.5h0.2l0,0V261c0.2-4.6,0.9-9.7,5-13.4
		c3.7-3.5,9.1-5,13.6-5h0.2c4.5,0,9.8,1.5,13.6,5c4.1,3.7,4.8,8.7,5,13.4v43.5h17.7V256C339.2,252.9,338.6,249.5,337.5,246.4
		L337.5,246.4z"/>
</g>
</svg>
