<?xml version="1.0" encoding="utf-8"?>
<!-- Generator: Adobe Illustrator 19.0.0, SVG Export Plug-In . SVG Version: 6.00 Build 0)  -->
<svg version="1.1" id="Layer_1" xmlns="http://www.w3.org/2000/svg" xmlns:xlink="http://www.w3.org/1999/xlink" x="0px" y="0px"
	 viewBox="-178 223.7 158 54.7" style="enable-background:new -178 223.7 158 54.7;" xml:space="preserve">
<style type="text/css">
	.st0{fill:#FFFFFF;}
</style>
<g>
	<path class="st0" d="M-173.6,273.8c0.3,0.4,0.8,0.7,1.5,0.7c0.9,0,1.1-0.5,1.1-0.8c0-0.6-0.6-0.7-1.2-0.9c-0.8-0.2-1.6-0.4-1.6-1.4
		c0-0.8,0.7-1.3,1.7-1.3c0.7,0,1.3,0.2,1.7,0.7l-0.4,0.4c-0.4-0.4-0.9-0.6-1.4-0.6c-0.6,0-1,0.3-1,0.8c0,0.5,0.6,0.6,1.2,0.8
		c0.8,0.2,1.7,0.5,1.7,1.5c0,0.7-0.5,1.4-1.8,1.4c-0.8,0-1.5-0.3-1.9-0.8L-173.6,273.8z"/>
	<path class="st0" d="M-165.4,270.1h3.2v0.5h-2.6v1.5h2.5v0.5h-2.5v1.7h2.6v0.5h-3.2V270.1z"/>
	<path class="st0" d="M-157.4,272.5c0-1.5,1.1-2.5,2.5-2.5c0.9,0,1.5,0.4,1.9,1l-0.5,0.3c-0.3-0.4-0.8-0.7-1.3-0.7
		c-1,0-1.8,0.8-1.8,2c0,1.1,0.8,2,1.8,2c0.6,0,1.1-0.3,1.3-0.7l0.5,0.3c-0.4,0.5-1,1-1.9,1C-156.3,275-157.4,274-157.4,272.5z"/>
	<path class="st0" d="M-148.3,270.1h0.6v2.9c0,0.9,0.5,1.4,1.4,1.4s1.4-0.6,1.4-1.4v-2.9h0.6v2.9c0,1.2-0.7,2-2,2s-2-0.8-2-2V270.1z
		"/>
	<path class="st0" d="M-137.6,273h-1v1.9h-0.6v-4.8h1.9c0.9,0,1.5,0.6,1.5,1.4c0,0.9-0.6,1.3-1.3,1.4l1.3,2h-0.7L-137.6,273z
		 M-137.3,270.6h-1.3v1.8h1.3c0.6,0,1-0.4,1-0.9C-136.4,271-136.8,270.6-137.3,270.6z"/>
	<path class="st0" d="M-130.8,270.1h0.6v4.8h-0.6V270.1z"/>
	<path class="st0" d="M-123.8,270.6h-1.5v-0.5h3.7v0.5h-1.5v4.3h-0.6V270.6z"/>
	<path class="st0" d="M-115.5,272.9l-1.9-2.8h0.7l1.5,2.2l1.5-2.2h0.7l-1.9,2.8v2h-0.6V272.9z"/>
	<path class="st0" d="M-102.4,270.1h1.7c1.5,0,2.5,1,2.5,2.4c0,1.4-1,2.4-2.5,2.4h-1.7V270.1z M-100.7,274.4c1.2,0,1.9-0.8,1.9-1.9
		c0-1-0.7-1.9-1.9-1.9h-1.1v3.7H-100.7z"/>
	<path class="st0" d="M-93.3,270.1h3.2v0.5h-2.6v1.5h2.5v0.5h-2.5v1.7h2.6v0.5h-3.2L-93.3,270.1L-93.3,270.1z"/>
	<path class="st0" d="M-85.2,270.1h0.6v4.3h2.2v0.5h-2.8V270.1z"/>
	<path class="st0" d="M-77.4,270.1h0.6v4.8h-0.6V270.1z"/>
	<path class="st0" d="M-72.2,270.1h0.7l1.6,4.1l1.6-4.1h0.7l-2,4.8h-0.7L-72.2,270.1z"/>
	<path class="st0" d="M-62.9,270.1h3.2v0.5h-2.6v1.5h2.5v0.5h-2.5v1.7h2.6v0.5h-3.2V270.1z"/>
	<path class="st0" d="M-53.2,273h-1v1.9h-0.6v-4.8h1.9c0.9,0,1.5,0.6,1.5,1.4c0,0.9-0.6,1.3-1.3,1.4l1.3,2H-52L-53.2,273z
		 M-52.9,270.6h-1.3v1.8h1.3c0.6,0,1-0.4,1-0.9C-51.9,271-52.3,270.6-52.9,270.6z"/>
	<path class="st0" d="M-46.3,270.1h3.2v0.5h-2.6v1.5h2.5v0.5h-2.5v1.7h2.6v0.5h-3.2V270.1z"/>
	<path class="st0" d="M-38.2,270.1h1.7c1.5,0,2.5,1,2.5,2.4c0,1.4-1,2.4-2.5,2.4h-1.7V270.1z M-36.6,274.4c1.2,0,1.9-0.8,1.9-1.9
		c0-1-0.7-1.9-1.9-1.9h-1.1v3.7H-36.6z"/>
	<path class="st0" d="M-174,229.8h6.3v29.6h-6.3V229.8z"/>
	<path class="st0" d="M-149.6,235.3h-8.7v-5.5h23.8v5.5h-8.7v24.1h-6.4V235.3z"/>
	<path class="st0" d="M-124,250.4c2.1,2.2,5.4,4,9.5,4c3.5,0,5.2-1.6,5.2-3.3c0-2.2-2.6-3-6-3.8c-4.9-1.1-11.1-2.4-11.1-9.1
		c0-4.9,4.3-8.9,11.3-8.9c4.7,0,8.7,1.4,11.6,4.1l-3.5,4.6c-2.4-2.2-5.6-3.2-8.5-3.2c-2.9,0-4.4,1.2-4.4,3c0,2,2.5,2.6,5.9,3.4
		c4.9,1.1,11.2,2.6,11.2,9.1c0,5.4-3.9,9.5-11.9,9.5c-5.7,0-9.8-1.9-12.6-4.7L-124,250.4z"/>
	<path class="st0" d="M-60.7,244.6c0-9.1,6.9-15.3,15.6-15.3c6.8,0,10.6,3.6,12.7,7.2l-5.5,2.7c-1.3-2.4-3.9-4.3-7.2-4.3
		c-5.2,0-9.1,4.1-9.1,9.7c0,5.6,3.9,9.7,9.1,9.7c3.3,0,6-1.9,7.2-4.3l5.5,2.6c-2.1,3.7-5.9,7.3-12.7,7.3
		C-53.7,259.9-60.7,253.7-60.7,244.6z"/>
	<path class="st0" d="M-68.1,241.7c0,0-1.9,5.2-8.6,5.3H-95c0,0,2.2-5.3,8.4-5.3H-68.1z"/>
	<path class="st0" d="M-68.1,229.5c0,0-1.9,5.2-8.6,5.3H-95c0,0,2.2-5.3,8.4-5.3H-68.1z"/>
	<path class="st0" d="M-68.1,254.1c0,0-1.9,5.2-8.6,5.3H-95c0,0,2.2-5.3,8.4-5.3H-68.1z"/>
	<path class="st0" d="M-28.6,229.8v-2.4h-0.8V227h2.2v0.4h-0.8v2.4H-28.6z"/>
	<path class="st0" d="M-24.5,229.8v-2.2l-0.8,2.2h-0.2l-0.9-2.2v2.2h-0.5V227h0.7l0.8,1.9l0.7-1.9h0.7v2.8H-24.5z"/>
</g>
</svg>
