<?xml version="1.0" encoding="utf-8"?>
<!-- Generator: Adobe Illustrator 19.0.0, SVG Export Plug-In . SVG Version: 6.00 Build 0)  -->
<svg version="1.1" id="Layer_1" xmlns="http://www.w3.org/2000/svg" xmlns:xlink="http://www.w3.org/1999/xlink" x="0px" y="0px"
	 viewBox="2 204.5 298 93" style="enable-background:new 2 204.5 298 93;" xml:space="preserve">
<style type="text/css">
	.st0{fill:#FFFFFF;}
</style>
<g>
	<path class="st0" d="M96,247.6c0-2.5,0-5,0-7.5c0-0.8-0.3-1.4-0.8-1.9c-8.9-8.9-17.8-17.7-26.6-26.6c-0.6-0.6-1.2-0.8-1.9-0.8
		c-2.4,0-4.9,0-7.3,0c-0.9,0-1.5,0.3-2.1,0.9c-1.2,1.2-2.4,2.4-3.9,3.8c-1.4-1.3-2.7-2.6-3.9-3.8c-0.6-0.6-1.3-0.8-2.1-0.8
		c-2.4,0.1-4.8,0.1-7.2,0c-0.9,0-1.5,0.3-2.1,0.9c-8.8,8.9-17.7,17.8-26.5,26.7c-0.6,0.6-0.8,1.3-0.8,2.1c0,2.3,0.1,4.5,0,6.8
		c0,1.1,0.3,2,1.1,2.8c1.2,1.1,2.4,2.3,3.5,3.7c-1.2,1.2-2.3,2.5-3.5,3.6c-0.8,0.8-1.1,1.6-1.1,2.8c0.1,2.2,0.1,4.4,0,6.6
		c0,1.1,0.4,1.8,1.1,2.6c4.6,4.5,9.1,9.1,13.6,13.6c0.4,0.4,0.7,0.9,1.4,1.1c1.5-1.5,3-3,4.6-4.6c1.6-1.6,3.2-3.2,4.8-4.8
		c1.6-1.5,3.1-3.1,4.7-4.7c1.6-1.6,3.2-3.2,4.8-4.8c1.5-1.5,3-3.1,4.8-4.7v25.2c-1.6,0.3-3-0.1-4.4,0.3v5.2h10.1v-31
		c8.1,8.1,15.9,15.9,23.7,23.7c0.3-0.1,0.4-0.2,0.5-0.3c5-5,10-10,15-14.9c0.5-0.5,0.7-1.1,0.7-1.8c0-2.4,0-4.9,0-7.4
		c0-0.9-0.2-1.5-0.9-2.1c-1.3-1.2-2.5-2.5-3.8-3.9c1.3-1.4,2.6-2.7,3.8-3.9C95.8,249,96,248.5,96,247.6L96,247.6z M26.2,276.2
		c-1.5-1.5-3.2-3.3-5-5c-1.5-1.5-2.9-3-4.4-4.4c-0.6-0.6-0.9-1.2-0.9-2.1c0-4-0.1-4.1,2.9-7c1.3-1.3,2.7-2.5,4.2-3.8
		c-1.1-1.2-2-2.1-2.9-3c-1.1-1.1-2.1-2.2-3.3-3.2c-0.6-0.6-0.8-1.3-0.9-2.1c-0.4-2.8,0.4-5,2.7-6.9c2.4-2,4.4-4.4,6.7-6.6
		c0.4-0.4,0.8-1,1.2-1.1c7.6,7.6,15.1,15.1,22.4,22.4C41.5,260.9,33.9,268.5,26.2,276.2L26.2,276.2z M88.5,258.1
		c1.8,1.5,2.4,3.3,2.3,5.6c-0.1,1.5-0.4,2.5-1.5,3.5c-3.1,3-6.1,6-8.9,8.9c-7.6-7.6-15.2-15.2-22.7-22.7
		c7.3-7.3,14.9-14.9,22.5-22.5c0.3,0,0.5,0.5,0.9,0.8c2.9,2.9,5.8,5.8,8.7,8.7c0.7,0.7,0.9,1.4,1,2.4c0.4,2.8-0.5,4.9-2.8,6.7
		c-1.5,1.1-2.7,2.6-4.1,4C85.4,255.2,86.9,256.7,88.5,258.1L88.5,258.1z"/>
	<path class="st0" d="M236,248.6h-4.3c-0.3-1.9-0.1-3.7-0.1-5.6h16.9v5.7c-1.3,0-2.4,0-3.5,0c-0.5,0-1.1-0.1-1.6,0.3
		c-2.8,2.4-5.7,4.8-8.6,7.3c3.1,4.3,6.1,8.6,9.1,12.9h6c0.2,1.9,0.1,3.7,0,5.6h-13.1c0-1.4,0-2.7,0-4c0-0.6,0.1-1.2-0.3-1.8
		c-2.1-3.1-4.2-6.1-6.4-9.3c-1.8,1.2-3.3,2.7-4.9,4c-0.4,0.3-0.5,0.7-0.5,1.1c0,1.3,0,2.7,0,4.1c2,0.4,4,0,6,0.3v5.5h-17.1
		c-0.1-1.9-0.1-3.6,0-5.5c1.5-0.4,2.9,0,4.5-0.3v-36.2c-1.5-0.4-3,0.1-4.6-0.3c-0.2-1.8-0.1-3.7-0.1-5.6h11.3v31.1
		c0.1,0.1,0.3,0.1,0.4,0.2c3.8-3,7.5-6.1,11.2-9.2C236,249,236,248.8,236,248.6L236,248.6z"/>
	<path class="st0" d="M258.4,248.7h-5.7c-0.3-1.9-0.1-3.7-0.1-5.6h12.8c0.3,1,0.2,1.9,0.1,2.8c-0.1,1.7,0.2,3.3,0.9,4.8
		c2,5,4,10,6,15c0.1,0.3,0.3,0.5,0.6,1.1c2.6-6.1,5.1-11.9,7.7-18.1h-7.4c-0.3-2-0.1-3.8-0.1-5.7h18.3v5.5c-1.3,0.4-2.7,0-4.1,0.3
		c-0.9,1.3-1.4,2.9-2,4.4c-4.4,10.3-8.8,20.6-13.2,30.9c-2.6,6-6,7.9-12.5,6.8c-1-0.2-2.1-0.3-3-0.9c-0.1-1.5-0.1-3.1,0-4.9h8.3
		c1.5-3.4,3-6.7,4.5-10c0.4-0.8,0-1.4-0.3-2.1c-2.8-6.3-5.5-12.7-8.3-19C259.9,252.3,259.2,250.6,258.4,248.7L258.4,248.7z"/>
	<path class="st0" d="M168.6,248.7h-6.1c-0.2-1.9-0.1-3.7-0.1-5.7c4.2-0.1,8.3-0.1,12.6,0c0,4.5,0,8.8,0,13.1c0,4.3,0,8.5,0,12.9
		c1.6,0.4,3.2,0,4.8,0.3v5.5h-10c-0.3-1.5,0-3.1-0.2-4.6c-0.7,0-0.9,0.6-1.2,1c-3.9,3.9-8.6,5.1-14,4c-3.2-0.7-5.1-2.9-6.1-6
		c-0.5-1.8-0.8-3.6-0.8-5.4c0-4.3,0-8.6,0-12.9c0-0.6,0.2-1.3-0.3-2.1h-4.5V243H154c0.4,0.7,0.2,1.3,0.2,1.9c0,5.4,0,10.9,0,16.4
		c0,0.8,0,1.6,0,2.4c0.1,4,2,5.8,6,5.8c2.4,0,4.6-0.8,6.5-2.3c1.3-1,2-2.3,2-4.1C168.6,258.4,168.7,253.7,168.6,248.7L168.6,248.7z"
		/>
	<path class="st0" d="M207.7,267.1c0.8,1.7,1.1,3.5,1.8,5.2c-1,1-2.4,1.4-3.6,1.8c-4.2,1.5-8.5,2.1-13,1.1c-4.4-1-7.5-3.7-9.1-8
		c-2.1-5.5-2.2-11,0.1-16.5c2.1-5.1,6.1-7.9,11.7-8.4c4.7-0.4,9.1,0.6,13.5,2.6c-0.2,3.8-0.8,7.4-1.3,11.2c-1.8,0.2-3.5,0.2-5.3,0
		v-7.3c-2.6-1-5.1-1.3-7.6-0.5c-2.6,0.8-4.1,2.8-4.8,5.3c-1,3.4-0.9,6.8,0.1,10.1c1.2,4.3,4.7,6.3,9.4,5.7
		C202.3,269.1,205,268.4,207.7,267.1L207.7,267.1z"/>
	<path class="st0" d="M140.7,269.2c0.1,1.9,0.2,3.7,0.4,5.5c-2.8,1-5.5,1.3-8.2,0.5c-2.4-0.6-3.6-2.4-4.2-4.6
		c-0.4-1.6-0.4-3.1-0.4-4.7c0-10.3,0-20.7,0-31c0-0.7,0.1-1.3-0.2-2.2h-5.1c-0.3-2-0.1-3.8-0.1-5.7h11.7c0.4,0.6,0.2,1.3,0.2,2
		c0,11.8,0,23.5,0,35.3c0,1,0,2,0.1,2.9c0.2,1.6,1,2.3,2.6,2.3C138.4,269.5,139.5,269.3,140.7,269.2L140.7,269.2z"/>
</g>
</svg>
