<?xml version="1.0" encoding="utf-8"?>
<!-- Generator: Adobe Illustrator 19.0.0, SVG Export Plug-In . SVG Version: 6.00 Build 0)  -->
<svg version="1.1" id="Layer_1" xmlns="http://www.w3.org/2000/svg" xmlns:xlink="http://www.w3.org/1999/xlink" x="0px" y="0px"
	 viewBox="42.7 192 216.7 118" style="enable-background:new 42.7 192 216.7 118;" xml:space="preserve">
<style type="text/css">
	.st0{fill:#FFFFFF;}
</style>
<g>
	<path class="st0" d="M63.9,248.3c-4.6,0.5-10.3-3.9-11.2-10.2c-0.1-0.9-0.1-1.8-0.1-2.7c0-5.1,0-10.2,0-15.5h6
		c0.7,0.7,0.4,1.6,0.4,2.3c0,4.3,0.2,8.7,0,13c-0.3,5,3,7,7.1,7c5.5-0.1,11.1,0,16.6,0c3.1,0,6.1,0,9.2,0c4.3,0,6.4-2.1,6.4-6.3
		c0-5.4,0-10.9,0-16.3c0-1,0-2,0-3.1c2.2-0.6,4.2-0.3,6.4-0.3c0,2.7,0,5.1,0,7.5c0,4,0.1,8.1,0,12.1c-0.1,4.4,2.8,6.1,6,6.2
		c3.6,0.1,7.1,0.1,10.7,0c3.5-0.1,5.8-2.6,5.8-6.2c0.1-4.6,0-9.3,0-13.9c0-0.7,0.1-1.3,0.1-2.1h5.6c0.7,0.7,0.4,1.5,0.4,2.3
		c0,4.4,0,8.9,0,13.3c0,1.2,0.1,2.3,0.4,3.5c1,3.1,3.7,4.9,6.8,4.4c3-0.4,5.3-3.3,5.2-5.9c-0.1-5.4,0-10.9,0-16.3c0-1-0.2-2,0.3-3.1
		h5.8c0.6,0.6,0.3,1.5,0.3,2.2c0,5.6,0,11.3,0.1,16.9c0.1,4,3.5,6.8,7.3,6.2c2.9-0.5,5-3.2,5.1-6.7c0-5.4,0-10.9,0-16.3
		c0-1.3-0.2-2.6,0.2-4c2-0.4,4-0.3,5.9-0.1c0,6,0,11.8,0,17.6c0,0.6,0,1.2,0,1.8c0.4,4.7,2.3,6.4,7.1,6.5c4.7,0.1,9.5,0,14.2,0
		c5.3,0,7.7-3,6.9-8.2c-0.7-4.8-3.4-8.5-6.5-12c-1.8-2.1-3.9-3.9-6-5.7c-2.5-2.2-2.4-5.7,0.2-7.8c5.8-4.6,12.6-6.9,19.8-7.6
		c3.3-0.4,6.6-1,9.9-0.5c0.1,0.3,0.3,0.4,0.3,0.6c0.2,5.5,0.2,5.5-5.2,5.8c-6.8,0.4-13.5,1.4-19.4,5.6c0.5,1,1.4,1.6,2.1,2.3
		c7,6.4,11.1,14.4,13.8,23.3c1.5,4.8,0.6,4.1,5.6,4.1c2,0,3.9,0.1,5.9-0.3c3.5-0.6,5-2.1,5-5.7c0-3,0-5.9,0-8.9
		c0.1-5.5,3.8-10.6,8.9-11.9c4.2-1.1,8.2-0.6,11.7,2.3c0.4,0.3,0.7,0.6,1.2,1c2.6-2.3,5.5-3.9,9-4.1c0.9,2,0.2,3.9,0.5,5.8
		c-0.4,0.2-0.6,0.4-0.9,0.5c-4.1,1.4-5.4,3-5.5,7.3c-0.1,3.2,0,6.3,0,9.5c0,4.9-2.5,8.5-6.8,10.7c-4.5,2.3-8.9,1.9-13-1.1
		c-0.8-0.6-1.5-1.2-2.5-2c-3.3,3.1-7.5,3.2-11.8,3.1c-3.7-0.1-7.5,0-11.2,0c-0.4-1.5-0.8-2.8-1.2-4.4c-3.4,3.9-7.6,4.6-12.2,4.4
		c-4.3-0.2-8.7-0.1-13,0c-3.5,0.1-6.6-0.8-9.6-3.2c-2.4,3-5.7,4.6-9.4,4.7c-3.7,0.1-6.9-1.4-9.6-4c-2.9,2.7-6.1,4.2-9.9,4.1
		c-3.7-0.2-6.8-1.9-9.4-4.7c-2.9,2.7-6.2,3.4-9.9,3.2c-2.7-0.1-5.3-0.1-8,0c-3.8,0.2-7.2-0.7-10.1-3.5c-2.4,1.5-4.6,3.4-7.6,3.3
		c-0.3-0.7-1-0.5-1.5-0.5c-9,0-18.1,0-27.1,0C64.9,247.8,64.2,247.6,63.9,248.3L63.9,248.3z M230.9,232.4
		C230.9,232.4,230.9,232.4,230.9,232.4c0,1.7,0,3.4,0,5c0.1,3.3,2.6,5.9,5.7,6.1c3.2,0.2,6.2-1.9,6.5-5.2c0.4-4,0.5-8.1-0.1-12.1
		c-0.6-3.4-3.2-5.3-6.2-5.2c-3.3,0.2-5.7,2.8-5.9,6.2C230.9,229.1,231,230.7,230.9,232.4L230.9,232.4z"/>
	<path class="st0" d="M228.5,284.3h-6.3V259h6.1c0.4,2.7,0.1,5.4,0.1,8.1c1.1,0.4,1.7-0.4,2.5-0.7c6.2-2.8,12.1-1.5,16.2,3.6
		c1.5,1.8,2.3,3.9,2.3,6.2c0,3.5,0,7.1,0,10.7c-0.1,6.8-4.4,11.9-11.1,12.9c-3.1,0.4-6.3,0.4-9.4-0.1c-7.2-1.3-11.9-5.8-15.4-11.8
		c-1.9-3.1-3.2-6.6-5.1-9.7c-3.8-5.9-11-8.6-17.8-6.5c-2.5,0.8-3.9,2.6-4,4.9c-0.3,3.9-0.3,7.9-0.1,11.8c0.2,3.7,4.6,5.9,8.4,4.5
		c3.1-1.1,5.1-4.1,5.1-7.4c0-1.8,0-3.7,0-5.2c0.6-0.7,1-0.6,1.4-0.6c1.5,0,2.9,0,4.4,0c0.6,2.3,0.7,16.5,0.2,20.6
		c-1.8,0.4-3.6,0.1-5.3,0.1c-1-0.6-0.3-1.7-1-2.2c-0.5-0.2-0.9,0-1.4,0.2c-5.8,3-12.4,0.7-15.6-3.2c-1.7-2.2-2.7-4.6-2.8-7.3
		c-0.1-3.3-0.1-6.5,0-9.8c0.1-7.7,5.3-12.8,13-13.3c7.4-0.5,13.6,1.7,18.6,7.1c2,2.2,3.5,4.8,4.7,7.4c1.3,2.9,2.7,5.7,4.6,8.2
		c4.5,5.9,11.6,7.2,18,5.5c2-0.5,3.4-2.1,3.8-4.2c0.9-4.3,0.8-8.6,0.2-12.9c-0.4-3.2-3.8-5.1-7.2-4.5c-3,0.5-5.1,2.4-7,4.7
		c-0.5,0.6-0.4,1.3-0.4,2C228.5,280.1,228.5,282.1,228.5,284.3L228.5,284.3z"/>
	<path class="st0" d="M76,269.5c3-3.1,6.6-4.3,10.8-4.1c6.2,0.3,11.8,5.5,12,11.7c0.2,7.7,0.1,15.4,0.1,23.2c-2.1,0.5-4.1,0.1-6,0.2
		c-0.7-1.2-0.4-2.2-0.4-3.1c0-6.4,0-12.8,0-19.2c0-3.1-1.6-5-4.3-6.1c-4.4-1.8-9.1,1.3-9.3,6.4c-0.2,6.6,0,13.2,0,19.8
		c0,2.1,0.1,2.2-1.9,2.3c-1.3,0-2.6,0-3.7,0c-0.9-0.7-0.6-1.5-0.6-2.3c0-6.4,0-12.8,0-19.2c0-2.1-0.4-3.9-2-5.4
		c-2-1.8-4.3-2.8-7-1.7c-2.8,1.2-4.5,3.1-4.5,6.3c0,6.1,0,12.2,0,18.4c0,1.2,0,2.4,0,3.6c-2.1,0.6-4.1,0.3-6,0.2
		c-0.6-0.8-0.4-1.6-0.4-2.4c0-6-0.2-12,0-18.1c0.2-4.6-1-7.4-6.5-8.7c-0.3-2-0.2-4,0-6.1c3.8,0.2,7,1.5,9.7,4.4
		C62.6,263.9,69.3,263.5,76,269.5L76,269.5z"/>
	<path class="st0" d="M135.2,300.5h-5.6c-0.9-0.8-0.1-1.9-0.8-2.9c-2.2,0.5-4.3,1.5-6.6,1.9c-7.3,1.2-13.5-3.6-14.1-9.7
		c-0.5-4.8-0.7-9.6,0.2-14.4c1.1-5.7,5.8-9.7,11.6-9.9c3.3-0.1,6.5-0.1,9.8,0c3.3,0.1,5.8,2.5,5.8,5.8c0.1,9.5,0,18.9,0,28.4
		C135.5,299.8,135.4,300,135.2,300.5L135.2,300.5z M129.1,271.5c-3.1,0-5.6-0.1-8.2,0c-3.6,0.1-6.9,2.9-6.7,7.1c0.2,3.1,0,6.1,0,9.2
		c0.1,3.2,2.3,5.3,5.4,5.5c3.1,0.2,5.7-1.3,8.1-3.1c1-0.8,1.5-1.7,1.4-3c-0.1-2.7-0.1-5.3-0.1-8
		C129.1,276.7,129.1,274.3,129.1,271.5L129.1,271.5z"/>
	<path class="st0" d="M148.6,301.7c-1.6-1.6-3.4-2.5-4.8-4.1c3.8-4.8,7.5-9.5,11.4-14.5c-3.8-4.8-7.5-9.6-11.5-14.7
		c1.7-1.3,3.2-2.5,4.9-3.9c3.5,4.5,7,8.8,10.6,13.4c3.5-4.5,6.9-8.8,10.4-13.2c2.1,0.8,3.5,2.3,5.1,3.7c-3.8,4.9-7.6,9.7-11.4,14.6
		c3.8,4.8,7.5,9.6,11.4,14.6c-1.6,1.3-3.2,2.6-4.9,4c-3.5-4.5-6.9-8.8-10.6-13.4C155.7,292.8,152.3,297.1,148.6,301.7L148.6,301.7z"
		/>
	<path class="st0" d="M77.6,260.8c-2.2,0-3.7-1.6-3.6-3.8c0.1-2.2,1.6-3.6,3.9-3.5c2,0.1,3.7,1.6,3.7,3.5
		C81.6,259.1,79.8,260.8,77.6,260.8L77.6,260.8z"/>
	<path class="st0" d="M63.9,248.3c0.3-0.7,0.9-0.6,1.5-0.6c9,0,18.1,0,27.1,0c0.6,0,1.2-0.2,1.5,0.5C84,248.5,74,248.5,63.9,248.3
		L63.9,248.3z"/>
</g>
</svg>
