<?xml version="1.0" encoding="utf-8"?>
<!-- Generator: Adobe Illustrator 19.0.0, SVG Export Plug-In . SVG Version: 6.00 Build 0)  -->
<svg version="1.1" id="Layer_1" xmlns="http://www.w3.org/2000/svg" xmlns:xlink="http://www.w3.org/1999/xlink" x="0px" y="0px"
	 viewBox="-17.3 213.3 336.7 75.3" style="enable-background:new -17.3 213.3 336.7 75.3;" xml:space="preserve">
<style type="text/css">
	.st0{fill:#FFFFFF;}
</style>
<g>
	<path class="st0" d="M47.2,228.5c-0.7,0.3-1.3,0.6-1.8,0.9c-5.1,2.5-9.6,5.8-13.7,9.7c-2.8,2.7-5.5,5.4-8.3,8
		c-4.2,3.9-8.9,7.2-14.2,9.6c-2.8,1.3-5.8,2.2-8.9,2.4c-3.9,0.2-7.3-1-10.1-3.8c-2-2-3.6-4.2-4.5-7c-1.1-3.5-0.8-7,0.4-10.4
		c1.7-4.6,4.6-8.3,8.3-11.5c4.7-4.1,10-6.9,16-8.6c3.9-1.1,7.8-1.6,11.9-1.3c6.9,0.4,13.3,2.5,18.9,6.6
		C43.4,224.6,45.4,226.4,47.2,228.5z"/>
	<path class="st0" d="M56,262.5c2.5-12.7-0.4-24-8.7-34c1.1-0.5,2.1-1,3.2-1.4c4.7-1.5,9.3-1.2,13.7,1.1c5.2,2.7,8.4,7,9.4,12.9
		c0.9,5.7-0.7,10.6-4.4,15c-2.3,2.8-5.2,4.7-8.7,5.8c-1.4,0.4-2.9,0.7-4.4,0.7C56.1,262.5,56.1,262.5,56,262.5z"/>
	<path class="st0" d="M55.9,262.6c-0.5,1.5-0.8,2.9-1.4,4.2c-2.1,5.4-5.4,10.1-9.6,14.1c-1.9,1.8-4.3,2.8-6.7,3.5
		c-2.6,0.8-5.3,1.2-8,1.1c-1.8-0.1-3.6-0.4-5.3-1.2c-2.7-1.4-4-3.7-4.2-6.7c-0.2-3.7,1.5-6.4,4.4-8.4c2.6-1.8,5.4-2.8,8.4-3.7
		c4.1-1.2,8.3-1.9,12.5-2.3c3.1-0.3,6.1-0.4,9.2-0.6C55.4,262.6,55.6,262.6,55.9,262.6z"/>
	<path class="st0" d="M250,259.2c-1.8,0-3.5,0-5.3,0c0-8.6,0-17.1,0-25.7c1.8,0,3.5,0,5.3,0c0,0.9,0,1.8,0,2.8
		c2.5-2.7,5.5-3.6,8.9-3.2c3.4,0.3,6.2,1.8,7.9,4.8c0.7-0.8,1.2-1.6,2-2.3c2.2-2,4.8-2.7,7.7-2.6c2.2,0.1,4.3,0.7,6.1,2
		c2.2,1.7,3.4,4,3.7,6.7c0.1,0.9,0.2,1.7,0.2,2.6c0,4.7,0,9.4,0,14.2c0,0.2,0,0.4,0,0.7c-1.8,0-3.5,0-5.3,0c0-0.2,0-0.4,0-0.6
		c0-4.7,0-9.3,0-14c0-1-0.2-2.1-0.5-3c-0.6-1.9-2-3.1-3.9-3.6c-1.6-0.4-3.2-0.4-4.7,0.2c-2.2,0.9-3.3,2.6-3.6,4.8
		c-0.1,0.7-0.2,1.5-0.2,2.2c0,4.4,0,8.9,0,13.3c0,0.2,0,0.4,0,0.7c-1.8,0-3.5,0-5.3,0c0-0.2,0-0.4,0-0.6c0-4.4,0-8.9,0-13.3
		c0-1.1-0.1-2.2-0.4-3.3c-0.7-2.5-2.7-4.1-5.3-4.2c-1.2-0.1-2.5,0-3.6,0.5c-2.1,0.9-3.1,2.6-3.4,4.8c-0.1,0.8-0.2,1.5-0.2,2.3
		c0,4.4,0,8.8,0,13.2C250,258.7,250,258.9,250,259.2z"/>
	<path class="st0" d="M105.6,226.3c9.5,0,16.7,7.2,16.6,16.9c-0.1,9.4-7.4,16.5-16.9,16.4c-8.9-0.1-16.3-7-16.3-16.8
		C89,233.4,96.2,226.3,105.6,226.3z M116.7,242.9c-0.1-0.8-0.1-1.6-0.2-2.4c-0.5-3.2-1.9-5.9-4.7-7.7c-2.3-1.5-4.9-2-7.6-1.7
		c-3.7,0.4-6.6,2.1-8.3,5.5c-1.8,3.5-1.9,7.2-0.8,10.9c1,3.1,2.9,5.4,6,6.7c1.9,0.8,3.9,1,5.9,0.8c2.9-0.3,5.3-1.6,7.2-3.9
		C116,248.6,116.7,245.8,116.7,242.9z"/>
	<path class="st0" d="M310.7,237c0-1.2,0-2.3,0-3.5c1.8,0,3.6,0,5.4,0c0,8.6,0,17.1,0,25.7c-1.8,0-3.5,0-5.4,0c0-1.2,0-2.4,0-3.7
		c-0.3,0.4-0.6,0.7-0.9,0.9c-4.3,4.3-11.6,4.4-16,0.2c-2.7-2.6-4-5.9-4.2-9.6c-0.1-2.5,0.3-5,1.4-7.3c3.4-6.9,11.1-7.9,15.9-5.5
		c0.7,0.3,1.4,0.8,2,1.3C309.5,235.9,310,236.5,310.7,237z M295.1,245.9c0,2.6,0.6,4.7,2.1,6.4c3,3.6,8.6,3.6,11.5-0.1
		c2.3-2.9,2.6-6.2,1.3-9.5c-2.1-5.6-8.6-6.4-12.3-3.1C295.8,241.4,295.1,243.7,295.1,245.9z"/>
	<path class="st0" d="M176.6,248.3c-6.6,0-13.1,0-19.6,0c0.2,4,3.4,7,7.5,6.8c1.9-0.1,3.6-0.6,4.9-2.1c0.3-0.4,0.6-0.8,0.9-1.2
		c0.1-0.1,0.3-0.3,0.4-0.3c1.8,0,3.6,0,5.5,0c-0.1,0.2-0.1,0.4-0.2,0.5c-1.8,4.3-5,6.8-9.6,7.4c-3,0.4-5.9,0-8.6-1.5
		c-3.5-2-5.4-5.1-6.1-9c-0.5-2.9-0.3-5.8,0.9-8.5c1.8-4.2,5.1-6.6,9.6-7.3c2.6-0.4,5.2-0.2,7.7,0.9c3.8,1.7,6,4.7,6.8,8.7
		C176.8,244.6,176.9,246.7,176.6,248.3z M171.2,244c0.1-3.6-2.9-6.3-7-6.4c-4.3-0.1-7,3.1-7.2,6.4C161.7,244,166.4,244,171.2,244z"
		/>
	<path class="st0" d="M198.8,246.3c0.1-3.7,1.2-7,3.9-9.7c2.1-2.1,4.7-3.2,7.6-3.5c3.4-0.4,6.6,0.2,9.4,2.1c3,2.1,4.7,5,5.3,8.6
		c0.5,3,0.2,6-1.2,8.7c-1.9,3.8-5.1,6.1-9.3,6.9c-2.9,0.5-5.8,0.3-8.5-1c-3.8-1.9-6-4.9-6.8-9C199,248.3,198.9,247.3,198.8,246.3z
		 M204.3,246.3c0.1,0.6,0.1,1.3,0.2,1.9c0.3,2,1.1,3.8,2.7,5.1c3.7,3,9.5,1.7,11.6-2.7c1-2.1,1.2-4.4,0.7-6.7
		c-0.6-3.1-2.4-5.3-5.5-6c-3.1-0.8-5.8,0-7.8,2.5C204.7,242.1,204.3,244.2,204.3,246.3z"/>
	<path class="st0" d="M125.1,233.5c1.8,0,3.5,0,5.3,0c0,0.9,0,1.8,0,2.8c0.5-0.5,1-0.9,1.5-1.3c2-1.5,4.3-2,6.7-1.9
		c1.9,0.1,3.7,0.5,5.4,1.5c2.6,1.6,3.9,4,4.4,6.9c0.2,0.9,0.2,1.9,0.2,2.8c0,4.8,0,9.5,0,14.3c0,0.2,0,0.4,0,0.6c-1.8,0-3.5,0-5.3,0
		c0-0.2,0-0.4,0-0.6c0-4.7,0-9.4,0-14.1c0-1.3-0.2-2.6-0.9-3.8c-1-1.8-2.5-2.8-4.6-3c-2.2-0.2-4.3,0.2-5.9,1.9
		c-1.2,1.3-1.6,2.9-1.6,4.6c0,4.8,0,9.5,0,14.3c0,0.2,0,0.4,0,0.6c-1.8,0-3.5,0-5.3,0C125.1,250.6,125.1,242.1,125.1,233.5z"/>
	<path class="st0" d="M185.5,240.6c3.6,0,7.1,0,10.7,0c0,1.5,0,2.9,0,4.3c-3.6,0-7.1,0-10.7,0c0,4.8,0,9.5,0,14.2
		c-1.8,0-3.5,0-5.3,0c0-10.8,0-21.6,0-32.4c6.4,0,12.7,0,19.1,0c0,1.4,0,2.8,0,4.3c-4.6,0-9.1,0-13.7,0
		C185.5,234.3,185.5,237.4,185.5,240.6z"/>
	<path class="st0" d="M241.6,233c0,1.8,0,3.6,0,5.5c-0.4,0-0.8,0-1.2,0c-0.9,0.1-1.9,0.1-2.8,0.4c-2.1,0.6-3.2,2.2-3.5,4.3
		c-0.1,0.9-0.2,1.8-0.2,2.7c0,4.2,0,8.4,0,12.6c0,0.2,0,0.4,0,0.6c-1.8,0-3.5,0-5.3,0c0-8.6,0-17.1,0-25.7c1.7,0,3.5,0,5.3,0
		c0,1.2,0,2.3,0,3.5C235.8,234.3,238.3,233,241.6,233z"/>
	<path class="st0" d="M221.5,266.9c0.2,0,0.3,0,0.5,0c0.5,0,1.1,0,1.7,0c0,1.7,0,3.3,0,5c0.8-0.8,1.6-1.4,2.6-1.5
		c2.7-0.5,5.1,1,5.7,3.7c0.4,2.1,0.1,4-1.4,5.5c-1.8,1.8-4.9,1.7-6.6-0.1c0,0-0.1-0.1-0.2-0.2c0,0.5,0,0.9,0,1.4c-0.7,0-1.4,0-2.1,0
		C221.5,276.1,221.5,271.5,221.5,266.9z M223.6,275.6c0,0.1,0,0.3,0,0.4c0.2,1.3,0.8,2.3,2.1,2.8c1.1,0.4,2.4,0.1,3.2-0.8
		c1.1-1.2,1.3-3.2,0.4-4.6c-0.6-0.8-1.4-1.3-2.4-1.4C225,272,223.6,273.5,223.6,275.6z"/>
	<path class="st0" d="M270.2,277.7c-0.5,1.4-1.4,2.4-2.8,2.9c-2.2,0.8-4.9,0.3-6.3-1.9c-1.4-2.2-1-5.7,0.9-7.2
		c1.6-1.3,4.1-1.6,5.9-0.6c1.8,0.9,2.7,2.8,2.5,5c0,0.1,0,0.3-0.1,0.5c-2.6,0-5.2,0-7.8,0c0,1.3,0.8,2.3,2,2.6c1.3,0.4,2.5,0,3.2-1
		c0.1-0.1,0.3-0.3,0.4-0.3C268.8,277.6,269.5,277.7,270.2,277.7z M262.7,274.6c1.9,0,3.7,0,5.6,0c0-1.4-1.1-2.5-2.7-2.5
		C264,272,262.7,273.1,262.7,274.6z"/>
	<path class="st0" d="M279.9,280.7c0-1.8,0-3.5,0-5.2c0-0.3,0-0.6,0-1c-0.1-1.6-1.1-2.5-2.6-2.5c-1.5,0-2.5,0.9-2.5,2.5
		c0,1.8,0,3.6,0,5.5c0,0.2,0,0.4,0,0.6c-0.7,0-1.4,0-2.1,0c0-3.4,0-6.8,0-10.2c0.7,0,1.4,0,2.1,0c0,0.3,0,0.6,0,1
		c0.2-0.2,0.4-0.3,0.5-0.4c1.6-1.2,4.2-1.1,5.6,0.3c0.9,0.9,1.2,1.9,1.2,3.1c0,1.9,0,3.8,0,5.8c0,0.4-0.1,0.5-0.5,0.5
		C281,280.7,280.5,280.7,279.9,280.7z"/>
	<path class="st0" d="M243.4,270.4c-0.5,1.2-0.9,2.3-1.4,3.4c-1.6,3.8-3.2,7.6-4.7,11.3c-0.1,0.3-0.3,0.5-0.6,0.4
		c-0.6,0-1.1,0-1.8,0c0.5-1.2,0.9-2.3,1.4-3.4c0.6-1.1,0.6-2.1,0-3.3c-1.2-2.6-2.2-5.3-3.2-8c-0.1-0.1-0.1-0.3-0.2-0.5
		c0.8,0,1.5,0,2.2,0c0.1,0,0.2,0.2,0.3,0.3c0.8,2.3,1.7,4.6,2.5,6.8c0.1,0.2,0.1,0.3,0.2,0.6c0.5-1.4,1-2.7,1.5-4
		c0.4-1.1,0.9-2.3,1.3-3.5c0.1-0.3,0.2-0.4,0.5-0.4C242.1,270.4,242.7,270.4,243.4,270.4z"/>
	<path class="st0" d="M258.9,273.7c-0.7,0-1.4,0-2.1,0c-0.1,0-0.3-0.1-0.3-0.2c-0.6-1.2-1.6-1.6-2.8-1.4c-1.3,0.2-2,1-2.2,2.2
		c-0.3,1.3-0.2,2.5,0.5,3.7c0.9,1.5,3.8,1.6,4.6-0.2c0.1-0.1,0.3-0.3,0.4-0.3c0.6,0,1.3,0,2,0c-0.2,0.9-0.6,1.6-1.3,2.2
		c-1.6,1.4-3.5,1.6-5.4,0.9c-1.8-0.6-2.7-2-3-3.8c-0.2-1.4-0.1-2.7,0.5-3.9c1.1-2.1,3.6-3,6.1-2.3c1.5,0.4,2.5,1.4,3,3
		C258.9,273.5,258.9,273.6,258.9,273.7z"/>
	<path class="st0" d="M316.9,273.7c-0.8,0-1.5,0-2.1,0c-0.1,0-0.3-0.1-0.3-0.2c-0.6-1.1-1.5-1.5-2.7-1.4c-1.2,0.1-2,0.8-2.3,1.9
		c-0.4,1.5-0.4,2.9,0.6,4.2c1,1.2,3.6,1.3,4.3-0.4c0.1-0.1,0.3-0.3,0.5-0.3c0.6,0,1.3,0,2,0c-0.5,1.6-1.5,2.7-3.1,3.2
		c-2.5,0.7-4.9-0.2-6-2.2c-1.4-2.5-0.7-6,1.6-7.4c1.8-1.2,5.6-1.2,7,1.4C316.6,272.8,316.7,273.2,316.9,273.7z"/>
	<path class="st0" d="M300.8,266.3c0,0.6,0,1.2,0,1.6c-0.5,0.3-1.2,0.4-1.5,0.8c-0.3,0.4-0.3,1.1-0.4,1.8c0.5,0,0.7,0,1,0
		c0.3,0,0.6,0,0.9,0c0,0.6,0,1.1,0,1.7c-0.6,0-1.2,0-1.9,0c0,2.9,0,5.7,0,8.6c-0.7,0-1.4,0-2.1,0c0-2.8,0-5.7,0-8.5
		c-0.4,0-0.8,0-1.2,0c0-0.6,0-1.1,0-1.7c0.4,0,0.8,0,1.2,0c0-1.3-0.1-2.6,1.1-3.5C298.8,266.4,299.8,266.3,300.8,266.3z"/>
	<path class="st0" d="M285.1,272.2c-0.4,0-0.8,0-1.2,0c0-0.6,0-1.1,0-1.7c0.4,0,0.8,0,1.2,0c0-0.9,0-1.7,0-2.6c0.7,0,1.4,0,2.2,0
		c0,0.9,0,1.7,0,2.6c0.8,0,1.6,0,2.5,0c0,0.6,0,1.1,0,1.7c-0.8,0-1.6,0-2.4,0c0,0.2,0,0.3,0,0.5c0,1.7,0,3.4,0,5.2
		c0,0.8,0.3,1.1,1.1,1.2c0.4,0,0.9,0,1.3,0c0,0.6,0,1.2,0,1.8c-1,0-2.1,0.1-3.1-0.2c-1-0.3-1.5-1.2-1.5-2.4c0-1.8,0-3.5,0-5.3
		C285.1,272.6,285.1,272.4,285.1,272.2z"/>
	<path class="st0" d="M291.7,270.4c0.7,0,1.4,0,2.1,0c0,3.4,0,6.8,0,10.2c-0.7,0-1.3,0-2.1,0C291.7,277.3,291.7,273.9,291.7,270.4z"
		/>
	<path class="st0" d="M302.9,270.5c0.7,0,1.4,0,2.1,0c0,3.4,0,6.8,0,10.2c-0.7,0-1.4,0-2.1,0C302.9,277.3,302.9,273.9,302.9,270.5z"
		/>
	<path class="st0" d="M292.7,269c-0.8,0-1.3-0.6-1.3-1.4c0-0.8,0.6-1.4,1.4-1.3c0.8,0,1.3,0.6,1.3,1.4
		C294.1,268.5,293.5,269.1,292.7,269z"/>
	<path class="st0" d="M303.9,269c-0.8,0-1.3-0.6-1.3-1.4c0-0.8,0.6-1.4,1.4-1.4c0.8,0,1.3,0.6,1.3,1.4
		C305.3,268.5,304.7,269.1,303.9,269z"/>
</g>
</svg>
