<?xml version="1.0" encoding="utf-8"?>
<!-- Generator: Adobe Illustrator 19.0.0, SVG Export Plug-In . SVG Version: 6.00 Build 0)  -->
<svg version="1.1" id="Layer_1" xmlns="http://www.w3.org/2000/svg" xmlns:xlink="http://www.w3.org/1999/xlink" x="0px" y="0px"
	 viewBox="13.3 199.3 275.3 103.3" style="enable-background:new 13.3 199.3 275.3 103.3;" xml:space="preserve">
<style type="text/css">
	.st0{fill:#FEFEFE;}
</style>
<g>
	<path class="st0" d="M262,228.5c2.3-0.2,4.6-1.1,5.9,1.6c0.2-0.2,0.5-0.3,0.7-0.5c2.4-2.2,5.1-3.6,8.4-2.3c3.5,1.4,4.5,4.6,4.6,7.9
		c0.1,11.7,0.1,23.5,0,35.2c0,3-0.9,6-3.9,7.4c-3.1,1.5-6,0.7-8.5-1.6c-0.3-0.3-0.7-0.4-1.6-0.9c0,6.9,0,13.4,0,20.3
		c-2.1,0-3.7,0-5.3,0C261.2,292.5,260.9,233.9,262,228.5z M271.4,232c-2.9,1-3.8,3.2-3.8,5.6c-0.1,10.1-0.1,20.2,0,30.3
		c0,1.6,0.9,3.3,1.5,5.3c1.8-0.2,3.3-0.3,4.9-0.4c0.5-2,1.1-3.5,1.2-5c0.1-10.1,0.1-20.2,0-30.3C275.2,235,274.4,232.8,271.4,232z"
		/>
	<path class="st0" d="M26.7,246.4c0,10.4,0,20.5,0,30.9c-2.1,0-3.8,0-5.4,0c-0.9-3.1-1.3-62.9-0.3-69.9c4.7-0.5,9.5-0.7,14.2,0.2
		c3.3,0.6,5.5,3.5,5.6,7.1c0.1,7.6,0.2,15.3,0,22.9c-0.1,4.6-2,6.6-6.5,7.6C32,245.7,29.7,246,26.7,246.4z M33.4,239.3
		c0.2-1.9,0.4-3,0.4-4.2c0-5.7,0.1-11.4,0-17.1c-0.1-4.9-1.6-6-6.8-4.8c0,9,0,18,0,27.6C29.4,240.2,31.2,239.8,33.4,239.3z"/>
	<path class="st0" d="M208.5,224.7c-2.3,0-4,0-5.8,0c-1.5-4.2,0.9-8.8-2.4-12.8c-1.2,0-2.6,0-4,0c-1.6,2.3-1.9,4.8-1.9,7.2
		c0,15.3,0,30.6,0,45.8c0,1.7,0.4,3.5,0.8,5.2c0.4,1.7,1.4,3,3.3,2.9c1.9-0.1,3-1.3,3.3-3c0.3-1.3,0.3-2.6,0.3-3.9
		c0-2.3,0-4.7,0-7.4c2.1,0,3.8,0,6.1,0c0.3,4.7,0.7,9.3-0.4,13.9c-0.9,3.7-3.4,5.6-7.2,6c-1,0.1-2.1,0.1-3.1,0
		c-4.5-0.1-7.2-2-8.5-6.3c-0.6-1.9-0.9-4-1-6c-0.1-15.9-0.1-31.7,0-47.6c0-2,0.4-4.1,0.8-6.1c1.1-4.6,3.3-6.2,8.1-6.4
		c1,0,2.1,0,3.1,0c5.1,0.2,7.5,2.3,8.1,7.4c0.2,1.6,0.1,3.2,0.1,4.8C208.5,220.3,208.5,222.2,208.5,224.7z"/>
	<path class="st0" d="M61,260.5c1.7,0,3.3,0,5.2,0c0.3,4.4,0.7,8.6-0.5,12.7c-1,3.3-3.4,5-6.8,5.4c-1,0.1-2.1,0.1-3.1,0
		c-5.4-0.2-8.3-3.1-8.9-8.5c-0.2-1.6-0.1-3.2-0.1-4.8c0-8.5,0-17,0-25.5c0-1.6,0-3.2,0.1-4.8c0.5-4.6,3.8-7.8,8.9-8.1
		c4.3-0.2,8.6,1.3,9.9,6.3c0.2,0.7,0.5,1.4,0.5,2.1c0,6.6,0,13.2,0,20.2c-4.4,0.2-8.6,0.3-13.1,0.5c0,5-0.1,9.6,0.1,14.3
		c0.1,1.7,1.3,2.9,3.2,3c1.8,0.1,3.2-1.1,3.6-3.2c0.2-1.4,0.1-2.9,0.2-4.4c0-1.2,0-2.3,0.1-3.5C60.4,261.8,60.7,261.4,61,260.5z
		 M60.2,250.2c0-5.1,0.1-9.6-0.1-14.1c-0.1-2.4-1.6-3.9-3.4-3.9c-1.6,0-3.2,1.3-3.4,3.4c-0.4,4.7-0.4,9.5,0,14.5
		C55.7,250.2,57.7,250.2,60.2,250.2z"/>
	<path class="st0" d="M136.6,241.1c-2.1,0-3.8,0-5.7,0c0-2.6-0.3-5,0.1-7.2c0.8-5.1,5.3-7.7,11-6.9c4.5,0.6,6.4,2.4,7.4,6.9
		c0.4,1.6,0.7,3.2,0.7,4.8c0.1,11.7,0,23.5,0,35.2c0,1-0.2,2-0.4,3c-2.5,1.3-4.6,1.2-6.2-1.2c-0.2,0.1-0.4,0.1-0.5,0.2
		c-2.7,2.5-5.7,3.7-9.2,2.1c-3.5-1.6-3.9-4.9-3.9-8.2c-0.1-4.3-0.1-8.5,0-12.8c0.1-5.8,3.2-9.3,9-10c1.4-0.2,2.9-0.2,4.8-0.4
		c0.4-3.8,0.6-7.6-0.2-11.3c-0.4-1.7-1.3-3-3.2-3c-1.7,0-3.1,1.4-3.3,3.5C136.8,237.3,136.7,238.9,136.6,241.1z M143.9,251.4
		c-4.1,0.4-7.2,1.3-7.5,5.1c-0.4,4.3-0.3,8.8,0.1,13.1c0.4,3.8,1.9,4.3,6.2,2.8C145.1,265.7,143.6,258.8,143.9,251.4z"/>
	<path class="st0" d="M215.4,252.1c0-5.1,0.1-10.3,0-15.4c-0.1-9.4,8-11.3,14.4-9c2.1,0.8,3.7,2.5,4.3,4.7c0.5,2,0.9,4,0.9,6
		c0.1,9.5,0,19,0,28.6c0,0.7,0,1.5-0.1,2.2c-0.5,8-7.8,12.1-14.9,8.4c-3.3-1.7-4.5-4.9-4.6-8.4C215.3,263.6,215.4,257.9,215.4,252.1
		C215.4,252.1,215.4,252.1,215.4,252.1z M221.5,252.6c0,4.8,0,9.7,0,14.5c0,1.2,0,2.4,0.3,3.5c0.4,1.7,1.6,2.8,3.5,2.7
		c1.7-0.1,2.7-1.2,3.1-2.7c0.3-1,0.2-2,0.2-3.1c0-9.8,0-19.6,0-29.4c0-1.3-0.1-2.7-0.7-3.8c-0.5-0.9-1.8-2-2.6-1.9
		c-1.1,0.1-2.5,1-3.1,1.9c-0.6,1-0.7,2.5-0.7,3.8C221.5,242.9,221.6,247.8,221.5,252.6z"/>
	<path class="st0" d="M159.5,228.6c2.2-0.1,4.4-1.2,5.1,1.7c1.9-1.1,3.6-2.3,5.5-3c3.5-1.2,6.4,0.5,7.6,3.9c0.4,1.2,0.7,2.6,0.7,3.9
		c0.1,13.5,0,27,0,40.5c0,0.4-0.2,0.8-0.4,1.7c-1.6,0-3.2,0-5.4,0c-0.1-1.7-0.4-3.2-0.4-4.8c0-10.9,0-21.7,0-32.6
		c0-1.5,0-2.9-0.1-4.4c-0.1-1.9-1.4-2.9-3.1-3.2c-1.6-0.3-3.4,1-3.8,2.9c-0.5,2.1-0.8,4.3-0.8,6.5c-0.1,10.6,0,21.1,0,31.7
		c0,1.2-0.1,2.3-0.2,3.8c-1.7,0-3.2,0-4.6,0C158.7,273.7,158.6,233.2,159.5,228.6z"/>
	<path class="st0" d="M116.7,261.2c2.2,0,3.9,0,6,0c0.3,4.2,0.8,8.2-0.6,12.2c-1.2,3.5-3.7,5.2-7.8,5.2c-4.4,0.1-7-1.5-8.3-5
		c-0.4-1.2-0.8-2.6-0.8-3.8c-0.1-11.5-0.1-22.9,0-34.4c0.1-4.9,2-7,6.5-8.1c5.4-1.4,10.2,1.5,11,7.1c0.4,3,0.1,6.1,0.1,9.7
		c-1.8,0.1-3.5,0.2-5.1,0.2c-2.5-3.8,1.3-9.2-3.2-12.1c-2.5,0.5-3.1,2.1-3.1,4c0,11.2,0,22.3,0,33.5c0,0.3,0,0.6,0.1,0.9
		c0.2,1.7,0.9,2.8,2.8,2.7c1.6-0.1,2.3-1.1,2.4-2.6c0.1-1.5,0.1-2.9,0.1-4.4C116.7,264.6,116.7,263.1,116.7,261.2z"/>
	<path class="st0" d="M75.8,207.4c1.8,0,3.4,0,4.9,0c0.9,3.4,1.1,64.3,0.3,69.9c-1.6,0-3.2,0-4.6,0c-0.4-0.3-0.5-0.4-0.6-0.5
		c-0.1-0.1-0.2-0.3-0.2-0.4c-0.1-1-0.3-2-0.3-3c0-21.4,0-42.9,0.1-64.3C75.3,208.6,75.6,208.2,75.8,207.4z"/>
	<path class="st0" d="M249.6,277.3c-2,0-3.7,0-5.6,0c0-16.2,0-32.3,0-48.5c2.3-0.6,4.4-1,6.2,0.8c2.1-1,4.1-1.9,6.2-2.9
		c2,2.1,1.4,4,1,6.1c-0.6,0.3-1.1,0.6-1.6,0.7c-4.7,1-5.9,2.3-5.9,7.1c-0.1,10.6,0,21.1,0,31.7C249.8,273.8,249.7,275.4,249.6,277.3
		z"/>
	<path class="st0" d="M90.5,228.5c2,0,3.6,0,5.1,0c1,3.6,1.1,44.3,0.1,48.8c-1.5,0.1-3.2,0.2-5.1,0.3
		C90.5,261.1,90.5,245,90.5,228.5z"/>
	<path class="st0" d="M96,214.2c-1.9,0-3.5,0-5.5,0c0-2.2,0-4.3,0-6.7c1.7,0,3.4,0,5.5,0C96,209.5,96,211.6,96,214.2z"/>
</g>
</svg>
