<?xml version="1.0" encoding="utf-8"?>
<!-- Generator: Adobe Illustrator 19.0.0, SVG Export Plug-In . SVG Version: 6.00 Build 0)  -->
<svg version="1.1" id="Layer_1" xmlns="http://www.w3.org/2000/svg" xmlns:xlink="http://www.w3.org/1999/xlink" x="0px" y="0px"
	 viewBox="-17.3 213.3 336.7 75.3" style="enable-background:new -17.3 213.3 336.7 75.3;" xml:space="preserve">
<style type="text/css">
	.st0{fill:#FFFFFF;}
</style>
<g>
	<path class="st0" d="M161.4,242.2H175c-0.6,1.9-1.9,2.9-3.5,3.5c-2.1,0.9-4.4,1.1-6.7,1.2c-1.3,0.1-2.6,0-3.9,0.1
		c-1.9,0-2.4,0.4-3.1,2.3c-1.7,4.3-3.4,8.6-5.1,12.8c-1.2,3-2.4,6-3.3,9.1c-0.4,1.2-0.6,2.5-0.8,3.8c-0.1,0.7-0.1,1.5,0.5,2
		s1.4,0.1,2-0.2c2.6-1.4,4.8-3.3,7-5.3c1.6-1.4,2.9-3.2,4.4-4.7c0.2-0.2,0.4-0.4,0.7-0.6c0.4,1,0.4,1.9-0.1,2.7
		c-2.1,3.4-4.2,6.7-7,9.6c-1.2,1.3-2.7,2.2-4.5,2.6c-3.9,1-9.3-1.6-8.5-7.7c0.1-1.1,0.4-2.1,0.6-3.5c-2,2.1-3.8,4-5.6,5.9
		c-2.1,2.2-4.6,3.8-7.4,4.9c-1.6,0.7-3.4,0.9-5.1,0.7c-3.6-0.3-7.2-3.3-8.1-7.6c-0.1-0.7-0.3-1.4-0.5-2.2c-1.2,1.6-2.3,3.1-3.4,4.5
		c-1.3,1.7-2.8,3.1-4.6,4.2c-3.4,2.1-6.6,1-8.4-2c-1.5-2.4-1.9-4.9-1.3-7.7c0.8-3.4,1.8-6.8,2.7-10.1c0.1-0.3,0.2-0.6,0.1-1
		c-0.8,0.4-1.2,1.3-1.7,1.9c-2.3,2.8-4.6,5.6-7,8.4c-1.8,2.2-3.3,4.5-4.5,7.1c-0.5,1.1-1.1,2.2-1.9,3.2c-1.4,1.8-4.9,1.6-6.1-0.3
		c-0.5-0.8-0.3-1.6,0-2.5c0.5-1.6,1-3.2,1.6-5.1c-0.9,0.5-1.3,1.1-1.6,1.6c-1.5,1.8-3,3.6-4.8,5.1c-3.1,2.5-6.3,2.2-8.9-0.9
		c-1.4-1.7-1.9-3.2-2.2-6.4c-0.6,1-1.1,1.8-1.5,2.5c-1.2,2-2.5,3.8-4.2,5.4c-3.2,2.9-7.6,1.8-9-2.3c-0.6-1.8-0.8-3.8-0.5-6.4
		c-0.8,0.5-1.2,1.2-1.7,1.9c-1.6,2-3.3,4.1-5.2,5.9c-1.6,1.4-3.3,2.6-5.4,2.8c-3.7,0.4-7.1-2.5-7.8-6.4c-0.4-2.5,0.1-4.9,0.6-7.3
		c2.4-11,6.6-21.4,11.3-31.6c1.1-2.4,2.1-4.8,3.5-7c0.7-1.2,1.6-2.2,2.7-3.1c1.3-1.1,2.7-1.2,4.2-0.4c1.8,1.1,3.2,2.5,4.3,4.3
		c0.9,1.4,0.8,3.2,0.5,4.8c-1.7,7.9-4.9,15.1-10.4,21c-1.8,2-4,3.6-6.4,4.6c-1.1,0.5-1.8,1.1-2,2.4c-0.8,3.5-2.2,6.9-2.7,10.5
		c-0.1,0.7-0.2,1.4,0,2.1c0.4,1.7,1.5,2.3,3,1.4c0.9-0.5,1.7-1.1,2.6-1.8c3.4-2.5,6.5-5.5,9.7-8.2c0.7-0.6,0.8-1.3,1-2.1
		c1.2-5.1,3.2-9.9,6.6-13.9c1.4-1.7,3.1-2.9,5.2-3.6c1.8-0.6,3.4-0.5,5.1,0.3c1.4,0.7,2.6,1.7,3.9,2.6c0.3,0.2,0.5,0.6,0.9,0.6
		c0.4-0.3,0.4-0.8,0.6-1.2c0.6-1.4,1.6-1.8,3-1.2c2.7,1.1,3.9,3.4,3,6.3c-0.4,1.3-1,2.5-1.7,3.7c-2.2,3.8-4,7.7-5.8,11.7
		c-0.6,1.4-0.9,2.8-1.2,4.3c0,0.2,0,0.4,0,0.6c0,0.7,0,1.4,0.7,1.7c0.7,0.4,1.4,0,2-0.5c3.6-2.9,7-6,10.1-9.5c0.9-1,1.6-2.2,2-3.5
		c1.4-4.3,3.3-8.3,4.5-12.6c0.6-2,1.5-2.4,3.6-1.7c0.4,0.2,0.9,0.3,1.3,0.5c2,1.1,2.5,2.4,1.7,4.5c-1.3,3.1-2.6,6.2-3.9,9.4
		c-0.4,0.9-0.9,1.9-1,3c0.9-0.4,1.2-1.1,1.6-1.6c3.1-4.1,6.1-8.3,9.5-12.2c1.4-1.6,2.9-3,4.7-4.1c1.1-0.6,2.2-1.1,3.5-0.9
		c2.3,0.4,3.7,2.8,2.8,5c-0.4,1.1-1.1,2.2-1.7,3.3c-1.9,3.5-4.1,6.8-5.5,10.5c-1,2.5-1.6,5.1-1.9,7.7c-0.1,0.5-0.1,1.1,0,1.6
		c0.2,1.8,1,2.3,2.6,1.5c1.1-0.6,2.1-1.4,3-2.2c2.3-2.1,4.5-4.3,6.6-6.6c0.5-0.6,1-1.1,1.1-2c0.9-6.5,3.9-11.8,8.9-15.9
		c1.9-1.6,4-2.9,6.5-3.4c1.4-0.3,2.6-0.2,3.8,0.3c3.2,1.3,5.8,5.8,4.8,9.3c-1.1,4-3.6,6.9-7.1,8.9c-2.1,1.2-4.5,2.1-6.8,2.8
		c-1.2,0.4-2.3,0.8-3.5,1.1c-1,0.3-1.6,0.7-1.6,1.9c0,1-0.4,1.9-0.3,2.9c0.1,2.6,1.6,3.7,4.1,3.3c3.2-0.6,5.9-2.3,8.6-4
		c3.7-2.4,7-5.2,9.3-9.1c1-1.8,1.9-3.6,2.6-5.5c1.3-3.5,2.5-7,3.7-10.5c0-0.1,0.1-0.2,0.1-0.4c0.3-0.9,0.1-1.2-0.8-1.2
		c-1.9-0.2-3.8-0.3-5.6-0.5c-0.6-0.1-1.5,0.2-1.7-0.5c-0.2-0.7,0.4-1.3,1-1.7c1.5-1.1,3.1-1.9,5-1.9c1.2,0,2.4-0.1,3.5,0
		c0.8,0,1.1-0.3,1.4-1c1.6-4,3.2-7.9,4.8-11.9c0.6-1.6,0.8-1.7,2.4-1.2c0.9,0.3,1.7,0.6,2.5,1.1c1.8,1.2,2.4,3.1,1.4,5.1
		c-0.9,1.9-1.9,3.8-2.9,5.7C161.7,240.6,161.2,241.2,161.4,242.2L161.4,242.2z M68.8,252.4c-0.8,0-1.5,0.3-2.2,0.6
		c-1.9,1-3.4,2.4-4.6,4.1c-3.7,4.9-6.2,10.5-7.3,16.6c-0.1,0.4-0.1,0.8-0.1,1.1c0.2,0.9,0.9,1.3,1.8,0.8c0.7-0.4,1.3-0.8,1.8-1.5
		c3.3-4,6.6-8,9.2-12.6c1.3-2.2,2.5-4.4,3.8-6.6c1-1.6,0.8-2-1-2.5C69.7,252.5,69.2,252.5,68.8,252.4z M51.2,232.7
		c-3.1,4-11.3,21.6-11.7,24.6c2.5-1.6,4.4-3.8,5.9-6.4c2.1-3.4,4.3-6.7,5.6-10.5C52,238,52.3,235.5,51.2,232.7L51.2,232.7z
		 M124.3,266.7c4.3-1.7,7.9-4.3,11.1-7.6c0.4-0.5,0.8-1.1,1.1-1.6c0.6-1,0.8-2.2,0.6-3.4c-0.1-1.4-0.9-1.9-2.3-1.4
		c-0.9,0.4-1.7,0.9-2.5,1.5C128.2,257.5,126.1,261.9,124.3,266.7L124.3,266.7z"/>
	<path class="st0" d="M228.7,255.3v23.8c1.7,0.5,3.5-0.4,5.1,0.6c-0.2,1-0.8,1-1.5,1c-1.2,0-2.4,0-3.5,0c-3.6,0-7.3,0-11,0
		c-0.7,0-1.4,0-2-0.6c0.5-0.5,1.9-0.8,4-1v-48.8c-1.6-0.5-3.4,0.4-5-0.7c0-0.7,0.5-0.9,1-0.9c0.1,0,0.3,0,0.4,0
		c7.9,0,15.8,0,23.7,0.1c3.9,0.1,7.2,1.5,9.9,4.4c1.6,1.8,2.7,3.8,2.7,6.3c0,1.6,0,3.1,0,4.7c0,3.5-1.7,6.1-4.5,8
		c-1.2,0.8-2.5,1.4-3.8,2.1c0.6,1.6,1.5,2.9,2.3,4.3c3.6,6.4,7.4,12.7,11,19.1c0.7,1.2,1.5,1.7,2.8,1.6c0.9-0.1,1.8-0.1,2.6,0.7
		c-0.3,0.9-1.1,0.8-1.7,0.8c-5.4,0-10.7,0-16,0c-0.3,0-0.5,0-0.8,0c-0.4,0-0.6-0.3-0.6-0.6c0-0.4,0.3-0.5,0.6-0.6
		c0.6-0.2,1.2-0.2,1.7-0.2c0.9,0,1.8,0,2.9,0c-1.2-2.1-2.2-4-3.2-5.9c-3-5.5-6.1-10.9-9.1-16.4c-0.7-1.2-1.5-1.8-2.9-1.7
		C232.2,255.3,230.5,255.3,228.7,255.3L228.7,255.3z M228.7,254c3.5,0,6.9,0.1,10.3,0c2.3,0,4.2-1,5.1-3.2c0.5-1.1,0.8-2.2,1-3.3
		c0.4-2.6,0.4-5.2,0.3-7.8c-0.1-1.9-0.2-3.9-0.7-5.8c-0.7-2.5-2.3-3.6-4.9-3.7c-3.2,0-6.4,0-9.6,0c-0.5,0-1-0.2-1.5,0.2L228.7,254
		L228.7,254z"/>
	<path class="st0" d="M8.3,258.2c4.8-1.3,8.9-3.2,12.5-6.2c5.2-4.3,9.4-9.4,11.5-15.9c0.5-1.5,0.7-3,0.7-4.6c0-1.9-0.8-3.2-2.5-4.1
		c-2.5-1.2-5.2-1.7-7.9-1.5c-6.7,0.5-12.8,2.8-18,7.2C0,237-3.1,241.8-4,247.8c-0.2,0.9-0.2,1.9-0.3,3c-1.1-0.1-2.1-0.3-3.1-0.7
		c-2.2-1-3.2-3.2-2.6-5.7c1-4.2,3-7.9,5.7-11.2c5.3-6.5,12.3-10.3,20.3-12.2c3.7-0.9,7.6-0.9,11.3,0.5c1.4,0.5,2.7,1.2,3.8,2.2
		c2.2,1.9,4.3,4,6.1,6.3c1.3,1.7,1.6,3.5,1.2,5.5c-1,4.7-3.2,8.8-6.1,12.5c-5.9,7.4-13.4,12.2-22.5,14.5c-0.1,0-0.1,0.1-0.2,0.1
		c-2.8-0.1-3.7,1.7-4.3,4c-1.3,4.6-2.8,9.2-4.2,13.8c-0.4,1.2-0.6,1.3-1.6,0.8c-1.8-0.8-2.6-2.8-2.1-5c0.8-3.5,1.6-6.9,2.4-10.4
		c0.1-0.4,0.1-0.8,0.2-1.1c0.4-0.8,0-1.3-0.5-1.6c-0.6-0.4-1.2-0.7-1.9-1.1c-1.5-0.8-2.1-2-2-3.8c2.1,0.1,4,0.8,6.1,0.7
		c0.7-2,1.4-4,2.1-6c2.1-6.3,4.4-12.6,6.8-18.8c0.7-1.9,0.8-1.9,2.8-1.2c2.3,0.8,3.9,2.6,2.6,5.9c-2.5,5.9-5,11.8-7.1,17.9
		C8.8,256.9,8.6,257.5,8.3,258.2L8.3,258.2z"/>
	<path class="st0" d="M285.8,230.1v49.1c1.2,0,2.4,0,3.6,0c0.6,0,1.4-0.1,1.4,0.6c0,0.9-0.8,0.8-1.5,0.8c-5.3,0-10.6,0-15.8,0
		c-0.6,0-1.2,0-1.5-0.8c1.5-1.1,3.2-0.5,4.9-0.8c0.4-1.4,0.6-42.9,0.2-49c-1.7,0-3.5,0-5.2-0.1c-3.2,0-3.3,0-4.4,3
		c-1.5,3.9-3.4,7.7-4.8,11.7c-0.2,0.5-0.4,1.1-1,0.9c-0.6-0.1-0.8-0.7-0.9-1.2c-0.1-0.4,0-0.8,0-1.2c0-4.2,0-8.4,0-12.5
		c0-0.4,0-0.8,0-1.2c0.1-0.6,0.5-1.1,1.2-1c0.5,0,0.9,0,1.4,0c12.1,0,24.1,0,36.2,0c0.3,0,0.6,0,1,0c1.2,0.1,1.5,0.3,1.5,1.6
		c0,1,0,2.1,0,3.1c0,3.5,0,7,0,10.6c0,0.7,0.2,1.7-0.7,1.8c-0.8,0.2-1.1-0.7-1.4-1.4c-1.6-4-3.3-8.1-4.9-12.1
		c-0.1-0.4-0.3-0.7-0.4-1.1c-0.3-0.8-0.8-1.1-1.6-1C290.7,230.2,288.4,230.1,285.8,230.1L285.8,230.1z"/>
	<path class="st0" d="M213,279.9c-0.3,0.7-0.8,0.8-1.4,0.8c-5.2,0-10.4,0-15.6,0c-0.3,0-0.5,0-0.8-0.1c-0.3-0.1-0.6-0.3-0.6-0.7
		c0-0.4,0.4-0.5,0.7-0.6c1,0,2.1,0,3.1-0.1c0.4,0,0.8,0.1,1.3-0.2c-0.1-1.3-0.7-2.6-1.1-4c-0.9-3.2-1.9-6.5-2.9-9.7
		c-0.2-0.7-0.5-1.2-1.5-1.2c-5.3,0.1-10.6,0-15.8,0c-0.9,0-1.5,0.2-1.8,1.3c-1.2,4.4-2.6,8.7-3.8,13c-0.1,0.2,0,0.4,0,0.7
		c1.2,0,2.5,0,3.7,0c0.5,0,1.2,0,1.3,0.6c0,0.7-0.6,0.9-1.3,0.9c-3,0-6,0-9,0c-0.5,0-0.8-0.3-1.3-0.6c0.5-0.9,1.4-0.9,2.2-0.9
		c2.9,0,2.3,0.5,3.2-2.5c4.7-15.6,9.4-31.1,14.1-46.7c0.4-1.4,0.4-1.4,1.8-1.4c1.2,0,2.4,0,3.5,0c1.5,0,1.6,0.1,2.1,1.5
		c1.2,4,2.5,7.9,3.7,11.9c2.6,8.3,5.2,16.6,7.7,24.9c1.1,3.6,2.3,7.2,3.4,10.8c0.3,1,1,1.6,2.2,1.6
		C211.1,279.2,212.1,279.1,213,279.9L213,279.9z M186.1,234.6c-2.8,8.8-6,17.4-8.6,26.3h17.3C192.1,252,189,243.3,186.1,234.6z"/>
	<path class="st0" d="M312.1,232.6c0,1.9-1.5,3.4-3.4,3.5c-1.9,0-3.7-1.7-3.6-3.6c0-1.9,1.8-3.6,3.7-3.5
		C310.5,229.1,312.1,230.7,312.1,232.6L312.1,232.6z M308.8,229.7c-1.8-0.1-3,1-3.1,2.7c0,1.7,1.2,3,2.9,3c1.5,0,2.9-1.3,3-2.8
		C311.6,231.2,310.4,229.8,308.8,229.7L308.8,229.7z"/>
	<path class="st0" d="M309.2,234.5l-0.9-1.5H308v1.5h-0.8v-3.9h1.5c0.3,0,0.6,0.1,0.8,0.2s0.4,0.3,0.5,0.4c0.1,0.2,0.2,0.4,0.2,0.6
		c0,0.3-0.1,0.5-0.2,0.7c-0.1,0.2-0.4,0.4-0.7,0.4l0.9,1.6L309.2,234.5L309.2,234.5z M308,232.4h0.7c0.2,0,0.4-0.1,0.5-0.2
		s0.2-0.3,0.2-0.4c0-0.2,0-0.3-0.2-0.4c-0.1-0.1-0.3-0.2-0.5-0.2H308C308,231.2,308,232.4,308,232.4z"/>
</g>
</svg>
