<?xml version="1.0" encoding="utf-8"?>
<!-- Generator: Adobe Illustrator 19.0.0, SVG Export Plug-In . SVG Version: 6.00 Build 0)  -->
<svg version="1.1" id="Layer_1" xmlns="http://www.w3.org/2000/svg" xmlns:xlink="http://www.w3.org/1999/xlink" x="0px" y="0px"
	 viewBox="8 211 286 80" style="enable-background:new 8 211 286 80;" xml:space="preserve">
<style type="text/css">
	.st0{fill:#FFFFFF;}
</style>
<g>
	<g>
		<path class="st0" d="M108.4,259.4c0,4.6,0,9,0,13.5c-3.6,0-7,0-10.5,0c0-13.4,0-26.8,0-40.2c0.1-0.1,0.3-0.2,0.4-0.2
			c6.8,0.1,13.7-0.1,20.5,0.3c4.9,0.3,9.2,2.5,11.2,7.4c1.9,5,1.6,9.8-1.9,14.1c-1,1.2-2.3,2.1-3.6,3.2c1,1.9,1.9,3.9,3,5.8
			c1.2,2,3.1,1.8,5.2,1.4c0.2,2.6,0.4,5.1,0.6,7.6c-5.4,2.6-12.4,0.5-15.3-4.6c-1.3-2.3-2.5-4.6-3.6-7c-0.5-1.1-1.2-1.6-2.4-1.5
			C110.9,259.5,109.8,259.4,108.4,259.4z M108.3,251.2c2.4,0,4.6,0,6.7,0c3,0,4.8-1.7,5-4.4c0.2-3.4-1.5-5.4-4.7-5.7
			c-2-0.1-4-0.1-6,0c-0.4,0-1,0.6-1,0.9C108.3,245,108.3,248,108.3,251.2z"/>
		<path class="st0" d="M216.2,269.9c-0.1,0.7-0.2,1.8-0.3,3c-3.3,0-6.6,0-10,0c0-13.9,0-27.7,0-41.7c3.5,0,6.9,0,10.5,0
			c0,5.3,0,10.4,0,15.5c1.9-0.9,3.6-2.1,5.4-2.5c7.7-1.8,13.6,2.7,14.7,11.1c0.5,3.6,0.1,7.1-1.2,10.5c-2.3,5.7-7.6,8.7-13.5,7.2
			C219.8,272.4,218.1,271,216.2,269.9z M216.1,258.5c0.1,2.1,0.6,3.9,2.4,5.2c1.9,1.3,4.2,1,5.8-0.5c2-2,2.2-6.1,0.6-8.5
			c-1.2-1.8-3.6-2.5-5.6-1.5c-0.8,0.4-1.7,1.1-2.1,1.8C216.7,256,216.5,257.3,216.1,258.5z"/>
		<path class="st0" d="M171.1,273c0-14,0-27.9,0-41.8c3.5,0,6.8,0,10.4,0c0,5.2,0,10.5,0,16.2c2.6-2.7,5.5-3.7,8.7-3.6
			c5,0.1,9,2.9,10.6,7.7c1.7,4.9,1.5,9.8-0.5,14.6c-2.3,5.5-7.5,8.1-13.3,6.9c-2-0.4-2.8-0.9-5.6-3.8c0,0.7-0.1,1.3-0.1,1.9
			c0,0.5-0.1,1.1-0.2,1.9c-1.7,0-3.3,0-5,0C174.6,273,172.9,273,171.1,273z M191.3,258.6c-0.1,0-0.1,0-0.2-0.1c0-0.4,0-0.9-0.1-1.3
			c-0.4-2.8-2.3-4.6-4.8-4.5c-2.6,0.1-4.5,2.1-4.6,4.9c0,0.9,0,1.9,0.1,2.8c0.2,2,1.8,3.6,3.9,4c1.9,0.4,3.8-0.5,4.7-2.3
			C190.8,261,191,259.8,191.3,258.6z"/>
		<path class="st0" d="M166.7,264.9c0.2,2.4,0.4,4.6,0.5,6.9c0,0.4-0.6,1-1,1.1c-4,0.9-8.8,0.8-11.1-3.7c0-0.1-0.2-0.1-0.4-0.2
			c-0.6,0.7-1.2,1.5-1.9,2.1c-3.5,3-11.2,2.9-14.6-0.2c-3.4-3.1-2.8-9.5,1.3-12.2c3.2-2.2,6.9-2.6,10.7-2.7c1.2-0.1,2.4-0.1,3.6-0.2
			c0.5-1.8-0.2-3.3-1.8-4c-2-0.9-4.5-0.4-5.4,1.3c-0.6,1-1.2,1.2-2.2,1.2c-2.3-0.1-4.7,0-7,0c-0.1,0-0.2-0.1-0.5-0.1
			c0.1-2.9,1.2-5.3,3.4-7.2c3.6-3,8-3.5,12.4-3c2,0.2,4.1,0.9,6,1.8c3.4,1.7,5,4.8,5.3,8.5c0.2,2.7,0.1,5.4,0.1,8.2
			C164.1,264.7,164.2,264.8,166.7,264.9z M153.7,260.7c-2.2,0.4-4.3,0.5-6.2,1.1c-1.8,0.6-2,2.5-0.8,3.5c1,0.8,4,0.8,5.6-0.1
			C153.9,264.3,154.1,262.9,153.7,260.7z"/>
		<path class="st0" d="M259.4,252.3c-0.8,0-1.4,0-1.9,0c-2.3,0-2.3,0-2.3-2.4c0-1.9,0-3.7,0-5.8c1.7,0,3.1,0,4.8,0
			c0-2.7,0-5.2,0-7.8c3.4,0,6.6,0,10,0c0,2.6,0,5.1,0,7.8c2.7,0,5.2,0,7.8,0c0,2.8,0,5.4,0,8.3c-2.6,0-5.1,0-7.8,0
			c0,3.2-0.1,6.3,0,9.3c0.1,1.6,1.2,2.7,2.8,2.9c1.5,0.1,2.9,0,4.9,0c0,2.2,0,4.7,0,7.2c0,0.4-0.6,0.9-0.9,1
			c-4.1,1-8.1,0.9-11.8-1.2c-3.8-2-5.4-5.5-5.5-9.6C259.3,258.8,259.4,255.7,259.4,252.3z"/>
		<path class="st0" d="M240.8,244.2c3.5,0,6.8,0,10.3,0c0,9.5,0,19.1,0,28.7c-3.4,0-6.8,0-10.3,0
			C240.8,263.3,240.8,253.8,240.8,244.2z"/>
		<path class="st0" d="M245.7,241.1c-3.9,0-6.5-2.6-6.4-6.5c0.1-3.7,2.8-6.3,6.7-6.2c3.7,0.1,6.4,2.7,6.4,6.4
			C252.4,238.6,249.7,241.2,245.7,241.1z"/>
		<path class="st0" d="M285.4,263.8c2.8,0,4.6,1.9,4.6,4.7c0,2.8-1.8,4.6-4.7,4.6c-2.9,0-4.7-1.9-4.7-4.8
			C280.7,265.5,282.6,263.7,285.4,263.8z M283.3,265.7c-1.6,1.1-1.9,3.2-0.9,4.8c1.2,1.7,3.1,2,4.8,0.8c-0.7-0.5-1.4-1-1.9-1.3
			c-0.5,0.3-1.1,0.6-1.6,1c-0.2-0.6-0.5-1.2-0.5-1.7C283.2,268,283.3,266.9,283.3,265.7c0.6,0,1.2,0.1,1.8,0.1c2,0,3.2,1,2.3,3.1
			c-0.2,0.5,0.1,1.2,0.2,2c1.5-1.8,1.5-3.7,0.3-5C286.6,264.6,284.8,264.5,283.3,265.7z"/>
	</g>
	<g>
		<path class="st0" d="M47.9,215.1c19.9,0,35.9,15.9,35.9,35.8c0,20-16,35.9-36.2,35.9C28,286.8,11.9,270.6,12,251
			C12,231.1,27.9,215.1,47.9,215.1z M61.6,219.7c0,2.1-0.2,3.9,0,5.7c0.3,3.4,0.9,6.8,1.3,10.2c0.1,0.5-0.4,1-0.6,1.5
			c-0.4-0.3-0.9-0.5-1.2-0.9c-0.3-0.5-0.4-1.1-0.4-1.6c-0.4-4.8-0.7-9.6-1.1-14.4c0-0.5-0.3-1.3-0.6-1.5c-3.3-1.1-6.7-1.9-10.4-1.8
			c-0.2,2-0.6,4-0.5,5.9c0.3,5.9,0.8,11.7,1.2,17.6c0.1,1,0.3,1.6,1.4,1.8c0.4,0.1,0.7,0.7,1,1.1c-0.4,0.2-0.7,0.7-1.1,0.7
			c-4,0.2-7.4,1.6-10.1,4.7c-0.3,0.3-0.9,0.3-1.4,0.4c0-0.5-0.3-1.1-0.1-1.5c0.5-0.9,0.3-1.3-0.4-2c-2.3-2.3-4.4-4.9-6.8-7.1
			c-3.4-3.1-7-5.9-10.9-9.2c-1.7,3.1-3.1,5.7-4.6,8.3c-0.9,1.6-0.5,2.5,0.9,3.7c3.5,3.3,6.8,6.8,10.1,10.3c0.3,0.3,0.1,1.1,0.1,1.7
			c-0.5-0.2-1.2-0.3-1.6-0.7c-1.3-1.5-2.5-3.1-3.9-4.6c-2.2-2.2-4.5-4.2-6.8-6.2c-0.2,0.1-0.4,0.2-0.6,0.2c-0.3,3.1-0.6,6.1-0.8,9.2
			c0,0.5,0.4,1.2,0.8,1.4c5.9,3.7,12,6.9,18.6,9.1c0.4,0.1,1.1,0.2,1.5-0.1c1-0.7,1.5-0.3,1.8,0.7c0.3,1.1,0.6,2.3,1.1,3.3
			c3.1,5.3,3.6,11,2.4,16.9c-0.3,1.2,0.1,1.7,1.3,1.9c8.9,1.7,17.2,0.1,24.9-4.6c5.4-3.3,9.4-7.8,12.3-13.6c-1-0.6-1.9-1.2-2.9-1.8
			c-4-2.4-7.1-5.6-9.1-9.9c-0.7-1.6-1.6-3.1-2.4-4.7c-0.4-0.8-1.2-1.9,0.7-2.1c0.3,0,0.6-0.7,0.8-1.1c2.5-6.6,4-13.4,5-20.3
			c0.1-0.4,0-1.1-0.3-1.3C67.7,222.8,64.9,221.1,61.6,219.7z M22.6,228.1c3.3,2.7,6.5,5.3,9.7,8c3.2,2.7,6.3,5.6,9.4,8.4
			c0.8-0.3,2.2-1.3,3.7-1.6c1.9-0.4,2.2-1.3,1.9-3c-1.2-7.6-1.8-15.2-0.7-22.8C39.6,216.5,28.3,221.2,22.6,228.1z M72.4,227.4
			c-0.1,0.7-0.2,1.2-0.3,1.7c-1,6.1-2.3,12.2-4.6,18c-0.7,1.8-0.7,3.3,0,5.2c2.3,5.7,6.4,9.3,11.6,12
			C84.4,253.4,82.5,237.6,72.4,227.4z M14.2,255.1c0.6,11.9,11,25.2,23.4,28.2c2.1-6.5,0.5-12.6-2.7-18.3c-0.2-0.4-0.8-0.6-1.2-0.7
			c-3.6-1.5-7.2-2.8-10.7-4.4C20,258.4,17.1,256.7,14.2,255.1z"/>
		<path class="st0" d="M42.8,269.4c0.5-0.9,1-2.3,1.7-2.5c0.9-0.2,2.3,0.4,3,1.1c1.6,1.5,2.2,3.6,1.9,5.8c-0.3,2-1.8,2.7-3.5,1.5
			C44.1,273.9,43.3,271.9,42.8,269.4z"/>
		<path class="st0" d="M60.6,261c0.5-0.8,0.9-2.2,1.6-2.4c0.8-0.2,2.2,0.3,2.9,0.9c1.7,1.6,2.5,3.8,2,6.2c-0.4,1.8-1.9,2.4-3.4,1.2
			C61.8,265.6,61,263.5,60.6,261z"/>
	</g>
</g>
</svg>
