<?xml version="1.0" encoding="utf-8"?>
<!-- Generator: Adobe Illustrator 19.0.0, SVG Export Plug-In . SVG Version: 6.00 Build 0)  -->
<svg version="1.1" id="Layer_1" xmlns="http://www.w3.org/2000/svg" xmlns:xlink="http://www.w3.org/1999/xlink" x="0px" y="0px"
	 viewBox="217.4 64.9 1009.1 372.4" style="enable-background:new 217.4 64.9 1009.1 372.4;" xml:space="preserve">
<style type="text/css">
	.st0{fill:#FFFFFF;}
</style>
<g>
	<path class="st0" d="M236,189.7c0-33.5,0-67.1,0-100.6c0-3.8,0.5-7.4,3.8-9.9c5-3.7,11.9-1.6,14,4.2c0.8,2.1,0.7,4.2,0.7,6.3
		c0,63.4,0,126.8,0,190.2c0,60.9,46.4,115.3,106.8,124.8c43.4,6.8,81-5.3,112.6-35.6c12.5-12,21.9-26.4,28.4-42.6
		c1-2.5,2.1-3.6,4.9-3.4c4.1,0.3,8.3,0.3,12.4,0c3.3-0.2,3.4,0.8,2.4,3.5c-16.7,44.6-47.3,75.5-92.5,90.6
		c-78.6,26.4-162.7-17.4-187-96.6c-4.4-14.2-6.3-28.8-6.4-43.6C235.9,248,236,218.8,236,189.7"/>
	<path class="st0" d="M281.6,187.7c0,30.1,0,60.3,0,90.4c0,54,41.9,98.9,96.1,101.2c41.8,1.8,73.3-16.6,94.5-52.5
		c1.6-2.7,3.1-3.9,6.2-3.7c4,0.3,8,0.3,11.9,0c3.3-0.2,3.8,0.7,2.5,3.7c-8.8,19.1-21.4,35-38.3,47.6
		c-70.8,52.7-174.2,11.9-189.4-74.8c-1.3-7.3-1.9-14.6-1.9-22c0-62.8,0-125.6,0-188.4c0-2.3-0.2-4.6,1-6.7c1.9-3.6,5-5.5,9.1-5
		c4.1,0.5,7.2,2.8,7.9,7.1c0.3,1.8,0.4,3.7,0.4,5.5C281.6,122.6,281.6,155.2,281.6,187.7"/>
	<path class="st0" d="M464.2,323.2c-7.2,12.9-16.5,23.1-28.1,31.1c-56.2,38.3-131.7,7.1-144.4-59.8c-0.8-4.5-1.3-9-1.3-13.6
		c0-64.5,0-129.1,0-193.6c0-4.3,1.5-7.5,5.4-9.3c3.6-1.6,7-0.9,9.9,1.7c2.6,2.3,2.8,5.3,2.8,8.6c0,62.7-0.1,125.4,0,188
		c0,35.8,22.3,65.5,56.7,73.8c29.4,7.1,54.4-1.6,74.6-23.9c2-2.2,3.9-3.3,6.8-3.2C452.3,323.3,457.9,323.2,464.2,323.2"/>
	<path class="st0" d="M429.9,323.6c-11.4,12.3-25.5,18.7-42,20.1c-37.2,3.2-70.4-27.1-70.4-64.4c-0.1-63.7,0-127.4,0-191
		c0-6.8,3.5-11,9.2-10.9c5.6,0,9.1,4.2,9.1,11.1c0,63,0,125.9,0,188.9c0,29.4,24.9,52.1,53.4,47.7
		C402.8,322.8,416.2,323.9,429.9,323.6"/>
	<path class="st0" d="M344.4,155.5c0-5.7,0.1-11.3,0-16.8c-0.1-3.7,3.1-3,4.9-3.4c25.7-5.8,51.5-5.6,76.7,2.4
		c48.1,15.3,80,47.5,97.5,95.4c-6.6,0-12.6,0-18.6,0c-2,0-1.8-1.9-2.3-3.1c-14.6-34.6-39.4-58.9-74.6-72.3
		c-26.8-10.2-54.1-10.7-81.6-2.8C345.8,155.1,345.2,155.3,344.4,155.5"/>
	<path class="st0" d="M493.6,233.2c-5.3,0-10.6-0.2-15.8,0.1c-2.7,0.1-4-0.9-5.2-3.1c-11.7-21.5-28.9-37-51.6-46.1
		c-24.1-9.6-48.5-9.9-72.8-1c-3.5,1.3-4,0.5-3.8-2.8c0.2-4.2,0.2-8.5,0-12.8c-0.1-2.1,0.6-2.9,2.7-3.5
		c44.7-12.6,84.5-3.7,118.9,27.7c11.9,10.8,20.8,24,27.1,38.8C493.4,231.2,494.1,231.8,493.6,233.2"/>
	<path class="st0" d="M344.4,214.1c0-5.7,0.2-11.1-0.1-16.4c-0.2-2.9,0.8-4.3,3.5-5.3c33.9-12.6,65.2-8.2,93.9,13.9
		c9.3,7.2,16.5,16.2,22.7,27c-7.2,0-13.8,0-20.4,0c-1.4,0-2-0.7-2.7-1.7c-23-28.7-63.5-36.2-95.6-17.8
		C345.3,214,345.1,213.9,344.4,214.1"/>
	<path class="st0" d="M430.8,233.2c-11,0-21.4,0.1-31.7-0.1c-2.6,0-5.2-1.2-7.9-1.6c-18.9-2.9-34.2,3.8-46.8,18.9
		c0-8.5,0-16.4,0-24.2c0-1.4,1.1-1.8,2-2.5C371.1,205.8,410.2,210,430.8,233.2"/>
	<path class="st0" d="M1201.4,219.7c-3.3,0-5.9,2.6-5.9,5.9v13h-14.7v-13c0-3.3-2.6-5.9-5.9-5.9c-3.3,0-5.9,2.6-5.9,5.9v13h-15.6
		v-24.2c0-3.3-2.6-5.9-5.9-5.9s-5.9,2.6-5.9,5.9v24.2h-61.1l-14.2,18h135c3.3,0,6-2.7,6-6v-25.1
		C1207.3,222.4,1204.7,219.7,1201.4,219.7"/>
	<path class="st0" d="M752,219.7c-3.3,0-5.9,2.6-5.9,5.9v13h-17.9v-13c0-3.3-2.6-5.9-5.9-5.9s-5.9,2.6-5.9,5.9v13H711v-13
		c0-3.3-2.6-5.9-5.9-5.9s-5.9,2.6-5.9,5.9v13h-5.4v-13c0-3.3-2.6-5.9-5.9-5.9c-3.3,0-5.9,2.6-5.9,5.9v13h-45.6v-13
		c0-3.3-2.6-5.9-5.9-5.9c-3.3,0-5.9,2.6-5.9,5.9v25.2c0,3.2,2.6,5.8,5.8,5.8h58.1c2.3,0,4.2-1.5,4.8-3.5c0.4,2,2,3.5,4.1,3.5h54.4
		c3.3,0,6-2.7,6-6v-25.1C757.9,222.4,755.2,219.7,752,219.7"/>
	<path class="st0" d="M900.7,208.6c-3.3,0-5.9,2.6-5.9,5.9v42.2h11.8v-42.2C906.6,211.2,904,208.6,900.7,208.6"/>
	<path class="st0" d="M790.3,232h-10.1c-1.5,0-2.7-1.2-2.7-2.7c0-1.5,1.2-2.7,2.7-2.7h10.1c1.5,0,2.7,1.2,2.7,2.7
		C792.9,230.8,791.7,232,790.3,232 M885.2,208.6c-3.3,0-5.9,2.6-5.9,5.9v24.2h-16v-13c0-3.3-2.6-5.9-5.9-5.9s-5.9,2.6-5.9,5.9v13
		h-5.6v-13c0-3.3-2.6-5.9-5.9-5.9c-3.3,0-5.9,2.6-5.9,5.9v13h-5.6v-13c0-3.3-2.6-5.9-5.9-5.9c-3.3,0-5.9,2.6-5.9,5.9v13h-13.1v-13.9
		c0-2.8-2.3-5.1-5.1-5.1h-26.8c-2.8,0-5.1,2.3-5.1,5.1v9c0,2.4,2,4.4,4.4,4.4h22c1.8,0,3.3,1.5,3.3,3.3v0.1c0,1.8-1.5,3.3-3.3,3.3
		h-20.5c-2.8,0-5.1,2-5.7,4.6c-0.1,0.4-0.2,0.9-0.2,1.3c0,3.3,2.6,5.9,5.9,5.9h25.9c0,0,0,0,0,0c0,0,0,0,0,0c2.3,0,4.2-1.5,4.8-3.5
		c0.4,2,2,3.5,4.1,3.5h77.2c3.2,0,5.8-2.4,6.1-5.5c0.3-0.8,0.5-1.7,0.5-2.7v-34.1C891.1,211.2,888.4,208.6,885.2,208.6"/>
	<path class="st0" d="M941.4,237c0,1-0.8,1.7-1.7,1.7h-7.5c-0.9,0-1.7-0.8-1.7-1.7v-6.8c0-1,0.8-1.7,1.7-1.7h7.5
		c0.9,0,1.7,0.8,1.7,1.7V237z M944.7,218.2h-17.3c-4.9,0-8.8,3.9-8.8,8.8v20.9c0,4.9,3.9,8.8,8.8,8.8h17.3c4.9,0,8.8-3.9,8.8-8.8
		V227C953.5,222.1,949.5,218.2,944.7,218.2"/>
	<path class="st0" d="M1050.7,222.1v2.9h-8.6c-1.2,0-2.1-0.9-2.1-2.1v-0.8c0-1.2,0.9-2.1,2.1-2.1h8.6V222.1z M1036.2,211.3
		c-5.1,0-9.2,4.1-9.2,9.2v5.3c0,5.1,4.1,9.2,9.2,9.2h14.6v3.8h-55V226c0-2.9-2-5.7-4.9-6.1c-3.7-0.6-6.9,2.2-6.9,5.8v13h-15.5v-23.9
		c0-2.9-2-5.7-4.9-6.1c-3.7-0.6-6.9,2.2-6.9,5.8v42.2h95.8c3.3,0,6-2.7,6-6v-39.4h-7.6"/>
	<path class="st0" d="M1105.5,233.9h18.3c1.8,0,3.3-1.5,3.3-3.3s-1.5-3.3-3.3-3.3h-9.6v-2.6h9.6c1.8,0,3.3-1.5,3.3-3.3
		s-1.5-3.3-3.3-3.3h-13.2c-1.7,0-3.1,1.4-3.2,3.1h0v6h-1.8c-1.8,0-3.3,1.5-3.3,3.3S1103.7,233.9,1105.5,233.9"/>
	<path class="st0" d="M1199.4,259c-3.5,0-6.4,2.9-6.4,6.4s2.9,6.4,6.4,6.4s6.4-2.9,6.4-6.4S1203,259,1199.4,259"/>
	<path class="st0" d="M1174.9,215.6c3.5,0,6.4-2.9,6.4-6.4s-2.9-6.4-6.4-6.4s-6.4,2.9-6.4,6.4S1171.3,215.6,1174.9,215.6"/>
	<path class="st0" d="M1020.6,215.6c3.5,0,6.4-2.9,6.4-6.4s-2.9-6.4-6.4-6.4s-6.4,2.9-6.4,6.4S1017.1,215.6,1020.6,215.6"/>
	<path class="st0" d="M1006.8,215.6c3.5,0,6.4-2.9,6.4-6.4s-2.9-6.4-6.4-6.4s-6.4,2.9-6.4,6.4S1003.3,215.6,1006.8,215.6"/>
	<path class="st0" d="M942.9,215.6c3.5,0,6.4-2.9,6.4-6.4s-2.9-6.4-6.4-6.4s-6.4,2.9-6.4,6.4S939.3,215.6,942.9,215.6"/>
	<path class="st0" d="M929.1,215.6c3.5,0,6.4-2.9,6.4-6.4s-2.9-6.4-6.4-6.4c-3.5,0-6.4,2.9-6.4,6.4S925.6,215.6,929.1,215.6"/>
	<path class="st0" d="M747.1,259c-3.5,0-6.4,2.9-6.4,6.4s2.9,6.4,6.4,6.4s6.4-2.9,6.4-6.4S750.7,259,747.1,259"/>
	<path class="st0" d="M733.4,259c-3.5,0-6.4,2.9-6.4,6.4s2.9,6.4,6.4,6.4c3.5,0,6.4-2.9,6.4-6.4S736.9,259,733.4,259"/>
	<path class="st0" d="M989.9,215.6c3.5,0,6.4-2.9,6.4-6.4s-2.9-6.4-6.4-6.4s-6.4,2.9-6.4,6.4S986.3,215.6,989.9,215.6"/>
	<path class="st0" d="M695.4,304.7c0,3.1-2.5,5.7-5.7,5.7H686c-3.1,0-5.7-2.5-5.7-5.7v-26.4H669v32.9c0,5,4.1,9.1,9.1,9.1h19.4
		c5,0,9.1-4.1,9.1-9.1v-32.9h-11.3"/>
	<path class="st0" d="M653.2,278.3h-19.4c-5,0-9.1,4.1-9.1,9.1v7.1c0,1.8,0.5,3.4,1.4,4.8c1.6,2.6,4.5,4.3,7.7,4.3h2.5c0,0,0,0,0,0
		h14.2c0,0,0,0,0,0c2.2,0,4,1.8,4,4c0,2.2-1.8,4-4,4h-14.2c-2.1,0-3.8-1.7-4-3.8h-7.7v3.3c0,5,4.1,9.1,9.1,9.1h19.4
		c5,0,9.1-4.1,9.1-9.1v-7.1c0-1.8-0.5-3.4-1.4-4.8c-1.6-2.6-4.5-4.3-7.7-4.3h-17c-2.2,0-4-1.8-4-4c0-2.2,1.8-4,4-4h14.2
		c2.1,0,3.8,1.7,4,3.8h7.9v-3.3C662.3,282.4,658.2,278.3,653.2,278.3"/>
	<path class="st0" d="M713.4,282.2v38.1h34.2v-10.2h-24v-5.8h24v-10.2h-24v-5.8h24v-10.2h-34.2"/>
	<path class="st0" d="M754.3,288.5h21.4l-21.4,21.7v10.2h34.2v-10.2H768l20.5-21.7v-10.2h-34.2"/>
	<path class="st0" d="M924.8,300.7l-13.9-22.3h-10.2v42.1h10.2V300l13.9,20.3h10.2v-42.1h-10.2"/>
	<path class="st0" d="M993.6,278.3h-10.2v42.1h34.9v-10.2h-24.8"/>
	<path class="st0" d="M1154.4,300.7l-13.9-22.3h-10.2v42.1h10.2V300l13.9,20.3h10.2v-42.1h-10.2"/>
	<path class="st0" d="M841.9,278.3h-19.4c-5,0-9.1,4.1-9.1,9.1v23.8c0,5,4.1,9.1,9.1,9.1h19.4c5,0,9.1-4.1,9.1-9.1v-4h-7.7v0.5
		c0,2.4-2,4.4-4.4,4.4h-9.2c-2.4,0-4.4-2-4.4-4.4V291c0-2.4,2-4.4,4.4-4.4h9.2c2.4,0,4.4,2,4.4,4.4v-0.3h7.7v-3.3
		C851.1,282.4,847,278.3,841.9,278.3"/>
	<path class="st0" d="M882.5,302.8h-12.8v-10.8c0-2.5,2.1-4.6,4.6-4.6h3.6c2.5,0,4.6,2.1,4.6,4.6V302.8z M879.6,278.3h-7.1
		c-8.4,0-15.3,6.8-15.3,15.3v26.8h12.6V313h12.8v7.3h12.4v-26.8C894.9,285.2,888,278.3,879.6,278.3"/>
	<path class="st0" d="M965.7,302.8h-12.8v-10.8c0-2.5,2.1-4.6,4.6-4.6h3.6c2.5,0,4.6,2.1,4.6,4.6V302.8z M962.8,278.3h-7.1
		c-8.4,0-15.3,6.8-15.3,15.3v26.8h12.6V313h12.8v7.3h12.4v-26.8C978.1,285.2,971.2,278.3,962.8,278.3"/>
	<path class="st0" d="M1112.5,302.8h-12.8v-10.8c0-2.5,2.1-4.6,4.6-4.6h3.6c2.5,0,4.6,2.1,4.6,4.6V302.8z M1109.6,278.3h-7.1
		c-8.4,0-15.3,6.8-15.3,15.3v26.8h12.6V313h12.8v7.3h12.4v-26.8C1124.9,285.2,1118.1,278.3,1109.6,278.3"/>
	<path class="st0" d="M1065.7,295.2h-12.1V287h12.1c2.3,0,4.1,1.8,4.1,4.1S1067.9,295.2,1065.7,295.2 M1065.7,313.2h-12.1v-8.3h12.1
		c2.3,0,4.1,1.9,4.1,4.1S1067.9,313.2,1065.7,313.2 M1073.1,278.3h-35.9v42.1h35.9c4.7,0,8.4-3.8,8.4-8.4v-4.1
		c0-4.7-3.8-8.4-8.4-8.4c4.7,0,8.4-3.8,8.4-8.4v-4.1C1081.6,282.1,1077.8,278.3,1073.1,278.3"/>
	<path class="st0" d="M1194.7,299.3l11.4-10.8c2.4-2.2,2.5-6,0.2-8.3c-2.2-2.4-6-2.5-8.3-0.2l-11.9,11.3l-1.9,1.8v-14.7h-13.2v42.1
		h13.2v-14.7l1.9,1.8l11.9,11.3c2.4,2.2,6.1,2.1,8.3-0.2c2.2-2.4,2.1-6.1-0.2-8.3"/>
	<path class="st0" d="M595.9,254.6v-19.3l-27.9,10l-28.3-10L512,245l-28.2-9.6l-28,9.6l-28-9.6l-28.2,9.6l-28.3-9.6v19.3l27.9,9.3
		l28.3-9.7l28.3,9.7l27.8-9.3l28.6,9.3l27.4-9.7l28.1,9.7"/>
	<path class="st0" d="M595.9,282.5v-19.3l-27.9,10l-28.3-10l-27.8,9.6l-28.2-9.6l-28,9.6l-28-9.6l-28.2,9.6l-28.3-9.6v19.3l27.9,9.3
		l28.3-9.7l28.3,9.7l27.8-9.3l28.6,9.3l27.4-9.7l28.1,9.7"/>
	<path class="st0" d="M595.9,310.5v-19.3l-27.9,10l-28.3-10l-27.8,9.6l-28.2-9.6l-28,9.6l-28-9.6l-28.2,9.6l-28.3-9.6v19.3l27.9,9.3
		l28.3-9.7l28.3,9.7l27.8-9.3l28.6,9.3l27.4-9.7l28.1,9.7"/>
</g>
</svg>
