<?xml version="1.0" encoding="utf-8"?>
<!-- Generator: Adobe Illustrator 19.0.0, SVG Export Plug-In . SVG Version: 6.00 Build 0)  -->
<svg version="1.1" id="Layer_1" xmlns="http://www.w3.org/2000/svg" xmlns:xlink="http://www.w3.org/1999/xlink" x="0px" y="0px"
	 viewBox="-1 210 304 82" style="enable-background:new -1 210 304 82;" xml:space="preserve">
<style type="text/css">
	.st0{fill:#FFFFFF;}
</style>
<path class="st0" d="M5.7,219.6c20.9,0,41.7,0,62.6,0c0.8,0,1,0.2,1,1c0,7.2,0,14.4,0,21.6v1.3c0.6-0.8,1.1-1.4,1.6-1.9
	c3.5-3.8,8-5.1,13.1-5c8.1,0.3,13.5,5.2,14.5,13.2c0.1,1.1,0.2,2.1,0.2,3.2c0,9.3,0,18.5,0,27.8c0,0.8-0.2,1.1-1.1,1.1
	c-2.7-0.1-5.4-0.1-8.1,0c-0.9,0-1.2-0.2-1.2-1.1c0-8.9,0-17.7,0-26.6c0-1.8-0.3-3.6-1-5.2c-1.1-2.3-3-3.5-5.5-3.8
	c-8.5-1-12.6,6.1-12.6,11.6c0,8,0,16,0,24c0,0.9-0.2,1.2-1.2,1.2c-2.7-0.1-5.4-0.1-8.1,0c-1,0-1.1-0.3-1.1-1.2
	c0-16.8,0-33.5,0.1-50.2c0-1-0.3-1.2-1.2-1.2c-6.1,0-12.3,0-18.4,0c-0.8,0-1.1,0.2-1.1,1.1c0,16.8,0,33.6,0,50.3
	c0,0.9-0.2,1.3-1.2,1.2c-2.7-0.1-5.5,0-8.2,0c-1.5,0-1.4,0.2-1.4-1.3c0-14.6,0-29.1,0-43.7c0-2.2,0-4.4,0-6.5c0-0.8-0.2-1-1-1
	c-6.6,0-13.2,0-19.8,0c-0.4,0-0.8,0.1-1.1-0.2L5.7,219.6L5.7,219.6z"/>
<path class="st0" d="M184,242.7c0-0.3,0-0.7,0-1c0-7.1,0-14.1,0-21.2c0-0.8,0.2-1,1-1c2.8,0.1,5.5,0.1,8.3,0c0.8,0,1,0.2,1,1
	c0,14.9,0,29.8,0,44.8c0,5.1,0,10.1,0,15.2c0,0.8-0.4,1.2-1.3,1.2c-2.7,0-5.4,0-8.1,0c-0.7,0-0.9-0.2-0.9-0.9c0.1-1.5,0-3,0-4.9
	c-1.7,2.3-3.6,3.8-5.9,4.9c-7.6,3.6-17.7,1.9-23.3-6.7c-5.4-8.4-5.2-21.5,0.4-29.7c6.3-9.2,18.2-10,25.3-5
	C181.8,240.4,182.9,241.5,184,242.7L184,242.7z M184,259.3c0.1-3-0.5-6-2.2-8.8c-2.4-4-5.8-6-10.5-5.6c-4.4,0.4-7.1,3-8.8,6.9
	c-0.9,2-1.3,4.2-1.4,6.4c-0.2,3.5,0.3,7,1.9,10.2c3.6,7.3,13.3,7.9,17.9,1.6C183.2,266.7,184,263.3,184,259.3L184,259.3z"/>
<path class="st0" d="M105.8,267.3c0-4.2,0-8.3,0-12.5c0-2.5,0.4-5.1,1.2-7.5c1.7-4.9,5-8.3,10-9.9c5.6-1.8,11.3-1.9,17-0.1
	c6.6,2.1,10.1,7,11.1,13.7c0.3,2,0.4,4,0.4,6c0,7.9,0,15.7,0,23.6c0,0.9-0.3,1.1-1.1,1c-2.7,0-5.5,0-8.2,0c-0.9,0-1.1-0.2-1.1-1.1
	c0-8.3,0-16.5,0-24.7c0-1.3-0.1-2.6-0.4-3.9c-1-3.8-3.7-6.2-7.6-6.6c-1.7-0.2-3.3-0.1-4.9,0.5c-3.4,1.1-5.7,4.2-5.9,8.2
	c0,0.5,0,0.9,0,1.4c0,8.5,0,16.9,0,25.4c0,0.7-0.1,0.9-0.9,0.9c-2.9,0-5.7,0-8.6,0c-0.7,0-0.9-0.2-0.9-0.9
	C105.8,276.3,105.8,271.8,105.8,267.3L105.8,267.3z"/>
<path class="st0" d="M267.2,225.4c2.9,0,5.9,0,8.8,0c2,0,2.8,1.2,2.1,3.1c-0.6,1.7-1.3,3.4-1.9,5c-0.4,1.1-0.2,1.5,1,1.5
	c5.9,0,11.9,0,17.8,0c0.5,0,1.1-0.1,1.3,0.6c0.2,0.7-0.4,0.9-0.9,1.1c-11.6,5.4-23.3,10.7-34.9,16.1c-0.4,0.2-0.9,0.5-1.3,0.1
	c-0.5-0.4-0.2-0.9-0.1-1.3c0.7-1.9,1.5-3.9,2.2-5.8c0.4-1.1,0.1-1.5-1-1.5c-2.9,0-5.7,0-8.6,0c-1.2,0-1.4-0.3-1-1.4
	c2-5.5,4-10.9,6-16.4c0.3-0.8,0.7-1.1,1.6-1C261.2,225.4,264.2,225.4,267.2,225.4L267.2,225.4z"/>
<path class="st0" d="M227.7,281.7c-1.3,0-2.6-0.1-3.9,0c-0.9,0-1-0.2-0.7-1c1.9-5.2,3.8-10.3,5.7-15.5c5.4-14.9,10.9-29.8,16.3-44.7
	c0.3-0.9,0.8-1.1,1.6-1.1c2.6,0,5.1,0,7.7,0c0.8,0,0.9,0.2,0.6,0.9c-3.4,9.3-6.8,18.5-10.1,27.8c-4,10.9-8,21.8-11.9,32.6
	c-0.3,0.8-0.6,1-1.4,1C230.3,281.7,229,281.7,227.7,281.7L227.7,281.7z"/>
<path class="st0" d="M201.5,267c0-4.5-0.1-9,0-13.5c0.2-5.1,1.9-9.7,6-13.1c3.1-2.5,6.8-3.6,10.7-3.9c1.3-0.1,2.7-0.1,4-0.2
	c0.6,0,0.8,0.1,0.8,0.7c0,2.6,0,5.1,0,7.7c0,0.6-0.2,0.8-0.8,0.8c-1.5-0.1-2.9,0-4.3,0.5c-3.6,1.2-5.4,3.8-6,7.4
	c-0.2,1-0.2,2.1-0.2,3.2c0,8.1,0,16.1,0,24.2c0,0.9-0.2,1.1-1.1,1c-2.7-0.1-5.4-0.1-8.1,0c-0.9,0-1.1-0.2-1.1-1.1
	C201.5,276.1,201.5,271.5,201.5,267L201.5,267L201.5,267z"/>
</svg>
